<?xml version="1.0" encoding="utf-8"?>
<svg xmlns="http://www.w3.org/2000/svg" xmlns:xlink="http://www.w3.org/1999/xlink" width="600" height="400" viewBox="0 0 2400 1600">
<defs>
  <clipPath id="clip900">
    <rect x="0" y="0" width="2400" height="1600"/>
  </clipPath>
</defs>
<path clip-path="url(#clip900)" d="
M0 1600 L2400 1600 L2400 0 L0 0  Z
  " fill="#ffffff" fill-rule="evenodd" fill-opacity="1"/>
<defs>
  <clipPath id="clip901">
    <rect x="480" y="0" width="1681" height="1600"/>
  </clipPath>
</defs>
<path clip-path="url(#clip900)" d="
M232.389 1423.18 L2352.76 1423.18 L2352.76 123.472 L232.389 123.472  Z
  " fill="#ffffff" fill-rule="evenodd" fill-opacity="1"/>
<defs>
  <clipPath id="clip902">
    <rect x="232" y="123" width="2121" height="1301"/>
  </clipPath>
</defs>
<polyline clip-path="url(#clip902)" style="stroke:#000000; stroke-linecap:butt; stroke-linejoin:round; stroke-width:2; stroke-opacity:0.1; fill:none" points="
  292.4,1423.18 292.4,123.472 
  "/>
<polyline clip-path="url(#clip902)" style="stroke:#000000; stroke-linecap:butt; stroke-linejoin:round; stroke-width:2; stroke-opacity:0.1; fill:none" points="
  474.249,1423.18 474.249,123.472 
  "/>
<polyline clip-path="url(#clip902)" style="stroke:#000000; stroke-linecap:butt; stroke-linejoin:round; stroke-width:2; stroke-opacity:0.1; fill:none" points="
  656.099,1423.18 656.099,123.472 
  "/>
<polyline clip-path="url(#clip902)" style="stroke:#000000; stroke-linecap:butt; stroke-linejoin:round; stroke-width:2; stroke-opacity:0.1; fill:none" points="
  837.949,1423.18 837.949,123.472 
  "/>
<polyline clip-path="url(#clip902)" style="stroke:#000000; stroke-linecap:butt; stroke-linejoin:round; stroke-width:2; stroke-opacity:0.1; fill:none" points="
  1019.8,1423.18 1019.8,123.472 
  "/>
<polyline clip-path="url(#clip902)" style="stroke:#000000; stroke-linecap:butt; stroke-linejoin:round; stroke-width:2; stroke-opacity:0.1; fill:none" points="
  1201.65,1423.18 1201.65,123.472 
  "/>
<polyline clip-path="url(#clip902)" style="stroke:#000000; stroke-linecap:butt; stroke-linejoin:round; stroke-width:2; stroke-opacity:0.1; fill:none" points="
  1383.5,1423.18 1383.5,123.472 
  "/>
<polyline clip-path="url(#clip902)" style="stroke:#000000; stroke-linecap:butt; stroke-linejoin:round; stroke-width:2; stroke-opacity:0.1; fill:none" points="
  1565.35,1423.18 1565.35,123.472 
  "/>
<polyline clip-path="url(#clip902)" style="stroke:#000000; stroke-linecap:butt; stroke-linejoin:round; stroke-width:2; stroke-opacity:0.1; fill:none" points="
  1747.2,1423.18 1747.2,123.472 
  "/>
<polyline clip-path="url(#clip902)" style="stroke:#000000; stroke-linecap:butt; stroke-linejoin:round; stroke-width:2; stroke-opacity:0.1; fill:none" points="
  1929.05,1423.18 1929.05,123.472 
  "/>
<polyline clip-path="url(#clip902)" style="stroke:#000000; stroke-linecap:butt; stroke-linejoin:round; stroke-width:2; stroke-opacity:0.1; fill:none" points="
  2110.9,1423.18 2110.9,123.472 
  "/>
<polyline clip-path="url(#clip902)" style="stroke:#000000; stroke-linecap:butt; stroke-linejoin:round; stroke-width:2; stroke-opacity:0.1; fill:none" points="
  2292.75,1423.18 2292.75,123.472 
  "/>
<polyline clip-path="url(#clip900)" style="stroke:#000000; stroke-linecap:butt; stroke-linejoin:round; stroke-width:4; stroke-opacity:1; fill:none" points="
  232.389,1423.18 2352.76,1423.18 
  "/>
<polyline clip-path="url(#clip900)" style="stroke:#000000; stroke-linecap:butt; stroke-linejoin:round; stroke-width:4; stroke-opacity:1; fill:none" points="
  292.4,1423.18 292.4,1404.28 
  "/>
<polyline clip-path="url(#clip900)" style="stroke:#000000; stroke-linecap:butt; stroke-linejoin:round; stroke-width:4; stroke-opacity:1; fill:none" points="
  474.249,1423.18 474.249,1404.28 
  "/>
<polyline clip-path="url(#clip900)" style="stroke:#000000; stroke-linecap:butt; stroke-linejoin:round; stroke-width:4; stroke-opacity:1; fill:none" points="
  656.099,1423.18 656.099,1404.28 
  "/>
<polyline clip-path="url(#clip900)" style="stroke:#000000; stroke-linecap:butt; stroke-linejoin:round; stroke-width:4; stroke-opacity:1; fill:none" points="
  837.949,1423.18 837.949,1404.28 
  "/>
<polyline clip-path="url(#clip900)" style="stroke:#000000; stroke-linecap:butt; stroke-linejoin:round; stroke-width:4; stroke-opacity:1; fill:none" points="
  1019.8,1423.18 1019.8,1404.28 
  "/>
<polyline clip-path="url(#clip900)" style="stroke:#000000; stroke-linecap:butt; stroke-linejoin:round; stroke-width:4; stroke-opacity:1; fill:none" points="
  1201.65,1423.18 1201.65,1404.28 
  "/>
<polyline clip-path="url(#clip900)" style="stroke:#000000; stroke-linecap:butt; stroke-linejoin:round; stroke-width:4; stroke-opacity:1; fill:none" points="
  1383.5,1423.18 1383.5,1404.28 
  "/>
<polyline clip-path="url(#clip900)" style="stroke:#000000; stroke-linecap:butt; stroke-linejoin:round; stroke-width:4; stroke-opacity:1; fill:none" points="
  1565.35,1423.18 1565.35,1404.28 
  "/>
<polyline clip-path="url(#clip900)" style="stroke:#000000; stroke-linecap:butt; stroke-linejoin:round; stroke-width:4; stroke-opacity:1; fill:none" points="
  1747.2,1423.18 1747.2,1404.28 
  "/>
<polyline clip-path="url(#clip900)" style="stroke:#000000; stroke-linecap:butt; stroke-linejoin:round; stroke-width:4; stroke-opacity:1; fill:none" points="
  1929.05,1423.18 1929.05,1404.28 
  "/>
<polyline clip-path="url(#clip900)" style="stroke:#000000; stroke-linecap:butt; stroke-linejoin:round; stroke-width:4; stroke-opacity:1; fill:none" points="
  2110.9,1423.18 2110.9,1404.28 
  "/>
<polyline clip-path="url(#clip900)" style="stroke:#000000; stroke-linecap:butt; stroke-linejoin:round; stroke-width:4; stroke-opacity:1; fill:none" points="
  2292.75,1423.18 2292.75,1404.28 
  "/>
<path clip-path="url(#clip900)" d="M282.782 1481.64 L290.421 1481.64 L290.421 1455.28 L282.11 1456.95 L282.11 1452.69 L290.374 1451.02 L295.05 1451.02 L295.05 1481.64 L302.689 1481.64 L302.689 1485.58 L282.782 1485.58 L282.782 1481.64 Z" fill="#000000" fill-rule="evenodd" fill-opacity="1" /><path clip-path="url(#clip900)" d="M468.902 1481.64 L485.222 1481.64 L485.222 1485.58 L463.277 1485.58 L463.277 1481.64 Q465.939 1478.89 470.523 1474.26 Q475.129 1469.61 476.31 1468.27 Q478.555 1465.74 479.434 1464.01 Q480.337 1462.25 480.337 1460.56 Q480.337 1457.8 478.393 1456.07 Q476.472 1454.33 473.37 1454.33 Q471.171 1454.33 468.717 1455.09 Q466.286 1455.86 463.509 1457.41 L463.509 1452.69 Q466.333 1451.55 468.786 1450.97 Q471.24 1450.39 473.277 1450.39 Q478.647 1450.39 481.842 1453.08 Q485.036 1455.77 485.036 1460.26 Q485.036 1462.39 484.226 1464.31 Q483.439 1466.2 481.333 1468.8 Q480.754 1469.47 477.652 1472.69 Q474.55 1475.88 468.902 1481.64 Z" fill="#000000" fill-rule="evenodd" fill-opacity="1" /><path clip-path="url(#clip900)" d="M660.347 1466.95 Q663.703 1467.66 665.578 1469.93 Q667.476 1472.2 667.476 1475.53 Q667.476 1480.65 663.958 1483.45 Q660.439 1486.25 653.958 1486.25 Q651.782 1486.25 649.467 1485.81 Q647.175 1485.39 644.722 1484.54 L644.722 1480.02 Q646.666 1481.16 648.981 1481.74 Q651.296 1482.32 653.819 1482.32 Q658.217 1482.32 660.509 1480.58 Q662.823 1478.84 662.823 1475.53 Q662.823 1472.48 660.671 1470.77 Q658.541 1469.03 654.722 1469.03 L650.694 1469.03 L650.694 1465.19 L654.907 1465.19 Q658.356 1465.19 660.185 1463.82 Q662.013 1462.43 662.013 1459.84 Q662.013 1457.18 660.115 1455.77 Q658.24 1454.33 654.722 1454.33 Q652.8 1454.33 650.601 1454.75 Q648.402 1455.16 645.763 1456.04 L645.763 1451.88 Q648.425 1451.14 650.74 1450.77 Q653.078 1450.39 655.138 1450.39 Q660.462 1450.39 663.564 1452.83 Q666.666 1455.23 666.666 1459.35 Q666.666 1462.22 665.023 1464.21 Q663.379 1466.18 660.347 1466.95 Z" fill="#000000" fill-rule="evenodd" fill-opacity="1" /><path clip-path="url(#clip900)" d="M840.958 1455.09 L829.152 1473.54 L840.958 1473.54 L840.958 1455.09 M839.731 1451.02 L845.611 1451.02 L845.611 1473.54 L850.541 1473.54 L850.541 1477.43 L845.611 1477.43 L845.611 1485.58 L840.958 1485.58 L840.958 1477.43 L825.356 1477.43 L825.356 1472.92 L839.731 1451.02 Z" fill="#000000" fill-rule="evenodd" fill-opacity="1" /><path clip-path="url(#clip900)" d="M1010.08 1451.02 L1028.43 1451.02 L1028.43 1454.96 L1014.36 1454.96 L1014.36 1463.43 Q1015.38 1463.08 1016.4 1462.92 Q1017.41 1462.73 1018.43 1462.73 Q1024.22 1462.73 1027.6 1465.9 Q1030.98 1469.08 1030.98 1474.49 Q1030.98 1480.07 1027.51 1483.17 Q1024.03 1486.25 1017.71 1486.25 Q1015.54 1486.25 1013.27 1485.88 Q1011.03 1485.51 1008.62 1484.77 L1008.62 1480.07 Q1010.7 1481.2 1012.92 1481.76 Q1015.15 1482.32 1017.62 1482.32 Q1021.63 1482.32 1023.96 1480.21 Q1026.3 1478.1 1026.3 1474.49 Q1026.3 1470.88 1023.96 1468.77 Q1021.63 1466.67 1017.62 1466.67 Q1015.75 1466.67 1013.87 1467.08 Q1012.02 1467.5 1010.08 1468.38 L1010.08 1451.02 Z" fill="#000000" fill-rule="evenodd" fill-opacity="1" /><path clip-path="url(#clip900)" d="M1202.05 1466.44 Q1198.9 1466.44 1197.05 1468.59 Q1195.22 1470.74 1195.22 1474.49 Q1195.22 1478.22 1197.05 1480.39 Q1198.9 1482.55 1202.05 1482.55 Q1205.2 1482.55 1207.03 1480.39 Q1208.88 1478.22 1208.88 1474.49 Q1208.88 1470.74 1207.03 1468.59 Q1205.2 1466.44 1202.05 1466.44 M1211.34 1451.78 L1211.34 1456.04 Q1209.58 1455.21 1207.77 1454.77 Q1205.99 1454.33 1204.23 1454.33 Q1199.6 1454.33 1197.15 1457.45 Q1194.71 1460.58 1194.37 1466.9 Q1195.73 1464.89 1197.79 1463.82 Q1199.85 1462.73 1202.33 1462.73 Q1207.54 1462.73 1210.55 1465.9 Q1213.58 1469.05 1213.58 1474.49 Q1213.58 1479.82 1210.43 1483.03 Q1207.28 1486.25 1202.05 1486.25 Q1196.06 1486.25 1192.89 1481.67 Q1189.72 1477.06 1189.72 1468.33 Q1189.72 1460.14 1193.6 1455.28 Q1197.49 1450.39 1204.04 1450.39 Q1205.8 1450.39 1207.59 1450.74 Q1209.39 1451.09 1211.34 1451.78 Z" fill="#000000" fill-rule="evenodd" fill-opacity="1" /><path clip-path="url(#clip900)" d="M1372.39 1451.02 L1394.61 1451.02 L1394.61 1453.01 L1382.06 1485.58 L1377.18 1485.58 L1388.98 1454.96 L1372.39 1454.96 L1372.39 1451.02 Z" fill="#000000" fill-rule="evenodd" fill-opacity="1" /><path clip-path="url(#clip900)" d="M1565.35 1469.17 Q1562.01 1469.17 1560.09 1470.95 Q1558.19 1472.73 1558.19 1475.86 Q1558.19 1478.98 1560.09 1480.77 Q1562.01 1482.55 1565.35 1482.55 Q1568.68 1482.55 1570.6 1480.77 Q1572.52 1478.96 1572.52 1475.86 Q1572.52 1472.73 1570.6 1470.95 Q1568.7 1469.17 1565.35 1469.17 M1560.67 1467.18 Q1557.66 1466.44 1555.97 1464.38 Q1554.31 1462.32 1554.31 1459.35 Q1554.31 1455.21 1557.25 1452.8 Q1560.21 1450.39 1565.35 1450.39 Q1570.51 1450.39 1573.45 1452.8 Q1576.39 1455.21 1576.39 1459.35 Q1576.39 1462.32 1574.7 1464.38 Q1573.03 1466.44 1570.05 1467.18 Q1573.43 1467.96 1575.3 1470.26 Q1577.2 1472.55 1577.2 1475.86 Q1577.2 1480.88 1574.12 1483.57 Q1571.06 1486.25 1565.35 1486.25 Q1559.63 1486.25 1556.55 1483.57 Q1553.5 1480.88 1553.5 1475.86 Q1553.5 1472.55 1555.39 1470.26 Q1557.29 1467.96 1560.67 1467.18 M1558.96 1459.79 Q1558.96 1462.48 1560.62 1463.98 Q1562.31 1465.49 1565.35 1465.49 Q1568.36 1465.49 1570.05 1463.98 Q1571.76 1462.48 1571.76 1459.79 Q1571.76 1457.11 1570.05 1455.6 Q1568.36 1454.1 1565.35 1454.1 Q1562.31 1454.1 1560.62 1455.6 Q1558.96 1457.11 1558.96 1459.79 Z" fill="#000000" fill-rule="evenodd" fill-opacity="1" /><path clip-path="url(#clip900)" d="M1737.5 1484.86 L1737.5 1480.6 Q1739.26 1481.44 1741.06 1481.88 Q1742.87 1482.32 1744.6 1482.32 Q1749.23 1482.32 1751.66 1479.21 Q1754.12 1476.09 1754.47 1469.75 Q1753.12 1471.74 1751.06 1472.8 Q1749 1473.87 1746.5 1473.87 Q1741.32 1473.87 1738.28 1470.74 Q1735.28 1467.59 1735.28 1462.15 Q1735.28 1456.83 1738.42 1453.61 Q1741.57 1450.39 1746.8 1450.39 Q1752.8 1450.39 1755.95 1455 Q1759.12 1459.58 1759.12 1468.33 Q1759.12 1476.51 1755.23 1481.39 Q1751.36 1486.25 1744.81 1486.25 Q1743.05 1486.25 1741.25 1485.9 Q1739.44 1485.56 1737.5 1484.86 M1746.8 1470.21 Q1749.95 1470.21 1751.78 1468.06 Q1753.63 1465.9 1753.63 1462.15 Q1753.63 1458.43 1751.78 1456.27 Q1749.95 1454.1 1746.8 1454.1 Q1743.66 1454.1 1741.8 1456.27 Q1739.97 1458.43 1739.97 1462.15 Q1739.97 1465.9 1741.8 1468.06 Q1743.66 1470.21 1746.8 1470.21 Z" fill="#000000" fill-rule="evenodd" fill-opacity="1" /><path clip-path="url(#clip900)" d="M1903.73 1481.64 L1911.37 1481.64 L1911.37 1455.28 L1903.06 1456.95 L1903.06 1452.69 L1911.33 1451.02 L1916 1451.02 L1916 1481.64 L1923.64 1481.64 L1923.64 1485.58 L1903.73 1485.58 L1903.73 1481.64 Z" fill="#000000" fill-rule="evenodd" fill-opacity="1" /><path clip-path="url(#clip900)" d="M1943.09 1454.1 Q1939.47 1454.1 1937.65 1457.66 Q1935.84 1461.2 1935.84 1468.33 Q1935.84 1475.44 1937.65 1479.01 Q1939.47 1482.55 1943.09 1482.55 Q1946.72 1482.55 1948.53 1479.01 Q1950.35 1475.44 1950.35 1468.33 Q1950.35 1461.2 1948.53 1457.66 Q1946.72 1454.1 1943.09 1454.1 M1943.09 1450.39 Q1948.9 1450.39 1951.95 1455 Q1955.03 1459.58 1955.03 1468.33 Q1955.03 1477.06 1951.95 1481.67 Q1948.9 1486.25 1943.09 1486.25 Q1937.28 1486.25 1934.2 1481.67 Q1931.14 1477.06 1931.14 1468.33 Q1931.14 1459.58 1934.2 1455 Q1937.28 1450.39 1943.09 1450.39 Z" fill="#000000" fill-rule="evenodd" fill-opacity="1" /><path clip-path="url(#clip900)" d="M2086.2 1481.64 L2093.84 1481.64 L2093.84 1455.28 L2085.53 1456.95 L2085.53 1452.69 L2093.79 1451.02 L2098.47 1451.02 L2098.47 1481.64 L2106.1 1481.64 L2106.1 1485.58 L2086.2 1485.58 L2086.2 1481.64 Z" fill="#000000" fill-rule="evenodd" fill-opacity="1" /><path clip-path="url(#clip900)" d="M2116.36 1481.64 L2124 1481.64 L2124 1455.28 L2115.69 1456.95 L2115.69 1452.69 L2123.95 1451.02 L2128.63 1451.02 L2128.63 1481.64 L2136.27 1481.64 L2136.27 1485.58 L2116.36 1485.58 L2116.36 1481.64 Z" fill="#000000" fill-rule="evenodd" fill-opacity="1" /><path clip-path="url(#clip900)" d="M2268.23 1481.64 L2275.87 1481.64 L2275.87 1455.28 L2267.56 1456.95 L2267.56 1452.69 L2275.82 1451.02 L2280.5 1451.02 L2280.5 1481.64 L2288.14 1481.64 L2288.14 1485.58 L2268.23 1485.58 L2268.23 1481.64 Z" fill="#000000" fill-rule="evenodd" fill-opacity="1" /><path clip-path="url(#clip900)" d="M2301.61 1481.64 L2317.93 1481.64 L2317.93 1485.58 L2295.99 1485.58 L2295.99 1481.64 Q2298.65 1478.89 2303.23 1474.26 Q2307.84 1469.61 2309.02 1468.27 Q2311.26 1465.74 2312.14 1464.01 Q2313.05 1462.25 2313.05 1460.56 Q2313.05 1457.8 2311.1 1456.07 Q2309.18 1454.33 2306.08 1454.33 Q2303.88 1454.33 2301.43 1455.09 Q2299 1455.86 2296.22 1457.41 L2296.22 1452.69 Q2299.04 1451.55 2301.5 1450.97 Q2303.95 1450.39 2305.99 1450.39 Q2311.36 1450.39 2314.55 1453.08 Q2317.75 1455.77 2317.75 1460.26 Q2317.75 1462.39 2316.94 1464.31 Q2316.15 1466.2 2314.04 1468.8 Q2313.46 1469.47 2310.36 1472.69 Q2307.26 1475.88 2301.61 1481.64 Z" fill="#000000" fill-rule="evenodd" fill-opacity="1" /><path clip-path="url(#clip900)" d="M1163.13 1520.52 L1203.33 1520.52 L1203.33 1525.93 L1186.46 1525.93 L1186.46 1568.04 L1180 1568.04 L1180 1525.93 L1163.13 1525.93 L1163.13 1520.52 Z" fill="#000000" fill-rule="evenodd" fill-opacity="1" /><path clip-path="url(#clip900)" d="M1238.91 1546.53 L1238.91 1568.04 L1233.05 1568.04 L1233.05 1546.72 Q1233.05 1541.66 1231.08 1539.14 Q1229.11 1536.63 1225.16 1536.63 Q1220.42 1536.63 1217.68 1539.65 Q1214.94 1542.68 1214.94 1547.9 L1214.94 1568.04 L1209.05 1568.04 L1209.05 1518.52 L1214.94 1518.52 L1214.94 1537.93 Q1217.04 1534.72 1219.88 1533.13 Q1222.74 1531.54 1226.46 1531.54 Q1232.61 1531.54 1235.76 1535.36 Q1238.91 1539.14 1238.91 1546.53 Z" fill="#000000" fill-rule="evenodd" fill-opacity="1" /><path clip-path="url(#clip900)" d="M1271.25 1537.87 Q1270.26 1537.3 1269.08 1537.04 Q1267.94 1536.76 1266.54 1536.76 Q1261.57 1536.76 1258.9 1540 Q1256.26 1543.22 1256.26 1549.27 L1256.26 1568.04 L1250.37 1568.04 L1250.37 1532.4 L1256.26 1532.4 L1256.26 1537.93 Q1258.1 1534.69 1261.06 1533.13 Q1264.02 1531.54 1268.26 1531.54 Q1268.86 1531.54 1269.59 1531.63 Q1270.32 1531.7 1271.22 1531.85 L1271.25 1537.87 Z" fill="#000000" fill-rule="evenodd" fill-opacity="1" /><path clip-path="url(#clip900)" d="M1306.45 1548.76 L1306.45 1551.62 L1279.52 1551.62 Q1279.9 1557.67 1283.15 1560.85 Q1286.43 1564 1292.25 1564 Q1295.63 1564 1298.78 1563.17 Q1301.96 1562.35 1305.08 1560.69 L1305.08 1566.23 Q1301.93 1567.57 1298.62 1568.27 Q1295.31 1568.97 1291.9 1568.97 Q1283.37 1568.97 1278.38 1564 Q1273.41 1559.04 1273.41 1550.57 Q1273.41 1541.82 1278.12 1536.69 Q1282.86 1531.54 1290.89 1531.54 Q1298.08 1531.54 1302.25 1536.18 Q1306.45 1540.8 1306.45 1548.76 M1300.59 1547.04 Q1300.53 1542.23 1297.89 1539.37 Q1295.28 1536.5 1290.95 1536.5 Q1286.05 1536.5 1283.09 1539.27 Q1280.16 1542.04 1279.71 1547.07 L1300.59 1547.04 Z" fill="#000000" fill-rule="evenodd" fill-opacity="1" /><path clip-path="url(#clip900)" d="M1332.26 1550.12 Q1325.17 1550.12 1322.43 1551.75 Q1319.69 1553.37 1319.69 1557.29 Q1319.69 1560.4 1321.73 1562.25 Q1323.8 1564.07 1327.33 1564.07 Q1332.2 1564.07 1335.13 1560.63 Q1338.09 1557.16 1338.09 1551.43 L1338.09 1550.12 L1332.26 1550.12 M1343.94 1547.71 L1343.94 1568.04 L1338.09 1568.04 L1338.09 1562.63 Q1336.08 1565.88 1333.09 1567.44 Q1330.1 1568.97 1325.77 1568.97 Q1320.3 1568.97 1317.05 1565.91 Q1313.83 1562.82 1313.83 1557.67 Q1313.83 1551.65 1317.84 1548.6 Q1321.89 1545.54 1329.88 1545.54 L1338.09 1545.54 L1338.09 1544.97 Q1338.09 1540.93 1335.41 1538.73 Q1332.77 1536.5 1327.97 1536.5 Q1324.91 1536.5 1322.01 1537.23 Q1319.12 1537.97 1316.44 1539.43 L1316.44 1534.02 Q1319.66 1532.78 1322.68 1532.17 Q1325.71 1531.54 1328.57 1531.54 Q1336.31 1531.54 1340.12 1535.55 Q1343.94 1539.56 1343.94 1547.71 Z" fill="#000000" fill-rule="evenodd" fill-opacity="1" /><path clip-path="url(#clip900)" d="M1379.46 1537.81 L1379.46 1518.52 L1385.32 1518.52 L1385.32 1568.04 L1379.46 1568.04 L1379.46 1562.7 Q1377.62 1565.88 1374.79 1567.44 Q1371.98 1568.97 1368.04 1568.97 Q1361.58 1568.97 1357.5 1563.81 Q1353.46 1558.65 1353.46 1550.25 Q1353.46 1541.85 1357.5 1536.69 Q1361.58 1531.54 1368.04 1531.54 Q1371.98 1531.54 1374.79 1533.1 Q1377.62 1534.62 1379.46 1537.81 M1359.51 1550.25 Q1359.51 1556.71 1362.15 1560.4 Q1364.82 1564.07 1369.47 1564.07 Q1374.12 1564.07 1376.79 1560.4 Q1379.46 1556.71 1379.46 1550.25 Q1379.46 1543.79 1376.79 1540.13 Q1374.12 1536.44 1369.47 1536.44 Q1364.82 1536.44 1362.15 1540.13 Q1359.51 1543.79 1359.51 1550.25 Z" fill="#000000" fill-rule="evenodd" fill-opacity="1" /><path clip-path="url(#clip900)" d="M1420.11 1533.45 L1420.11 1538.98 Q1417.63 1537.71 1414.95 1537.07 Q1412.28 1536.44 1409.42 1536.44 Q1405.05 1536.44 1402.86 1537.77 Q1400.69 1539.11 1400.69 1541.79 Q1400.69 1543.82 1402.25 1545 Q1403.81 1546.15 1408.52 1547.2 L1410.53 1547.64 Q1416.77 1548.98 1419.38 1551.43 Q1422.02 1553.85 1422.02 1558.21 Q1422.02 1563.17 1418.07 1566.07 Q1414.16 1568.97 1407.28 1568.97 Q1404.42 1568.97 1401.3 1568.39 Q1398.21 1567.85 1394.77 1566.74 L1394.77 1560.69 Q1398.02 1562.38 1401.17 1563.24 Q1404.32 1564.07 1407.41 1564.07 Q1411.55 1564.07 1413.78 1562.66 Q1416 1561.23 1416 1558.65 Q1416 1556.27 1414.38 1554.99 Q1412.79 1553.72 1407.35 1552.54 L1405.31 1552.07 Q1399.87 1550.92 1397.45 1548.56 Q1395.03 1546.18 1395.03 1542.04 Q1395.03 1537.01 1398.59 1534.27 Q1402.16 1531.54 1408.71 1531.54 Q1411.96 1531.54 1414.83 1532.01 Q1417.69 1532.49 1420.11 1533.45 Z" fill="#000000" fill-rule="evenodd" fill-opacity="1" /><polyline clip-path="url(#clip902)" style="stroke:#000000; stroke-linecap:butt; stroke-linejoin:round; stroke-width:2; stroke-opacity:0.1; fill:none" points="
  232.389,1245.12 2352.76,1245.12 
  "/>
<polyline clip-path="url(#clip902)" style="stroke:#000000; stroke-linecap:butt; stroke-linejoin:round; stroke-width:2; stroke-opacity:0.1; fill:none" points="
  232.389,992.37 2352.76,992.37 
  "/>
<polyline clip-path="url(#clip902)" style="stroke:#000000; stroke-linecap:butt; stroke-linejoin:round; stroke-width:2; stroke-opacity:0.1; fill:none" points="
  232.389,739.624 2352.76,739.624 
  "/>
<polyline clip-path="url(#clip902)" style="stroke:#000000; stroke-linecap:butt; stroke-linejoin:round; stroke-width:2; stroke-opacity:0.1; fill:none" points="
  232.389,486.878 2352.76,486.878 
  "/>
<polyline clip-path="url(#clip902)" style="stroke:#000000; stroke-linecap:butt; stroke-linejoin:round; stroke-width:2; stroke-opacity:0.1; fill:none" points="
  232.389,234.131 2352.76,234.131 
  "/>
<polyline clip-path="url(#clip900)" style="stroke:#000000; stroke-linecap:butt; stroke-linejoin:round; stroke-width:4; stroke-opacity:1; fill:none" points="
  232.389,1423.18 232.389,123.472 
  "/>
<polyline clip-path="url(#clip900)" style="stroke:#000000; stroke-linecap:butt; stroke-linejoin:round; stroke-width:4; stroke-opacity:1; fill:none" points="
  232.389,1245.12 251.287,1245.12 
  "/>
<polyline clip-path="url(#clip900)" style="stroke:#000000; stroke-linecap:butt; stroke-linejoin:round; stroke-width:4; stroke-opacity:1; fill:none" points="
  232.389,992.37 251.287,992.37 
  "/>
<polyline clip-path="url(#clip900)" style="stroke:#000000; stroke-linecap:butt; stroke-linejoin:round; stroke-width:4; stroke-opacity:1; fill:none" points="
  232.389,739.624 251.287,739.624 
  "/>
<polyline clip-path="url(#clip900)" style="stroke:#000000; stroke-linecap:butt; stroke-linejoin:round; stroke-width:4; stroke-opacity:1; fill:none" points="
  232.389,486.878 251.287,486.878 
  "/>
<polyline clip-path="url(#clip900)" style="stroke:#000000; stroke-linecap:butt; stroke-linejoin:round; stroke-width:4; stroke-opacity:1; fill:none" points="
  232.389,234.131 251.287,234.131 
  "/>
<path clip-path="url(#clip900)" d="M149.306 1258.46 L165.626 1258.46 L165.626 1262.4 L143.681 1262.4 L143.681 1258.46 Q146.343 1255.71 150.927 1251.08 Q155.533 1246.42 156.714 1245.08 Q158.959 1242.56 159.839 1240.82 Q160.741 1239.06 160.741 1237.37 Q160.741 1234.62 158.797 1232.88 Q156.876 1231.15 153.774 1231.15 Q151.575 1231.15 149.121 1231.91 Q146.691 1232.67 143.913 1234.23 L143.913 1229.5 Q146.737 1228.37 149.191 1227.79 Q151.644 1227.21 153.681 1227.21 Q159.052 1227.21 162.246 1229.9 Q165.44 1232.58 165.44 1237.07 Q165.44 1239.2 164.63 1241.12 Q163.843 1243.02 161.737 1245.61 Q161.158 1246.29 158.056 1249.5 Q154.954 1252.7 149.306 1258.46 Z" fill="#000000" fill-rule="evenodd" fill-opacity="1" /><path clip-path="url(#clip900)" d="M175.487 1227.84 L193.843 1227.84 L193.843 1231.77 L179.769 1231.77 L179.769 1240.24 Q180.788 1239.9 181.806 1239.73 Q182.825 1239.55 183.843 1239.55 Q189.63 1239.55 193.01 1242.72 Q196.389 1245.89 196.389 1251.31 Q196.389 1256.89 192.917 1259.99 Q189.445 1263.07 183.126 1263.07 Q180.95 1263.07 178.681 1262.7 Q176.436 1262.33 174.028 1261.59 L174.028 1256.89 Q176.112 1258.02 178.334 1258.58 Q180.556 1259.13 183.033 1259.13 Q187.038 1259.13 189.375 1257.03 Q191.713 1254.92 191.713 1251.31 Q191.713 1247.7 189.375 1245.59 Q187.038 1243.48 183.033 1243.48 Q181.158 1243.48 179.283 1243.9 Q177.431 1244.32 175.487 1245.2 L175.487 1227.84 Z" fill="#000000" fill-rule="evenodd" fill-opacity="1" /><path clip-path="url(#clip900)" d="M144.329 975.09 L162.686 975.09 L162.686 979.025 L148.612 979.025 L148.612 987.498 Q149.63 987.15 150.649 986.988 Q151.667 986.803 152.686 986.803 Q158.473 986.803 161.852 989.974 Q165.232 993.146 165.232 998.562 Q165.232 1004.14 161.76 1007.24 Q158.288 1010.32 151.968 1010.32 Q149.792 1010.32 147.524 1009.95 Q145.279 1009.58 142.871 1008.84 L142.871 1004.14 Q144.954 1005.28 147.177 1005.83 Q149.399 1006.39 151.876 1006.39 Q155.88 1006.39 158.218 1004.28 Q160.556 1002.17 160.556 998.562 Q160.556 994.951 158.218 992.845 Q155.88 990.738 151.876 990.738 Q150.001 990.738 148.126 991.155 Q146.274 991.572 144.329 992.451 L144.329 975.09 Z" fill="#000000" fill-rule="evenodd" fill-opacity="1" /><path clip-path="url(#clip900)" d="M184.445 978.169 Q180.834 978.169 179.005 981.734 Q177.2 985.275 177.2 992.405 Q177.2 999.511 179.005 1003.08 Q180.834 1006.62 184.445 1006.62 Q188.079 1006.62 189.885 1003.08 Q191.713 999.511 191.713 992.405 Q191.713 985.275 189.885 981.734 Q188.079 978.169 184.445 978.169 M184.445 974.465 Q190.255 974.465 193.311 979.072 Q196.389 983.655 196.389 992.405 Q196.389 1001.13 193.311 1005.74 Q190.255 1010.32 184.445 1010.32 Q178.635 1010.32 175.556 1005.74 Q172.501 1001.13 172.501 992.405 Q172.501 983.655 175.556 979.072 Q178.635 974.465 184.445 974.465 Z" fill="#000000" fill-rule="evenodd" fill-opacity="1" /><path clip-path="url(#clip900)" d="M144.098 722.344 L166.32 722.344 L166.32 724.335 L153.774 756.904 L148.89 756.904 L160.695 726.279 L144.098 726.279 L144.098 722.344 Z" fill="#000000" fill-rule="evenodd" fill-opacity="1" /><path clip-path="url(#clip900)" d="M175.487 722.344 L193.843 722.344 L193.843 726.279 L179.769 726.279 L179.769 734.751 Q180.788 734.404 181.806 734.242 Q182.825 734.057 183.843 734.057 Q189.63 734.057 193.01 737.228 Q196.389 740.399 196.389 745.816 Q196.389 751.395 192.917 754.496 Q189.445 757.575 183.126 757.575 Q180.95 757.575 178.681 757.205 Q176.436 756.834 174.028 756.094 L174.028 751.395 Q176.112 752.529 178.334 753.084 Q180.556 753.64 183.033 753.64 Q187.038 753.64 189.375 751.534 Q191.713 749.427 191.713 745.816 Q191.713 742.205 189.375 740.098 Q187.038 737.992 183.033 737.992 Q181.158 737.992 179.283 738.409 Q177.431 738.825 175.487 739.705 L175.487 722.344 Z" fill="#000000" fill-rule="evenodd" fill-opacity="1" /><path clip-path="url(#clip900)" d="M114.931 500.222 L122.57 500.222 L122.57 473.857 L114.26 475.523 L114.26 471.264 L122.524 469.598 L127.2 469.598 L127.2 500.222 L134.839 500.222 L134.839 504.158 L114.931 504.158 L114.931 500.222 Z" fill="#000000" fill-rule="evenodd" fill-opacity="1" /><path clip-path="url(#clip900)" d="M154.283 472.676 Q150.672 472.676 148.843 476.241 Q147.038 479.783 147.038 486.912 Q147.038 494.019 148.843 497.583 Q150.672 501.125 154.283 501.125 Q157.917 501.125 159.723 497.583 Q161.552 494.019 161.552 486.912 Q161.552 479.783 159.723 476.241 Q157.917 472.676 154.283 472.676 M154.283 468.973 Q160.093 468.973 163.149 473.579 Q166.227 478.162 166.227 486.912 Q166.227 495.639 163.149 500.246 Q160.093 504.829 154.283 504.829 Q148.473 504.829 145.394 500.246 Q142.339 495.639 142.339 486.912 Q142.339 478.162 145.394 473.579 Q148.473 468.973 154.283 468.973 Z" fill="#000000" fill-rule="evenodd" fill-opacity="1" /><path clip-path="url(#clip900)" d="M184.445 472.676 Q180.834 472.676 179.005 476.241 Q177.2 479.783 177.2 486.912 Q177.2 494.019 179.005 497.583 Q180.834 501.125 184.445 501.125 Q188.079 501.125 189.885 497.583 Q191.713 494.019 191.713 486.912 Q191.713 479.783 189.885 476.241 Q188.079 472.676 184.445 472.676 M184.445 468.973 Q190.255 468.973 193.311 473.579 Q196.389 478.162 196.389 486.912 Q196.389 495.639 193.311 500.246 Q190.255 504.829 184.445 504.829 Q178.635 504.829 175.556 500.246 Q172.501 495.639 172.501 486.912 Q172.501 478.162 175.556 473.579 Q178.635 468.973 184.445 468.973 Z" fill="#000000" fill-rule="evenodd" fill-opacity="1" /><path clip-path="url(#clip900)" d="M115.927 247.476 L123.566 247.476 L123.566 221.11 L115.256 222.777 L115.256 218.518 L123.519 216.851 L128.195 216.851 L128.195 247.476 L135.834 247.476 L135.834 251.411 L115.927 251.411 L115.927 247.476 Z" fill="#000000" fill-rule="evenodd" fill-opacity="1" /><path clip-path="url(#clip900)" d="M149.306 247.476 L165.626 247.476 L165.626 251.411 L143.681 251.411 L143.681 247.476 Q146.343 244.721 150.927 240.092 Q155.533 235.439 156.714 234.096 Q158.959 231.573 159.839 229.837 Q160.741 228.078 160.741 226.388 Q160.741 223.634 158.797 221.897 Q156.876 220.161 153.774 220.161 Q151.575 220.161 149.121 220.925 Q146.691 221.689 143.913 223.24 L143.913 218.518 Q146.737 217.384 149.191 216.805 Q151.644 216.226 153.681 216.226 Q159.052 216.226 162.246 218.911 Q165.44 221.597 165.44 226.087 Q165.44 228.217 164.63 230.138 Q163.843 232.036 161.737 234.629 Q161.158 235.3 158.056 238.518 Q154.954 241.712 149.306 247.476 Z" fill="#000000" fill-rule="evenodd" fill-opacity="1" /><path clip-path="url(#clip900)" d="M175.487 216.851 L193.843 216.851 L193.843 220.786 L179.769 220.786 L179.769 229.259 Q180.788 228.911 181.806 228.749 Q182.825 228.564 183.843 228.564 Q189.63 228.564 193.01 231.735 Q196.389 234.907 196.389 240.323 Q196.389 245.902 192.917 249.004 Q189.445 252.082 183.126 252.082 Q180.95 252.082 178.681 251.712 Q176.436 251.342 174.028 250.601 L174.028 245.902 Q176.112 247.036 178.334 247.592 Q180.556 248.147 183.033 248.147 Q187.038 248.147 189.375 246.041 Q191.713 243.934 191.713 240.323 Q191.713 236.712 189.375 234.606 Q187.038 232.499 183.033 232.499 Q181.158 232.499 179.283 232.916 Q177.431 233.333 175.487 234.212 L175.487 216.851 Z" fill="#000000" fill-rule="evenodd" fill-opacity="1" /><path clip-path="url(#clip900)" d="M16.4842 1168.7 L16.4842 1159.12 L48.8219 1146.99 L16.4842 1134.8 L16.4842 1125.22 L64.0042 1125.22 L64.0042 1131.49 L22.277 1131.49 L54.8694 1143.75 L54.8694 1150.21 L22.277 1162.46 L64.0042 1162.46 L64.0042 1168.7 L16.4842 1168.7 Z" fill="#000000" fill-rule="evenodd" fill-opacity="1" /><path clip-path="url(#clip900)" d="M44.7161 1082.22 L47.5806 1082.22 L47.5806 1109.15 Q53.6281 1108.77 56.8109 1105.52 Q59.9619 1102.24 59.9619 1096.42 Q59.9619 1093.04 59.1344 1089.89 Q58.3069 1086.71 56.6518 1083.59 L62.1899 1083.59 Q63.5267 1086.74 64.227 1090.05 Q64.9272 1093.36 64.9272 1096.77 Q64.9272 1105.3 59.9619 1110.29 Q54.9967 1115.26 46.5303 1115.26 Q37.7774 1115.26 32.6531 1110.55 Q27.4968 1105.81 27.4968 1097.79 Q27.4968 1090.59 32.1438 1086.42 Q36.7589 1082.22 44.7161 1082.22 M42.9973 1088.08 Q38.1912 1088.14 35.3266 1090.78 Q32.4621 1093.39 32.4621 1097.72 Q32.4621 1102.62 35.2312 1105.58 Q38.0002 1108.51 43.0292 1108.96 L42.9973 1088.08 Z" fill="#000000" fill-rule="evenodd" fill-opacity="1" /><path clip-path="url(#clip900)" d="M33.7671 1049.15 L14.479 1049.15 L14.479 1043.3 L64.0042 1043.3 L64.0042 1049.15 L58.657 1049.15 Q61.8398 1051 63.3994 1053.83 Q64.9272 1056.63 64.9272 1060.58 Q64.9272 1067.04 59.771 1071.11 Q54.6147 1075.16 46.212 1075.16 Q37.8093 1075.16 32.6531 1071.11 Q27.4968 1067.04 27.4968 1060.58 Q27.4968 1056.63 29.0564 1053.83 Q30.5842 1051 33.7671 1049.15 M46.212 1069.11 Q52.6732 1069.11 56.3653 1066.47 Q60.0256 1063.79 60.0256 1059.15 Q60.0256 1054.5 56.3653 1051.83 Q52.6732 1049.15 46.212 1049.15 Q39.7508 1049.15 36.0905 1051.83 Q32.3984 1054.5 32.3984 1059.15 Q32.3984 1063.79 36.0905 1066.47 Q39.7508 1069.11 46.212 1069.11 Z" fill="#000000" fill-rule="evenodd" fill-opacity="1" /><path clip-path="url(#clip900)" d="M28.3562 1031.23 L28.3562 1025.38 L64.0042 1025.38 L64.0042 1031.23 L28.3562 1031.23 M14.479 1031.23 L14.479 1025.38 L21.895 1025.38 L21.895 1031.23 L14.479 1031.23 Z" fill="#000000" fill-rule="evenodd" fill-opacity="1" /><path clip-path="url(#clip900)" d="M46.0847 996.921 Q46.0847 1004.02 47.7079 1006.76 Q49.3312 1009.49 53.2461 1009.49 Q56.3653 1009.49 58.2114 1007.46 Q60.0256 1005.39 60.0256 1001.85 Q60.0256 996.985 56.5881 994.057 Q53.1188 991.097 47.3897 991.097 L46.0847 991.097 L46.0847 996.921 M43.6657 985.24 L64.0042 985.24 L64.0042 991.097 L58.5933 991.097 Q61.8398 993.102 63.3994 996.094 Q64.9272 999.086 64.9272 1003.41 Q64.9272 1008.89 61.8716 1012.14 Q58.7843 1015.35 53.6281 1015.35 Q47.6125 1015.35 44.5569 1011.34 Q41.5014 1007.3 41.5014 999.309 L41.5014 991.097 L40.9285 991.097 Q36.8862 991.097 34.6901 993.77 Q32.4621 996.412 32.4621 1001.22 Q32.4621 1004.27 33.1941 1007.17 Q33.9262 1010.07 35.3903 1012.74 L29.9795 1012.74 Q28.7381 1009.53 28.1334 1006.5 Q27.4968 1003.48 27.4968 1000.61 Q27.4968 992.879 31.5072 989.06 Q35.5176 985.24 43.6657 985.24 Z" fill="#000000" fill-rule="evenodd" fill-opacity="1" /><path clip-path="url(#clip900)" d="M42.4881 943.545 L64.0042 943.545 L64.0042 949.401 L42.679 949.401 Q37.6183 949.401 35.1038 951.375 Q32.5894 953.348 32.5894 957.295 Q32.5894 962.037 35.6131 964.775 Q38.6368 967.512 43.8567 967.512 L64.0042 967.512 L64.0042 973.4 L28.3562 973.4 L28.3562 967.512 L33.8944 967.512 Q30.6797 965.411 29.0883 962.578 Q27.4968 959.714 27.4968 955.99 Q27.4968 949.847 31.3163 946.696 Q35.1038 943.545 42.4881 943.545 Z" fill="#000000" fill-rule="evenodd" fill-opacity="1" /><path clip-path="url(#clip900)" d="M20.1444 875.305 L26.9239 875.305 Q23.9002 878.551 22.4043 882.243 Q20.9083 885.904 20.9083 890.041 Q20.9083 898.189 25.9054 902.518 Q30.8707 906.847 40.2919 906.847 Q49.6813 906.847 54.6784 902.518 Q59.6436 898.189 59.6436 890.041 Q59.6436 885.904 58.1477 882.243 Q56.6518 878.551 53.6281 875.305 L60.3439 875.305 Q62.6355 878.678 63.7814 882.466 Q64.9272 886.222 64.9272 890.423 Q64.9272 901.213 58.3387 907.42 Q51.7183 913.626 40.2919 913.626 Q28.8336 913.626 22.2451 907.42 Q15.6248 901.213 15.6248 890.423 Q15.6248 886.158 16.7706 882.402 Q17.8846 878.615 20.1444 875.305 Z" fill="#000000" fill-rule="evenodd" fill-opacity="1" /><path clip-path="url(#clip900)" d="M46.0847 849.428 Q46.0847 856.526 47.7079 859.263 Q49.3312 862 53.2461 862 Q56.3653 862 58.2114 859.963 Q60.0256 857.894 60.0256 854.361 Q60.0256 849.492 56.5881 846.563 Q53.1188 843.603 47.3897 843.603 L46.0847 843.603 L46.0847 849.428 M43.6657 837.747 L64.0042 837.747 L64.0042 843.603 L58.5933 843.603 Q61.8398 845.609 63.3994 848.6 Q64.9272 851.592 64.9272 855.921 Q64.9272 861.396 61.8716 864.642 Q58.7843 867.857 53.6281 867.857 Q47.6125 867.857 44.5569 863.846 Q41.5014 859.804 41.5014 851.815 L41.5014 843.603 L40.9285 843.603 Q36.8862 843.603 34.6901 846.277 Q32.4621 848.919 32.4621 853.725 Q32.4621 856.78 33.1941 859.677 Q33.9262 862.573 35.3903 865.247 L29.9795 865.247 Q28.7381 862.032 28.1334 859.008 Q27.4968 855.985 27.4968 853.12 Q27.4968 845.386 31.5072 841.566 Q35.5176 837.747 43.6657 837.747 Z" fill="#000000" fill-rule="evenodd" fill-opacity="1" /><path clip-path="url(#clip900)" d="M14.479 825.684 L14.479 819.827 L64.0042 819.827 L64.0042 825.684 L14.479 825.684 Z" fill="#000000" fill-rule="evenodd" fill-opacity="1" /><path clip-path="url(#clip900)" d="M14.479 807.573 L14.479 801.717 L64.0042 801.717 L64.0042 807.573 L14.479 807.573 Z" fill="#000000" fill-rule="evenodd" fill-opacity="1" /><path clip-path="url(#clip900)" d="M29.4065 766.737 L34.9447 766.737 Q33.6716 769.22 33.035 771.894 Q32.3984 774.567 32.3984 777.432 Q32.3984 781.792 33.7352 783.989 Q35.072 786.153 37.7456 786.153 Q39.7826 786.153 40.9603 784.593 Q42.1061 783.034 43.1565 778.323 L43.6021 776.318 Q44.9389 770.079 47.3897 767.47 Q49.8086 764.828 54.1691 764.828 Q59.1344 764.828 62.0308 768.775 Q64.9272 772.689 64.9272 779.564 Q64.9272 782.429 64.3543 785.548 Q63.8132 788.636 62.6992 792.073 L56.6518 792.073 Q58.3387 788.826 59.198 785.675 Q60.0256 782.524 60.0256 779.437 Q60.0256 775.299 58.6251 773.071 Q57.1929 770.843 54.6147 770.843 Q52.2276 770.843 50.9545 772.467 Q49.6813 774.058 48.5037 779.501 L48.0262 781.538 Q46.8804 786.98 44.5251 789.399 Q42.138 791.818 38.0002 791.818 Q32.9713 791.818 30.2341 788.254 Q27.4968 784.689 27.4968 778.132 Q27.4968 774.886 27.9743 772.021 Q28.4517 769.156 29.4065 766.737 Z" fill="#000000" fill-rule="evenodd" fill-opacity="1" /><path clip-path="url(#clip900)" d="M58.657 729.116 L77.5631 729.116 L77.5631 735.004 L28.3562 735.004 L28.3562 729.116 L33.7671 729.116 Q30.5842 727.27 29.0564 724.469 Q27.4968 721.636 27.4968 717.722 Q27.4968 711.229 32.6531 707.186 Q37.8093 703.112 46.212 703.112 Q54.6147 703.112 59.771 707.186 Q64.9272 711.229 64.9272 717.722 Q64.9272 721.636 63.3994 724.469 Q61.8398 727.27 58.657 729.116 M46.212 709.191 Q39.7508 709.191 36.0905 711.865 Q32.3984 714.507 32.3984 719.154 Q32.3984 723.801 36.0905 726.474 Q39.7508 729.116 46.212 729.116 Q52.6732 729.116 56.3653 726.474 Q60.0256 723.801 60.0256 719.154 Q60.0256 714.507 56.3653 711.865 Q52.6732 709.191 46.212 709.191 Z" fill="#000000" fill-rule="evenodd" fill-opacity="1" /><path clip-path="url(#clip900)" d="M44.7161 662.913 L47.5806 662.913 L47.5806 689.84 Q53.6281 689.458 56.8109 686.211 Q59.9619 682.933 59.9619 677.108 Q59.9619 673.735 59.1344 670.583 Q58.3069 667.401 56.6518 664.281 L62.1899 664.281 Q63.5267 667.432 64.227 670.743 Q64.9272 674.053 64.9272 677.458 Q64.9272 685.988 59.9619 690.986 Q54.9967 695.951 46.5303 695.951 Q37.7774 695.951 32.6531 691.24 Q27.4968 686.498 27.4968 678.477 Q27.4968 671.284 32.1438 667.114 Q36.7589 662.913 44.7161 662.913 M42.9973 668.769 Q38.1912 668.833 35.3266 671.475 Q32.4621 674.085 32.4621 678.413 Q32.4621 683.315 35.2312 686.275 Q38.0002 689.203 43.0292 689.649 L42.9973 668.769 Z" fill="#000000" fill-rule="evenodd" fill-opacity="1" /><path clip-path="url(#clip900)" d="M33.8307 632.644 Q33.2578 633.631 33.0032 634.808 Q32.7167 635.954 32.7167 637.354 Q32.7167 642.32 35.9632 644.993 Q39.1779 647.635 45.2253 647.635 L64.0042 647.635 L64.0042 653.523 L28.3562 653.523 L28.3562 647.635 L33.8944 647.635 Q30.6479 645.789 29.0883 642.829 Q27.4968 639.869 27.4968 635.636 Q27.4968 635.031 27.5923 634.299 Q27.656 633.567 27.8151 632.676 L33.8307 632.644 Z" fill="#000000" fill-rule="evenodd" fill-opacity="1" /><path clip-path="url(#clip900)" d="M18.0438 577.039 L24.314 577.039 Q22.5634 580.7 21.704 583.946 Q20.8447 587.193 20.8447 590.216 Q20.8447 595.468 22.8817 598.333 Q24.9187 601.165 28.6745 601.165 Q31.8255 601.165 33.4488 599.288 Q35.0402 597.378 36.0269 592.094 L36.8226 588.211 Q38.1912 581.018 41.6605 577.612 Q45.098 574.175 50.8908 574.175 Q57.7976 574.175 61.3624 578.822 Q64.9272 583.437 64.9272 592.381 Q64.9272 595.755 64.1633 599.574 Q63.3994 603.362 61.9035 607.436 L55.2831 607.436 Q57.4793 603.521 58.5933 599.765 Q59.7073 596.009 59.7073 592.381 Q59.7073 586.874 57.543 583.883 Q55.3786 580.891 51.3682 580.891 Q47.8671 580.891 45.8937 583.055 Q43.9204 585.188 42.9337 590.089 L42.1698 594.004 Q40.7375 601.197 37.682 604.412 Q34.6264 607.627 29.1837 607.627 Q22.8817 607.627 19.2532 603.202 Q15.6248 598.746 15.6248 590.948 Q15.6248 587.606 16.2295 584.137 Q16.8343 580.668 18.0438 577.039 Z" fill="#000000" fill-rule="evenodd" fill-opacity="1" /><path clip-path="url(#clip900)" d="M44.7161 533.912 L47.5806 533.912 L47.5806 560.839 Q53.6281 560.457 56.8109 557.21 Q59.9619 553.932 59.9619 548.107 Q59.9619 544.733 59.1344 541.582 Q58.3069 538.4 56.6518 535.28 L62.1899 535.28 Q63.5267 538.431 64.227 541.742 Q64.9272 545.052 64.9272 548.457 Q64.9272 556.987 59.9619 561.985 Q54.9967 566.95 46.5303 566.95 Q37.7774 566.95 32.6531 562.239 Q27.4968 557.497 27.4968 549.476 Q27.4968 542.283 32.1438 538.113 Q36.7589 533.912 44.7161 533.912 M42.9973 539.768 Q38.1912 539.832 35.3266 542.474 Q32.4621 545.084 32.4621 549.412 Q32.4621 554.314 35.2312 557.274 Q38.0002 560.202 43.0292 560.648 L42.9973 539.768 Z" fill="#000000" fill-rule="evenodd" fill-opacity="1" /><path clip-path="url(#clip900)" d="M29.7248 498.646 L35.1993 498.646 Q33.8307 501.128 33.1623 503.643 Q32.4621 506.125 32.4621 508.672 Q32.4621 514.369 36.0905 517.52 Q39.6872 520.671 46.212 520.671 Q52.7369 520.671 56.3653 517.52 Q59.9619 514.369 59.9619 508.672 Q59.9619 506.125 59.2935 503.643 Q58.5933 501.128 57.2247 498.646 L62.6355 498.646 Q63.7814 501.097 64.3543 503.738 Q64.9272 506.348 64.9272 509.308 Q64.9272 517.361 59.8664 522.103 Q54.8057 526.846 46.212 526.846 Q37.491 526.846 32.4939 522.072 Q27.4968 517.265 27.4968 508.926 Q27.4968 506.221 28.0697 503.643 Q28.6108 501.065 29.7248 498.646 Z" fill="#000000" fill-rule="evenodd" fill-opacity="1" /><path clip-path="url(#clip900)" d="M32.4621 474.647 Q32.4621 479.358 36.1542 482.095 Q39.8145 484.832 46.212 484.832 Q52.6095 484.832 56.3017 482.127 Q59.9619 479.389 59.9619 474.647 Q59.9619 469.968 56.2698 467.231 Q52.5777 464.494 46.212 464.494 Q39.8781 464.494 36.186 467.231 Q32.4621 469.968 32.4621 474.647 M27.4968 474.647 Q27.4968 467.008 32.4621 462.648 Q37.4273 458.287 46.212 458.287 Q54.9649 458.287 59.9619 462.648 Q64.9272 467.008 64.9272 474.647 Q64.9272 482.318 59.9619 486.678 Q54.9649 491.007 46.212 491.007 Q37.4273 491.007 32.4621 486.678 Q27.4968 482.318 27.4968 474.647 Z" fill="#000000" fill-rule="evenodd" fill-opacity="1" /><path clip-path="url(#clip900)" d="M42.4881 418.947 L64.0042 418.947 L64.0042 424.804 L42.679 424.804 Q37.6183 424.804 35.1038 426.777 Q32.5894 428.75 32.5894 432.697 Q32.5894 437.439 35.6131 440.177 Q38.6368 442.914 43.8567 442.914 L64.0042 442.914 L64.0042 448.802 L28.3562 448.802 L28.3562 442.914 L33.8944 442.914 Q30.6797 440.813 29.0883 437.981 Q27.4968 435.116 27.4968 431.392 Q27.4968 425.249 31.3163 422.098 Q35.1038 418.947 42.4881 418.947 Z" fill="#000000" fill-rule="evenodd" fill-opacity="1" /><path clip-path="url(#clip900)" d="M33.7671 383.808 L14.479 383.808 L14.479 377.952 L64.0042 377.952 L64.0042 383.808 L58.657 383.808 Q61.8398 385.654 63.3994 388.487 Q64.9272 391.288 64.9272 395.235 Q64.9272 401.696 59.771 405.77 Q54.6147 409.812 46.212 409.812 Q37.8093 409.812 32.6531 405.77 Q27.4968 401.696 27.4968 395.235 Q27.4968 391.288 29.0564 388.487 Q30.5842 385.654 33.7671 383.808 M46.212 403.765 Q52.6732 403.765 56.3653 401.123 Q60.0256 398.45 60.0256 393.803 Q60.0256 389.156 56.3653 386.482 Q52.6732 383.808 46.212 383.808 Q39.7508 383.808 36.0905 386.482 Q32.3984 389.156 32.3984 393.803 Q32.3984 398.45 36.0905 401.123 Q39.7508 403.765 46.212 403.765 Z" fill="#000000" fill-rule="evenodd" fill-opacity="1" /><path clip-path="url(#clip900)" d="M960.115 18.8205 L960.115 41.5461 L970.404 41.5461 Q976.116 41.5461 979.235 38.5889 Q982.354 35.6318 982.354 30.163 Q982.354 24.7348 979.235 21.7777 Q976.116 18.8205 970.404 18.8205 L960.115 18.8205 M951.932 12.096 L970.404 12.096 Q980.572 12.096 985.757 16.714 Q990.983 21.2916 990.983 30.163 Q990.983 39.1155 985.757 43.6931 Q980.572 48.2706 970.404 48.2706 L960.115 48.2706 L960.115 72.576 L951.932 72.576 L951.932 12.096 Z" fill="#000000" fill-rule="evenodd" fill-opacity="1" /><path clip-path="url(#clip900)" d="M1018.53 49.7694 Q1009.5 49.7694 1006.01 51.8354 Q1002.53 53.9013 1002.53 58.8839 Q1002.53 62.8538 1005.12 65.2034 Q1007.75 67.5124 1012.25 67.5124 Q1018.45 67.5124 1022.17 63.1374 Q1025.94 58.7219 1025.94 51.4303 L1025.94 49.7694 L1018.53 49.7694 M1033.4 46.6907 L1033.4 72.576 L1025.94 72.576 L1025.94 65.6895 Q1023.39 69.8214 1019.58 71.8063 Q1015.77 73.7508 1010.27 73.7508 Q1003.3 73.7508 999.166 69.8619 Q995.074 65.9325 995.074 59.3701 Q995.074 51.7138 1000.18 47.825 Q1005.32 43.9361 1015.49 43.9361 L1025.94 43.9361 L1025.94 43.2069 Q1025.94 38.0623 1022.54 35.2672 Q1019.18 32.4315 1013.06 32.4315 Q1009.17 32.4315 1005.49 33.3632 Q1001.8 34.295 998.396 36.1584 L998.396 29.2718 Q1002.49 27.692 1006.34 26.9223 Q1010.18 26.1121 1013.83 26.1121 Q1023.67 26.1121 1028.53 31.2163 Q1033.4 36.3204 1033.4 46.6907 Z" fill="#000000" fill-rule="evenodd" fill-opacity="1" /><path clip-path="url(#clip900)" d="M1075.04 34.1734 Q1073.78 33.4443 1072.28 33.1202 Q1070.83 32.7556 1069.04 32.7556 Q1062.72 32.7556 1059.32 36.8875 Q1055.96 40.9789 1055.96 48.6757 L1055.96 72.576 L1048.47 72.576 L1048.47 27.2059 L1055.96 27.2059 L1055.96 34.2544 Q1058.31 30.1225 1062.08 28.1376 Q1065.84 26.1121 1071.23 26.1121 Q1072 26.1121 1072.93 26.2337 Q1073.86 26.3147 1075 26.5172 L1075.04 34.1734 Z" fill="#000000" fill-rule="evenodd" fill-opacity="1" /><path clip-path="url(#clip900)" d="M1103.48 49.7694 Q1094.44 49.7694 1090.96 51.8354 Q1087.48 53.9013 1087.48 58.8839 Q1087.48 62.8538 1090.07 65.2034 Q1092.7 67.5124 1097.2 67.5124 Q1103.4 67.5124 1107.12 63.1374 Q1110.89 58.7219 1110.89 51.4303 L1110.89 49.7694 L1103.48 49.7694 M1118.34 46.6907 L1118.34 72.576 L1110.89 72.576 L1110.89 65.6895 Q1108.34 69.8214 1104.53 71.8063 Q1100.72 73.7508 1095.21 73.7508 Q1088.25 73.7508 1084.11 69.8619 Q1080.02 65.9325 1080.02 59.3701 Q1080.02 51.7138 1085.13 47.825 Q1090.27 43.9361 1100.44 43.9361 L1110.89 43.9361 L1110.89 43.2069 Q1110.89 38.0623 1107.49 35.2672 Q1104.12 32.4315 1098.01 32.4315 Q1094.12 32.4315 1090.43 33.3632 Q1086.75 34.295 1083.34 36.1584 L1083.34 29.2718 Q1087.43 27.692 1091.28 26.9223 Q1095.13 26.1121 1098.78 26.1121 Q1108.62 26.1121 1113.48 31.2163 Q1118.34 36.3204 1118.34 46.6907 Z" fill="#000000" fill-rule="evenodd" fill-opacity="1" /><path clip-path="url(#clip900)" d="M1133.7 9.54393 L1141.15 9.54393 L1141.15 72.576 L1133.7 72.576 L1133.7 9.54393 Z" fill="#000000" fill-rule="evenodd" fill-opacity="1" /><path clip-path="url(#clip900)" d="M1156.75 9.54393 L1164.2 9.54393 L1164.2 72.576 L1156.75 72.576 L1156.75 9.54393 Z" fill="#000000" fill-rule="evenodd" fill-opacity="1" /><path clip-path="url(#clip900)" d="M1218.6 48.0275 L1218.6 51.6733 L1184.33 51.6733 Q1184.82 59.3701 1188.95 63.421 Q1193.12 67.4314 1200.54 67.4314 Q1204.83 67.4314 1208.84 66.3781 Q1212.89 65.3249 1216.86 63.2184 L1216.86 70.267 Q1212.85 71.9684 1208.64 72.8596 Q1204.42 73.7508 1200.09 73.7508 Q1189.23 73.7508 1182.87 67.4314 Q1176.55 61.1119 1176.55 50.3365 Q1176.55 39.1965 1182.55 32.6746 Q1188.59 26.1121 1198.79 26.1121 Q1207.95 26.1121 1213.26 32.0264 Q1218.6 37.9003 1218.6 48.0275 M1211.15 45.84 Q1211.07 39.7232 1207.71 36.0774 Q1204.38 32.4315 1198.88 32.4315 Q1192.64 32.4315 1188.87 35.9558 Q1185.14 39.4801 1184.58 45.8805 L1211.15 45.84 Z" fill="#000000" fill-rule="evenodd" fill-opacity="1" /><path clip-path="url(#clip900)" d="M1230.84 9.54393 L1238.29 9.54393 L1238.29 72.576 L1230.84 72.576 L1230.84 9.54393 Z" fill="#000000" fill-rule="evenodd" fill-opacity="1" /><path clip-path="url(#clip900)" d="M1316.84 14.0809 L1316.84 22.0612 Q1312.18 19.8332 1308.05 18.7395 Q1303.92 17.6457 1300.07 17.6457 Q1293.38 17.6457 1289.74 20.2383 Q1286.13 22.8309 1286.13 27.611 Q1286.13 31.6214 1288.52 33.6873 Q1290.95 35.7128 1297.68 36.9686 L1302.62 37.9813 Q1311.77 39.7232 1316.11 44.1387 Q1320.48 48.5136 1320.48 55.8863 Q1320.48 64.6767 1314.57 69.2137 Q1308.7 73.7508 1297.31 73.7508 Q1293.02 73.7508 1288.16 72.7785 Q1283.34 71.8063 1278.15 69.9024 L1278.15 61.4765 Q1283.13 64.2716 1287.91 65.6895 Q1292.69 67.1073 1297.31 67.1073 Q1304.32 67.1073 1308.13 64.3527 Q1311.94 61.598 1311.94 56.4939 Q1311.94 52.0379 1309.18 49.5264 Q1306.47 47.0148 1300.23 45.759 L1295.25 44.7868 Q1286.09 42.9639 1282 39.075 Q1277.91 35.1862 1277.91 28.2591 Q1277.91 20.2383 1283.54 15.6203 Q1289.21 11.0023 1299.14 11.0023 Q1303.39 11.0023 1307.8 11.7719 Q1312.22 12.5416 1316.84 14.0809 Z" fill="#000000" fill-rule="evenodd" fill-opacity="1" /><path clip-path="url(#clip900)" d="M1340.13 65.7705 L1340.13 89.8329 L1332.64 89.8329 L1332.64 27.2059 L1340.13 27.2059 L1340.13 34.0924 Q1342.48 30.0415 1346.04 28.0971 Q1349.65 26.1121 1354.63 26.1121 Q1362.9 26.1121 1368.04 32.6746 Q1373.23 39.2371 1373.23 49.9314 Q1373.23 60.6258 1368.04 67.1883 Q1362.9 73.7508 1354.63 73.7508 Q1349.65 73.7508 1346.04 71.8063 Q1342.48 69.8214 1340.13 65.7705 M1365.49 49.9314 Q1365.49 41.7081 1362.09 37.0496 Q1358.72 32.3505 1352.81 32.3505 Q1346.9 32.3505 1343.49 37.0496 Q1340.13 41.7081 1340.13 49.9314 Q1340.13 58.1548 1343.49 62.8538 Q1346.9 67.5124 1352.81 67.5124 Q1358.72 67.5124 1362.09 62.8538 Q1365.49 58.1548 1365.49 49.9314 Z" fill="#000000" fill-rule="evenodd" fill-opacity="1" /><path clip-path="url(#clip900)" d="M1424.39 48.0275 L1424.39 51.6733 L1390.12 51.6733 Q1390.6 59.3701 1394.74 63.421 Q1398.91 67.4314 1406.32 67.4314 Q1410.62 67.4314 1414.63 66.3781 Q1418.68 65.3249 1422.65 63.2184 L1422.65 70.267 Q1418.64 71.9684 1414.42 72.8596 Q1410.21 73.7508 1405.88 73.7508 Q1395.02 73.7508 1388.66 67.4314 Q1382.34 61.1119 1382.34 50.3365 Q1382.34 39.1965 1388.34 32.6746 Q1394.37 26.1121 1404.58 26.1121 Q1413.74 26.1121 1419.04 32.0264 Q1424.39 37.9003 1424.39 48.0275 M1416.94 45.84 Q1416.85 39.7232 1413.49 36.0774 Q1410.17 32.4315 1404.66 32.4315 Q1398.42 32.4315 1394.66 35.9558 Q1390.93 39.4801 1390.36 45.8805 L1416.94 45.84 Z" fill="#000000" fill-rule="evenodd" fill-opacity="1" /><path clip-path="url(#clip900)" d="M1475.43 48.0275 L1475.43 51.6733 L1441.16 51.6733 Q1441.65 59.3701 1445.78 63.421 Q1449.95 67.4314 1457.36 67.4314 Q1461.66 67.4314 1465.67 66.3781 Q1469.72 65.3249 1473.69 63.2184 L1473.69 70.267 Q1469.68 71.9684 1465.47 72.8596 Q1461.25 73.7508 1456.92 73.7508 Q1446.06 73.7508 1439.7 67.4314 Q1433.38 61.1119 1433.38 50.3365 Q1433.38 39.1965 1439.38 32.6746 Q1445.41 26.1121 1455.62 26.1121 Q1464.78 26.1121 1470.08 32.0264 Q1475.43 37.9003 1475.43 48.0275 M1467.98 45.84 Q1467.9 39.7232 1464.53 36.0774 Q1461.21 32.4315 1455.7 32.4315 Q1449.46 32.4315 1445.7 35.9558 Q1441.97 39.4801 1441.4 45.8805 L1467.98 45.84 Z" fill="#000000" fill-rule="evenodd" fill-opacity="1" /><path clip-path="url(#clip900)" d="M1517.52 34.0924 L1517.52 9.54393 L1524.97 9.54393 L1524.97 72.576 L1517.52 72.576 L1517.52 65.7705 Q1515.17 69.8214 1511.56 71.8063 Q1508 73.7508 1502.98 73.7508 Q1494.75 73.7508 1489.57 67.1883 Q1484.42 60.6258 1484.42 49.9314 Q1484.42 39.2371 1489.57 32.6746 Q1494.75 26.1121 1502.98 26.1121 Q1508 26.1121 1511.56 28.0971 Q1515.17 30.0415 1517.52 34.0924 M1492.12 49.9314 Q1492.12 58.1548 1495.48 62.8538 Q1498.89 67.5124 1504.8 67.5124 Q1510.71 67.5124 1514.12 62.8538 Q1517.52 58.1548 1517.52 49.9314 Q1517.52 41.7081 1514.12 37.0496 Q1510.71 32.3505 1504.8 32.3505 Q1498.89 32.3505 1495.48 37.0496 Q1492.12 41.7081 1492.12 49.9314 Z" fill="#000000" fill-rule="evenodd" fill-opacity="1" /><path clip-path="url(#clip900)" d="M1539.56 54.671 L1539.56 27.2059 L1547.01 27.2059 L1547.01 54.3874 Q1547.01 60.8284 1549.52 64.0691 Q1552.03 67.2693 1557.06 67.2693 Q1563.09 67.2693 1566.58 63.421 Q1570.1 59.5726 1570.1 52.9291 L1570.1 27.2059 L1577.55 27.2059 L1577.55 72.576 L1570.1 72.576 L1570.1 65.6084 Q1567.39 69.7404 1563.78 71.7658 Q1560.22 73.7508 1555.48 73.7508 Q1547.66 73.7508 1543.61 68.8897 Q1539.56 64.0286 1539.56 54.671 M1558.31 26.1121 L1558.31 26.1121 Z" fill="#000000" fill-rule="evenodd" fill-opacity="1" /><path clip-path="url(#clip900)" d="M1600.12 65.7705 L1600.12 89.8329 L1592.62 89.8329 L1592.62 27.2059 L1600.12 27.2059 L1600.12 34.0924 Q1602.47 30.0415 1606.03 28.0971 Q1609.64 26.1121 1614.62 26.1121 Q1622.88 26.1121 1628.03 32.6746 Q1633.21 39.2371 1633.21 49.9314 Q1633.21 60.6258 1628.03 67.1883 Q1622.88 73.7508 1614.62 73.7508 Q1609.64 73.7508 1606.03 71.8063 Q1602.47 69.8214 1600.12 65.7705 M1625.48 49.9314 Q1625.48 41.7081 1622.07 37.0496 Q1618.71 32.3505 1612.8 32.3505 Q1606.88 32.3505 1603.48 37.0496 Q1600.12 41.7081 1600.12 49.9314 Q1600.12 58.1548 1603.48 62.8538 Q1606.88 67.5124 1612.8 67.5124 Q1618.71 67.5124 1622.07 62.8538 Q1625.48 58.1548 1625.48 49.9314 Z" fill="#000000" fill-rule="evenodd" fill-opacity="1" /><polyline clip-path="url(#clip902)" style="stroke:#009af9; stroke-linecap:butt; stroke-linejoin:round; stroke-width:4; stroke-opacity:1; fill:none" points="
  292.4,1386.4 474.249,1345.38 656.099,1303.49 837.949,1275.19 1019.8,1213.7 1201.65,1177.13 1383.5,1165.02 1565.35,1157.18 1747.2,1129.79 1929.05,1120.38 
  2110.9,1109.35 2292.75,1112.05 
  "/>
<polyline clip-path="url(#clip902)" style="stroke:#e26f46; stroke-linecap:butt; stroke-linejoin:round; stroke-width:4; stroke-opacity:1; fill:none" stroke-dasharray="16, 10" points="
  292.4,1386.4 474.249,1274.93 656.099,1163.46 837.949,1051.99 1019.8,940.527 1201.65,829.06 1383.5,717.592 1565.35,606.125 1747.2,494.658 1929.05,383.191 
  2110.9,271.724 2292.75,160.256 
  "/>
<polyline clip-path="url(#clip902)" style="stroke:#808080; stroke-linecap:butt; stroke-linejoin:round; stroke-width:4; stroke-opacity:1; fill:none" stroke-dasharray="16, 10" points="
  1201.65,2722.89 1201.65,-1176.24 
  "/>
<path clip-path="url(#clip900)" d="
M303.068 374.156 L868.848 374.156 L868.848 166.796 L303.068 166.796  Z
  " fill="#ffffff" fill-rule="evenodd" fill-opacity="1"/>
<polyline clip-path="url(#clip900)" style="stroke:#000000; stroke-linecap:butt; stroke-linejoin:round; stroke-width:4; stroke-opacity:1; fill:none" points="
  303.068,374.156 868.848,374.156 868.848,166.796 303.068,166.796 303.068,374.156 
  "/>
<polyline clip-path="url(#clip900)" style="stroke:#009af9; stroke-linecap:butt; stroke-linejoin:round; stroke-width:4; stroke-opacity:1; fill:none" points="
  326.628,218.636 467.986,218.636 
  "/>
<path clip-path="url(#clip900)" d="M511.892 214.967 Q513.49 212.096 515.712 210.731 Q517.934 209.365 520.943 209.365 Q524.994 209.365 527.193 212.212 Q529.392 215.036 529.392 220.268 L529.392 235.916 L525.11 235.916 L525.11 220.407 Q525.11 216.68 523.79 214.874 Q522.471 213.069 519.763 213.069 Q516.453 213.069 514.531 215.268 Q512.61 217.467 512.61 221.263 L512.61 235.916 L508.328 235.916 L508.328 220.407 Q508.328 216.657 507.008 214.874 Q505.689 213.069 502.934 213.069 Q499.67 213.069 497.749 215.291 Q495.828 217.49 495.828 221.263 L495.828 235.916 L491.545 235.916 L491.545 209.99 L495.828 209.99 L495.828 214.018 Q497.286 211.633 499.323 210.499 Q501.36 209.365 504.161 209.365 Q506.985 209.365 508.953 210.8 Q510.943 212.235 511.892 214.967 Z" fill="#000000" fill-rule="evenodd" fill-opacity="1" /><path clip-path="url(#clip900)" d="M560.063 221.888 L560.063 223.971 L540.48 223.971 Q540.758 228.369 543.119 230.684 Q545.503 232.976 549.739 232.976 Q552.193 232.976 554.485 232.374 Q556.8 231.772 559.068 230.569 L559.068 234.596 Q556.776 235.568 554.369 236.078 Q551.962 236.587 549.485 236.587 Q543.281 236.587 539.647 232.976 Q536.036 229.365 536.036 223.207 Q536.036 216.842 539.462 213.115 Q542.911 209.365 548.744 209.365 Q553.975 209.365 557.008 212.745 Q560.063 216.101 560.063 221.888 M555.804 220.638 Q555.758 217.143 553.837 215.059 Q551.938 212.976 548.79 212.976 Q545.226 212.976 543.073 214.99 Q540.943 217.004 540.619 220.661 L555.804 220.638 Z" fill="#000000" fill-rule="evenodd" fill-opacity="1" /><path clip-path="url(#clip900)" d="M578.836 222.883 Q573.674 222.883 571.684 224.064 Q569.693 225.244 569.693 228.092 Q569.693 230.36 571.174 231.703 Q572.679 233.022 575.249 233.022 Q578.79 233.022 580.92 230.522 Q583.073 227.999 583.073 223.832 L583.073 222.883 L578.836 222.883 M587.332 221.124 L587.332 235.916 L583.073 235.916 L583.073 231.981 Q581.614 234.342 579.438 235.476 Q577.262 236.587 574.114 236.587 Q570.133 236.587 567.772 234.365 Q565.434 232.119 565.434 228.369 Q565.434 223.994 568.35 221.772 Q571.29 219.55 577.1 219.55 L583.073 219.55 L583.073 219.133 Q583.073 216.194 581.128 214.596 Q579.207 212.976 575.711 212.976 Q573.489 212.976 571.383 213.508 Q569.276 214.041 567.332 215.106 L567.332 211.17 Q569.67 210.268 571.869 209.828 Q574.068 209.365 576.151 209.365 Q581.776 209.365 584.554 212.282 Q587.332 215.198 587.332 221.124 Z" fill="#000000" fill-rule="evenodd" fill-opacity="1" /><path clip-path="url(#clip900)" d="M612.633 210.754 L612.633 214.782 Q610.827 213.856 608.883 213.393 Q606.938 212.93 604.855 212.93 Q601.684 212.93 600.086 213.902 Q598.512 214.874 598.512 216.819 Q598.512 218.3 599.647 219.157 Q600.781 219.99 604.207 220.754 L605.665 221.078 Q610.202 222.05 612.1 223.832 Q614.021 225.592 614.021 228.763 Q614.021 232.374 611.151 234.481 Q608.304 236.587 603.304 236.587 Q601.221 236.587 598.952 236.17 Q596.707 235.777 594.207 234.967 L594.207 230.569 Q596.568 231.795 598.859 232.42 Q601.151 233.022 603.397 233.022 Q606.406 233.022 608.026 232.004 Q609.646 230.962 609.646 229.087 Q609.646 227.351 608.466 226.425 Q607.309 225.499 603.35 224.643 L601.869 224.295 Q597.91 223.462 596.151 221.749 Q594.392 220.013 594.392 217.004 Q594.392 213.346 596.985 211.356 Q599.577 209.365 604.346 209.365 Q606.707 209.365 608.79 209.712 Q610.873 210.059 612.633 210.754 Z" fill="#000000" fill-rule="evenodd" fill-opacity="1" /><path clip-path="url(#clip900)" d="M620.364 225.684 L620.364 209.99 L624.623 209.99 L624.623 225.522 Q624.623 229.203 626.058 231.055 Q627.494 232.883 630.364 232.883 Q633.813 232.883 635.804 230.684 Q637.818 228.485 637.818 224.689 L637.818 209.99 L642.077 209.99 L642.077 235.916 L637.818 235.916 L637.818 231.934 Q636.267 234.295 634.207 235.453 Q632.17 236.587 629.461 236.587 Q624.994 236.587 622.679 233.809 Q620.364 231.031 620.364 225.684 M631.082 209.365 L631.082 209.365 Z" fill="#000000" fill-rule="evenodd" fill-opacity="1" /><path clip-path="url(#clip900)" d="M665.873 213.971 Q665.155 213.555 664.299 213.37 Q663.466 213.161 662.447 213.161 Q658.836 213.161 656.892 215.522 Q654.97 217.86 654.97 222.258 L654.97 235.916 L650.688 235.916 L650.688 209.99 L654.97 209.99 L654.97 214.018 Q656.313 211.657 658.466 210.522 Q660.618 209.365 663.697 209.365 Q664.137 209.365 664.669 209.434 Q665.202 209.481 665.85 209.596 L665.873 213.971 Z" fill="#000000" fill-rule="evenodd" fill-opacity="1" /><path clip-path="url(#clip900)" d="M691.475 221.888 L691.475 223.971 L671.892 223.971 Q672.169 228.369 674.53 230.684 Q676.915 232.976 681.151 232.976 Q683.604 232.976 685.896 232.374 Q688.211 231.772 690.479 230.569 L690.479 234.596 Q688.188 235.568 685.78 236.078 Q683.373 236.587 680.896 236.587 Q674.692 236.587 671.058 232.976 Q667.447 229.365 667.447 223.207 Q667.447 216.842 670.873 213.115 Q674.322 209.365 680.155 209.365 Q685.387 209.365 688.419 212.745 Q691.475 216.101 691.475 221.888 M687.216 220.638 Q687.169 217.143 685.248 215.059 Q683.35 212.976 680.202 212.976 Q676.637 212.976 674.484 214.99 Q672.354 217.004 672.03 220.661 L687.216 220.638 Z" fill="#000000" fill-rule="evenodd" fill-opacity="1" /><path clip-path="url(#clip900)" d="M715.526 213.925 L715.526 199.897 L719.785 199.897 L719.785 235.916 L715.526 235.916 L715.526 232.027 Q714.183 234.342 712.123 235.476 Q710.086 236.587 707.215 236.587 Q702.516 236.587 699.553 232.837 Q696.614 229.087 696.614 222.976 Q696.614 216.865 699.553 213.115 Q702.516 209.365 707.215 209.365 Q710.086 209.365 712.123 210.499 Q714.183 211.61 715.526 213.925 M701.012 222.976 Q701.012 227.675 702.933 230.36 Q704.877 233.022 708.257 233.022 Q711.637 233.022 713.581 230.36 Q715.526 227.675 715.526 222.976 Q715.526 218.277 713.581 215.615 Q711.637 212.93 708.257 212.93 Q704.877 212.93 702.933 215.615 Q701.012 218.277 701.012 222.976 Z" fill="#000000" fill-rule="evenodd" fill-opacity="1" /><polyline clip-path="url(#clip900)" style="stroke:#e26f46; stroke-linecap:butt; stroke-linejoin:round; stroke-width:4; stroke-opacity:1; fill:none" stroke-dasharray="16, 10" points="
  326.628,270.476 467.986,270.476 
  "/>
<path clip-path="url(#clip900)" d="M495.828 283.867 L495.828 297.617 L491.545 297.617 L491.545 261.83 L495.828 261.83 L495.828 265.765 Q497.17 263.45 499.207 262.339 Q501.267 261.205 504.115 261.205 Q508.837 261.205 511.777 264.955 Q514.74 268.705 514.74 274.816 Q514.74 280.927 511.777 284.677 Q508.837 288.427 504.115 288.427 Q501.267 288.427 499.207 287.316 Q497.17 286.182 495.828 283.867 M510.318 274.816 Q510.318 270.117 508.374 267.455 Q506.453 264.77 503.073 264.77 Q499.693 264.77 497.749 267.455 Q495.828 270.117 495.828 274.816 Q495.828 279.515 497.749 282.2 Q499.693 284.862 503.073 284.862 Q506.453 284.862 508.374 282.2 Q510.318 279.515 510.318 274.816 Z" fill="#000000" fill-rule="evenodd" fill-opacity="1" /><path clip-path="url(#clip900)" d="M543.976 273.728 L543.976 275.811 L524.392 275.811 Q524.67 280.209 527.031 282.524 Q529.415 284.816 533.652 284.816 Q536.105 284.816 538.397 284.214 Q540.712 283.612 542.98 282.409 L542.98 286.436 Q540.689 287.408 538.281 287.918 Q535.874 288.427 533.397 288.427 Q527.193 288.427 523.559 284.816 Q519.948 281.205 519.948 275.047 Q519.948 268.682 523.374 264.955 Q526.823 261.205 532.656 261.205 Q537.888 261.205 540.92 264.585 Q543.976 267.941 543.976 273.728 M539.716 272.478 Q539.67 268.983 537.749 266.899 Q535.851 264.816 532.702 264.816 Q529.138 264.816 526.985 266.83 Q524.855 268.844 524.531 272.501 L539.716 272.478 Z" fill="#000000" fill-rule="evenodd" fill-opacity="1" /><path clip-path="url(#clip900)" d="M565.989 265.811 Q565.272 265.395 564.415 265.21 Q563.582 265.001 562.563 265.001 Q558.952 265.001 557.008 267.362 Q555.087 269.7 555.087 274.098 L555.087 287.756 L550.804 287.756 L550.804 261.83 L555.087 261.83 L555.087 265.858 Q556.429 263.497 558.582 262.362 Q560.735 261.205 563.813 261.205 Q564.253 261.205 564.786 261.274 Q565.318 261.321 565.966 261.436 L565.989 265.811 Z" fill="#000000" fill-rule="evenodd" fill-opacity="1" /><path clip-path="url(#clip900)" d="M583.582 251.737 L583.582 255.279 L579.508 255.279 Q577.216 255.279 576.313 256.205 Q575.434 257.131 575.434 259.538 L575.434 261.83 L582.448 261.83 L582.448 265.14 L575.434 265.14 L575.434 287.756 L571.151 287.756 L571.151 265.14 L567.077 265.14 L567.077 261.83 L571.151 261.83 L571.151 260.024 Q571.151 255.696 573.165 253.728 Q575.179 251.737 579.554 251.737 L583.582 251.737 Z" fill="#000000" fill-rule="evenodd" fill-opacity="1" /><path clip-path="url(#clip900)" d="M609.322 273.728 L609.322 275.811 L589.739 275.811 Q590.017 280.209 592.378 282.524 Q594.762 284.816 598.998 284.816 Q601.452 284.816 603.744 284.214 Q606.059 283.612 608.327 282.409 L608.327 286.436 Q606.035 287.408 603.628 287.918 Q601.221 288.427 598.744 288.427 Q592.54 288.427 588.906 284.816 Q585.295 281.205 585.295 275.047 Q585.295 268.682 588.721 264.955 Q592.17 261.205 598.003 261.205 Q603.234 261.205 606.267 264.585 Q609.322 267.941 609.322 273.728 M605.063 272.478 Q605.017 268.983 603.096 266.899 Q601.197 264.816 598.049 264.816 Q594.485 264.816 592.332 266.83 Q590.202 268.844 589.878 272.501 L605.063 272.478 Z" fill="#000000" fill-rule="evenodd" fill-opacity="1" /><path clip-path="url(#clip900)" d="M634.97 262.825 L634.97 266.807 Q633.165 265.811 631.336 265.325 Q629.531 264.816 627.679 264.816 Q623.535 264.816 621.244 267.455 Q618.952 270.071 618.952 274.816 Q618.952 279.561 621.244 282.2 Q623.535 284.816 627.679 284.816 Q629.531 284.816 631.336 284.33 Q633.165 283.821 634.97 282.825 L634.97 286.76 Q633.188 287.594 631.267 288.01 Q629.369 288.427 627.216 288.427 Q621.359 288.427 617.91 284.746 Q614.461 281.066 614.461 274.816 Q614.461 268.473 617.933 264.839 Q621.429 261.205 627.494 261.205 Q629.461 261.205 631.336 261.622 Q633.211 262.015 634.97 262.825 Z" fill="#000000" fill-rule="evenodd" fill-opacity="1" /><path clip-path="url(#clip900)" d="M646.591 254.469 L646.591 261.83 L655.364 261.83 L655.364 265.14 L646.591 265.14 L646.591 279.214 Q646.591 282.385 647.447 283.288 Q648.327 284.191 650.989 284.191 L655.364 284.191 L655.364 287.756 L650.989 287.756 Q646.058 287.756 644.183 285.927 Q642.308 284.075 642.308 279.214 L642.308 265.14 L639.183 265.14 L639.183 261.83 L642.308 261.83 L642.308 254.469 L646.591 254.469 Z" fill="#000000" fill-rule="evenodd" fill-opacity="1" /><polyline clip-path="url(#clip900)" style="stroke:#808080; stroke-linecap:butt; stroke-linejoin:round; stroke-width:4; stroke-opacity:1; fill:none" stroke-dasharray="16, 10" points="
  326.628,322.316 467.986,322.316 
  "/>
<path clip-path="url(#clip900)" d="M495.828 335.707 L495.828 349.457 L491.545 349.457 L491.545 313.67 L495.828 313.67 L495.828 317.605 Q497.17 315.29 499.207 314.179 Q501.267 313.045 504.115 313.045 Q508.837 313.045 511.777 316.795 Q514.74 320.545 514.74 326.656 Q514.74 332.767 511.777 336.517 Q508.837 340.267 504.115 340.267 Q501.267 340.267 499.207 339.156 Q497.17 338.022 495.828 335.707 M510.318 326.656 Q510.318 321.957 508.374 319.295 Q506.453 316.61 503.073 316.61 Q499.693 316.61 497.749 319.295 Q495.828 321.957 495.828 326.656 Q495.828 331.355 497.749 334.04 Q499.693 336.702 503.073 336.702 Q506.453 336.702 508.374 334.04 Q510.318 331.355 510.318 326.656 Z" fill="#000000" fill-rule="evenodd" fill-opacity="1" /><path clip-path="url(#clip900)" d="M543.351 323.948 L543.351 339.596 L539.091 339.596 L539.091 324.087 Q539.091 320.406 537.656 318.577 Q536.221 316.749 533.351 316.749 Q529.902 316.749 527.911 318.948 Q525.92 321.147 525.92 324.943 L525.92 339.596 L521.638 339.596 L521.638 303.577 L525.92 303.577 L525.92 317.698 Q527.448 315.36 529.508 314.202 Q531.591 313.045 534.3 313.045 Q538.767 313.045 541.059 315.823 Q543.351 318.577 543.351 323.948 Z" fill="#000000" fill-rule="evenodd" fill-opacity="1" /><path clip-path="url(#clip900)" d="M562.633 342.003 Q560.827 346.633 559.114 348.045 Q557.401 349.457 554.531 349.457 L551.128 349.457 L551.128 345.892 L553.628 345.892 Q555.388 345.892 556.36 345.059 Q557.332 344.225 558.512 341.123 L559.276 339.179 L548.79 313.67 L553.304 313.67 L561.406 333.948 L569.508 313.67 L574.022 313.67 L562.633 342.003 Z" fill="#000000" fill-rule="evenodd" fill-opacity="1" /><path clip-path="url(#clip900)" d="M596.429 314.434 L596.429 318.462 Q594.623 317.536 592.679 317.073 Q590.735 316.61 588.651 316.61 Q585.48 316.61 583.883 317.582 Q582.309 318.554 582.309 320.499 Q582.309 321.98 583.443 322.837 Q584.577 323.67 588.003 324.434 L589.461 324.758 Q593.998 325.73 595.897 327.512 Q597.818 329.272 597.818 332.443 Q597.818 336.054 594.947 338.161 Q592.1 340.267 587.1 340.267 Q585.017 340.267 582.748 339.85 Q580.503 339.457 578.003 338.647 L578.003 334.249 Q580.364 335.475 582.656 336.1 Q584.948 336.702 587.193 336.702 Q590.202 336.702 591.823 335.684 Q593.443 334.642 593.443 332.767 Q593.443 331.031 592.262 330.105 Q591.105 329.179 587.147 328.323 L585.665 327.975 Q581.707 327.142 579.948 325.429 Q578.188 323.693 578.188 320.684 Q578.188 317.026 580.781 315.036 Q583.373 313.045 588.142 313.045 Q590.503 313.045 592.586 313.392 Q594.67 313.739 596.429 314.434 Z" fill="#000000" fill-rule="evenodd" fill-opacity="1" /><path clip-path="url(#clip900)" d="M604.6 313.67 L608.859 313.67 L608.859 339.596 L604.6 339.596 L604.6 313.67 M604.6 303.577 L608.859 303.577 L608.859 308.971 L604.6 308.971 L604.6 303.577 Z" fill="#000000" fill-rule="evenodd" fill-opacity="1" /><path clip-path="url(#clip900)" d="M636.429 314.665 L636.429 318.647 Q634.623 317.651 632.795 317.165 Q630.989 316.656 629.137 316.656 Q624.994 316.656 622.702 319.295 Q620.41 321.911 620.41 326.656 Q620.41 331.401 622.702 334.04 Q624.994 336.656 629.137 336.656 Q630.989 336.656 632.795 336.17 Q634.623 335.661 636.429 334.665 L636.429 338.6 Q634.646 339.434 632.725 339.85 Q630.827 340.267 628.674 340.267 Q622.818 340.267 619.369 336.586 Q615.92 332.906 615.92 326.656 Q615.92 320.313 619.392 316.679 Q622.887 313.045 628.952 313.045 Q630.92 313.045 632.795 313.462 Q634.669 313.855 636.429 314.665 Z" fill="#000000" fill-rule="evenodd" fill-opacity="1" /><path clip-path="url(#clip900)" d="M655.618 326.563 Q650.456 326.563 648.466 327.744 Q646.475 328.924 646.475 331.772 Q646.475 334.04 647.956 335.383 Q649.461 336.702 652.031 336.702 Q655.572 336.702 657.702 334.202 Q659.855 331.679 659.855 327.512 L659.855 326.563 L655.618 326.563 M664.114 324.804 L664.114 339.596 L659.855 339.596 L659.855 335.661 Q658.396 338.022 656.22 339.156 Q654.044 340.267 650.896 340.267 Q646.915 340.267 644.554 338.045 Q642.216 335.799 642.216 332.049 Q642.216 327.674 645.132 325.452 Q648.072 323.23 653.882 323.23 L659.855 323.23 L659.855 322.813 Q659.855 319.874 657.91 318.276 Q655.989 316.656 652.493 316.656 Q650.271 316.656 648.165 317.188 Q646.058 317.721 644.114 318.786 L644.114 314.85 Q646.452 313.948 648.651 313.508 Q650.85 313.045 652.933 313.045 Q658.558 313.045 661.336 315.962 Q664.114 318.878 664.114 324.804 Z" fill="#000000" fill-rule="evenodd" fill-opacity="1" /><path clip-path="url(#clip900)" d="M672.887 303.577 L677.146 303.577 L677.146 339.596 L672.887 339.596 L672.887 303.577 Z" fill="#000000" fill-rule="evenodd" fill-opacity="1" /><path clip-path="url(#clip900)" d="M719.785 314.665 L719.785 318.647 Q717.979 317.651 716.151 317.165 Q714.345 316.656 712.493 316.656 Q708.35 316.656 706.058 319.295 Q703.766 321.911 703.766 326.656 Q703.766 331.401 706.058 334.04 Q708.35 336.656 712.493 336.656 Q714.345 336.656 716.151 336.17 Q717.979 335.661 719.785 334.665 L719.785 338.6 Q718.002 339.434 716.081 339.85 Q714.183 340.267 712.03 340.267 Q706.174 340.267 702.725 336.586 Q699.276 332.906 699.276 326.656 Q699.276 320.313 702.748 316.679 Q706.243 313.045 712.308 313.045 Q714.276 313.045 716.151 313.462 Q718.026 313.855 719.785 314.665 Z" fill="#000000" fill-rule="evenodd" fill-opacity="1" /><path clip-path="url(#clip900)" d="M737.238 316.656 Q733.812 316.656 731.822 319.341 Q729.831 322.003 729.831 326.656 Q729.831 331.309 731.799 333.994 Q733.789 336.656 737.238 336.656 Q740.641 336.656 742.632 333.971 Q744.623 331.286 744.623 326.656 Q744.623 322.05 742.632 319.364 Q740.641 316.656 737.238 316.656 M737.238 313.045 Q742.794 313.045 745.965 316.656 Q749.136 320.267 749.136 326.656 Q749.136 333.022 745.965 336.656 Q742.794 340.267 737.238 340.267 Q731.66 340.267 728.488 336.656 Q725.34 333.022 725.34 326.656 Q725.34 320.267 728.488 316.656 Q731.66 313.045 737.238 313.045 Z" fill="#000000" fill-rule="evenodd" fill-opacity="1" /><path clip-path="url(#clip900)" d="M771.22 317.651 Q770.502 317.235 769.646 317.05 Q768.812 316.841 767.794 316.841 Q764.183 316.841 762.238 319.202 Q760.317 321.54 760.317 325.938 L760.317 339.596 L756.035 339.596 L756.035 313.67 L760.317 313.67 L760.317 317.698 Q761.66 315.337 763.812 314.202 Q765.965 313.045 769.044 313.045 Q769.484 313.045 770.016 313.114 Q770.548 313.161 771.197 313.276 L771.22 317.651 Z" fill="#000000" fill-rule="evenodd" fill-opacity="1" /><path clip-path="url(#clip900)" d="M796.821 325.568 L796.821 327.651 L777.238 327.651 Q777.516 332.049 779.877 334.364 Q782.261 336.656 786.497 336.656 Q788.951 336.656 791.243 336.054 Q793.558 335.452 795.826 334.249 L795.826 338.276 Q793.534 339.248 791.127 339.758 Q788.72 340.267 786.243 340.267 Q780.039 340.267 776.405 336.656 Q772.794 333.045 772.794 326.887 Q772.794 320.522 776.22 316.795 Q779.669 313.045 785.502 313.045 Q790.733 313.045 793.766 316.425 Q796.821 319.781 796.821 325.568 M792.562 324.318 Q792.516 320.823 790.595 318.739 Q788.696 316.656 785.548 316.656 Q781.984 316.656 779.831 318.67 Q777.701 320.684 777.377 324.341 L792.562 324.318 Z" fill="#000000" fill-rule="evenodd" fill-opacity="1" /><path clip-path="url(#clip900)" d="M820.34 314.434 L820.34 318.462 Q818.534 317.536 816.59 317.073 Q814.645 316.61 812.562 316.61 Q809.391 316.61 807.794 317.582 Q806.219 318.554 806.219 320.499 Q806.219 321.98 807.354 322.837 Q808.488 323.67 811.914 324.434 L813.372 324.758 Q817.909 325.73 819.807 327.512 Q821.729 329.272 821.729 332.443 Q821.729 336.054 818.858 338.161 Q816.011 340.267 811.011 340.267 Q808.928 340.267 806.659 339.85 Q804.414 339.457 801.914 338.647 L801.914 334.249 Q804.275 335.475 806.567 336.1 Q808.858 336.702 811.104 336.702 Q814.113 336.702 815.733 335.684 Q817.354 334.642 817.354 332.767 Q817.354 331.031 816.173 330.105 Q815.016 329.179 811.057 328.323 L809.576 327.975 Q805.618 327.142 803.858 325.429 Q802.099 323.693 802.099 320.684 Q802.099 317.026 804.692 315.036 Q807.284 313.045 812.053 313.045 Q814.414 313.045 816.497 313.392 Q818.581 313.739 820.34 314.434 Z" fill="#000000" fill-rule="evenodd" fill-opacity="1" /></svg>
