<?xml version="1.0" encoding="utf-8"?>
<svg xmlns="http://www.w3.org/2000/svg" xmlns:xlink="http://www.w3.org/1999/xlink" width="600" height="400" viewBox="0 0 2400 1600">
<defs>
  <clipPath id="clip590">
    <rect x="0" y="0" width="2400" height="1600"/>
  </clipPath>
</defs>
<path clip-path="url(#clip590)" d="
M0 1600 L2400 1600 L2400 0 L0 0  Z
  " fill="#ffffff" fill-rule="evenodd" fill-opacity="1"/>
<defs>
  <clipPath id="clip591">
    <rect x="480" y="0" width="1681" height="1600"/>
  </clipPath>
</defs>
<path clip-path="url(#clip590)" d="
M247.459 1423.18 L2352.76 1423.18 L2352.76 123.472 L247.459 123.472  Z
  " fill="#ffffff" fill-rule="evenodd" fill-opacity="1"/>
<defs>
  <clipPath id="clip592">
    <rect x="247" y="123" width="2106" height="1301"/>
  </clipPath>
</defs>
<polyline clip-path="url(#clip592)" style="stroke:#000000; stroke-linecap:butt; stroke-linejoin:round; stroke-width:2; stroke-opacity:0.1; fill:none" points="
  256.116,1423.18 256.116,123.472 
  "/>
<polyline clip-path="url(#clip592)" style="stroke:#000000; stroke-linecap:butt; stroke-linejoin:round; stroke-width:2; stroke-opacity:0.1; fill:none" points="
  765.38,1423.18 765.38,123.472 
  "/>
<polyline clip-path="url(#clip592)" style="stroke:#000000; stroke-linecap:butt; stroke-linejoin:round; stroke-width:2; stroke-opacity:0.1; fill:none" points="
  1274.64,1423.18 1274.64,123.472 
  "/>
<polyline clip-path="url(#clip592)" style="stroke:#000000; stroke-linecap:butt; stroke-linejoin:round; stroke-width:2; stroke-opacity:0.1; fill:none" points="
  1783.91,1423.18 1783.91,123.472 
  "/>
<polyline clip-path="url(#clip592)" style="stroke:#000000; stroke-linecap:butt; stroke-linejoin:round; stroke-width:2; stroke-opacity:0.1; fill:none" points="
  2293.17,1423.18 2293.17,123.472 
  "/>
<polyline clip-path="url(#clip590)" style="stroke:#000000; stroke-linecap:butt; stroke-linejoin:round; stroke-width:4; stroke-opacity:1; fill:none" points="
  247.459,1423.18 2352.76,1423.18 
  "/>
<polyline clip-path="url(#clip590)" style="stroke:#000000; stroke-linecap:butt; stroke-linejoin:round; stroke-width:4; stroke-opacity:1; fill:none" points="
  256.116,1423.18 256.116,1404.28 
  "/>
<polyline clip-path="url(#clip590)" style="stroke:#000000; stroke-linecap:butt; stroke-linejoin:round; stroke-width:4; stroke-opacity:1; fill:none" points="
  765.38,1423.18 765.38,1404.28 
  "/>
<polyline clip-path="url(#clip590)" style="stroke:#000000; stroke-linecap:butt; stroke-linejoin:round; stroke-width:4; stroke-opacity:1; fill:none" points="
  1274.64,1423.18 1274.64,1404.28 
  "/>
<polyline clip-path="url(#clip590)" style="stroke:#000000; stroke-linecap:butt; stroke-linejoin:round; stroke-width:4; stroke-opacity:1; fill:none" points="
  1783.91,1423.18 1783.91,1404.28 
  "/>
<polyline clip-path="url(#clip590)" style="stroke:#000000; stroke-linecap:butt; stroke-linejoin:round; stroke-width:4; stroke-opacity:1; fill:none" points="
  2293.17,1423.18 2293.17,1404.28 
  "/>
<path clip-path="url(#clip590)" d="M256.116 1454.1 Q252.505 1454.1 250.676 1457.66 Q248.871 1461.2 248.871 1468.33 Q248.871 1475.44 250.676 1479.01 Q252.505 1482.55 256.116 1482.55 Q259.75 1482.55 261.556 1479.01 Q263.385 1475.44 263.385 1468.33 Q263.385 1461.2 261.556 1457.66 Q259.75 1454.1 256.116 1454.1 M256.116 1450.39 Q261.926 1450.39 264.982 1455 Q268.061 1459.58 268.061 1468.33 Q268.061 1477.06 264.982 1481.67 Q261.926 1486.25 256.116 1486.25 Q250.306 1486.25 247.227 1481.67 Q244.172 1477.06 244.172 1468.33 Q244.172 1459.58 247.227 1455 Q250.306 1450.39 256.116 1450.39 Z" fill="#000000" fill-rule="evenodd" fill-opacity="1" /><path clip-path="url(#clip590)" d="M713.992 1481.64 L730.311 1481.64 L730.311 1485.58 L708.367 1485.58 L708.367 1481.64 Q711.029 1478.89 715.612 1474.26 Q720.218 1469.61 721.399 1468.27 Q723.644 1465.74 724.524 1464.01 Q725.427 1462.25 725.427 1460.56 Q725.427 1457.8 723.482 1456.07 Q721.561 1454.33 718.459 1454.33 Q716.26 1454.33 713.806 1455.09 Q711.376 1455.86 708.598 1457.41 L708.598 1452.69 Q711.422 1451.55 713.876 1450.97 Q716.329 1450.39 718.367 1450.39 Q723.737 1450.39 726.931 1453.08 Q730.126 1455.77 730.126 1460.26 Q730.126 1462.39 729.316 1464.31 Q728.528 1466.2 726.422 1468.8 Q725.843 1469.47 722.741 1472.69 Q719.64 1475.88 713.992 1481.64 Z" fill="#000000" fill-rule="evenodd" fill-opacity="1" /><path clip-path="url(#clip590)" d="M740.172 1451.02 L758.528 1451.02 L758.528 1454.96 L744.454 1454.96 L744.454 1463.43 Q745.473 1463.08 746.491 1462.92 Q747.51 1462.73 748.528 1462.73 Q754.315 1462.73 757.695 1465.9 Q761.075 1469.08 761.075 1474.49 Q761.075 1480.07 757.602 1483.17 Q754.13 1486.25 747.811 1486.25 Q745.635 1486.25 743.366 1485.88 Q741.121 1485.51 738.714 1484.77 L738.714 1480.07 Q740.797 1481.2 743.019 1481.76 Q745.241 1482.32 747.718 1482.32 Q751.723 1482.32 754.061 1480.21 Q756.399 1478.1 756.399 1474.49 Q756.399 1470.88 754.061 1468.77 Q751.723 1466.67 747.718 1466.67 Q745.843 1466.67 743.968 1467.08 Q742.116 1467.5 740.172 1468.38 L740.172 1451.02 Z" fill="#000000" fill-rule="evenodd" fill-opacity="1" /><path clip-path="url(#clip590)" d="M780.287 1454.1 Q776.676 1454.1 774.848 1457.66 Q773.042 1461.2 773.042 1468.33 Q773.042 1475.44 774.848 1479.01 Q776.676 1482.55 780.287 1482.55 Q783.922 1482.55 785.727 1479.01 Q787.556 1475.44 787.556 1468.33 Q787.556 1461.2 785.727 1457.66 Q783.922 1454.1 780.287 1454.1 M780.287 1450.39 Q786.098 1450.39 789.153 1455 Q792.232 1459.58 792.232 1468.33 Q792.232 1477.06 789.153 1481.67 Q786.098 1486.25 780.287 1486.25 Q774.477 1486.25 771.399 1481.67 Q768.343 1477.06 768.343 1468.33 Q768.343 1459.58 771.399 1455 Q774.477 1450.39 780.287 1450.39 Z" fill="#000000" fill-rule="evenodd" fill-opacity="1" /><path clip-path="url(#clip590)" d="M810.449 1454.1 Q806.838 1454.1 805.01 1457.66 Q803.204 1461.2 803.204 1468.33 Q803.204 1475.44 805.01 1479.01 Q806.838 1482.55 810.449 1482.55 Q814.084 1482.55 815.889 1479.01 Q817.718 1475.44 817.718 1468.33 Q817.718 1461.2 815.889 1457.66 Q814.084 1454.1 810.449 1454.1 M810.449 1450.39 Q816.26 1450.39 819.315 1455 Q822.394 1459.58 822.394 1468.33 Q822.394 1477.06 819.315 1481.67 Q816.26 1486.25 810.449 1486.25 Q804.639 1486.25 801.561 1481.67 Q798.505 1477.06 798.505 1468.33 Q798.505 1459.58 801.561 1455 Q804.639 1450.39 810.449 1450.39 Z" fill="#000000" fill-rule="evenodd" fill-opacity="1" /><path clip-path="url(#clip590)" d="M1219.18 1451.02 L1237.54 1451.02 L1237.54 1454.96 L1223.46 1454.96 L1223.46 1463.43 Q1224.48 1463.08 1225.5 1462.92 Q1226.52 1462.73 1227.54 1462.73 Q1233.32 1462.73 1236.7 1465.9 Q1240.08 1469.08 1240.08 1474.49 Q1240.08 1480.07 1236.61 1483.17 Q1233.14 1486.25 1226.82 1486.25 Q1224.64 1486.25 1222.38 1485.88 Q1220.13 1485.51 1217.72 1484.77 L1217.72 1480.07 Q1219.81 1481.2 1222.03 1481.76 Q1224.25 1482.32 1226.73 1482.32 Q1230.73 1482.32 1233.07 1480.21 Q1235.41 1478.1 1235.41 1474.49 Q1235.41 1470.88 1233.07 1468.77 Q1230.73 1466.67 1226.73 1466.67 Q1224.85 1466.67 1222.98 1467.08 Q1221.13 1467.5 1219.18 1468.38 L1219.18 1451.02 Z" fill="#000000" fill-rule="evenodd" fill-opacity="1" /><path clip-path="url(#clip590)" d="M1259.3 1454.1 Q1255.69 1454.1 1253.86 1457.66 Q1252.05 1461.2 1252.05 1468.33 Q1252.05 1475.44 1253.86 1479.01 Q1255.69 1482.55 1259.3 1482.55 Q1262.93 1482.55 1264.74 1479.01 Q1266.57 1475.44 1266.57 1468.33 Q1266.57 1461.2 1264.74 1457.66 Q1262.93 1454.1 1259.3 1454.1 M1259.3 1450.39 Q1265.11 1450.39 1268.16 1455 Q1271.24 1459.58 1271.24 1468.33 Q1271.24 1477.06 1268.16 1481.67 Q1265.11 1486.25 1259.3 1486.25 Q1253.49 1486.25 1250.41 1481.67 Q1247.35 1477.06 1247.35 1468.33 Q1247.35 1459.58 1250.41 1455 Q1253.49 1450.39 1259.3 1450.39 Z" fill="#000000" fill-rule="evenodd" fill-opacity="1" /><path clip-path="url(#clip590)" d="M1289.46 1454.1 Q1285.85 1454.1 1284.02 1457.66 Q1282.21 1461.2 1282.21 1468.33 Q1282.21 1475.44 1284.02 1479.01 Q1285.85 1482.55 1289.46 1482.55 Q1293.09 1482.55 1294.9 1479.01 Q1296.73 1475.44 1296.73 1468.33 Q1296.73 1461.2 1294.9 1457.66 Q1293.09 1454.1 1289.46 1454.1 M1289.46 1450.39 Q1295.27 1450.39 1298.32 1455 Q1301.4 1459.58 1301.4 1468.33 Q1301.4 1477.06 1298.32 1481.67 Q1295.27 1486.25 1289.46 1486.25 Q1283.65 1486.25 1280.57 1481.67 Q1277.51 1477.06 1277.51 1468.33 Q1277.51 1459.58 1280.57 1455 Q1283.65 1450.39 1289.46 1450.39 Z" fill="#000000" fill-rule="evenodd" fill-opacity="1" /><path clip-path="url(#clip590)" d="M1319.62 1454.1 Q1316.01 1454.1 1314.18 1457.66 Q1312.38 1461.2 1312.38 1468.33 Q1312.38 1475.44 1314.18 1479.01 Q1316.01 1482.55 1319.62 1482.55 Q1323.25 1482.55 1325.06 1479.01 Q1326.89 1475.44 1326.89 1468.33 Q1326.89 1461.2 1325.06 1457.66 Q1323.25 1454.1 1319.62 1454.1 M1319.62 1450.39 Q1325.43 1450.39 1328.49 1455 Q1331.57 1459.58 1331.57 1468.33 Q1331.57 1477.06 1328.49 1481.67 Q1325.43 1486.25 1319.62 1486.25 Q1313.81 1486.25 1310.73 1481.67 Q1307.68 1477.06 1307.68 1468.33 Q1307.68 1459.58 1310.73 1455 Q1313.81 1450.39 1319.62 1450.39 Z" fill="#000000" fill-rule="evenodd" fill-opacity="1" /><path clip-path="url(#clip590)" d="M1727.1 1451.02 L1749.32 1451.02 L1749.32 1453.01 L1736.78 1485.58 L1731.89 1485.58 L1743.7 1454.96 L1727.1 1454.96 L1727.1 1451.02 Z" fill="#000000" fill-rule="evenodd" fill-opacity="1" /><path clip-path="url(#clip590)" d="M1758.49 1451.02 L1776.85 1451.02 L1776.85 1454.96 L1762.77 1454.96 L1762.77 1463.43 Q1763.79 1463.08 1764.81 1462.92 Q1765.83 1462.73 1766.85 1462.73 Q1772.63 1462.73 1776.01 1465.9 Q1779.39 1469.08 1779.39 1474.49 Q1779.39 1480.07 1775.92 1483.17 Q1772.45 1486.25 1766.13 1486.25 Q1763.95 1486.25 1761.69 1485.88 Q1759.44 1485.51 1757.03 1484.77 L1757.03 1480.07 Q1759.12 1481.2 1761.34 1481.76 Q1763.56 1482.32 1766.04 1482.32 Q1770.04 1482.32 1772.38 1480.21 Q1774.72 1478.1 1774.72 1474.49 Q1774.72 1470.88 1772.38 1468.77 Q1770.04 1466.67 1766.04 1466.67 Q1764.16 1466.67 1762.29 1467.08 Q1760.44 1467.5 1758.49 1468.38 L1758.49 1451.02 Z" fill="#000000" fill-rule="evenodd" fill-opacity="1" /><path clip-path="url(#clip590)" d="M1798.61 1454.1 Q1795 1454.1 1793.17 1457.66 Q1791.36 1461.2 1791.36 1468.33 Q1791.36 1475.44 1793.17 1479.01 Q1795 1482.55 1798.61 1482.55 Q1802.24 1482.55 1804.05 1479.01 Q1805.88 1475.44 1805.88 1468.33 Q1805.88 1461.2 1804.05 1457.66 Q1802.24 1454.1 1798.61 1454.1 M1798.61 1450.39 Q1804.42 1450.39 1807.47 1455 Q1810.55 1459.58 1810.55 1468.33 Q1810.55 1477.06 1807.47 1481.67 Q1804.42 1486.25 1798.61 1486.25 Q1792.8 1486.25 1789.72 1481.67 Q1786.66 1477.06 1786.66 1468.33 Q1786.66 1459.58 1789.72 1455 Q1792.8 1450.39 1798.61 1450.39 Z" fill="#000000" fill-rule="evenodd" fill-opacity="1" /><path clip-path="url(#clip590)" d="M1828.77 1454.1 Q1825.16 1454.1 1823.33 1457.66 Q1821.52 1461.2 1821.52 1468.33 Q1821.52 1475.44 1823.33 1479.01 Q1825.16 1482.55 1828.77 1482.55 Q1832.4 1482.55 1834.21 1479.01 Q1836.04 1475.44 1836.04 1468.33 Q1836.04 1461.2 1834.21 1457.66 Q1832.4 1454.1 1828.77 1454.1 M1828.77 1450.39 Q1834.58 1450.39 1837.63 1455 Q1840.71 1459.58 1840.71 1468.33 Q1840.71 1477.06 1837.63 1481.67 Q1834.58 1486.25 1828.77 1486.25 Q1822.96 1486.25 1819.88 1481.67 Q1816.82 1477.06 1816.82 1468.33 Q1816.82 1459.58 1819.88 1455 Q1822.96 1450.39 1828.77 1450.39 Z" fill="#000000" fill-rule="evenodd" fill-opacity="1" /><path clip-path="url(#clip590)" d="M2222.62 1481.64 L2230.26 1481.64 L2230.26 1455.28 L2221.95 1456.95 L2221.95 1452.69 L2230.21 1451.02 L2234.89 1451.02 L2234.89 1481.64 L2242.52 1481.64 L2242.52 1485.58 L2222.62 1485.58 L2222.62 1481.64 Z" fill="#000000" fill-rule="evenodd" fill-opacity="1" /><path clip-path="url(#clip590)" d="M2261.97 1454.1 Q2258.36 1454.1 2256.53 1457.66 Q2254.72 1461.2 2254.72 1468.33 Q2254.72 1475.44 2256.53 1479.01 Q2258.36 1482.55 2261.97 1482.55 Q2265.6 1482.55 2267.41 1479.01 Q2269.24 1475.44 2269.24 1468.33 Q2269.24 1461.2 2267.41 1457.66 Q2265.6 1454.1 2261.97 1454.1 M2261.97 1450.39 Q2267.78 1450.39 2270.83 1455 Q2273.91 1459.58 2273.91 1468.33 Q2273.91 1477.06 2270.83 1481.67 Q2267.78 1486.25 2261.97 1486.25 Q2256.16 1486.25 2253.08 1481.67 Q2250.02 1477.06 2250.02 1468.33 Q2250.02 1459.58 2253.08 1455 Q2256.16 1450.39 2261.97 1450.39 Z" fill="#000000" fill-rule="evenodd" fill-opacity="1" /><path clip-path="url(#clip590)" d="M2292.13 1454.1 Q2288.52 1454.1 2286.69 1457.66 Q2284.89 1461.2 2284.89 1468.33 Q2284.89 1475.44 2286.69 1479.01 Q2288.52 1482.55 2292.13 1482.55 Q2295.76 1482.55 2297.57 1479.01 Q2299.4 1475.44 2299.4 1468.33 Q2299.4 1461.2 2297.57 1457.66 Q2295.76 1454.1 2292.13 1454.1 M2292.13 1450.39 Q2297.94 1450.39 2301 1455 Q2304.07 1459.58 2304.07 1468.33 Q2304.07 1477.06 2301 1481.67 Q2297.94 1486.25 2292.13 1486.25 Q2286.32 1486.25 2283.24 1481.67 Q2280.19 1477.06 2280.19 1468.33 Q2280.19 1459.58 2283.24 1455 Q2286.32 1450.39 2292.13 1450.39 Z" fill="#000000" fill-rule="evenodd" fill-opacity="1" /><path clip-path="url(#clip590)" d="M2322.29 1454.1 Q2318.68 1454.1 2316.85 1457.66 Q2315.05 1461.2 2315.05 1468.33 Q2315.05 1475.44 2316.85 1479.01 Q2318.68 1482.55 2322.29 1482.55 Q2325.93 1482.55 2327.73 1479.01 Q2329.56 1475.44 2329.56 1468.33 Q2329.56 1461.2 2327.73 1457.66 Q2325.93 1454.1 2322.29 1454.1 M2322.29 1450.39 Q2328.1 1450.39 2331.16 1455 Q2334.24 1459.58 2334.24 1468.33 Q2334.24 1477.06 2331.16 1481.67 Q2328.1 1486.25 2322.29 1486.25 Q2316.48 1486.25 2313.4 1481.67 Q2310.35 1477.06 2310.35 1468.33 Q2310.35 1459.58 2313.4 1455 Q2316.48 1450.39 2322.29 1450.39 Z" fill="#000000" fill-rule="evenodd" fill-opacity="1" /><path clip-path="url(#clip590)" d="M2352.45 1454.1 Q2348.84 1454.1 2347.01 1457.66 Q2345.21 1461.2 2345.21 1468.33 Q2345.21 1475.44 2347.01 1479.01 Q2348.84 1482.55 2352.45 1482.55 Q2356.09 1482.55 2357.89 1479.01 Q2359.72 1475.44 2359.72 1468.33 Q2359.72 1461.2 2357.89 1457.66 Q2356.09 1454.1 2352.45 1454.1 M2352.45 1450.39 Q2358.26 1450.39 2361.32 1455 Q2364.4 1459.58 2364.4 1468.33 Q2364.4 1477.06 2361.32 1481.67 Q2358.26 1486.25 2352.45 1486.25 Q2346.64 1486.25 2343.57 1481.67 Q2340.51 1477.06 2340.51 1468.33 Q2340.51 1459.58 2343.57 1455 Q2346.64 1450.39 2352.45 1450.39 Z" fill="#000000" fill-rule="evenodd" fill-opacity="1" /><path clip-path="url(#clip590)" d="M1018.66 1520.52 L1027.32 1520.52 L1048.39 1560.28 L1048.39 1520.52 L1054.63 1520.52 L1054.63 1568.04 L1045.97 1568.04 L1024.9 1528.29 L1024.9 1568.04 L1018.66 1568.04 L1018.66 1520.52 Z" fill="#000000" fill-rule="evenodd" fill-opacity="1" /><path clip-path="url(#clip590)" d="M1066.57 1553.98 L1066.57 1532.4 L1072.42 1532.4 L1072.42 1553.75 Q1072.42 1558.81 1074.4 1561.36 Q1076.37 1563.87 1080.32 1563.87 Q1085.06 1563.87 1087.8 1560.85 Q1090.56 1557.83 1090.56 1552.61 L1090.56 1532.4 L1096.42 1532.4 L1096.42 1568.04 L1090.56 1568.04 L1090.56 1562.57 Q1088.43 1565.82 1085.6 1567.41 Q1082.8 1568.97 1079.07 1568.97 Q1072.93 1568.97 1069.75 1565.15 Q1066.57 1561.33 1066.57 1553.98 M1081.3 1531.54 L1081.3 1531.54 Z" fill="#000000" fill-rule="evenodd" fill-opacity="1" /><path clip-path="url(#clip590)" d="M1136.24 1539.24 Q1138.43 1535.29 1141.49 1533.41 Q1144.55 1531.54 1148.68 1531.54 Q1154.25 1531.54 1157.28 1535.45 Q1160.3 1539.33 1160.3 1546.53 L1160.3 1568.04 L1154.41 1568.04 L1154.41 1546.72 Q1154.41 1541.59 1152.6 1539.11 Q1150.78 1536.63 1147.06 1536.63 Q1142.51 1536.63 1139.87 1539.65 Q1137.22 1542.68 1137.22 1547.9 L1137.22 1568.04 L1131.34 1568.04 L1131.34 1546.72 Q1131.34 1541.56 1129.52 1539.11 Q1127.71 1536.63 1123.92 1536.63 Q1119.43 1536.63 1116.79 1539.68 Q1114.15 1542.71 1114.15 1547.9 L1114.15 1568.04 L1108.26 1568.04 L1108.26 1532.4 L1114.15 1532.4 L1114.15 1537.93 Q1116.15 1534.66 1118.96 1533.1 Q1121.76 1531.54 1125.61 1531.54 Q1129.49 1531.54 1132.2 1533.51 Q1134.93 1535.48 1136.24 1539.24 Z" fill="#000000" fill-rule="evenodd" fill-opacity="1" /><path clip-path="url(#clip590)" d="M1197.57 1550.25 Q1197.57 1543.79 1194.9 1540.13 Q1192.26 1536.44 1187.61 1536.44 Q1182.96 1536.44 1180.29 1540.13 Q1177.65 1543.79 1177.65 1550.25 Q1177.65 1556.71 1180.29 1560.4 Q1182.96 1564.07 1187.61 1564.07 Q1192.26 1564.07 1194.9 1560.4 Q1197.57 1556.71 1197.57 1550.25 M1177.65 1537.81 Q1179.49 1534.62 1182.29 1533.1 Q1185.13 1531.54 1189.04 1531.54 Q1195.53 1531.54 1199.58 1536.69 Q1203.65 1541.85 1203.65 1550.25 Q1203.65 1558.65 1199.58 1563.81 Q1195.53 1568.97 1189.04 1568.97 Q1185.13 1568.97 1182.29 1567.44 Q1179.49 1565.88 1177.65 1562.7 L1177.65 1568.04 L1171.76 1568.04 L1171.76 1518.52 L1177.65 1518.52 L1177.65 1537.81 Z" fill="#000000" fill-rule="evenodd" fill-opacity="1" /><path clip-path="url(#clip590)" d="M1243.85 1548.76 L1243.85 1551.62 L1216.92 1551.62 Q1217.31 1557.67 1220.55 1560.85 Q1223.83 1564 1229.65 1564 Q1233.03 1564 1236.18 1563.17 Q1239.36 1562.35 1242.48 1560.69 L1242.48 1566.23 Q1239.33 1567.57 1236.02 1568.27 Q1232.71 1568.97 1229.3 1568.97 Q1220.77 1568.97 1215.78 1564 Q1210.81 1559.04 1210.81 1550.57 Q1210.81 1541.82 1215.52 1536.69 Q1220.27 1531.54 1228.29 1531.54 Q1235.48 1531.54 1239.65 1536.18 Q1243.85 1540.8 1243.85 1548.76 M1237.99 1547.04 Q1237.93 1542.23 1235.29 1539.37 Q1232.68 1536.5 1228.35 1536.5 Q1223.45 1536.5 1220.49 1539.27 Q1217.56 1542.04 1217.11 1547.07 L1237.99 1547.04 Z" fill="#000000" fill-rule="evenodd" fill-opacity="1" /><path clip-path="url(#clip590)" d="M1274.12 1537.87 Q1273.13 1537.3 1271.95 1537.04 Q1270.81 1536.76 1269.41 1536.76 Q1264.44 1536.76 1261.77 1540 Q1259.13 1543.22 1259.13 1549.27 L1259.13 1568.04 L1253.24 1568.04 L1253.24 1532.4 L1259.13 1532.4 L1259.13 1537.93 Q1260.97 1534.69 1263.93 1533.13 Q1266.89 1531.54 1271.13 1531.54 Q1271.73 1531.54 1272.46 1531.63 Q1273.2 1531.7 1274.09 1531.85 L1274.12 1537.87 Z" fill="#000000" fill-rule="evenodd" fill-opacity="1" /><path clip-path="url(#clip590)" d="M1314.8 1536.5 Q1310.09 1536.5 1307.35 1540.19 Q1304.61 1543.85 1304.61 1550.25 Q1304.61 1556.65 1307.32 1560.34 Q1310.05 1564 1314.8 1564 Q1319.47 1564 1322.21 1560.31 Q1324.95 1556.62 1324.95 1550.25 Q1324.95 1543.92 1322.21 1540.23 Q1319.47 1536.5 1314.8 1536.5 M1314.8 1531.54 Q1322.44 1531.54 1326.8 1536.5 Q1331.16 1541.47 1331.16 1550.25 Q1331.16 1559 1326.8 1564 Q1322.44 1568.97 1314.8 1568.97 Q1307.13 1568.97 1302.76 1564 Q1298.44 1559 1298.44 1550.25 Q1298.44 1541.47 1302.76 1536.5 Q1307.13 1531.54 1314.8 1531.54 Z" fill="#000000" fill-rule="evenodd" fill-opacity="1" /><path clip-path="url(#clip590)" d="M1358.91 1518.52 L1358.91 1523.39 L1353.31 1523.39 Q1350.16 1523.39 1348.92 1524.66 Q1347.71 1525.93 1347.71 1529.24 L1347.71 1532.4 L1357.35 1532.4 L1357.35 1536.95 L1347.71 1536.95 L1347.71 1568.04 L1341.82 1568.04 L1341.82 1536.95 L1336.22 1536.95 L1336.22 1532.4 L1341.82 1532.4 L1341.82 1529.91 Q1341.82 1523.96 1344.59 1521.26 Q1347.36 1518.52 1353.37 1518.52 L1358.91 1518.52 Z" fill="#000000" fill-rule="evenodd" fill-opacity="1" /><path clip-path="url(#clip590)" d="M1400.67 1526.86 L1391.95 1550.51 L1409.42 1550.51 L1400.67 1526.86 M1397.04 1520.52 L1404.33 1520.52 L1422.44 1568.04 L1415.76 1568.04 L1411.43 1555.85 L1390.01 1555.85 L1385.68 1568.04 L1378.9 1568.04 L1397.04 1520.52 Z" fill="#000000" fill-rule="evenodd" fill-opacity="1" /><path clip-path="url(#clip590)" d="M1433.77 1522.27 L1433.77 1532.4 L1445.83 1532.4 L1445.83 1536.95 L1433.77 1536.95 L1433.77 1556.3 Q1433.77 1560.66 1434.95 1561.9 Q1436.16 1563.14 1439.82 1563.14 L1445.83 1563.14 L1445.83 1568.04 L1439.82 1568.04 Q1433.04 1568.04 1430.46 1565.53 Q1427.88 1562.98 1427.88 1556.3 L1427.88 1536.95 L1423.59 1536.95 L1423.59 1532.4 L1427.88 1532.4 L1427.88 1522.27 L1433.77 1522.27 Z" fill="#000000" fill-rule="evenodd" fill-opacity="1" /><path clip-path="url(#clip590)" d="M1467.35 1536.5 Q1462.64 1536.5 1459.9 1540.19 Q1457.17 1543.85 1457.17 1550.25 Q1457.17 1556.65 1459.87 1560.34 Q1462.61 1564 1467.35 1564 Q1472.03 1564 1474.77 1560.31 Q1477.5 1556.62 1477.5 1550.25 Q1477.5 1543.92 1474.77 1540.23 Q1472.03 1536.5 1467.35 1536.5 M1467.35 1531.54 Q1474.99 1531.54 1479.35 1536.5 Q1483.71 1541.47 1483.71 1550.25 Q1483.71 1559 1479.35 1564 Q1474.99 1568.97 1467.35 1568.97 Q1459.68 1568.97 1455.32 1564 Q1450.99 1559 1450.99 1550.25 Q1450.99 1541.47 1455.32 1536.5 Q1459.68 1531.54 1467.35 1531.54 Z" fill="#000000" fill-rule="evenodd" fill-opacity="1" /><path clip-path="url(#clip590)" d="M1521.17 1539.24 Q1523.37 1535.29 1526.42 1533.41 Q1529.48 1531.54 1533.62 1531.54 Q1539.19 1531.54 1542.21 1535.45 Q1545.23 1539.33 1545.23 1546.53 L1545.23 1568.04 L1539.35 1568.04 L1539.35 1546.72 Q1539.35 1541.59 1537.53 1539.11 Q1535.72 1536.63 1531.99 1536.63 Q1527.44 1536.63 1524.8 1539.65 Q1522.16 1542.68 1522.16 1547.9 L1522.16 1568.04 L1516.27 1568.04 L1516.27 1546.72 Q1516.27 1541.56 1514.46 1539.11 Q1512.64 1536.63 1508.85 1536.63 Q1504.37 1536.63 1501.73 1539.68 Q1499.08 1542.71 1499.08 1547.9 L1499.08 1568.04 L1493.2 1568.04 L1493.2 1532.4 L1499.08 1532.4 L1499.08 1537.93 Q1501.09 1534.66 1503.89 1533.1 Q1506.69 1531.54 1510.54 1531.54 Q1514.42 1531.54 1517.13 1533.51 Q1519.87 1535.48 1521.17 1539.24 Z" fill="#000000" fill-rule="evenodd" fill-opacity="1" /><path clip-path="url(#clip590)" d="M1579.64 1533.45 L1579.64 1538.98 Q1577.16 1537.71 1574.49 1537.07 Q1571.81 1536.44 1568.95 1536.44 Q1564.59 1536.44 1562.39 1537.77 Q1560.23 1539.11 1560.23 1541.79 Q1560.23 1543.82 1561.79 1545 Q1563.35 1546.15 1568.06 1547.2 L1570.06 1547.64 Q1576.3 1548.98 1578.91 1551.43 Q1581.55 1553.85 1581.55 1558.21 Q1581.55 1563.17 1577.6 1566.07 Q1573.69 1568.97 1566.81 1568.97 Q1563.95 1568.97 1560.83 1568.39 Q1557.74 1567.85 1554.31 1566.74 L1554.31 1560.69 Q1557.55 1562.38 1560.7 1563.24 Q1563.85 1564.07 1566.94 1564.07 Q1571.08 1564.07 1573.31 1562.66 Q1575.54 1561.23 1575.54 1558.65 Q1575.54 1556.27 1573.91 1554.99 Q1572.32 1553.72 1566.88 1552.54 L1564.84 1552.07 Q1559.4 1550.92 1556.98 1548.56 Q1554.56 1546.18 1554.56 1542.04 Q1554.56 1537.01 1558.13 1534.27 Q1561.69 1531.54 1568.25 1531.54 Q1571.49 1531.54 1574.36 1532.01 Q1577.22 1532.49 1579.64 1533.45 Z" fill="#000000" fill-rule="evenodd" fill-opacity="1" /><polyline clip-path="url(#clip592)" style="stroke:#000000; stroke-linecap:butt; stroke-linejoin:round; stroke-width:2; stroke-opacity:0.1; fill:none" points="
  247.459,1386.59 2352.76,1386.59 
  "/>
<polyline clip-path="url(#clip592)" style="stroke:#000000; stroke-linecap:butt; stroke-linejoin:round; stroke-width:2; stroke-opacity:0.1; fill:none" points="
  247.459,1113.95 2352.76,1113.95 
  "/>
<polyline clip-path="url(#clip592)" style="stroke:#000000; stroke-linecap:butt; stroke-linejoin:round; stroke-width:2; stroke-opacity:0.1; fill:none" points="
  247.459,841.31 2352.76,841.31 
  "/>
<polyline clip-path="url(#clip592)" style="stroke:#000000; stroke-linecap:butt; stroke-linejoin:round; stroke-width:2; stroke-opacity:0.1; fill:none" points="
  247.459,568.671 2352.76,568.671 
  "/>
<polyline clip-path="url(#clip592)" style="stroke:#000000; stroke-linecap:butt; stroke-linejoin:round; stroke-width:2; stroke-opacity:0.1; fill:none" points="
  247.459,296.032 2352.76,296.032 
  "/>
<polyline clip-path="url(#clip590)" style="stroke:#000000; stroke-linecap:butt; stroke-linejoin:round; stroke-width:4; stroke-opacity:1; fill:none" points="
  247.459,1423.18 247.459,123.472 
  "/>
<polyline clip-path="url(#clip590)" style="stroke:#000000; stroke-linecap:butt; stroke-linejoin:round; stroke-width:4; stroke-opacity:1; fill:none" points="
  247.459,1386.59 266.356,1386.59 
  "/>
<polyline clip-path="url(#clip590)" style="stroke:#000000; stroke-linecap:butt; stroke-linejoin:round; stroke-width:4; stroke-opacity:1; fill:none" points="
  247.459,1113.95 266.356,1113.95 
  "/>
<polyline clip-path="url(#clip590)" style="stroke:#000000; stroke-linecap:butt; stroke-linejoin:round; stroke-width:4; stroke-opacity:1; fill:none" points="
  247.459,841.31 266.356,841.31 
  "/>
<polyline clip-path="url(#clip590)" style="stroke:#000000; stroke-linecap:butt; stroke-linejoin:round; stroke-width:4; stroke-opacity:1; fill:none" points="
  247.459,568.671 266.356,568.671 
  "/>
<polyline clip-path="url(#clip590)" style="stroke:#000000; stroke-linecap:butt; stroke-linejoin:round; stroke-width:4; stroke-opacity:1; fill:none" points="
  247.459,296.032 266.356,296.032 
  "/>
<path clip-path="url(#clip590)" d="M154.283 1372.39 Q150.672 1372.39 148.843 1375.95 Q147.038 1379.49 147.038 1386.62 Q147.038 1393.73 148.843 1397.29 Q150.672 1400.84 154.283 1400.84 Q157.917 1400.84 159.723 1397.29 Q161.552 1393.73 161.552 1386.62 Q161.552 1379.49 159.723 1375.95 Q157.917 1372.39 154.283 1372.39 M154.283 1368.68 Q160.093 1368.68 163.149 1373.29 Q166.227 1377.87 166.227 1386.62 Q166.227 1395.35 163.149 1399.96 Q160.093 1404.54 154.283 1404.54 Q148.473 1404.54 145.394 1399.96 Q142.339 1395.35 142.339 1386.62 Q142.339 1377.87 145.394 1373.29 Q148.473 1368.68 154.283 1368.68 Z" fill="#000000" fill-rule="evenodd" fill-opacity="1" /><path clip-path="url(#clip590)" d="M174.445 1397.99 L179.329 1397.99 L179.329 1403.87 L174.445 1403.87 L174.445 1397.99 Z" fill="#000000" fill-rule="evenodd" fill-opacity="1" /><path clip-path="url(#clip590)" d="M199.514 1372.39 Q195.903 1372.39 194.075 1375.95 Q192.269 1379.49 192.269 1386.62 Q192.269 1393.73 194.075 1397.29 Q195.903 1400.84 199.514 1400.84 Q203.149 1400.84 204.954 1397.29 Q206.783 1393.73 206.783 1386.62 Q206.783 1379.49 204.954 1375.95 Q203.149 1372.39 199.514 1372.39 M199.514 1368.68 Q205.324 1368.68 208.38 1373.29 Q211.459 1377.87 211.459 1386.62 Q211.459 1395.35 208.38 1399.96 Q205.324 1404.54 199.514 1404.54 Q193.704 1404.54 190.625 1399.96 Q187.57 1395.35 187.57 1386.62 Q187.57 1377.87 190.625 1373.29 Q193.704 1368.68 199.514 1368.68 Z" fill="#000000" fill-rule="evenodd" fill-opacity="1" /><path clip-path="url(#clip590)" d="M149.306 1127.29 L165.626 1127.29 L165.626 1131.23 L143.681 1131.23 L143.681 1127.29 Q146.343 1124.54 150.927 1119.91 Q155.533 1115.26 156.714 1113.91 Q158.959 1111.39 159.839 1109.65 Q160.741 1107.9 160.741 1106.21 Q160.741 1103.45 158.797 1101.71 Q156.876 1099.98 153.774 1099.98 Q151.575 1099.98 149.121 1100.74 Q146.691 1101.51 143.913 1103.06 L143.913 1098.34 Q146.737 1097.2 149.191 1096.62 Q151.644 1096.04 153.681 1096.04 Q159.052 1096.04 162.246 1098.73 Q165.44 1101.41 165.44 1105.9 Q165.44 1108.03 164.63 1109.96 Q163.843 1111.85 161.737 1114.45 Q161.158 1115.12 158.056 1118.34 Q154.954 1121.53 149.306 1127.29 Z" fill="#000000" fill-rule="evenodd" fill-opacity="1" /><path clip-path="url(#clip590)" d="M175.44 1125.35 L180.325 1125.35 L180.325 1131.23 L175.44 1131.23 L175.44 1125.35 Z" fill="#000000" fill-rule="evenodd" fill-opacity="1" /><path clip-path="url(#clip590)" d="M190.556 1096.67 L208.912 1096.67 L208.912 1100.6 L194.838 1100.6 L194.838 1109.08 Q195.857 1108.73 196.875 1108.57 Q197.894 1108.38 198.912 1108.38 Q204.699 1108.38 208.079 1111.55 Q211.459 1114.72 211.459 1120.14 Q211.459 1125.72 207.987 1128.82 Q204.514 1131.9 198.195 1131.9 Q196.019 1131.9 193.75 1131.53 Q191.505 1131.16 189.098 1130.42 L189.098 1125.72 Q191.181 1126.85 193.403 1127.41 Q195.625 1127.96 198.102 1127.96 Q202.107 1127.96 204.445 1125.86 Q206.783 1123.75 206.783 1120.14 Q206.783 1116.53 204.445 1114.42 Q202.107 1112.32 198.102 1112.32 Q196.227 1112.32 194.352 1112.73 Q192.5 1113.15 190.556 1114.03 L190.556 1096.67 Z" fill="#000000" fill-rule="evenodd" fill-opacity="1" /><path clip-path="url(#clip590)" d="M144.329 824.03 L162.686 824.03 L162.686 827.965 L148.612 827.965 L148.612 836.437 Q149.63 836.09 150.649 835.928 Q151.667 835.743 152.686 835.743 Q158.473 835.743 161.852 838.914 Q165.232 842.085 165.232 847.502 Q165.232 853.08 161.76 856.182 Q158.288 859.261 151.968 859.261 Q149.792 859.261 147.524 858.891 Q145.279 858.52 142.871 857.78 L142.871 853.08 Q144.954 854.215 147.177 854.77 Q149.399 855.326 151.876 855.326 Q155.88 855.326 158.218 853.219 Q160.556 851.113 160.556 847.502 Q160.556 843.891 158.218 841.784 Q155.88 839.678 151.876 839.678 Q150.001 839.678 148.126 840.094 Q146.274 840.511 144.329 841.391 L144.329 824.03 Z" fill="#000000" fill-rule="evenodd" fill-opacity="1" /><path clip-path="url(#clip590)" d="M174.445 852.71 L179.329 852.71 L179.329 858.59 L174.445 858.59 L174.445 852.71 Z" fill="#000000" fill-rule="evenodd" fill-opacity="1" /><path clip-path="url(#clip590)" d="M199.514 827.108 Q195.903 827.108 194.075 830.673 Q192.269 834.215 192.269 841.344 Q192.269 848.451 194.075 852.016 Q195.903 855.557 199.514 855.557 Q203.149 855.557 204.954 852.016 Q206.783 848.451 206.783 841.344 Q206.783 834.215 204.954 830.673 Q203.149 827.108 199.514 827.108 M199.514 823.405 Q205.324 823.405 208.38 828.011 Q211.459 832.594 211.459 841.344 Q211.459 850.071 208.38 854.678 Q205.324 859.261 199.514 859.261 Q193.704 859.261 190.625 854.678 Q187.57 850.071 187.57 841.344 Q187.57 832.594 190.625 828.011 Q193.704 823.405 199.514 823.405 Z" fill="#000000" fill-rule="evenodd" fill-opacity="1" /><path clip-path="url(#clip590)" d="M144.098 551.391 L166.32 551.391 L166.32 553.382 L153.774 585.951 L148.89 585.951 L160.695 555.326 L144.098 555.326 L144.098 551.391 Z" fill="#000000" fill-rule="evenodd" fill-opacity="1" /><path clip-path="url(#clip590)" d="M175.44 580.071 L180.325 580.071 L180.325 585.951 L175.44 585.951 L175.44 580.071 Z" fill="#000000" fill-rule="evenodd" fill-opacity="1" /><path clip-path="url(#clip590)" d="M190.556 551.391 L208.912 551.391 L208.912 555.326 L194.838 555.326 L194.838 563.798 Q195.857 563.451 196.875 563.289 Q197.894 563.104 198.912 563.104 Q204.699 563.104 208.079 566.275 Q211.459 569.446 211.459 574.863 Q211.459 580.442 207.987 583.543 Q204.514 586.622 198.195 586.622 Q196.019 586.622 193.75 586.252 Q191.505 585.881 189.098 585.141 L189.098 580.442 Q191.181 581.576 193.403 582.131 Q195.625 582.687 198.102 582.687 Q202.107 582.687 204.445 580.58 Q206.783 578.474 206.783 574.863 Q206.783 571.252 204.445 569.145 Q202.107 567.039 198.102 567.039 Q196.227 567.039 194.352 567.456 Q192.5 567.872 190.556 568.752 L190.556 551.391 Z" fill="#000000" fill-rule="evenodd" fill-opacity="1" /><path clip-path="url(#clip590)" d="M114.931 309.377 L122.57 309.377 L122.57 283.011 L114.26 284.678 L114.26 280.419 L122.524 278.752 L127.2 278.752 L127.2 309.377 L134.839 309.377 L134.839 313.312 L114.931 313.312 L114.931 309.377 Z" fill="#000000" fill-rule="evenodd" fill-opacity="1" /><path clip-path="url(#clip590)" d="M154.283 281.831 Q150.672 281.831 148.843 285.395 Q147.038 288.937 147.038 296.067 Q147.038 303.173 148.843 306.738 Q150.672 310.28 154.283 310.28 Q157.917 310.28 159.723 306.738 Q161.552 303.173 161.552 296.067 Q161.552 288.937 159.723 285.395 Q157.917 281.831 154.283 281.831 M154.283 278.127 Q160.093 278.127 163.149 282.733 Q166.227 287.317 166.227 296.067 Q166.227 304.793 163.149 309.4 Q160.093 313.983 154.283 313.983 Q148.473 313.983 145.394 309.4 Q142.339 304.793 142.339 296.067 Q142.339 287.317 145.394 282.733 Q148.473 278.127 154.283 278.127 Z" fill="#000000" fill-rule="evenodd" fill-opacity="1" /><path clip-path="url(#clip590)" d="M174.445 307.432 L179.329 307.432 L179.329 313.312 L174.445 313.312 L174.445 307.432 Z" fill="#000000" fill-rule="evenodd" fill-opacity="1" /><path clip-path="url(#clip590)" d="M199.514 281.831 Q195.903 281.831 194.075 285.395 Q192.269 288.937 192.269 296.067 Q192.269 303.173 194.075 306.738 Q195.903 310.28 199.514 310.28 Q203.149 310.28 204.954 306.738 Q206.783 303.173 206.783 296.067 Q206.783 288.937 204.954 285.395 Q203.149 281.831 199.514 281.831 M199.514 278.127 Q205.324 278.127 208.38 282.733 Q211.459 287.317 211.459 296.067 Q211.459 304.793 208.38 309.4 Q205.324 313.983 199.514 313.983 Q193.704 313.983 190.625 309.4 Q187.57 304.793 187.57 296.067 Q187.57 287.317 190.625 282.733 Q193.704 278.127 199.514 278.127 Z" fill="#000000" fill-rule="evenodd" fill-opacity="1" /><path clip-path="url(#clip590)" d="M16.4842 1167.16 L16.4842 1157.58 L48.8219 1145.45 L16.4842 1133.26 L16.4842 1123.68 L64.0042 1123.68 L64.0042 1129.95 L22.277 1129.95 L54.8694 1142.2 L54.8694 1148.66 L22.277 1160.92 L64.0042 1160.92 L64.0042 1167.16 L16.4842 1167.16 Z" fill="#000000" fill-rule="evenodd" fill-opacity="1" /><path clip-path="url(#clip590)" d="M44.7161 1080.68 L47.5806 1080.68 L47.5806 1107.61 Q53.6281 1107.22 56.8109 1103.98 Q59.9619 1100.7 59.9619 1094.87 Q59.9619 1091.5 59.1344 1088.35 Q58.3069 1085.17 56.6518 1082.05 L62.1899 1082.05 Q63.5267 1085.2 64.227 1088.51 Q64.9272 1091.82 64.9272 1095.22 Q64.9272 1103.75 59.9619 1108.75 Q54.9967 1113.72 46.5303 1113.72 Q37.7774 1113.72 32.6531 1109.01 Q27.4968 1104.26 27.4968 1096.24 Q27.4968 1089.05 32.1438 1084.88 Q36.7589 1080.68 44.7161 1080.68 M42.9973 1086.53 Q38.1912 1086.6 35.3266 1089.24 Q32.4621 1091.85 32.4621 1096.18 Q32.4621 1101.08 35.2312 1104.04 Q38.0002 1106.97 43.0292 1107.41 L42.9973 1086.53 Z" fill="#000000" fill-rule="evenodd" fill-opacity="1" /><path clip-path="url(#clip590)" d="M33.7671 1047.61 L14.479 1047.61 L14.479 1041.75 L64.0042 1041.75 L64.0042 1047.61 L58.657 1047.61 Q61.8398 1049.45 63.3994 1052.29 Q64.9272 1055.09 64.9272 1059.03 Q64.9272 1065.5 59.771 1069.57 Q54.6147 1073.61 46.212 1073.61 Q37.8093 1073.61 32.6531 1069.57 Q27.4968 1065.5 27.4968 1059.03 Q27.4968 1055.09 29.0564 1052.29 Q30.5842 1049.45 33.7671 1047.61 M46.212 1067.56 Q52.6732 1067.56 56.3653 1064.92 Q60.0256 1062.25 60.0256 1057.6 Q60.0256 1052.96 56.3653 1050.28 Q52.6732 1047.61 46.212 1047.61 Q39.7508 1047.61 36.0905 1050.28 Q32.3984 1052.96 32.3984 1057.6 Q32.3984 1062.25 36.0905 1064.92 Q39.7508 1067.56 46.212 1067.56 Z" fill="#000000" fill-rule="evenodd" fill-opacity="1" /><path clip-path="url(#clip590)" d="M28.3562 1029.69 L28.3562 1023.83 L64.0042 1023.83 L64.0042 1029.69 L28.3562 1029.69 M14.479 1029.69 L14.479 1023.83 L21.895 1023.83 L21.895 1029.69 L14.479 1029.69 Z" fill="#000000" fill-rule="evenodd" fill-opacity="1" /><path clip-path="url(#clip590)" d="M46.0847 995.378 Q46.0847 1002.48 47.7079 1005.21 Q49.3312 1007.95 53.2461 1007.95 Q56.3653 1007.95 58.2114 1005.91 Q60.0256 1003.84 60.0256 1000.31 Q60.0256 995.441 56.5881 992.513 Q53.1188 989.553 47.3897 989.553 L46.0847 989.553 L46.0847 995.378 M43.6657 983.697 L64.0042 983.697 L64.0042 989.553 L58.5933 989.553 Q61.8398 991.558 63.3994 994.55 Q64.9272 997.542 64.9272 1001.87 Q64.9272 1007.35 61.8716 1010.59 Q58.7843 1013.81 53.6281 1013.81 Q47.6125 1013.81 44.5569 1009.8 Q41.5014 1005.75 41.5014 997.765 L41.5014 989.553 L40.9285 989.553 Q36.8862 989.553 34.6901 992.227 Q32.4621 994.868 32.4621 999.675 Q32.4621 1002.73 33.1941 1005.63 Q33.9262 1008.52 35.3903 1011.2 L29.9795 1011.2 Q28.7381 1007.98 28.1334 1004.96 Q27.4968 1001.93 27.4968 999.07 Q27.4968 991.336 31.5072 987.516 Q35.5176 983.697 43.6657 983.697 Z" fill="#000000" fill-rule="evenodd" fill-opacity="1" /><path clip-path="url(#clip590)" d="M42.4881 942.001 L64.0042 942.001 L64.0042 947.858 L42.679 947.858 Q37.6183 947.858 35.1038 949.831 Q32.5894 951.804 32.5894 955.751 Q32.5894 960.494 35.6131 963.231 Q38.6368 965.968 43.8567 965.968 L64.0042 965.968 L64.0042 971.856 L28.3562 971.856 L28.3562 965.968 L33.8944 965.968 Q30.6797 963.867 29.0883 961.035 Q27.4968 958.17 27.4968 954.446 Q27.4968 948.303 31.3163 945.152 Q35.1038 942.001 42.4881 942.001 Z" fill="#000000" fill-rule="evenodd" fill-opacity="1" /><path clip-path="url(#clip590)" d="M16.4842 915.934 L16.4842 875.734 L21.895 875.734 L21.895 892.603 L64.0042 892.603 L64.0042 899.065 L21.895 899.065 L21.895 915.934 L16.4842 915.934 Z" fill="#000000" fill-rule="evenodd" fill-opacity="1" /><path clip-path="url(#clip590)" d="M28.3562 871.788 L28.3562 865.931 L64.0042 865.931 L64.0042 871.788 L28.3562 871.788 M14.479 871.788 L14.479 865.931 L21.895 865.931 L21.895 871.788 L14.479 871.788 Z" fill="#000000" fill-rule="evenodd" fill-opacity="1" /><path clip-path="url(#clip590)" d="M35.1993 825.923 Q31.2526 823.726 29.3747 820.671 Q27.4968 817.615 27.4968 813.478 Q27.4968 807.908 31.4117 804.884 Q35.2948 801.86 42.4881 801.86 L64.0042 801.86 L64.0042 807.749 L42.679 807.749 Q37.5546 807.749 35.072 809.563 Q32.5894 811.377 32.5894 815.101 Q32.5894 819.652 35.6131 822.294 Q38.6368 824.936 43.8567 824.936 L64.0042 824.936 L64.0042 830.824 L42.679 830.824 Q37.5228 830.824 35.072 832.638 Q32.5894 834.453 32.5894 838.24 Q32.5894 842.728 35.6449 845.37 Q38.6686 848.012 43.8567 848.012 L64.0042 848.012 L64.0042 853.9 L28.3562 853.9 L28.3562 848.012 L33.8944 848.012 Q30.616 846.006 29.0564 843.206 Q27.4968 840.405 27.4968 836.553 Q27.4968 832.67 29.4702 829.965 Q31.4436 827.228 35.1993 825.923 Z" fill="#000000" fill-rule="evenodd" fill-opacity="1" /><path clip-path="url(#clip590)" d="M44.7161 759.687 L47.5806 759.687 L47.5806 786.614 Q53.6281 786.232 56.8109 782.986 Q59.9619 779.708 59.9619 773.883 Q59.9619 770.509 59.1344 767.358 Q58.3069 764.175 56.6518 761.056 L62.1899 761.056 Q63.5267 764.207 64.227 767.517 Q64.9272 770.827 64.9272 774.233 Q64.9272 782.763 59.9619 787.76 Q54.9967 792.725 46.5303 792.725 Q37.7774 792.725 32.6531 788.015 Q27.4968 783.272 27.4968 775.252 Q27.4968 768.058 32.1438 763.889 Q36.7589 759.687 44.7161 759.687 M42.9973 765.544 Q38.1912 765.608 35.3266 768.249 Q32.4621 770.859 32.4621 775.188 Q32.4621 780.09 35.2312 783.05 Q38.0002 785.978 43.0292 786.423 L42.9973 765.544 Z" fill="#000000" fill-rule="evenodd" fill-opacity="1" /><path clip-path="url(#clip590)" d="M16.4842 729.1 L16.4842 699.054 L21.895 699.054 L21.895 722.671 L35.9632 722.671 L35.9632 700.041 L41.3741 700.041 L41.3741 722.671 L58.5933 722.671 L58.5933 698.481 L64.0042 698.481 L64.0042 729.1 L16.4842 729.1 Z" fill="#000000" fill-rule="evenodd" fill-opacity="1" /><path clip-path="url(#clip590)" d="M14.479 688.169 L14.479 682.312 L64.0042 682.312 L64.0042 688.169 L14.479 688.169 Z" fill="#000000" fill-rule="evenodd" fill-opacity="1" /><path clip-path="url(#clip590)" d="M46.0847 653.858 Q46.0847 660.955 47.7079 663.693 Q49.3312 666.43 53.2461 666.43 Q56.3653 666.43 58.2114 664.393 Q60.0256 662.324 60.0256 658.791 Q60.0256 653.921 56.5881 650.993 Q53.1188 648.033 47.3897 648.033 L46.0847 648.033 L46.0847 653.858 M43.6657 642.177 L64.0042 642.177 L64.0042 648.033 L58.5933 648.033 Q61.8398 650.038 63.3994 653.03 Q64.9272 656.022 64.9272 660.351 Q64.9272 665.825 61.8716 669.072 Q58.7843 672.286 53.6281 672.286 Q47.6125 672.286 44.5569 668.276 Q41.5014 664.234 41.5014 656.245 L41.5014 648.033 L40.9285 648.033 Q36.8862 648.033 34.6901 650.707 Q32.4621 653.348 32.4621 658.154 Q32.4621 661.21 33.1941 664.106 Q33.9262 667.003 35.3903 669.676 L29.9795 669.676 Q28.7381 666.462 28.1334 663.438 Q27.4968 660.414 27.4968 657.55 Q27.4968 649.815 31.5072 645.996 Q35.5176 642.177 43.6657 642.177 Z" fill="#000000" fill-rule="evenodd" fill-opacity="1" /><path clip-path="url(#clip590)" d="M58.657 624.448 L77.5631 624.448 L77.5631 630.336 L28.3562 630.336 L28.3562 624.448 L33.7671 624.448 Q30.5842 622.602 29.0564 619.801 Q27.4968 616.968 27.4968 613.053 Q27.4968 606.56 32.6531 602.518 Q37.8093 598.444 46.212 598.444 Q54.6147 598.444 59.771 602.518 Q64.9272 606.56 64.9272 613.053 Q64.9272 616.968 63.3994 619.801 Q61.8398 622.602 58.657 624.448 M46.212 604.523 Q39.7508 604.523 36.0905 607.197 Q32.3984 609.839 32.3984 614.486 Q32.3984 619.133 36.0905 621.806 Q39.7508 624.448 46.212 624.448 Q52.6732 624.448 56.3653 621.806 Q60.0256 619.133 60.0256 614.486 Q60.0256 609.839 56.3653 607.197 Q52.6732 604.523 46.212 604.523 Z" fill="#000000" fill-rule="evenodd" fill-opacity="1" /><path clip-path="url(#clip590)" d="M29.4065 566.011 L34.9447 566.011 Q33.6716 568.493 33.035 571.167 Q32.3984 573.841 32.3984 576.705 Q32.3984 581.066 33.7352 583.262 Q35.072 585.426 37.7456 585.426 Q39.7826 585.426 40.9603 583.867 Q42.1061 582.307 43.1565 577.596 L43.6021 575.591 Q44.9389 569.353 47.3897 566.743 Q49.8086 564.101 54.1691 564.101 Q59.1344 564.101 62.0308 568.048 Q64.9272 571.963 64.9272 578.838 Q64.9272 581.702 64.3543 584.821 Q63.8132 587.909 62.6992 591.346 L56.6518 591.346 Q58.3387 588.1 59.198 584.949 Q60.0256 581.798 60.0256 578.71 Q60.0256 574.573 58.6251 572.345 Q57.1929 570.117 54.6147 570.117 Q52.2276 570.117 50.9545 571.74 Q49.6813 573.331 48.5037 578.774 L48.0262 580.811 Q46.8804 586.254 44.5251 588.673 Q42.138 591.092 38.0002 591.092 Q32.9713 591.092 30.2341 587.527 Q27.4968 583.962 27.4968 577.405 Q27.4968 574.159 27.9743 571.294 Q28.4517 568.43 29.4065 566.011 Z" fill="#000000" fill-rule="evenodd" fill-opacity="1" /><path clip-path="url(#clip590)" d="M44.7161 524.284 L47.5806 524.284 L47.5806 551.211 Q53.6281 550.829 56.8109 547.582 Q59.9619 544.304 59.9619 538.479 Q59.9619 535.105 59.1344 531.954 Q58.3069 528.771 56.6518 525.652 L62.1899 525.652 Q63.5267 528.803 64.227 532.113 Q64.9272 535.424 64.9272 538.829 Q64.9272 547.359 59.9619 552.356 Q54.9967 557.322 46.5303 557.322 Q37.7774 557.322 32.6531 552.611 Q27.4968 547.869 27.4968 539.848 Q27.4968 532.655 32.1438 528.485 Q36.7589 524.284 44.7161 524.284 M42.9973 530.14 Q38.1912 530.204 35.3266 532.846 Q32.4621 535.455 32.4621 539.784 Q32.4621 544.686 35.2312 547.646 Q38.0002 550.574 43.0292 551.02 L42.9973 530.14 Z" fill="#000000" fill-rule="evenodd" fill-opacity="1" /><path clip-path="url(#clip590)" d="M33.7671 491.214 L14.479 491.214 L14.479 485.357 L64.0042 485.357 L64.0042 491.214 L58.657 491.214 Q61.8398 493.06 63.3994 495.893 Q64.9272 498.693 64.9272 502.64 Q64.9272 509.101 59.771 513.175 Q54.6147 517.218 46.212 517.218 Q37.8093 517.218 32.6531 513.175 Q27.4968 509.101 27.4968 502.64 Q27.4968 498.693 29.0564 495.893 Q30.5842 493.06 33.7671 491.214 M46.212 511.17 Q52.6732 511.17 56.3653 508.529 Q60.0256 505.855 60.0256 501.208 Q60.0256 496.561 56.3653 493.887 Q52.6732 491.214 46.212 491.214 Q39.7508 491.214 36.0905 493.887 Q32.3984 496.561 32.3984 501.208 Q32.3984 505.855 36.0905 508.529 Q39.7508 511.17 46.212 511.17 Z" fill="#000000" fill-rule="evenodd" fill-opacity="1" /><path clip-path="url(#clip590)" d="M14.5426 438.506 Q21.8632 442.771 29.0246 444.84 Q36.186 446.908 43.5384 446.908 Q50.8908 446.908 58.1159 444.84 Q65.3091 442.739 72.5979 438.506 L72.5979 443.598 Q65.1182 448.373 57.8931 450.76 Q50.668 453.115 43.5384 453.115 Q36.4406 453.115 29.2474 450.76 Q22.0542 448.404 14.5426 443.598 L14.5426 438.506 Z" fill="#000000" fill-rule="evenodd" fill-opacity="1" /><path clip-path="url(#clip590)" d="M29.4065 404.417 L34.9447 404.417 Q33.6716 406.9 33.035 409.574 Q32.3984 412.247 32.3984 415.112 Q32.3984 419.472 33.7352 421.668 Q35.072 423.833 37.7456 423.833 Q39.7826 423.833 40.9603 422.273 Q42.1061 420.714 43.1565 416.003 L43.6021 413.998 Q44.9389 407.759 47.3897 405.149 Q49.8086 402.508 54.1691 402.508 Q59.1344 402.508 62.0308 406.454 Q64.9272 410.369 64.9272 417.244 Q64.9272 420.109 64.3543 423.228 Q63.8132 426.315 62.6992 429.753 L56.6518 429.753 Q58.3387 426.506 59.198 423.355 Q60.0256 420.204 60.0256 417.117 Q60.0256 412.979 58.6251 410.751 Q57.1929 408.523 54.6147 408.523 Q52.2276 408.523 50.9545 410.147 Q49.6813 411.738 48.5037 417.181 L48.0262 419.218 Q46.8804 424.66 44.5251 427.079 Q42.138 429.498 38.0002 429.498 Q32.9713 429.498 30.2341 425.933 Q27.4968 422.369 27.4968 415.812 Q27.4968 412.565 27.9743 409.701 Q28.4517 406.836 29.4065 404.417 Z" fill="#000000" fill-rule="evenodd" fill-opacity="1" /><path clip-path="url(#clip590)" d="M14.5426 394.105 L14.5426 389.012 Q22.0542 384.238 29.2474 381.883 Q36.4406 379.496 43.5384 379.496 Q50.668 379.496 57.8931 381.883 Q65.1182 384.238 72.5979 389.012 L72.5979 394.105 Q65.3091 389.872 58.1159 387.803 Q50.8908 385.702 43.5384 385.702 Q36.186 385.702 29.0246 387.803 Q21.8632 389.872 14.5426 394.105 Z" fill="#000000" fill-rule="evenodd" fill-opacity="1" /><path clip-path="url(#clip590)" d="M463.292 14.0809 L463.292 22.0612 Q458.633 19.8332 454.501 18.7395 Q450.369 17.6457 446.521 17.6457 Q439.837 17.6457 436.191 20.2383 Q432.586 22.8309 432.586 27.611 Q432.586 31.6214 434.976 33.6873 Q437.406 35.7128 444.131 36.9686 L449.073 37.9813 Q458.228 39.7232 462.563 44.1387 Q466.938 48.5136 466.938 55.8863 Q466.938 64.6767 461.023 69.2137 Q455.149 73.7508 443.766 73.7508 Q439.472 73.7508 434.611 72.7785 Q429.791 71.8063 424.606 69.9024 L424.606 61.4765 Q429.588 64.2716 434.368 65.6895 Q439.148 67.1073 443.766 67.1073 Q450.774 67.1073 454.582 64.3527 Q458.39 61.598 458.39 56.4939 Q458.39 52.0379 455.636 49.5264 Q452.921 47.0148 446.683 45.759 L441.7 44.7868 Q432.545 42.9639 428.454 39.075 Q424.363 35.1862 424.363 28.2591 Q424.363 20.2383 429.993 15.6203 Q435.665 11.0023 445.589 11.0023 Q449.843 11.0023 454.258 11.7719 Q458.674 12.5416 463.292 14.0809 Z" fill="#000000" fill-rule="evenodd" fill-opacity="1" /><path clip-path="url(#clip590)" d="M512.024 28.9478 L512.024 35.9153 Q508.864 34.1734 505.664 33.3227 Q502.505 32.4315 499.264 32.4315 Q492.013 32.4315 488.002 37.0496 Q483.992 41.6271 483.992 49.9314 Q483.992 58.2358 488.002 62.8538 Q492.013 67.4314 499.264 67.4314 Q502.505 67.4314 505.664 66.5807 Q508.864 65.6895 512.024 63.9476 L512.024 70.8341 Q508.905 72.2924 505.543 73.0216 Q502.221 73.7508 498.454 73.7508 Q488.205 73.7508 482.169 67.3098 Q476.133 60.8689 476.133 49.9314 Q476.133 38.832 482.209 32.472 Q488.326 26.1121 498.94 26.1121 Q502.383 26.1121 505.664 26.8413 Q508.945 27.5299 512.024 28.9478 Z" fill="#000000" fill-rule="evenodd" fill-opacity="1" /><path clip-path="url(#clip590)" d="M545.606 49.7694 Q536.573 49.7694 533.089 51.8354 Q529.605 53.9013 529.605 58.8839 Q529.605 62.8538 532.198 65.2034 Q534.831 67.5124 539.327 67.5124 Q545.525 67.5124 549.252 63.1374 Q553.019 58.7219 553.019 51.4303 L553.019 49.7694 L545.606 49.7694 M560.473 46.6907 L560.473 72.576 L553.019 72.576 L553.019 65.6895 Q550.467 69.8214 546.659 71.8063 Q542.852 73.7508 537.342 73.7508 Q530.375 73.7508 526.243 69.8619 Q522.151 65.9325 522.151 59.3701 Q522.151 51.7138 527.256 47.825 Q532.4 43.9361 542.568 43.9361 L553.019 43.9361 L553.019 43.2069 Q553.019 38.0623 549.617 35.2672 Q546.254 32.4315 540.137 32.4315 Q536.249 32.4315 532.562 33.3632 Q528.876 34.295 525.473 36.1584 L525.473 29.2718 Q529.565 27.692 533.413 26.9223 Q537.261 26.1121 540.907 26.1121 Q550.751 26.1121 555.612 31.2163 Q560.473 36.3204 560.473 46.6907 Z" fill="#000000" fill-rule="evenodd" fill-opacity="1" /><path clip-path="url(#clip590)" d="M575.826 9.54393 L583.28 9.54393 L583.28 72.576 L575.826 72.576 L575.826 9.54393 Z" fill="#000000" fill-rule="evenodd" fill-opacity="1" /><path clip-path="url(#clip590)" d="M598.876 27.2059 L606.329 27.2059 L606.329 72.576 L598.876 72.576 L598.876 27.2059 M598.876 9.54393 L606.329 9.54393 L606.329 18.9825 L598.876 18.9825 L598.876 9.54393 Z" fill="#000000" fill-rule="evenodd" fill-opacity="1" /><path clip-path="url(#clip590)" d="M659.639 45.1919 L659.639 72.576 L652.185 72.576 L652.185 45.4349 Q652.185 38.994 649.674 35.7938 Q647.162 32.5936 642.139 32.5936 Q636.103 32.5936 632.62 36.4419 Q629.136 40.2903 629.136 46.9338 L629.136 72.576 L621.642 72.576 L621.642 27.2059 L629.136 27.2059 L629.136 34.2544 Q631.809 30.163 635.415 28.1376 Q639.061 26.1121 643.8 26.1121 Q651.618 26.1121 655.629 30.9732 Q659.639 35.7938 659.639 45.1919 Z" fill="#000000" fill-rule="evenodd" fill-opacity="1" /><path clip-path="url(#clip590)" d="M704.361 49.3643 Q704.361 41.2625 700.999 36.8065 Q697.677 32.3505 691.641 32.3505 Q685.646 32.3505 682.284 36.8065 Q678.962 41.2625 678.962 49.3643 Q678.962 57.4256 682.284 61.8816 Q685.646 66.3376 691.641 66.3376 Q697.677 66.3376 700.999 61.8816 Q704.361 57.4256 704.361 49.3643 M711.815 66.9452 Q711.815 78.5308 706.67 84.1616 Q701.525 89.8329 690.912 89.8329 Q686.983 89.8329 683.499 89.2252 Q680.015 88.6581 676.734 87.4428 L676.734 80.1917 Q680.015 81.9741 683.215 82.8248 Q686.416 83.6755 689.737 83.6755 Q697.069 83.6755 700.715 79.8271 Q704.361 76.0193 704.361 68.282 L704.361 64.5957 Q702.052 68.6061 698.447 70.5911 Q694.841 72.576 689.818 72.576 Q681.473 72.576 676.369 66.2161 Q671.265 59.8562 671.265 49.3643 Q671.265 38.832 676.369 32.472 Q681.473 26.1121 689.818 26.1121 Q694.841 26.1121 698.447 28.0971 Q702.052 30.082 704.361 34.0924 L704.361 27.2059 L711.815 27.2059 L711.815 66.9452 Z" fill="#000000" fill-rule="evenodd" fill-opacity="1" /><path clip-path="url(#clip590)" d="M771.12 32.4315 Q765.125 32.4315 761.641 37.1306 Q758.157 41.7891 758.157 49.9314 Q758.157 58.0738 761.6 62.7728 Q765.084 67.4314 771.12 67.4314 Q777.075 67.4314 780.559 62.7323 Q784.042 58.0333 784.042 49.9314 Q784.042 41.8701 780.559 37.1711 Q777.075 32.4315 771.12 32.4315 M771.12 26.1121 Q780.842 26.1121 786.392 32.4315 Q791.942 38.7509 791.942 49.9314 Q791.942 61.0714 786.392 67.4314 Q780.842 73.7508 771.12 73.7508 Q761.357 73.7508 755.808 67.4314 Q750.298 61.0714 750.298 49.9314 Q750.298 38.7509 755.808 32.4315 Q761.357 26.1121 771.12 26.1121 Z" fill="#000000" fill-rule="evenodd" fill-opacity="1" /><path clip-path="url(#clip590)" d="M827.266 9.54393 L827.266 15.7418 L820.136 15.7418 Q816.126 15.7418 814.546 17.3622 Q813.006 18.9825 813.006 23.1955 L813.006 27.2059 L825.281 27.2059 L825.281 32.9987 L813.006 32.9987 L813.006 72.576 L805.512 72.576 L805.512 32.9987 L798.383 32.9987 L798.383 27.2059 L805.512 27.2059 L805.512 24.0462 Q805.512 16.471 809.036 13.0277 Q812.561 9.54393 820.217 9.54393 L827.266 9.54393 Z" fill="#000000" fill-rule="evenodd" fill-opacity="1" /><path clip-path="url(#clip590)" d="M898.683 48.0275 L898.683 51.6733 L864.412 51.6733 Q864.898 59.3701 869.03 63.421 Q873.203 67.4314 880.616 67.4314 Q884.91 67.4314 888.92 66.3781 Q892.971 65.3249 896.941 63.2184 L896.941 70.267 Q892.931 71.9684 888.718 72.8596 Q884.505 73.7508 880.17 73.7508 Q869.314 73.7508 862.954 67.4314 Q856.635 61.1119 856.635 50.3365 Q856.635 39.1965 862.63 32.6746 Q868.666 26.1121 878.874 26.1121 Q888.029 26.1121 893.336 32.0264 Q898.683 37.9003 898.683 48.0275 M891.229 45.84 Q891.148 39.7232 887.786 36.0774 Q884.464 32.4315 878.955 32.4315 Q872.717 32.4315 868.949 35.9558 Q865.222 39.4801 864.655 45.8805 L891.229 45.84 Z" fill="#000000" fill-rule="evenodd" fill-opacity="1" /><path clip-path="url(#clip590)" d="M948.631 45.1919 L948.631 72.576 L941.177 72.576 L941.177 45.4349 Q941.177 38.994 938.665 35.7938 Q936.154 32.5936 931.131 32.5936 Q925.095 32.5936 921.611 36.4419 Q918.127 40.2903 918.127 46.9338 L918.127 72.576 L910.633 72.576 L910.633 27.2059 L918.127 27.2059 L918.127 34.2544 Q920.801 30.163 924.406 28.1376 Q928.052 26.1121 932.792 26.1121 Q940.61 26.1121 944.62 30.9732 Q948.631 35.7938 948.631 45.1919 Z" fill="#000000" fill-rule="evenodd" fill-opacity="1" /><path clip-path="url(#clip590)" d="M1002.31 48.0275 L1002.31 51.6733 L968.034 51.6733 Q968.521 59.3701 972.652 63.421 Q976.825 67.4314 984.238 67.4314 Q988.532 67.4314 992.542 66.3781 Q996.593 65.3249 1000.56 63.2184 L1000.56 70.267 Q996.553 71.9684 992.34 72.8596 Q988.127 73.7508 983.792 73.7508 Q972.936 73.7508 966.576 67.4314 Q960.257 61.1119 960.257 50.3365 Q960.257 39.1965 966.252 32.6746 Q972.288 26.1121 982.496 26.1121 Q991.651 26.1121 996.958 32.0264 Q1002.31 37.9003 1002.31 48.0275 M994.851 45.84 Q994.77 39.7232 991.408 36.0774 Q988.086 32.4315 982.577 32.4315 Q976.339 32.4315 972.571 35.9558 Q968.845 39.4801 968.277 45.8805 L994.851 45.84 Z" fill="#000000" fill-rule="evenodd" fill-opacity="1" /><path clip-path="url(#clip590)" d="M1040.83 34.1734 Q1039.57 33.4443 1038.07 33.1202 Q1036.62 32.7556 1034.83 32.7556 Q1028.51 32.7556 1025.11 36.8875 Q1021.75 40.9789 1021.75 48.6757 L1021.75 72.576 L1014.26 72.576 L1014.26 27.2059 L1021.75 27.2059 L1021.75 34.2544 Q1024.1 30.1225 1027.87 28.1376 Q1031.63 26.1121 1037.02 26.1121 Q1037.79 26.1121 1038.72 26.2337 Q1039.65 26.3147 1040.79 26.5172 L1040.83 34.1734 Z" fill="#000000" fill-rule="evenodd" fill-opacity="1" /><path clip-path="url(#clip590)" d="M1077.04 49.3643 Q1077.04 41.2625 1073.68 36.8065 Q1070.36 32.3505 1064.32 32.3505 Q1058.33 32.3505 1054.97 36.8065 Q1051.65 41.2625 1051.65 49.3643 Q1051.65 57.4256 1054.97 61.8816 Q1058.33 66.3376 1064.32 66.3376 Q1070.36 66.3376 1073.68 61.8816 Q1077.04 57.4256 1077.04 49.3643 M1084.5 66.9452 Q1084.5 78.5308 1079.35 84.1616 Q1074.21 89.8329 1063.6 89.8329 Q1059.67 89.8329 1056.18 89.2252 Q1052.7 88.6581 1049.42 87.4428 L1049.42 80.1917 Q1052.7 81.9741 1055.9 82.8248 Q1059.1 83.6755 1062.42 83.6755 Q1069.75 83.6755 1073.4 79.8271 Q1077.04 76.0193 1077.04 68.282 L1077.04 64.5957 Q1074.74 68.6061 1071.13 70.5911 Q1067.52 72.576 1062.5 72.576 Q1054.16 72.576 1049.05 66.2161 Q1043.95 59.8562 1043.95 49.3643 Q1043.95 38.832 1049.05 32.472 Q1054.16 26.1121 1062.5 26.1121 Q1067.52 26.1121 1071.13 28.0971 Q1074.74 30.082 1077.04 34.0924 L1077.04 27.2059 L1084.5 27.2059 L1084.5 66.9452 Z" fill="#000000" fill-rule="evenodd" fill-opacity="1" /><path clip-path="url(#clip590)" d="M1118.73 76.7889 Q1115.57 84.8907 1112.57 87.3618 Q1109.57 89.8329 1104.55 89.8329 L1098.6 89.8329 L1098.6 83.5945 L1102.97 83.5945 Q1106.05 83.5945 1107.75 82.1361 Q1109.45 80.6778 1111.52 75.2496 L1112.85 71.8468 L1094.5 27.2059 L1102.4 27.2059 L1116.58 62.6918 L1130.76 27.2059 L1138.66 27.2059 L1118.73 76.7889 Z" fill="#000000" fill-rule="evenodd" fill-opacity="1" /><path clip-path="url(#clip590)" d="M1183.42 86.3491 L1183.42 92.1419 L1140.32 92.1419 L1140.32 86.3491 L1183.42 86.3491 Z" fill="#000000" fill-rule="evenodd" fill-opacity="1" /><path clip-path="url(#clip590)" d="M1211.05 49.7694 Q1202.01 49.7694 1198.53 51.8354 Q1195.05 53.9013 1195.05 58.8839 Q1195.05 62.8538 1197.64 65.2034 Q1200.27 67.5124 1204.77 67.5124 Q1210.97 67.5124 1214.69 63.1374 Q1218.46 58.7219 1218.46 51.4303 L1218.46 49.7694 L1211.05 49.7694 M1225.91 46.6907 L1225.91 72.576 L1218.46 72.576 L1218.46 65.6895 Q1215.91 69.8214 1212.1 71.8063 Q1208.29 73.7508 1202.78 73.7508 Q1195.82 73.7508 1191.68 69.8619 Q1187.59 65.9325 1187.59 59.3701 Q1187.59 51.7138 1192.7 47.825 Q1197.84 43.9361 1208.01 43.9361 L1218.46 43.9361 L1218.46 43.2069 Q1218.46 38.0623 1215.06 35.2672 Q1211.7 32.4315 1205.58 32.4315 Q1201.69 32.4315 1198 33.3632 Q1194.32 34.295 1190.92 36.1584 L1190.92 29.2718 Q1195.01 27.692 1198.85 26.9223 Q1202.7 26.1121 1206.35 26.1121 Q1216.19 26.1121 1221.05 31.2163 Q1225.91 36.3204 1225.91 46.6907 Z" fill="#000000" fill-rule="evenodd" fill-opacity="1" /><path clip-path="url(#clip590)" d="M1278.98 45.1919 L1278.98 72.576 L1271.53 72.576 L1271.53 45.4349 Q1271.53 38.994 1269.02 35.7938 Q1266.51 32.5936 1261.48 32.5936 Q1255.45 32.5936 1251.96 36.4419 Q1248.48 40.2903 1248.48 46.9338 L1248.48 72.576 L1240.98 72.576 L1240.98 27.2059 L1248.48 27.2059 L1248.48 34.2544 Q1251.15 30.163 1254.76 28.1376 Q1258.4 26.1121 1263.14 26.1121 Q1270.96 26.1121 1274.97 30.9732 Q1278.98 35.7938 1278.98 45.1919 Z" fill="#000000" fill-rule="evenodd" fill-opacity="1" /><path clip-path="url(#clip590)" d="M1323.7 34.0924 L1323.7 9.54393 L1331.16 9.54393 L1331.16 72.576 L1323.7 72.576 L1323.7 65.7705 Q1321.35 69.8214 1317.75 71.8063 Q1314.18 73.7508 1309.16 73.7508 Q1300.94 73.7508 1295.75 67.1883 Q1290.61 60.6258 1290.61 49.9314 Q1290.61 39.2371 1295.75 32.6746 Q1300.94 26.1121 1309.16 26.1121 Q1314.18 26.1121 1317.75 28.0971 Q1321.35 30.0415 1323.7 34.0924 M1298.3 49.9314 Q1298.3 58.1548 1301.67 62.8538 Q1305.07 67.5124 1310.98 67.5124 Q1316.9 67.5124 1320.3 62.8538 Q1323.7 58.1548 1323.7 49.9314 Q1323.7 41.7081 1320.3 37.0496 Q1316.9 32.3505 1310.98 32.3505 Q1305.07 32.3505 1301.67 37.0496 Q1298.3 41.7081 1298.3 49.9314 Z" fill="#000000" fill-rule="evenodd" fill-opacity="1" /><path clip-path="url(#clip590)" d="M1380.98 86.3491 L1380.98 92.1419 L1337.88 92.1419 L1337.88 86.3491 L1380.98 86.3491 Z" fill="#000000" fill-rule="evenodd" fill-opacity="1" /><path clip-path="url(#clip590)" d="M1410.96 9.54393 L1410.96 15.7418 L1403.83 15.7418 Q1399.82 15.7418 1398.24 17.3622 Q1396.7 18.9825 1396.7 23.1955 L1396.7 27.2059 L1408.98 27.2059 L1408.98 32.9987 L1396.7 32.9987 L1396.7 72.576 L1389.21 72.576 L1389.21 32.9987 L1382.08 32.9987 L1382.08 27.2059 L1389.21 27.2059 L1389.21 24.0462 Q1389.21 16.471 1392.73 13.0277 Q1396.26 9.54393 1403.91 9.54393 L1410.96 9.54393 Z" fill="#000000" fill-rule="evenodd" fill-opacity="1" /><path clip-path="url(#clip590)" d="M1434.78 32.4315 Q1428.78 32.4315 1425.3 37.1306 Q1421.82 41.7891 1421.82 49.9314 Q1421.82 58.0738 1425.26 62.7728 Q1428.74 67.4314 1434.78 67.4314 Q1440.73 67.4314 1444.22 62.7323 Q1447.7 58.0333 1447.7 49.9314 Q1447.7 41.8701 1444.22 37.1711 Q1440.73 32.4315 1434.78 32.4315 M1434.78 26.1121 Q1444.5 26.1121 1450.05 32.4315 Q1455.6 38.7509 1455.6 49.9314 Q1455.6 61.0714 1450.05 67.4314 Q1444.5 73.7508 1434.78 73.7508 Q1425.02 73.7508 1419.47 67.4314 Q1413.96 61.0714 1413.96 49.9314 Q1413.96 38.7509 1419.47 32.4315 Q1425.02 26.1121 1434.78 26.1121 Z" fill="#000000" fill-rule="evenodd" fill-opacity="1" /><path clip-path="url(#clip590)" d="M1494.25 34.1734 Q1492.99 33.4443 1491.49 33.1202 Q1490.03 32.7556 1488.25 32.7556 Q1481.93 32.7556 1478.53 36.8875 Q1475.17 40.9789 1475.17 48.6757 L1475.17 72.576 L1467.67 72.576 L1467.67 27.2059 L1475.17 27.2059 L1475.17 34.2544 Q1477.52 30.1225 1481.28 28.1376 Q1485.05 26.1121 1490.44 26.1121 Q1491.21 26.1121 1492.14 26.2337 Q1493.07 26.3147 1494.21 26.5172 L1494.25 34.1734 Z" fill="#000000" fill-rule="evenodd" fill-opacity="1" /><path clip-path="url(#clip590)" d="M1532.89 28.9478 L1532.89 35.9153 Q1529.73 34.1734 1526.53 33.3227 Q1523.37 32.4315 1520.13 32.4315 Q1512.88 32.4315 1508.87 37.0496 Q1504.86 41.6271 1504.86 49.9314 Q1504.86 58.2358 1508.87 62.8538 Q1512.88 67.4314 1520.13 67.4314 Q1523.37 67.4314 1526.53 66.5807 Q1529.73 65.6895 1532.89 63.9476 L1532.89 70.8341 Q1529.77 72.2924 1526.41 73.0216 Q1523.09 73.7508 1519.32 73.7508 Q1509.07 73.7508 1503.04 67.3098 Q1497 60.8689 1497 49.9314 Q1497 38.832 1503.08 32.472 Q1509.19 26.1121 1519.81 26.1121 Q1523.25 26.1121 1526.53 26.8413 Q1529.81 27.5299 1532.89 28.9478 Z" fill="#000000" fill-rule="evenodd" fill-opacity="1" /><path clip-path="url(#clip590)" d="M1584.66 48.0275 L1584.66 51.6733 L1550.39 51.6733 Q1550.88 59.3701 1555.01 63.421 Q1559.18 67.4314 1566.6 67.4314 Q1570.89 67.4314 1574.9 66.3781 Q1578.95 65.3249 1582.92 63.2184 L1582.92 70.267 Q1578.91 71.9684 1574.7 72.8596 Q1570.48 73.7508 1566.15 73.7508 Q1555.29 73.7508 1548.93 67.4314 Q1542.61 61.1119 1542.61 50.3365 Q1542.61 39.1965 1548.61 32.6746 Q1554.65 26.1121 1564.85 26.1121 Q1574.01 26.1121 1579.32 32.0264 Q1584.66 37.9003 1584.66 48.0275 M1577.21 45.84 Q1577.13 39.7232 1573.77 36.0774 Q1570.44 32.4315 1564.94 32.4315 Q1558.7 32.4315 1554.93 35.9558 Q1551.2 39.4801 1550.64 45.8805 L1577.21 45.84 Z" fill="#000000" fill-rule="evenodd" fill-opacity="1" /><path clip-path="url(#clip590)" d="M1640.85 32.4315 Q1634.85 32.4315 1631.37 37.1306 Q1627.89 41.7891 1627.89 49.9314 Q1627.89 58.0738 1631.33 62.7728 Q1634.81 67.4314 1640.85 67.4314 Q1646.8 67.4314 1650.29 62.7323 Q1653.77 58.0333 1653.77 49.9314 Q1653.77 41.8701 1650.29 37.1711 Q1646.8 32.4315 1640.85 32.4315 M1640.85 26.1121 Q1650.57 26.1121 1656.12 32.4315 Q1661.67 38.7509 1661.67 49.9314 Q1661.67 61.0714 1656.12 67.4314 Q1650.57 73.7508 1640.85 73.7508 Q1631.09 73.7508 1625.54 67.4314 Q1620.03 61.0714 1620.03 49.9314 Q1620.03 38.7509 1625.54 32.4315 Q1631.09 26.1121 1640.85 26.1121 Z" fill="#000000" fill-rule="evenodd" fill-opacity="1" /><path clip-path="url(#clip590)" d="M1711.74 45.1919 L1711.74 72.576 L1704.29 72.576 L1704.29 45.4349 Q1704.29 38.994 1701.77 35.7938 Q1699.26 32.5936 1694.24 32.5936 Q1688.2 32.5936 1684.72 36.4419 Q1681.24 40.2903 1681.24 46.9338 L1681.24 72.576 L1673.74 72.576 L1673.74 27.2059 L1681.24 27.2059 L1681.24 34.2544 Q1683.91 30.163 1687.52 28.1376 Q1691.16 26.1121 1695.9 26.1121 Q1703.72 26.1121 1707.73 30.9732 Q1711.74 35.7938 1711.74 45.1919 Z" fill="#000000" fill-rule="evenodd" fill-opacity="1" /><path clip-path="url(#clip590)" d="M1753.3 12.096 L1761.49 12.096 L1761.49 65.6895 L1790.94 65.6895 L1790.94 72.576 L1753.3 72.576 L1753.3 12.096 Z" fill="#000000" fill-rule="evenodd" fill-opacity="1" /><path clip-path="url(#clip590)" d="M1799.52 12.096 L1807.71 12.096 L1807.71 68.3631 Q1807.71 79.3005 1803.53 84.2426 Q1799.4 89.1847 1790.21 89.1847 L1787.09 89.1847 L1787.09 82.2982 L1789.64 82.2982 Q1795.07 82.2982 1797.3 79.26 Q1799.52 76.2218 1799.52 68.3631 L1799.52 12.096 Z" fill="#000000" fill-rule="evenodd" fill-opacity="1" /><path clip-path="url(#clip590)" d="M1895.65 16.7545 L1895.65 25.383 Q1891.52 21.5346 1886.82 19.6307 Q1882.16 17.7268 1876.9 17.7268 Q1866.52 17.7268 1861.02 24.0867 Q1855.51 30.4061 1855.51 42.3968 Q1855.51 54.3469 1861.02 60.7069 Q1866.52 67.0263 1876.9 67.0263 Q1882.16 67.0263 1886.82 65.1223 Q1891.52 63.2184 1895.65 59.3701 L1895.65 67.9175 Q1891.36 70.8341 1886.54 72.2924 Q1881.76 73.7508 1876.41 73.7508 Q1862.68 73.7508 1854.78 65.3654 Q1846.88 56.9395 1846.88 42.3968 Q1846.88 27.8135 1854.78 19.4281 Q1862.68 11.0023 1876.41 11.0023 Q1881.84 11.0023 1886.62 12.4606 Q1891.44 13.8784 1895.65 16.7545 Z" fill="#000000" fill-rule="evenodd" fill-opacity="1" /><path clip-path="url(#clip590)" d="M1907.97 9.54393 L1915.42 9.54393 L1915.42 72.576 L1907.97 72.576 L1907.97 9.54393 Z" fill="#000000" fill-rule="evenodd" fill-opacity="1" /><path clip-path="url(#clip590)" d="M1930.25 54.671 L1930.25 27.2059 L1937.7 27.2059 L1937.7 54.3874 Q1937.7 60.8284 1940.21 64.0691 Q1942.72 67.2693 1947.75 67.2693 Q1953.78 67.2693 1957.27 63.421 Q1960.79 59.5726 1960.79 52.9291 L1960.79 27.2059 L1968.24 27.2059 L1968.24 72.576 L1960.79 72.576 L1960.79 65.6084 Q1958.08 69.7404 1954.47 71.7658 Q1950.91 73.7508 1946.17 73.7508 Q1938.35 73.7508 1934.3 68.8897 Q1930.25 64.0286 1930.25 54.671 M1949 26.1121 L1949 26.1121 Z" fill="#000000" fill-rule="evenodd" fill-opacity="1" /><path clip-path="url(#clip590)" d="M2012.52 28.5427 L2012.52 35.5912 Q2009.36 33.9709 2005.96 33.1607 Q2002.55 32.3505 1998.91 32.3505 Q1993.36 32.3505 1990.56 34.0519 Q1987.81 35.7533 1987.81 39.156 Q1987.81 41.7486 1989.79 43.2475 Q1991.78 44.7058 1997.77 46.0426 L2000.33 46.6097 Q2008.27 48.3111 2011.59 51.4303 Q2014.95 54.509 2014.95 60.0587 Q2014.95 66.3781 2009.93 70.0644 Q2004.94 73.7508 1996.19 73.7508 Q1992.55 73.7508 1988.58 73.0216 Q1984.65 72.3329 1980.27 70.9151 L1980.27 63.2184 Q1984.41 65.3654 1988.42 66.4591 Q1992.43 67.5124 1996.36 67.5124 Q2001.62 67.5124 2004.46 65.73 Q2007.29 63.9071 2007.29 60.6258 Q2007.29 57.5877 2005.23 55.9673 Q2003.2 54.3469 1996.28 52.8481 L1993.68 52.2405 Q1986.76 50.7821 1983.68 47.7845 Q1980.6 44.7463 1980.6 39.4801 Q1980.6 33.0797 1985.14 29.5959 Q1989.67 26.1121 1998.02 26.1121 Q2002.15 26.1121 2005.8 26.7198 Q2009.44 27.3274 2012.52 28.5427 Z" fill="#000000" fill-rule="evenodd" fill-opacity="1" /><path clip-path="url(#clip590)" d="M2034.19 14.324 L2034.19 27.2059 L2049.54 27.2059 L2049.54 32.9987 L2034.19 32.9987 L2034.19 57.6282 Q2034.19 63.1779 2035.69 64.7578 Q2037.23 66.3376 2041.89 66.3376 L2049.54 66.3376 L2049.54 72.576 L2041.89 72.576 Q2033.26 72.576 2029.98 69.3758 Q2026.7 66.1351 2026.7 57.6282 L2026.7 32.9987 L2021.23 32.9987 L2021.23 27.2059 L2026.7 27.2059 L2026.7 14.324 L2034.19 14.324 Z" fill="#000000" fill-rule="evenodd" fill-opacity="1" /><path clip-path="url(#clip590)" d="M2098.16 48.0275 L2098.16 51.6733 L2063.89 51.6733 Q2064.37 59.3701 2068.5 63.421 Q2072.68 67.4314 2080.09 67.4314 Q2084.38 67.4314 2088.39 66.3781 Q2092.44 65.3249 2096.41 63.2184 L2096.41 70.267 Q2092.4 71.9684 2088.19 72.8596 Q2083.98 73.7508 2079.64 73.7508 Q2068.79 73.7508 2062.43 67.4314 Q2056.11 61.1119 2056.11 50.3365 Q2056.11 39.1965 2062.1 32.6746 Q2068.14 26.1121 2078.35 26.1121 Q2087.5 26.1121 2092.81 32.0264 Q2098.16 37.9003 2098.16 48.0275 M2090.7 45.84 Q2090.62 39.7232 2087.26 36.0774 Q2083.94 32.4315 2078.43 32.4315 Q2072.19 32.4315 2068.42 35.9558 Q2064.7 39.4801 2064.13 45.8805 L2090.7 45.84 Z" fill="#000000" fill-rule="evenodd" fill-opacity="1" /><path clip-path="url(#clip590)" d="M2136.68 34.1734 Q2135.42 33.4443 2133.93 33.1202 Q2132.47 32.7556 2130.68 32.7556 Q2124.37 32.7556 2120.96 36.8875 Q2117.6 40.9789 2117.6 48.6757 L2117.6 72.576 L2110.11 72.576 L2110.11 27.2059 L2117.6 27.2059 L2117.6 34.2544 Q2119.95 30.1225 2123.72 28.1376 Q2127.48 26.1121 2132.87 26.1121 Q2133.64 26.1121 2134.57 26.2337 Q2135.51 26.3147 2136.64 26.5172 L2136.68 34.1734 Z" fill="#000000" fill-rule="evenodd" fill-opacity="1" /><path clip-path="url(#clip590)" d="M2173.42 28.5427 L2173.42 35.5912 Q2170.26 33.9709 2166.86 33.1607 Q2163.46 32.3505 2159.81 32.3505 Q2154.26 32.3505 2151.47 34.0519 Q2148.71 35.7533 2148.71 39.156 Q2148.71 41.7486 2150.7 43.2475 Q2152.68 44.7058 2158.68 46.0426 L2161.23 46.6097 Q2169.17 48.3111 2172.49 51.4303 Q2175.85 54.509 2175.85 60.0587 Q2175.85 66.3781 2170.83 70.0644 Q2165.85 73.7508 2157.1 73.7508 Q2153.45 73.7508 2149.48 73.0216 Q2145.55 72.3329 2141.18 70.9151 L2141.18 63.2184 Q2145.31 65.3654 2149.32 66.4591 Q2153.33 67.5124 2157.26 67.5124 Q2162.52 67.5124 2165.36 65.73 Q2168.2 63.9071 2168.2 60.6258 Q2168.2 57.5877 2166.13 55.9673 Q2164.1 54.3469 2157.18 52.8481 L2154.58 52.2405 Q2147.66 50.7821 2144.58 47.7845 Q2141.5 44.7463 2141.5 39.4801 Q2141.5 33.0797 2146.04 29.5959 Q2150.57 26.1121 2158.92 26.1121 Q2163.05 26.1121 2166.7 26.7198 Q2170.34 27.3274 2173.42 28.5427 Z" fill="#000000" fill-rule="evenodd" fill-opacity="1" /><polyline clip-path="url(#clip592)" style="stroke:#009af9; stroke-linecap:butt; stroke-linejoin:round; stroke-width:4; stroke-opacity:1; fill:none" points="
  307.043,1386.4 357.969,1385.89 408.895,1385 459.822,1383.83 510.748,1382.16 561.675,1380.08 612.601,1377.29 663.527,1373.42 714.454,1368.55 765.38,1363.8 
  816.307,1358.98 867.233,1352.55 918.159,1345.91 969.086,1336.61 1020.01,1329.03 1070.94,1323.78 1121.86,1292.26 1172.79,1278.15 1223.72,1268.66 1274.64,1247.46 
  1325.57,1230.76 1376.5,1209.4 1427.42,1180.22 1478.35,1162.31 1529.28,1147.68 1580.2,1126.44 1631.13,1097.96 1682.06,1078.12 1732.98,1054.61 1783.91,1026.86 
  1834.83,997.928 1885.76,978.78 1936.69,956.366 1987.61,918.211 2038.54,574.929 2089.47,705.475 2140.39,612.545 2191.32,223.073 2242.25,160.256 2293.17,361.976 
  
  "/>
<circle clip-path="url(#clip592)" cx="307.043" cy="1386.4" r="14" fill="#009af9" fill-rule="evenodd" fill-opacity="1" stroke="#000000" stroke-opacity="1" stroke-width="3.2"/>
<circle clip-path="url(#clip592)" cx="357.969" cy="1385.89" r="14" fill="#009af9" fill-rule="evenodd" fill-opacity="1" stroke="#000000" stroke-opacity="1" stroke-width="3.2"/>
<circle clip-path="url(#clip592)" cx="408.895" cy="1385" r="14" fill="#009af9" fill-rule="evenodd" fill-opacity="1" stroke="#000000" stroke-opacity="1" stroke-width="3.2"/>
<circle clip-path="url(#clip592)" cx="459.822" cy="1383.83" r="14" fill="#009af9" fill-rule="evenodd" fill-opacity="1" stroke="#000000" stroke-opacity="1" stroke-width="3.2"/>
<circle clip-path="url(#clip592)" cx="510.748" cy="1382.16" r="14" fill="#009af9" fill-rule="evenodd" fill-opacity="1" stroke="#000000" stroke-opacity="1" stroke-width="3.2"/>
<circle clip-path="url(#clip592)" cx="561.675" cy="1380.08" r="14" fill="#009af9" fill-rule="evenodd" fill-opacity="1" stroke="#000000" stroke-opacity="1" stroke-width="3.2"/>
<circle clip-path="url(#clip592)" cx="612.601" cy="1377.29" r="14" fill="#009af9" fill-rule="evenodd" fill-opacity="1" stroke="#000000" stroke-opacity="1" stroke-width="3.2"/>
<circle clip-path="url(#clip592)" cx="663.527" cy="1373.42" r="14" fill="#009af9" fill-rule="evenodd" fill-opacity="1" stroke="#000000" stroke-opacity="1" stroke-width="3.2"/>
<circle clip-path="url(#clip592)" cx="714.454" cy="1368.55" r="14" fill="#009af9" fill-rule="evenodd" fill-opacity="1" stroke="#000000" stroke-opacity="1" stroke-width="3.2"/>
<circle clip-path="url(#clip592)" cx="765.38" cy="1363.8" r="14" fill="#009af9" fill-rule="evenodd" fill-opacity="1" stroke="#000000" stroke-opacity="1" stroke-width="3.2"/>
<circle clip-path="url(#clip592)" cx="816.307" cy="1358.98" r="14" fill="#009af9" fill-rule="evenodd" fill-opacity="1" stroke="#000000" stroke-opacity="1" stroke-width="3.2"/>
<circle clip-path="url(#clip592)" cx="867.233" cy="1352.55" r="14" fill="#009af9" fill-rule="evenodd" fill-opacity="1" stroke="#000000" stroke-opacity="1" stroke-width="3.2"/>
<circle clip-path="url(#clip592)" cx="918.159" cy="1345.91" r="14" fill="#009af9" fill-rule="evenodd" fill-opacity="1" stroke="#000000" stroke-opacity="1" stroke-width="3.2"/>
<circle clip-path="url(#clip592)" cx="969.086" cy="1336.61" r="14" fill="#009af9" fill-rule="evenodd" fill-opacity="1" stroke="#000000" stroke-opacity="1" stroke-width="3.2"/>
<circle clip-path="url(#clip592)" cx="1020.01" cy="1329.03" r="14" fill="#009af9" fill-rule="evenodd" fill-opacity="1" stroke="#000000" stroke-opacity="1" stroke-width="3.2"/>
<circle clip-path="url(#clip592)" cx="1070.94" cy="1323.78" r="14" fill="#009af9" fill-rule="evenodd" fill-opacity="1" stroke="#000000" stroke-opacity="1" stroke-width="3.2"/>
<circle clip-path="url(#clip592)" cx="1121.86" cy="1292.26" r="14" fill="#009af9" fill-rule="evenodd" fill-opacity="1" stroke="#000000" stroke-opacity="1" stroke-width="3.2"/>
<circle clip-path="url(#clip592)" cx="1172.79" cy="1278.15" r="14" fill="#009af9" fill-rule="evenodd" fill-opacity="1" stroke="#000000" stroke-opacity="1" stroke-width="3.2"/>
<circle clip-path="url(#clip592)" cx="1223.72" cy="1268.66" r="14" fill="#009af9" fill-rule="evenodd" fill-opacity="1" stroke="#000000" stroke-opacity="1" stroke-width="3.2"/>
<circle clip-path="url(#clip592)" cx="1274.64" cy="1247.46" r="14" fill="#009af9" fill-rule="evenodd" fill-opacity="1" stroke="#000000" stroke-opacity="1" stroke-width="3.2"/>
<circle clip-path="url(#clip592)" cx="1325.57" cy="1230.76" r="14" fill="#009af9" fill-rule="evenodd" fill-opacity="1" stroke="#000000" stroke-opacity="1" stroke-width="3.2"/>
<circle clip-path="url(#clip592)" cx="1376.5" cy="1209.4" r="14" fill="#009af9" fill-rule="evenodd" fill-opacity="1" stroke="#000000" stroke-opacity="1" stroke-width="3.2"/>
<circle clip-path="url(#clip592)" cx="1427.42" cy="1180.22" r="14" fill="#009af9" fill-rule="evenodd" fill-opacity="1" stroke="#000000" stroke-opacity="1" stroke-width="3.2"/>
<circle clip-path="url(#clip592)" cx="1478.35" cy="1162.31" r="14" fill="#009af9" fill-rule="evenodd" fill-opacity="1" stroke="#000000" stroke-opacity="1" stroke-width="3.2"/>
<circle clip-path="url(#clip592)" cx="1529.28" cy="1147.68" r="14" fill="#009af9" fill-rule="evenodd" fill-opacity="1" stroke="#000000" stroke-opacity="1" stroke-width="3.2"/>
<circle clip-path="url(#clip592)" cx="1580.2" cy="1126.44" r="14" fill="#009af9" fill-rule="evenodd" fill-opacity="1" stroke="#000000" stroke-opacity="1" stroke-width="3.2"/>
<circle clip-path="url(#clip592)" cx="1631.13" cy="1097.96" r="14" fill="#009af9" fill-rule="evenodd" fill-opacity="1" stroke="#000000" stroke-opacity="1" stroke-width="3.2"/>
<circle clip-path="url(#clip592)" cx="1682.06" cy="1078.12" r="14" fill="#009af9" fill-rule="evenodd" fill-opacity="1" stroke="#000000" stroke-opacity="1" stroke-width="3.2"/>
<circle clip-path="url(#clip592)" cx="1732.98" cy="1054.61" r="14" fill="#009af9" fill-rule="evenodd" fill-opacity="1" stroke="#000000" stroke-opacity="1" stroke-width="3.2"/>
<circle clip-path="url(#clip592)" cx="1783.91" cy="1026.86" r="14" fill="#009af9" fill-rule="evenodd" fill-opacity="1" stroke="#000000" stroke-opacity="1" stroke-width="3.2"/>
<circle clip-path="url(#clip592)" cx="1834.83" cy="997.928" r="14" fill="#009af9" fill-rule="evenodd" fill-opacity="1" stroke="#000000" stroke-opacity="1" stroke-width="3.2"/>
<circle clip-path="url(#clip592)" cx="1885.76" cy="978.78" r="14" fill="#009af9" fill-rule="evenodd" fill-opacity="1" stroke="#000000" stroke-opacity="1" stroke-width="3.2"/>
<circle clip-path="url(#clip592)" cx="1936.69" cy="956.366" r="14" fill="#009af9" fill-rule="evenodd" fill-opacity="1" stroke="#000000" stroke-opacity="1" stroke-width="3.2"/>
<circle clip-path="url(#clip592)" cx="1987.61" cy="918.211" r="14" fill="#009af9" fill-rule="evenodd" fill-opacity="1" stroke="#000000" stroke-opacity="1" stroke-width="3.2"/>
<circle clip-path="url(#clip592)" cx="2038.54" cy="574.929" r="14" fill="#009af9" fill-rule="evenodd" fill-opacity="1" stroke="#000000" stroke-opacity="1" stroke-width="3.2"/>
<circle clip-path="url(#clip592)" cx="2089.47" cy="705.475" r="14" fill="#009af9" fill-rule="evenodd" fill-opacity="1" stroke="#000000" stroke-opacity="1" stroke-width="3.2"/>
<circle clip-path="url(#clip592)" cx="2140.39" cy="612.545" r="14" fill="#009af9" fill-rule="evenodd" fill-opacity="1" stroke="#000000" stroke-opacity="1" stroke-width="3.2"/>
<circle clip-path="url(#clip592)" cx="2191.32" cy="223.073" r="14" fill="#009af9" fill-rule="evenodd" fill-opacity="1" stroke="#000000" stroke-opacity="1" stroke-width="3.2"/>
<circle clip-path="url(#clip592)" cx="2242.25" cy="160.256" r="14" fill="#009af9" fill-rule="evenodd" fill-opacity="1" stroke="#000000" stroke-opacity="1" stroke-width="3.2"/>
<circle clip-path="url(#clip592)" cx="2293.17" cy="361.976" r="14" fill="#009af9" fill-rule="evenodd" fill-opacity="1" stroke="#000000" stroke-opacity="1" stroke-width="3.2"/>
</svg>
