<?xml version="1.0" encoding="utf-8"?>
<svg xmlns="http://www.w3.org/2000/svg" xmlns:xlink="http://www.w3.org/1999/xlink" width="600" height="400" viewBox="0 0 2400 1600">
<defs>
  <clipPath id="clip940">
    <rect x="0" y="0" width="2400" height="1600"/>
  </clipPath>
</defs>
<path clip-path="url(#clip940)" d="
M0 1600 L2400 1600 L2400 0 L0 0  Z
  " fill="#ffffff" fill-rule="evenodd" fill-opacity="1"/>
<defs>
  <clipPath id="clip941">
    <rect x="480" y="0" width="1681" height="1600"/>
  </clipPath>
</defs>
<path clip-path="url(#clip940)" d="
M202.227 1423.18 L2352.76 1423.18 L2352.76 123.472 L202.227 123.472  Z
  " fill="#ffffff" fill-rule="evenodd" fill-opacity="1"/>
<defs>
  <clipPath id="clip942">
    <rect x="202" y="123" width="2152" height="1301"/>
  </clipPath>
</defs>
<polyline clip-path="url(#clip942)" style="stroke:#000000; stroke-linecap:butt; stroke-linejoin:round; stroke-width:2; stroke-opacity:0.1; fill:none" points="
  211.071,1423.18 211.071,123.472 
  "/>
<polyline clip-path="url(#clip942)" style="stroke:#000000; stroke-linecap:butt; stroke-linejoin:round; stroke-width:2; stroke-opacity:0.1; fill:none" points="
  731.276,1423.18 731.276,123.472 
  "/>
<polyline clip-path="url(#clip942)" style="stroke:#000000; stroke-linecap:butt; stroke-linejoin:round; stroke-width:2; stroke-opacity:0.1; fill:none" points="
  1251.48,1423.18 1251.48,123.472 
  "/>
<polyline clip-path="url(#clip942)" style="stroke:#000000; stroke-linecap:butt; stroke-linejoin:round; stroke-width:2; stroke-opacity:0.1; fill:none" points="
  1771.69,1423.18 1771.69,123.472 
  "/>
<polyline clip-path="url(#clip942)" style="stroke:#000000; stroke-linecap:butt; stroke-linejoin:round; stroke-width:2; stroke-opacity:0.1; fill:none" points="
  2291.89,1423.18 2291.89,123.472 
  "/>
<polyline clip-path="url(#clip940)" style="stroke:#000000; stroke-linecap:butt; stroke-linejoin:round; stroke-width:4; stroke-opacity:1; fill:none" points="
  202.227,1423.18 2352.76,1423.18 
  "/>
<polyline clip-path="url(#clip940)" style="stroke:#000000; stroke-linecap:butt; stroke-linejoin:round; stroke-width:4; stroke-opacity:1; fill:none" points="
  211.071,1423.18 211.071,1404.28 
  "/>
<polyline clip-path="url(#clip940)" style="stroke:#000000; stroke-linecap:butt; stroke-linejoin:round; stroke-width:4; stroke-opacity:1; fill:none" points="
  731.276,1423.18 731.276,1404.28 
  "/>
<polyline clip-path="url(#clip940)" style="stroke:#000000; stroke-linecap:butt; stroke-linejoin:round; stroke-width:4; stroke-opacity:1; fill:none" points="
  1251.48,1423.18 1251.48,1404.28 
  "/>
<polyline clip-path="url(#clip940)" style="stroke:#000000; stroke-linecap:butt; stroke-linejoin:round; stroke-width:4; stroke-opacity:1; fill:none" points="
  1771.69,1423.18 1771.69,1404.28 
  "/>
<polyline clip-path="url(#clip940)" style="stroke:#000000; stroke-linecap:butt; stroke-linejoin:round; stroke-width:4; stroke-opacity:1; fill:none" points="
  2291.89,1423.18 2291.89,1404.28 
  "/>
<path clip-path="url(#clip940)" d="M211.071 1454.1 Q207.46 1454.1 205.631 1457.66 Q203.826 1461.2 203.826 1468.33 Q203.826 1475.44 205.631 1479.01 Q207.46 1482.55 211.071 1482.55 Q214.705 1482.55 216.511 1479.01 Q218.339 1475.44 218.339 1468.33 Q218.339 1461.2 216.511 1457.66 Q214.705 1454.1 211.071 1454.1 M211.071 1450.39 Q216.881 1450.39 219.937 1455 Q223.015 1459.58 223.015 1468.33 Q223.015 1477.06 219.937 1481.67 Q216.881 1486.25 211.071 1486.25 Q205.261 1486.25 202.182 1481.67 Q199.127 1477.06 199.127 1468.33 Q199.127 1459.58 202.182 1455 Q205.261 1450.39 211.071 1450.39 Z" fill="#000000" fill-rule="evenodd" fill-opacity="1" /><path clip-path="url(#clip940)" d="M679.888 1481.64 L696.207 1481.64 L696.207 1485.58 L674.263 1485.58 L674.263 1481.64 Q676.925 1478.89 681.508 1474.26 Q686.114 1469.61 687.295 1468.27 Q689.54 1465.74 690.42 1464.01 Q691.323 1462.25 691.323 1460.56 Q691.323 1457.8 689.378 1456.07 Q687.457 1454.33 684.355 1454.33 Q682.156 1454.33 679.702 1455.09 Q677.272 1455.86 674.494 1457.41 L674.494 1452.69 Q677.318 1451.55 679.772 1450.97 Q682.226 1450.39 684.263 1450.39 Q689.633 1450.39 692.827 1453.08 Q696.022 1455.77 696.022 1460.26 Q696.022 1462.39 695.212 1464.31 Q694.425 1466.2 692.318 1468.8 Q691.739 1469.47 688.638 1472.69 Q685.536 1475.88 679.888 1481.64 Z" fill="#000000" fill-rule="evenodd" fill-opacity="1" /><path clip-path="url(#clip940)" d="M706.068 1451.02 L724.424 1451.02 L724.424 1454.96 L710.35 1454.96 L710.35 1463.43 Q711.369 1463.08 712.387 1462.92 Q713.406 1462.73 714.424 1462.73 Q720.211 1462.73 723.591 1465.9 Q726.971 1469.08 726.971 1474.49 Q726.971 1480.07 723.498 1483.17 Q720.026 1486.25 713.707 1486.25 Q711.531 1486.25 709.262 1485.88 Q707.017 1485.51 704.61 1484.77 L704.61 1480.07 Q706.693 1481.2 708.915 1481.76 Q711.137 1482.32 713.614 1482.32 Q717.619 1482.32 719.957 1480.21 Q722.295 1478.1 722.295 1474.49 Q722.295 1470.88 719.957 1468.77 Q717.619 1466.67 713.614 1466.67 Q711.739 1466.67 709.864 1467.08 Q708.012 1467.5 706.068 1468.38 L706.068 1451.02 Z" fill="#000000" fill-rule="evenodd" fill-opacity="1" /><path clip-path="url(#clip940)" d="M746.184 1454.1 Q742.572 1454.1 740.744 1457.66 Q738.938 1461.2 738.938 1468.33 Q738.938 1475.44 740.744 1479.01 Q742.572 1482.55 746.184 1482.55 Q749.818 1482.55 751.623 1479.01 Q753.452 1475.44 753.452 1468.33 Q753.452 1461.2 751.623 1457.66 Q749.818 1454.1 746.184 1454.1 M746.184 1450.39 Q751.994 1450.39 755.049 1455 Q758.128 1459.58 758.128 1468.33 Q758.128 1477.06 755.049 1481.67 Q751.994 1486.25 746.184 1486.25 Q740.373 1486.25 737.295 1481.67 Q734.239 1477.06 734.239 1468.33 Q734.239 1459.58 737.295 1455 Q740.373 1450.39 746.184 1450.39 Z" fill="#000000" fill-rule="evenodd" fill-opacity="1" /><path clip-path="url(#clip940)" d="M776.345 1454.1 Q772.734 1454.1 770.906 1457.66 Q769.1 1461.2 769.1 1468.33 Q769.1 1475.44 770.906 1479.01 Q772.734 1482.55 776.345 1482.55 Q779.98 1482.55 781.785 1479.01 Q783.614 1475.44 783.614 1468.33 Q783.614 1461.2 781.785 1457.66 Q779.98 1454.1 776.345 1454.1 M776.345 1450.39 Q782.156 1450.39 785.211 1455 Q788.29 1459.58 788.29 1468.33 Q788.29 1477.06 785.211 1481.67 Q782.156 1486.25 776.345 1486.25 Q770.535 1486.25 767.457 1481.67 Q764.401 1477.06 764.401 1468.33 Q764.401 1459.58 767.457 1455 Q770.535 1450.39 776.345 1450.39 Z" fill="#000000" fill-rule="evenodd" fill-opacity="1" /><path clip-path="url(#clip940)" d="M1196.02 1451.02 L1214.38 1451.02 L1214.38 1454.96 L1200.3 1454.96 L1200.3 1463.43 Q1201.32 1463.08 1202.34 1462.92 Q1203.36 1462.73 1204.38 1462.73 Q1210.16 1462.73 1213.54 1465.9 Q1216.92 1469.08 1216.92 1474.49 Q1216.92 1480.07 1213.45 1483.17 Q1209.98 1486.25 1203.66 1486.25 Q1201.48 1486.25 1199.21 1485.88 Q1196.97 1485.51 1194.56 1484.77 L1194.56 1480.07 Q1196.64 1481.2 1198.87 1481.76 Q1201.09 1482.32 1203.57 1482.32 Q1207.57 1482.32 1209.91 1480.21 Q1212.25 1478.1 1212.25 1474.49 Q1212.25 1470.88 1209.91 1468.77 Q1207.57 1466.67 1203.57 1466.67 Q1201.69 1466.67 1199.82 1467.08 Q1197.96 1467.5 1196.02 1468.38 L1196.02 1451.02 Z" fill="#000000" fill-rule="evenodd" fill-opacity="1" /><path clip-path="url(#clip940)" d="M1236.13 1454.1 Q1232.52 1454.1 1230.69 1457.66 Q1228.89 1461.2 1228.89 1468.33 Q1228.89 1475.44 1230.69 1479.01 Q1232.52 1482.55 1236.13 1482.55 Q1239.77 1482.55 1241.57 1479.01 Q1243.4 1475.44 1243.4 1468.33 Q1243.4 1461.2 1241.57 1457.66 Q1239.77 1454.1 1236.13 1454.1 M1236.13 1450.39 Q1241.94 1450.39 1245 1455 Q1248.08 1459.58 1248.08 1468.33 Q1248.08 1477.06 1245 1481.67 Q1241.94 1486.25 1236.13 1486.25 Q1230.32 1486.25 1227.25 1481.67 Q1224.19 1477.06 1224.19 1468.33 Q1224.19 1459.58 1227.25 1455 Q1230.32 1450.39 1236.13 1450.39 Z" fill="#000000" fill-rule="evenodd" fill-opacity="1" /><path clip-path="url(#clip940)" d="M1266.3 1454.1 Q1262.69 1454.1 1260.86 1457.66 Q1259.05 1461.2 1259.05 1468.33 Q1259.05 1475.44 1260.86 1479.01 Q1262.69 1482.55 1266.3 1482.55 Q1269.93 1482.55 1271.74 1479.01 Q1273.56 1475.44 1273.56 1468.33 Q1273.56 1461.2 1271.74 1457.66 Q1269.93 1454.1 1266.3 1454.1 M1266.3 1450.39 Q1272.11 1450.39 1275.16 1455 Q1278.24 1459.58 1278.24 1468.33 Q1278.24 1477.06 1275.16 1481.67 Q1272.11 1486.25 1266.3 1486.25 Q1260.49 1486.25 1257.41 1481.67 Q1254.35 1477.06 1254.35 1468.33 Q1254.35 1459.58 1257.41 1455 Q1260.49 1450.39 1266.3 1450.39 Z" fill="#000000" fill-rule="evenodd" fill-opacity="1" /><path clip-path="url(#clip940)" d="M1296.46 1454.1 Q1292.85 1454.1 1291.02 1457.66 Q1289.21 1461.2 1289.21 1468.33 Q1289.21 1475.44 1291.02 1479.01 Q1292.85 1482.55 1296.46 1482.55 Q1300.09 1482.55 1301.9 1479.01 Q1303.73 1475.44 1303.73 1468.33 Q1303.73 1461.2 1301.9 1457.66 Q1300.09 1454.1 1296.46 1454.1 M1296.46 1450.39 Q1302.27 1450.39 1305.32 1455 Q1308.4 1459.58 1308.4 1468.33 Q1308.4 1477.06 1305.32 1481.67 Q1302.27 1486.25 1296.46 1486.25 Q1290.65 1486.25 1287.57 1481.67 Q1284.51 1477.06 1284.51 1468.33 Q1284.51 1459.58 1287.57 1455 Q1290.65 1450.39 1296.46 1450.39 Z" fill="#000000" fill-rule="evenodd" fill-opacity="1" /><path clip-path="url(#clip940)" d="M1714.88 1451.02 L1737.1 1451.02 L1737.1 1453.01 L1724.56 1485.58 L1719.67 1485.58 L1731.48 1454.96 L1714.88 1454.96 L1714.88 1451.02 Z" fill="#000000" fill-rule="evenodd" fill-opacity="1" /><path clip-path="url(#clip940)" d="M1746.27 1451.02 L1764.63 1451.02 L1764.63 1454.96 L1750.55 1454.96 L1750.55 1463.43 Q1751.57 1463.08 1752.59 1462.92 Q1753.61 1462.73 1754.63 1462.73 Q1760.41 1462.73 1763.79 1465.9 Q1767.17 1469.08 1767.17 1474.49 Q1767.17 1480.07 1763.7 1483.17 Q1760.23 1486.25 1753.91 1486.25 Q1751.73 1486.25 1749.46 1485.88 Q1747.22 1485.51 1744.81 1484.77 L1744.81 1480.07 Q1746.9 1481.2 1749.12 1481.76 Q1751.34 1482.32 1753.82 1482.32 Q1757.82 1482.32 1760.16 1480.21 Q1762.5 1478.1 1762.5 1474.49 Q1762.5 1470.88 1760.16 1468.77 Q1757.82 1466.67 1753.82 1466.67 Q1751.94 1466.67 1750.07 1467.08 Q1748.21 1467.5 1746.27 1468.38 L1746.27 1451.02 Z" fill="#000000" fill-rule="evenodd" fill-opacity="1" /><path clip-path="url(#clip940)" d="M1786.39 1454.1 Q1782.77 1454.1 1780.95 1457.66 Q1779.14 1461.2 1779.14 1468.33 Q1779.14 1475.44 1780.95 1479.01 Q1782.77 1482.55 1786.39 1482.55 Q1790.02 1482.55 1791.83 1479.01 Q1793.65 1475.44 1793.65 1468.33 Q1793.65 1461.2 1791.83 1457.66 Q1790.02 1454.1 1786.39 1454.1 M1786.39 1450.39 Q1792.2 1450.39 1795.25 1455 Q1798.33 1459.58 1798.33 1468.33 Q1798.33 1477.06 1795.25 1481.67 Q1792.2 1486.25 1786.39 1486.25 Q1780.58 1486.25 1777.5 1481.67 Q1774.44 1477.06 1774.44 1468.33 Q1774.44 1459.58 1777.5 1455 Q1780.58 1450.39 1786.39 1450.39 Z" fill="#000000" fill-rule="evenodd" fill-opacity="1" /><path clip-path="url(#clip940)" d="M1816.55 1454.1 Q1812.94 1454.1 1811.11 1457.66 Q1809.3 1461.2 1809.3 1468.33 Q1809.3 1475.44 1811.11 1479.01 Q1812.94 1482.55 1816.55 1482.55 Q1820.18 1482.55 1821.99 1479.01 Q1823.82 1475.44 1823.82 1468.33 Q1823.82 1461.2 1821.99 1457.66 Q1820.18 1454.1 1816.55 1454.1 M1816.55 1450.39 Q1822.36 1450.39 1825.41 1455 Q1828.49 1459.58 1828.49 1468.33 Q1828.49 1477.06 1825.41 1481.67 Q1822.36 1486.25 1816.55 1486.25 Q1810.74 1486.25 1807.66 1481.67 Q1804.6 1477.06 1804.6 1468.33 Q1804.6 1459.58 1807.66 1455 Q1810.74 1450.39 1816.55 1450.39 Z" fill="#000000" fill-rule="evenodd" fill-opacity="1" /><path clip-path="url(#clip940)" d="M2221.34 1481.64 L2228.98 1481.64 L2228.98 1455.28 L2220.67 1456.95 L2220.67 1452.69 L2228.93 1451.02 L2233.61 1451.02 L2233.61 1481.64 L2241.24 1481.64 L2241.24 1485.58 L2221.34 1485.58 L2221.34 1481.64 Z" fill="#000000" fill-rule="evenodd" fill-opacity="1" /><path clip-path="url(#clip940)" d="M2260.69 1454.1 Q2257.08 1454.1 2255.25 1457.66 Q2253.44 1461.2 2253.44 1468.33 Q2253.44 1475.44 2255.25 1479.01 Q2257.08 1482.55 2260.69 1482.55 Q2264.32 1482.55 2266.13 1479.01 Q2267.96 1475.44 2267.96 1468.33 Q2267.96 1461.2 2266.13 1457.66 Q2264.32 1454.1 2260.69 1454.1 M2260.69 1450.39 Q2266.5 1450.39 2269.55 1455 Q2272.63 1459.58 2272.63 1468.33 Q2272.63 1477.06 2269.55 1481.67 Q2266.5 1486.25 2260.69 1486.25 Q2254.88 1486.25 2251.8 1481.67 Q2248.74 1477.06 2248.74 1468.33 Q2248.74 1459.58 2251.8 1455 Q2254.88 1450.39 2260.69 1450.39 Z" fill="#000000" fill-rule="evenodd" fill-opacity="1" /><path clip-path="url(#clip940)" d="M2290.85 1454.1 Q2287.24 1454.1 2285.41 1457.66 Q2283.6 1461.2 2283.6 1468.33 Q2283.6 1475.44 2285.41 1479.01 Q2287.24 1482.55 2290.85 1482.55 Q2294.48 1482.55 2296.29 1479.01 Q2298.12 1475.44 2298.12 1468.33 Q2298.12 1461.2 2296.29 1457.66 Q2294.48 1454.1 2290.85 1454.1 M2290.85 1450.39 Q2296.66 1450.39 2299.72 1455 Q2302.79 1459.58 2302.79 1468.33 Q2302.79 1477.06 2299.72 1481.67 Q2296.66 1486.25 2290.85 1486.25 Q2285.04 1486.25 2281.96 1481.67 Q2278.91 1477.06 2278.91 1468.33 Q2278.91 1459.58 2281.96 1455 Q2285.04 1450.39 2290.85 1450.39 Z" fill="#000000" fill-rule="evenodd" fill-opacity="1" /><path clip-path="url(#clip940)" d="M2321.01 1454.1 Q2317.4 1454.1 2315.57 1457.66 Q2313.77 1461.2 2313.77 1468.33 Q2313.77 1475.44 2315.57 1479.01 Q2317.4 1482.55 2321.01 1482.55 Q2324.65 1482.55 2326.45 1479.01 Q2328.28 1475.44 2328.28 1468.33 Q2328.28 1461.2 2326.45 1457.66 Q2324.65 1454.1 2321.01 1454.1 M2321.01 1450.39 Q2326.82 1450.39 2329.88 1455 Q2332.96 1459.58 2332.96 1468.33 Q2332.96 1477.06 2329.88 1481.67 Q2326.82 1486.25 2321.01 1486.25 Q2315.2 1486.25 2312.12 1481.67 Q2309.07 1477.06 2309.07 1468.33 Q2309.07 1459.58 2312.12 1455 Q2315.2 1450.39 2321.01 1450.39 Z" fill="#000000" fill-rule="evenodd" fill-opacity="1" /><path clip-path="url(#clip940)" d="M2351.17 1454.1 Q2347.56 1454.1 2345.73 1457.66 Q2343.93 1461.2 2343.93 1468.33 Q2343.93 1475.44 2345.73 1479.01 Q2347.56 1482.55 2351.17 1482.55 Q2354.81 1482.55 2356.61 1479.01 Q2358.44 1475.44 2358.44 1468.33 Q2358.44 1461.2 2356.61 1457.66 Q2354.81 1454.1 2351.17 1454.1 M2351.17 1450.39 Q2356.98 1450.39 2360.04 1455 Q2363.12 1459.58 2363.12 1468.33 Q2363.12 1477.06 2360.04 1481.67 Q2356.98 1486.25 2351.17 1486.25 Q2345.36 1486.25 2342.29 1481.67 Q2339.23 1477.06 2339.23 1468.33 Q2339.23 1459.58 2342.29 1455 Q2345.36 1450.39 2351.17 1450.39 Z" fill="#000000" fill-rule="evenodd" fill-opacity="1" /><path clip-path="url(#clip940)" d="M996.048 1520.52 L1004.71 1520.52 L1025.78 1560.28 L1025.78 1520.52 L1032.01 1520.52 L1032.01 1568.04 L1023.36 1568.04 L1002.29 1528.29 L1002.29 1568.04 L996.048 1568.04 L996.048 1520.52 Z" fill="#000000" fill-rule="evenodd" fill-opacity="1" /><path clip-path="url(#clip940)" d="M1043.95 1553.98 L1043.95 1532.4 L1049.81 1532.4 L1049.81 1553.75 Q1049.81 1558.81 1051.78 1561.36 Q1053.75 1563.87 1057.7 1563.87 Q1062.44 1563.87 1065.18 1560.85 Q1067.95 1557.83 1067.95 1552.61 L1067.95 1532.4 L1073.8 1532.4 L1073.8 1568.04 L1067.95 1568.04 L1067.95 1562.57 Q1065.82 1565.82 1062.98 1567.41 Q1060.18 1568.97 1056.46 1568.97 Q1050.32 1568.97 1047.13 1565.15 Q1043.95 1561.33 1043.95 1553.98 M1058.69 1531.54 L1058.69 1531.54 Z" fill="#000000" fill-rule="evenodd" fill-opacity="1" /><path clip-path="url(#clip940)" d="M1113.62 1539.24 Q1115.82 1535.29 1118.87 1533.41 Q1121.93 1531.54 1126.07 1531.54 Q1131.64 1531.54 1134.66 1535.45 Q1137.68 1539.33 1137.68 1546.53 L1137.68 1568.04 L1131.8 1568.04 L1131.8 1546.72 Q1131.8 1541.59 1129.98 1539.11 Q1128.17 1536.63 1124.44 1536.63 Q1119.89 1536.63 1117.25 1539.65 Q1114.61 1542.68 1114.61 1547.9 L1114.61 1568.04 L1108.72 1568.04 L1108.72 1546.72 Q1108.72 1541.56 1106.91 1539.11 Q1105.09 1536.63 1101.3 1536.63 Q1096.82 1536.63 1094.18 1539.68 Q1091.53 1542.71 1091.53 1547.9 L1091.53 1568.04 L1085.65 1568.04 L1085.65 1532.4 L1091.53 1532.4 L1091.53 1537.93 Q1093.54 1534.66 1096.34 1533.1 Q1099.14 1531.54 1102.99 1531.54 Q1106.87 1531.54 1109.58 1533.51 Q1112.32 1535.48 1113.62 1539.24 Z" fill="#000000" fill-rule="evenodd" fill-opacity="1" /><path clip-path="url(#clip940)" d="M1174.96 1550.25 Q1174.96 1543.79 1172.28 1540.13 Q1169.64 1536.44 1164.99 1536.44 Q1160.35 1536.44 1157.67 1540.13 Q1155.03 1543.79 1155.03 1550.25 Q1155.03 1556.71 1157.67 1560.4 Q1160.35 1564.07 1164.99 1564.07 Q1169.64 1564.07 1172.28 1560.4 Q1174.96 1556.71 1174.96 1550.25 M1155.03 1537.81 Q1156.88 1534.62 1159.68 1533.1 Q1162.51 1531.54 1166.43 1531.54 Q1172.92 1531.54 1176.96 1536.69 Q1181.04 1541.85 1181.04 1550.25 Q1181.04 1558.65 1176.96 1563.81 Q1172.92 1568.97 1166.43 1568.97 Q1162.51 1568.97 1159.68 1567.44 Q1156.88 1565.88 1155.03 1562.7 L1155.03 1568.04 L1149.14 1568.04 L1149.14 1518.52 L1155.03 1518.52 L1155.03 1537.81 Z" fill="#000000" fill-rule="evenodd" fill-opacity="1" /><path clip-path="url(#clip940)" d="M1221.23 1548.76 L1221.23 1551.62 L1194.31 1551.62 Q1194.69 1557.67 1197.94 1560.85 Q1201.21 1564 1207.04 1564 Q1210.41 1564 1213.56 1563.17 Q1216.75 1562.35 1219.87 1560.69 L1219.87 1566.23 Q1216.72 1567.57 1213.4 1568.27 Q1210.09 1568.97 1206.69 1568.97 Q1198.16 1568.97 1193.16 1564 Q1188.2 1559.04 1188.2 1550.57 Q1188.2 1541.82 1192.91 1536.69 Q1197.65 1531.54 1205.67 1531.54 Q1212.86 1531.54 1217.03 1536.18 Q1221.23 1540.8 1221.23 1548.76 M1215.38 1547.04 Q1215.31 1542.23 1212.67 1539.37 Q1210.06 1536.5 1205.73 1536.5 Q1200.83 1536.5 1197.87 1539.27 Q1194.94 1542.04 1194.5 1547.07 L1215.38 1547.04 Z" fill="#000000" fill-rule="evenodd" fill-opacity="1" /><path clip-path="url(#clip940)" d="M1251.5 1537.87 Q1250.52 1537.3 1249.34 1537.04 Q1248.19 1536.76 1246.79 1536.76 Q1241.83 1536.76 1239.15 1540 Q1236.51 1543.22 1236.51 1549.27 L1236.51 1568.04 L1230.62 1568.04 L1230.62 1532.4 L1236.51 1532.4 L1236.51 1537.93 Q1238.36 1534.69 1241.32 1533.13 Q1244.28 1531.54 1248.51 1531.54 Q1249.12 1531.54 1249.85 1531.63 Q1250.58 1531.7 1251.47 1531.85 L1251.5 1537.87 Z" fill="#000000" fill-rule="evenodd" fill-opacity="1" /><path clip-path="url(#clip940)" d="M1292.18 1536.5 Q1287.47 1536.5 1284.73 1540.19 Q1282 1543.85 1282 1550.25 Q1282 1556.65 1284.7 1560.34 Q1287.44 1564 1292.18 1564 Q1296.86 1564 1299.6 1560.31 Q1302.33 1556.62 1302.33 1550.25 Q1302.33 1543.92 1299.6 1540.23 Q1296.86 1536.5 1292.18 1536.5 M1292.18 1531.54 Q1299.82 1531.54 1304.18 1536.5 Q1308.54 1541.47 1308.54 1550.25 Q1308.54 1559 1304.18 1564 Q1299.82 1568.97 1292.18 1568.97 Q1284.51 1568.97 1280.15 1564 Q1275.82 1559 1275.82 1550.25 Q1275.82 1541.47 1280.15 1536.5 Q1284.51 1531.54 1292.18 1531.54 Z" fill="#000000" fill-rule="evenodd" fill-opacity="1" /><path clip-path="url(#clip940)" d="M1336.29 1518.52 L1336.29 1523.39 L1330.69 1523.39 Q1327.54 1523.39 1326.3 1524.66 Q1325.09 1525.93 1325.09 1529.24 L1325.09 1532.4 L1334.74 1532.4 L1334.74 1536.95 L1325.09 1536.95 L1325.09 1568.04 L1319.2 1568.04 L1319.2 1536.95 L1313.6 1536.95 L1313.6 1532.4 L1319.2 1532.4 L1319.2 1529.91 Q1319.2 1523.96 1321.97 1521.26 Q1324.74 1518.52 1330.76 1518.52 L1336.29 1518.52 Z" fill="#000000" fill-rule="evenodd" fill-opacity="1" /><path clip-path="url(#clip940)" d="M1378.05 1526.86 L1369.33 1550.51 L1386.81 1550.51 L1378.05 1526.86 M1374.43 1520.52 L1381.71 1520.52 L1399.82 1568.04 L1393.14 1568.04 L1388.81 1555.85 L1367.39 1555.85 L1363.06 1568.04 L1356.28 1568.04 L1374.43 1520.52 Z" fill="#000000" fill-rule="evenodd" fill-opacity="1" /><path clip-path="url(#clip940)" d="M1411.16 1522.27 L1411.16 1532.4 L1423.22 1532.4 L1423.22 1536.95 L1411.16 1536.95 L1411.16 1556.3 Q1411.16 1560.66 1412.33 1561.9 Q1413.54 1563.14 1417.2 1563.14 L1423.22 1563.14 L1423.22 1568.04 L1417.2 1568.04 Q1410.42 1568.04 1407.85 1565.53 Q1405.27 1562.98 1405.27 1556.3 L1405.27 1536.95 L1400.97 1536.95 L1400.97 1532.4 L1405.27 1532.4 L1405.27 1522.27 L1411.16 1522.27 Z" fill="#000000" fill-rule="evenodd" fill-opacity="1" /><path clip-path="url(#clip940)" d="M1444.73 1536.5 Q1440.02 1536.5 1437.29 1540.19 Q1434.55 1543.85 1434.55 1550.25 Q1434.55 1556.65 1437.26 1560.34 Q1439.99 1564 1444.73 1564 Q1449.41 1564 1452.15 1560.31 Q1454.89 1556.62 1454.89 1550.25 Q1454.89 1543.92 1452.15 1540.23 Q1449.41 1536.5 1444.73 1536.5 M1444.73 1531.54 Q1452.37 1531.54 1456.73 1536.5 Q1461.09 1541.47 1461.09 1550.25 Q1461.09 1559 1456.73 1564 Q1452.37 1568.97 1444.73 1568.97 Q1437.06 1568.97 1432.7 1564 Q1428.37 1559 1428.37 1550.25 Q1428.37 1541.47 1432.7 1536.5 Q1437.06 1531.54 1444.73 1531.54 Z" fill="#000000" fill-rule="evenodd" fill-opacity="1" /><path clip-path="url(#clip940)" d="M1498.56 1539.24 Q1500.75 1535.29 1503.81 1533.41 Q1506.86 1531.54 1511 1531.54 Q1516.57 1531.54 1519.6 1535.45 Q1522.62 1539.33 1522.62 1546.53 L1522.62 1568.04 L1516.73 1568.04 L1516.73 1546.72 Q1516.73 1541.59 1514.92 1539.11 Q1513.1 1536.63 1509.38 1536.63 Q1504.83 1536.63 1502.19 1539.65 Q1499.54 1542.68 1499.54 1547.9 L1499.54 1568.04 L1493.66 1568.04 L1493.66 1546.72 Q1493.66 1541.56 1491.84 1539.11 Q1490.03 1536.63 1486.24 1536.63 Q1481.75 1536.63 1479.11 1539.68 Q1476.47 1542.71 1476.47 1547.9 L1476.47 1568.04 L1470.58 1568.04 L1470.58 1532.4 L1476.47 1532.4 L1476.47 1537.93 Q1478.47 1534.66 1481.27 1533.1 Q1484.07 1531.54 1487.93 1531.54 Q1491.81 1531.54 1494.51 1533.51 Q1497.25 1535.48 1498.56 1539.24 Z" fill="#000000" fill-rule="evenodd" fill-opacity="1" /><path clip-path="url(#clip940)" d="M1557.03 1533.45 L1557.03 1538.98 Q1554.54 1537.71 1551.87 1537.07 Q1549.2 1536.44 1546.33 1536.44 Q1541.97 1536.44 1539.77 1537.77 Q1537.61 1539.11 1537.61 1541.79 Q1537.61 1543.82 1539.17 1545 Q1540.73 1546.15 1545.44 1547.2 L1547.45 1547.64 Q1553.68 1548.98 1556.29 1551.43 Q1558.94 1553.85 1558.94 1558.21 Q1558.94 1563.17 1554.99 1566.07 Q1551.07 1568.97 1544.2 1568.97 Q1541.33 1568.97 1538.22 1568.39 Q1535.13 1567.85 1531.69 1566.74 L1531.69 1560.69 Q1534.94 1562.38 1538.09 1563.24 Q1541.24 1564.07 1544.33 1564.07 Q1548.46 1564.07 1550.69 1562.66 Q1552.92 1561.23 1552.92 1558.65 Q1552.92 1556.27 1551.3 1554.99 Q1549.71 1553.72 1544.26 1552.54 L1542.23 1552.07 Q1536.78 1550.92 1534.36 1548.56 Q1531.94 1546.18 1531.94 1542.04 Q1531.94 1537.01 1535.51 1534.27 Q1539.07 1531.54 1545.63 1531.54 Q1548.88 1531.54 1551.74 1532.01 Q1554.61 1532.49 1557.03 1533.45 Z" fill="#000000" fill-rule="evenodd" fill-opacity="1" /><polyline clip-path="url(#clip942)" style="stroke:#000000; stroke-linecap:butt; stroke-linejoin:round; stroke-width:2; stroke-opacity:0.1; fill:none" points="
  202.227,1386.93 2352.76,1386.93 
  "/>
<polyline clip-path="url(#clip942)" style="stroke:#000000; stroke-linecap:butt; stroke-linejoin:round; stroke-width:2; stroke-opacity:0.1; fill:none" points="
  202.227,1191.75 2352.76,1191.75 
  "/>
<polyline clip-path="url(#clip942)" style="stroke:#000000; stroke-linecap:butt; stroke-linejoin:round; stroke-width:2; stroke-opacity:0.1; fill:none" points="
  202.227,996.563 2352.76,996.563 
  "/>
<polyline clip-path="url(#clip942)" style="stroke:#000000; stroke-linecap:butt; stroke-linejoin:round; stroke-width:2; stroke-opacity:0.1; fill:none" points="
  202.227,801.379 2352.76,801.379 
  "/>
<polyline clip-path="url(#clip942)" style="stroke:#000000; stroke-linecap:butt; stroke-linejoin:round; stroke-width:2; stroke-opacity:0.1; fill:none" points="
  202.227,606.195 2352.76,606.195 
  "/>
<polyline clip-path="url(#clip942)" style="stroke:#000000; stroke-linecap:butt; stroke-linejoin:round; stroke-width:2; stroke-opacity:0.1; fill:none" points="
  202.227,411.011 2352.76,411.011 
  "/>
<polyline clip-path="url(#clip942)" style="stroke:#000000; stroke-linecap:butt; stroke-linejoin:round; stroke-width:2; stroke-opacity:0.1; fill:none" points="
  202.227,215.827 2352.76,215.827 
  "/>
<polyline clip-path="url(#clip940)" style="stroke:#000000; stroke-linecap:butt; stroke-linejoin:round; stroke-width:4; stroke-opacity:1; fill:none" points="
  202.227,1423.18 202.227,123.472 
  "/>
<polyline clip-path="url(#clip940)" style="stroke:#000000; stroke-linecap:butt; stroke-linejoin:round; stroke-width:4; stroke-opacity:1; fill:none" points="
  202.227,1386.93 221.125,1386.93 
  "/>
<polyline clip-path="url(#clip940)" style="stroke:#000000; stroke-linecap:butt; stroke-linejoin:round; stroke-width:4; stroke-opacity:1; fill:none" points="
  202.227,1191.75 221.125,1191.75 
  "/>
<polyline clip-path="url(#clip940)" style="stroke:#000000; stroke-linecap:butt; stroke-linejoin:round; stroke-width:4; stroke-opacity:1; fill:none" points="
  202.227,996.563 221.125,996.563 
  "/>
<polyline clip-path="url(#clip940)" style="stroke:#000000; stroke-linecap:butt; stroke-linejoin:round; stroke-width:4; stroke-opacity:1; fill:none" points="
  202.227,801.379 221.125,801.379 
  "/>
<polyline clip-path="url(#clip940)" style="stroke:#000000; stroke-linecap:butt; stroke-linejoin:round; stroke-width:4; stroke-opacity:1; fill:none" points="
  202.227,606.195 221.125,606.195 
  "/>
<polyline clip-path="url(#clip940)" style="stroke:#000000; stroke-linecap:butt; stroke-linejoin:round; stroke-width:4; stroke-opacity:1; fill:none" points="
  202.227,411.011 221.125,411.011 
  "/>
<polyline clip-path="url(#clip940)" style="stroke:#000000; stroke-linecap:butt; stroke-linejoin:round; stroke-width:4; stroke-opacity:1; fill:none" points="
  202.227,215.827 221.125,215.827 
  "/>
<path clip-path="url(#clip940)" d="M154.283 1372.73 Q150.672 1372.73 148.843 1376.3 Q147.038 1379.84 147.038 1386.97 Q147.038 1394.07 148.843 1397.64 Q150.672 1401.18 154.283 1401.18 Q157.917 1401.18 159.723 1397.64 Q161.552 1394.07 161.552 1386.97 Q161.552 1379.84 159.723 1376.3 Q157.917 1372.73 154.283 1372.73 M154.283 1369.03 Q160.093 1369.03 163.149 1373.63 Q166.227 1378.22 166.227 1386.97 Q166.227 1395.69 163.149 1400.3 Q160.093 1404.88 154.283 1404.88 Q148.473 1404.88 145.394 1400.3 Q142.339 1395.69 142.339 1386.97 Q142.339 1378.22 145.394 1373.63 Q148.473 1369.03 154.283 1369.03 Z" fill="#000000" fill-rule="evenodd" fill-opacity="1" /><path clip-path="url(#clip940)" d="M149.908 1205.09 L166.227 1205.09 L166.227 1209.03 L144.283 1209.03 L144.283 1205.09 Q146.945 1202.34 151.528 1197.71 Q156.135 1193.06 157.315 1191.71 Q159.561 1189.19 160.44 1187.45 Q161.343 1185.69 161.343 1184 Q161.343 1181.25 159.399 1179.51 Q157.478 1177.78 154.376 1177.78 Q152.177 1177.78 149.723 1178.54 Q147.292 1179.31 144.515 1180.86 L144.515 1176.13 Q147.339 1175 149.792 1174.42 Q152.246 1173.84 154.283 1173.84 Q159.653 1173.84 162.848 1176.53 Q166.042 1179.21 166.042 1183.7 Q166.042 1185.83 165.232 1187.75 Q164.445 1189.65 162.339 1192.25 Q161.76 1192.92 158.658 1196.13 Q155.556 1199.33 149.908 1205.09 Z" fill="#000000" fill-rule="evenodd" fill-opacity="1" /><path clip-path="url(#clip940)" d="M156.644 983.358 L144.839 1001.81 L156.644 1001.81 L156.644 983.358 M155.417 979.283 L161.297 979.283 L161.297 1001.81 L166.227 1001.81 L166.227 1005.7 L161.297 1005.7 L161.297 1013.84 L156.644 1013.84 L156.644 1005.7 L141.042 1005.7 L141.042 1001.18 L155.417 979.283 Z" fill="#000000" fill-rule="evenodd" fill-opacity="1" /><path clip-path="url(#clip940)" d="M154.7 799.516 Q151.552 799.516 149.7 801.669 Q147.871 803.821 147.871 807.571 Q147.871 811.298 149.7 813.474 Q151.552 815.627 154.7 815.627 Q157.848 815.627 159.677 813.474 Q161.528 811.298 161.528 807.571 Q161.528 803.821 159.677 801.669 Q157.848 799.516 154.7 799.516 M163.982 784.863 L163.982 789.122 Q162.223 788.289 160.417 787.849 Q158.635 787.409 156.876 787.409 Q152.246 787.409 149.792 790.534 Q147.362 793.659 147.015 799.979 Q148.38 797.965 150.441 796.9 Q152.501 795.812 154.978 795.812 Q160.186 795.812 163.195 798.983 Q166.227 802.132 166.227 807.571 Q166.227 812.895 163.079 816.113 Q159.931 819.331 154.7 819.331 Q148.704 819.331 145.533 814.747 Q142.362 810.141 142.362 801.414 Q142.362 793.22 146.251 788.359 Q150.14 783.474 156.69 783.474 Q158.45 783.474 160.232 783.822 Q162.038 784.169 163.982 784.863 Z" fill="#000000" fill-rule="evenodd" fill-opacity="1" /><path clip-path="url(#clip940)" d="M154.376 607.063 Q151.042 607.063 149.121 608.846 Q147.223 610.628 147.223 613.753 Q147.223 616.878 149.121 618.66 Q151.042 620.443 154.376 620.443 Q157.709 620.443 159.63 618.66 Q161.552 616.855 161.552 613.753 Q161.552 610.628 159.63 608.846 Q157.732 607.063 154.376 607.063 M149.7 605.072 Q146.691 604.332 145.001 602.272 Q143.334 600.211 143.334 597.248 Q143.334 593.105 146.274 590.698 Q149.237 588.29 154.376 588.29 Q159.538 588.29 162.477 590.698 Q165.417 593.105 165.417 597.248 Q165.417 600.211 163.727 602.272 Q162.061 604.332 159.075 605.072 Q162.454 605.859 164.329 608.151 Q166.227 610.443 166.227 613.753 Q166.227 618.776 163.149 621.461 Q160.093 624.146 154.376 624.146 Q148.658 624.146 145.579 621.461 Q142.524 618.776 142.524 613.753 Q142.524 610.443 144.422 608.151 Q146.32 605.859 149.7 605.072 M147.987 597.688 Q147.987 600.373 149.653 601.878 Q151.343 603.383 154.376 603.383 Q157.385 603.383 159.075 601.878 Q160.788 600.373 160.788 597.688 Q160.788 595.003 159.075 593.498 Q157.385 591.994 154.376 591.994 Q151.343 591.994 149.653 593.498 Q147.987 595.003 147.987 597.688 Z" fill="#000000" fill-rule="evenodd" fill-opacity="1" /><path clip-path="url(#clip940)" d="M114.931 424.356 L122.57 424.356 L122.57 397.99 L114.26 399.657 L114.26 395.398 L122.524 393.731 L127.2 393.731 L127.2 424.356 L134.839 424.356 L134.839 428.291 L114.931 428.291 L114.931 424.356 Z" fill="#000000" fill-rule="evenodd" fill-opacity="1" /><path clip-path="url(#clip940)" d="M154.283 396.81 Q150.672 396.81 148.843 400.374 Q147.038 403.916 147.038 411.046 Q147.038 418.152 148.843 421.717 Q150.672 425.259 154.283 425.259 Q157.917 425.259 159.723 421.717 Q161.552 418.152 161.552 411.046 Q161.552 403.916 159.723 400.374 Q157.917 396.81 154.283 396.81 M154.283 393.106 Q160.093 393.106 163.149 397.712 Q166.227 402.296 166.227 411.046 Q166.227 419.772 163.149 424.379 Q160.093 428.962 154.283 428.962 Q148.473 428.962 145.394 424.379 Q142.339 419.772 142.339 411.046 Q142.339 402.296 145.394 397.712 Q148.473 393.106 154.283 393.106 Z" fill="#000000" fill-rule="evenodd" fill-opacity="1" /><path clip-path="url(#clip940)" d="M116.529 229.172 L124.168 229.172 L124.168 202.806 L115.857 204.473 L115.857 200.213 L124.121 198.547 L128.797 198.547 L128.797 229.172 L136.436 229.172 L136.436 233.107 L116.529 233.107 L116.529 229.172 Z" fill="#000000" fill-rule="evenodd" fill-opacity="1" /><path clip-path="url(#clip940)" d="M149.908 229.172 L166.227 229.172 L166.227 233.107 L144.283 233.107 L144.283 229.172 Q146.945 226.417 151.528 221.787 Q156.135 217.135 157.315 215.792 Q159.561 213.269 160.44 211.533 Q161.343 209.774 161.343 208.084 Q161.343 205.329 159.399 203.593 Q157.478 201.857 154.376 201.857 Q152.177 201.857 149.723 202.621 Q147.292 203.385 144.515 204.936 L144.515 200.213 Q147.339 199.079 149.792 198.5 Q152.246 197.922 154.283 197.922 Q159.653 197.922 162.848 200.607 Q166.042 203.292 166.042 207.783 Q166.042 209.912 165.232 211.834 Q164.445 213.732 162.339 216.324 Q161.76 216.996 158.658 220.213 Q155.556 223.408 149.908 229.172 Z" fill="#000000" fill-rule="evenodd" fill-opacity="1" /><path clip-path="url(#clip940)" d="M16.4842 1167.16 L16.4842 1157.58 L48.8219 1145.45 L16.4842 1133.26 L16.4842 1123.68 L64.0042 1123.68 L64.0042 1129.95 L22.277 1129.95 L54.8694 1142.2 L54.8694 1148.66 L22.277 1160.92 L64.0042 1160.92 L64.0042 1167.16 L16.4842 1167.16 Z" fill="#000000" fill-rule="evenodd" fill-opacity="1" /><path clip-path="url(#clip940)" d="M44.7161 1080.68 L47.5806 1080.68 L47.5806 1107.61 Q53.6281 1107.22 56.8109 1103.98 Q59.9619 1100.7 59.9619 1094.87 Q59.9619 1091.5 59.1344 1088.35 Q58.3069 1085.17 56.6518 1082.05 L62.1899 1082.05 Q63.5267 1085.2 64.227 1088.51 Q64.9272 1091.82 64.9272 1095.22 Q64.9272 1103.75 59.9619 1108.75 Q54.9967 1113.72 46.5303 1113.72 Q37.7774 1113.72 32.6531 1109.01 Q27.4968 1104.26 27.4968 1096.24 Q27.4968 1089.05 32.1438 1084.88 Q36.7589 1080.68 44.7161 1080.68 M42.9973 1086.53 Q38.1912 1086.6 35.3266 1089.24 Q32.4621 1091.85 32.4621 1096.18 Q32.4621 1101.08 35.2312 1104.04 Q38.0002 1106.97 43.0292 1107.41 L42.9973 1086.53 Z" fill="#000000" fill-rule="evenodd" fill-opacity="1" /><path clip-path="url(#clip940)" d="M33.7671 1047.61 L14.479 1047.61 L14.479 1041.75 L64.0042 1041.75 L64.0042 1047.61 L58.657 1047.61 Q61.8398 1049.45 63.3994 1052.29 Q64.9272 1055.09 64.9272 1059.03 Q64.9272 1065.5 59.771 1069.57 Q54.6147 1073.61 46.212 1073.61 Q37.8093 1073.61 32.6531 1069.57 Q27.4968 1065.5 27.4968 1059.03 Q27.4968 1055.09 29.0564 1052.29 Q30.5842 1049.45 33.7671 1047.61 M46.212 1067.56 Q52.6732 1067.56 56.3653 1064.92 Q60.0256 1062.25 60.0256 1057.6 Q60.0256 1052.96 56.3653 1050.28 Q52.6732 1047.61 46.212 1047.61 Q39.7508 1047.61 36.0905 1050.28 Q32.3984 1052.96 32.3984 1057.6 Q32.3984 1062.25 36.0905 1064.92 Q39.7508 1067.56 46.212 1067.56 Z" fill="#000000" fill-rule="evenodd" fill-opacity="1" /><path clip-path="url(#clip940)" d="M28.3562 1029.69 L28.3562 1023.83 L64.0042 1023.83 L64.0042 1029.69 L28.3562 1029.69 M14.479 1029.69 L14.479 1023.83 L21.895 1023.83 L21.895 1029.69 L14.479 1029.69 Z" fill="#000000" fill-rule="evenodd" fill-opacity="1" /><path clip-path="url(#clip940)" d="M46.0847 995.378 Q46.0847 1002.48 47.7079 1005.21 Q49.3312 1007.95 53.2461 1007.95 Q56.3653 1007.95 58.2114 1005.91 Q60.0256 1003.84 60.0256 1000.31 Q60.0256 995.441 56.5881 992.513 Q53.1188 989.553 47.3897 989.553 L46.0847 989.553 L46.0847 995.378 M43.6657 983.697 L64.0042 983.697 L64.0042 989.553 L58.5933 989.553 Q61.8398 991.558 63.3994 994.55 Q64.9272 997.542 64.9272 1001.87 Q64.9272 1007.35 61.8716 1010.59 Q58.7843 1013.81 53.6281 1013.81 Q47.6125 1013.81 44.5569 1009.8 Q41.5014 1005.75 41.5014 997.765 L41.5014 989.553 L40.9285 989.553 Q36.8862 989.553 34.6901 992.227 Q32.4621 994.868 32.4621 999.675 Q32.4621 1002.73 33.1941 1005.63 Q33.9262 1008.52 35.3903 1011.2 L29.9795 1011.2 Q28.7381 1007.98 28.1334 1004.96 Q27.4968 1001.93 27.4968 999.07 Q27.4968 991.336 31.5072 987.516 Q35.5176 983.697 43.6657 983.697 Z" fill="#000000" fill-rule="evenodd" fill-opacity="1" /><path clip-path="url(#clip940)" d="M42.4881 942.001 L64.0042 942.001 L64.0042 947.858 L42.679 947.858 Q37.6183 947.858 35.1038 949.831 Q32.5894 951.804 32.5894 955.751 Q32.5894 960.494 35.6131 963.231 Q38.6368 965.968 43.8567 965.968 L64.0042 965.968 L64.0042 971.856 L28.3562 971.856 L28.3562 965.968 L33.8944 965.968 Q30.6797 963.867 29.0883 961.035 Q27.4968 958.17 27.4968 954.446 Q27.4968 948.303 31.3163 945.152 Q35.1038 942.001 42.4881 942.001 Z" fill="#000000" fill-rule="evenodd" fill-opacity="1" /><path clip-path="url(#clip940)" d="M16.4842 915.934 L16.4842 875.734 L21.895 875.734 L21.895 892.603 L64.0042 892.603 L64.0042 899.065 L21.895 899.065 L21.895 915.934 L16.4842 915.934 Z" fill="#000000" fill-rule="evenodd" fill-opacity="1" /><path clip-path="url(#clip940)" d="M28.3562 871.788 L28.3562 865.931 L64.0042 865.931 L64.0042 871.788 L28.3562 871.788 M14.479 871.788 L14.479 865.931 L21.895 865.931 L21.895 871.788 L14.479 871.788 Z" fill="#000000" fill-rule="evenodd" fill-opacity="1" /><path clip-path="url(#clip940)" d="M35.1993 825.923 Q31.2526 823.726 29.3747 820.671 Q27.4968 817.615 27.4968 813.478 Q27.4968 807.908 31.4117 804.884 Q35.2948 801.86 42.4881 801.86 L64.0042 801.86 L64.0042 807.749 L42.679 807.749 Q37.5546 807.749 35.072 809.563 Q32.5894 811.377 32.5894 815.101 Q32.5894 819.652 35.6131 822.294 Q38.6368 824.936 43.8567 824.936 L64.0042 824.936 L64.0042 830.824 L42.679 830.824 Q37.5228 830.824 35.072 832.638 Q32.5894 834.453 32.5894 838.24 Q32.5894 842.728 35.6449 845.37 Q38.6686 848.012 43.8567 848.012 L64.0042 848.012 L64.0042 853.9 L28.3562 853.9 L28.3562 848.012 L33.8944 848.012 Q30.616 846.006 29.0564 843.206 Q27.4968 840.405 27.4968 836.553 Q27.4968 832.67 29.4702 829.965 Q31.4436 827.228 35.1993 825.923 Z" fill="#000000" fill-rule="evenodd" fill-opacity="1" /><path clip-path="url(#clip940)" d="M44.7161 759.687 L47.5806 759.687 L47.5806 786.614 Q53.6281 786.232 56.8109 782.986 Q59.9619 779.708 59.9619 773.883 Q59.9619 770.509 59.1344 767.358 Q58.3069 764.175 56.6518 761.056 L62.1899 761.056 Q63.5267 764.207 64.227 767.517 Q64.9272 770.827 64.9272 774.233 Q64.9272 782.763 59.9619 787.76 Q54.9967 792.725 46.5303 792.725 Q37.7774 792.725 32.6531 788.015 Q27.4968 783.272 27.4968 775.252 Q27.4968 768.058 32.1438 763.889 Q36.7589 759.687 44.7161 759.687 M42.9973 765.544 Q38.1912 765.608 35.3266 768.249 Q32.4621 770.859 32.4621 775.188 Q32.4621 780.09 35.2312 783.05 Q38.0002 785.978 43.0292 786.423 L42.9973 765.544 Z" fill="#000000" fill-rule="evenodd" fill-opacity="1" /><path clip-path="url(#clip940)" d="M16.4842 729.1 L16.4842 699.054 L21.895 699.054 L21.895 722.671 L35.9632 722.671 L35.9632 700.041 L41.3741 700.041 L41.3741 722.671 L58.5933 722.671 L58.5933 698.481 L64.0042 698.481 L64.0042 729.1 L16.4842 729.1 Z" fill="#000000" fill-rule="evenodd" fill-opacity="1" /><path clip-path="url(#clip940)" d="M14.479 688.169 L14.479 682.312 L64.0042 682.312 L64.0042 688.169 L14.479 688.169 Z" fill="#000000" fill-rule="evenodd" fill-opacity="1" /><path clip-path="url(#clip940)" d="M46.0847 653.858 Q46.0847 660.955 47.7079 663.693 Q49.3312 666.43 53.2461 666.43 Q56.3653 666.43 58.2114 664.393 Q60.0256 662.324 60.0256 658.791 Q60.0256 653.921 56.5881 650.993 Q53.1188 648.033 47.3897 648.033 L46.0847 648.033 L46.0847 653.858 M43.6657 642.177 L64.0042 642.177 L64.0042 648.033 L58.5933 648.033 Q61.8398 650.038 63.3994 653.03 Q64.9272 656.022 64.9272 660.351 Q64.9272 665.825 61.8716 669.072 Q58.7843 672.286 53.6281 672.286 Q47.6125 672.286 44.5569 668.276 Q41.5014 664.234 41.5014 656.245 L41.5014 648.033 L40.9285 648.033 Q36.8862 648.033 34.6901 650.707 Q32.4621 653.348 32.4621 658.154 Q32.4621 661.21 33.1941 664.106 Q33.9262 667.003 35.3903 669.676 L29.9795 669.676 Q28.7381 666.462 28.1334 663.438 Q27.4968 660.414 27.4968 657.55 Q27.4968 649.815 31.5072 645.996 Q35.5176 642.177 43.6657 642.177 Z" fill="#000000" fill-rule="evenodd" fill-opacity="1" /><path clip-path="url(#clip940)" d="M58.657 624.448 L77.5631 624.448 L77.5631 630.336 L28.3562 630.336 L28.3562 624.448 L33.7671 624.448 Q30.5842 622.602 29.0564 619.801 Q27.4968 616.968 27.4968 613.053 Q27.4968 606.56 32.6531 602.518 Q37.8093 598.444 46.212 598.444 Q54.6147 598.444 59.771 602.518 Q64.9272 606.56 64.9272 613.053 Q64.9272 616.968 63.3994 619.801 Q61.8398 622.602 58.657 624.448 M46.212 604.523 Q39.7508 604.523 36.0905 607.197 Q32.3984 609.839 32.3984 614.486 Q32.3984 619.133 36.0905 621.806 Q39.7508 624.448 46.212 624.448 Q52.6732 624.448 56.3653 621.806 Q60.0256 619.133 60.0256 614.486 Q60.0256 609.839 56.3653 607.197 Q52.6732 604.523 46.212 604.523 Z" fill="#000000" fill-rule="evenodd" fill-opacity="1" /><path clip-path="url(#clip940)" d="M29.4065 566.011 L34.9447 566.011 Q33.6716 568.493 33.035 571.167 Q32.3984 573.841 32.3984 576.705 Q32.3984 581.066 33.7352 583.262 Q35.072 585.426 37.7456 585.426 Q39.7826 585.426 40.9603 583.867 Q42.1061 582.307 43.1565 577.596 L43.6021 575.591 Q44.9389 569.353 47.3897 566.743 Q49.8086 564.101 54.1691 564.101 Q59.1344 564.101 62.0308 568.048 Q64.9272 571.963 64.9272 578.838 Q64.9272 581.702 64.3543 584.821 Q63.8132 587.909 62.6992 591.346 L56.6518 591.346 Q58.3387 588.1 59.198 584.949 Q60.0256 581.798 60.0256 578.71 Q60.0256 574.573 58.6251 572.345 Q57.1929 570.117 54.6147 570.117 Q52.2276 570.117 50.9545 571.74 Q49.6813 573.331 48.5037 578.774 L48.0262 580.811 Q46.8804 586.254 44.5251 588.673 Q42.138 591.092 38.0002 591.092 Q32.9713 591.092 30.2341 587.527 Q27.4968 583.962 27.4968 577.405 Q27.4968 574.159 27.9743 571.294 Q28.4517 568.43 29.4065 566.011 Z" fill="#000000" fill-rule="evenodd" fill-opacity="1" /><path clip-path="url(#clip940)" d="M44.7161 524.284 L47.5806 524.284 L47.5806 551.211 Q53.6281 550.829 56.8109 547.582 Q59.9619 544.304 59.9619 538.479 Q59.9619 535.105 59.1344 531.954 Q58.3069 528.771 56.6518 525.652 L62.1899 525.652 Q63.5267 528.803 64.227 532.113 Q64.9272 535.424 64.9272 538.829 Q64.9272 547.359 59.9619 552.356 Q54.9967 557.322 46.5303 557.322 Q37.7774 557.322 32.6531 552.611 Q27.4968 547.869 27.4968 539.848 Q27.4968 532.655 32.1438 528.485 Q36.7589 524.284 44.7161 524.284 M42.9973 530.14 Q38.1912 530.204 35.3266 532.846 Q32.4621 535.455 32.4621 539.784 Q32.4621 544.686 35.2312 547.646 Q38.0002 550.574 43.0292 551.02 L42.9973 530.14 Z" fill="#000000" fill-rule="evenodd" fill-opacity="1" /><path clip-path="url(#clip940)" d="M33.7671 491.214 L14.479 491.214 L14.479 485.357 L64.0042 485.357 L64.0042 491.214 L58.657 491.214 Q61.8398 493.06 63.3994 495.893 Q64.9272 498.693 64.9272 502.64 Q64.9272 509.101 59.771 513.175 Q54.6147 517.218 46.212 517.218 Q37.8093 517.218 32.6531 513.175 Q27.4968 509.101 27.4968 502.64 Q27.4968 498.693 29.0564 495.893 Q30.5842 493.06 33.7671 491.214 M46.212 511.17 Q52.6732 511.17 56.3653 508.529 Q60.0256 505.855 60.0256 501.208 Q60.0256 496.561 56.3653 493.887 Q52.6732 491.214 46.212 491.214 Q39.7508 491.214 36.0905 493.887 Q32.3984 496.561 32.3984 501.208 Q32.3984 505.855 36.0905 508.529 Q39.7508 511.17 46.212 511.17 Z" fill="#000000" fill-rule="evenodd" fill-opacity="1" /><path clip-path="url(#clip940)" d="M14.5426 438.506 Q21.8632 442.771 29.0246 444.84 Q36.186 446.908 43.5384 446.908 Q50.8908 446.908 58.1159 444.84 Q65.3091 442.739 72.5979 438.506 L72.5979 443.598 Q65.1182 448.373 57.8931 450.76 Q50.668 453.115 43.5384 453.115 Q36.4406 453.115 29.2474 450.76 Q22.0542 448.404 14.5426 443.598 L14.5426 438.506 Z" fill="#000000" fill-rule="evenodd" fill-opacity="1" /><path clip-path="url(#clip940)" d="M29.4065 404.417 L34.9447 404.417 Q33.6716 406.9 33.035 409.574 Q32.3984 412.247 32.3984 415.112 Q32.3984 419.472 33.7352 421.668 Q35.072 423.833 37.7456 423.833 Q39.7826 423.833 40.9603 422.273 Q42.1061 420.714 43.1565 416.003 L43.6021 413.998 Q44.9389 407.759 47.3897 405.149 Q49.8086 402.508 54.1691 402.508 Q59.1344 402.508 62.0308 406.454 Q64.9272 410.369 64.9272 417.244 Q64.9272 420.109 64.3543 423.228 Q63.8132 426.315 62.6992 429.753 L56.6518 429.753 Q58.3387 426.506 59.198 423.355 Q60.0256 420.204 60.0256 417.117 Q60.0256 412.979 58.6251 410.751 Q57.1929 408.523 54.6147 408.523 Q52.2276 408.523 50.9545 410.147 Q49.6813 411.738 48.5037 417.181 L48.0262 419.218 Q46.8804 424.66 44.5251 427.079 Q42.138 429.498 38.0002 429.498 Q32.9713 429.498 30.2341 425.933 Q27.4968 422.369 27.4968 415.812 Q27.4968 412.565 27.9743 409.701 Q28.4517 406.836 29.4065 404.417 Z" fill="#000000" fill-rule="evenodd" fill-opacity="1" /><path clip-path="url(#clip940)" d="M14.5426 394.105 L14.5426 389.012 Q22.0542 384.238 29.2474 381.883 Q36.4406 379.496 43.5384 379.496 Q50.668 379.496 57.8931 381.883 Q65.1182 384.238 72.5979 389.012 L72.5979 394.105 Q65.3091 389.872 58.1159 387.803 Q50.8908 385.702 43.5384 385.702 Q36.186 385.702 29.0246 387.803 Q21.8632 389.872 14.5426 394.105 Z" fill="#000000" fill-rule="evenodd" fill-opacity="1" /><path clip-path="url(#clip940)" d="M440.676 14.0809 L440.676 22.0612 Q436.018 19.8332 431.886 18.7395 Q427.754 17.6457 423.905 17.6457 Q417.221 17.6457 413.576 20.2383 Q409.97 22.8309 409.97 27.611 Q409.97 31.6214 412.36 33.6873 Q414.791 35.7128 421.515 36.9686 L426.457 37.9813 Q435.613 39.7232 439.947 44.1387 Q444.322 48.5136 444.322 55.8863 Q444.322 64.6767 438.408 69.2137 Q432.534 73.7508 421.151 73.7508 Q416.857 73.7508 411.996 72.7785 Q407.175 71.8063 401.99 69.9024 L401.99 61.4765 Q406.973 64.2716 411.753 65.6895 Q416.533 67.1073 421.151 67.1073 Q428.159 67.1073 431.967 64.3527 Q435.775 61.598 435.775 56.4939 Q435.775 52.0379 433.02 49.5264 Q430.306 47.0148 424.067 45.759 L419.085 44.7868 Q409.93 42.9639 405.838 39.075 Q401.747 35.1862 401.747 28.2591 Q401.747 20.2383 407.378 15.6203 Q413.049 11.0023 422.974 11.0023 Q427.227 11.0023 431.643 11.7719 Q436.058 12.5416 440.676 14.0809 Z" fill="#000000" fill-rule="evenodd" fill-opacity="1" /><path clip-path="url(#clip940)" d="M489.409 28.9478 L489.409 35.9153 Q486.249 34.1734 483.049 33.3227 Q479.889 32.4315 476.648 32.4315 Q469.397 32.4315 465.387 37.0496 Q461.376 41.6271 461.376 49.9314 Q461.376 58.2358 465.387 62.8538 Q469.397 67.4314 476.648 67.4314 Q479.889 67.4314 483.049 66.5807 Q486.249 65.6895 489.409 63.9476 L489.409 70.8341 Q486.289 72.2924 482.927 73.0216 Q479.605 73.7508 475.838 73.7508 Q465.589 73.7508 459.553 67.3098 Q453.518 60.8689 453.518 49.9314 Q453.518 38.832 459.594 32.472 Q465.711 26.1121 476.324 26.1121 Q479.767 26.1121 483.049 26.8413 Q486.33 27.5299 489.409 28.9478 Z" fill="#000000" fill-rule="evenodd" fill-opacity="1" /><path clip-path="url(#clip940)" d="M522.991 49.7694 Q513.957 49.7694 510.473 51.8354 Q506.989 53.9013 506.989 58.8839 Q506.989 62.8538 509.582 65.2034 Q512.215 67.5124 516.712 67.5124 Q522.91 67.5124 526.636 63.1374 Q530.404 58.7219 530.404 51.4303 L530.404 49.7694 L522.991 49.7694 M537.857 46.6907 L537.857 72.576 L530.404 72.576 L530.404 65.6895 Q527.852 69.8214 524.044 71.8063 Q520.236 73.7508 514.727 73.7508 Q507.759 73.7508 503.627 69.8619 Q499.536 65.9325 499.536 59.3701 Q499.536 51.7138 504.64 47.825 Q509.785 43.9361 519.952 43.9361 L530.404 43.9361 L530.404 43.2069 Q530.404 38.0623 527.001 35.2672 Q523.639 32.4315 517.522 32.4315 Q513.633 32.4315 509.947 33.3632 Q506.26 34.295 502.858 36.1584 L502.858 29.2718 Q506.949 27.692 510.797 26.9223 Q514.646 26.1121 518.291 26.1121 Q528.135 26.1121 532.996 31.2163 Q537.857 36.3204 537.857 46.6907 Z" fill="#000000" fill-rule="evenodd" fill-opacity="1" /><path clip-path="url(#clip940)" d="M553.21 9.54393 L560.664 9.54393 L560.664 72.576 L553.21 72.576 L553.21 9.54393 Z" fill="#000000" fill-rule="evenodd" fill-opacity="1" /><path clip-path="url(#clip940)" d="M576.26 27.2059 L583.714 27.2059 L583.714 72.576 L576.26 72.576 L576.26 27.2059 M576.26 9.54393 L583.714 9.54393 L583.714 18.9825 L576.26 18.9825 L576.26 9.54393 Z" fill="#000000" fill-rule="evenodd" fill-opacity="1" /><path clip-path="url(#clip940)" d="M637.023 45.1919 L637.023 72.576 L629.57 72.576 L629.57 45.4349 Q629.57 38.994 627.058 35.7938 Q624.547 32.5936 619.524 32.5936 Q613.488 32.5936 610.004 36.4419 Q606.52 40.2903 606.52 46.9338 L606.52 72.576 L599.026 72.576 L599.026 27.2059 L606.52 27.2059 L606.52 34.2544 Q609.194 30.163 612.799 28.1376 Q616.445 26.1121 621.184 26.1121 Q629.003 26.1121 633.013 30.9732 Q637.023 35.7938 637.023 45.1919 Z" fill="#000000" fill-rule="evenodd" fill-opacity="1" /><path clip-path="url(#clip940)" d="M681.745 49.3643 Q681.745 41.2625 678.383 36.8065 Q675.061 32.3505 669.026 32.3505 Q663.03 32.3505 659.668 36.8065 Q656.346 41.2625 656.346 49.3643 Q656.346 57.4256 659.668 61.8816 Q663.03 66.3376 669.026 66.3376 Q675.061 66.3376 678.383 61.8816 Q681.745 57.4256 681.745 49.3643 M689.199 66.9452 Q689.199 78.5308 684.054 84.1616 Q678.91 89.8329 668.296 89.8329 Q664.367 89.8329 660.883 89.2252 Q657.4 88.6581 654.118 87.4428 L654.118 80.1917 Q657.4 81.9741 660.6 82.8248 Q663.8 83.6755 667.122 83.6755 Q674.454 83.6755 678.1 79.8271 Q681.745 76.0193 681.745 68.282 L681.745 64.5957 Q679.436 68.6061 675.831 70.5911 Q672.226 72.576 667.203 72.576 Q658.858 72.576 653.754 66.2161 Q648.65 59.8562 648.65 49.3643 Q648.65 38.832 653.754 32.472 Q658.858 26.1121 667.203 26.1121 Q672.226 26.1121 675.831 28.0971 Q679.436 30.082 681.745 34.0924 L681.745 27.2059 L689.199 27.2059 L689.199 66.9452 Z" fill="#000000" fill-rule="evenodd" fill-opacity="1" /><path clip-path="url(#clip940)" d="M748.504 32.4315 Q742.509 32.4315 739.025 37.1306 Q735.541 41.7891 735.541 49.9314 Q735.541 58.0738 738.985 62.7728 Q742.469 67.4314 748.504 67.4314 Q754.459 67.4314 757.943 62.7323 Q761.427 58.0333 761.427 49.9314 Q761.427 41.8701 757.943 37.1711 Q754.459 32.4315 748.504 32.4315 M748.504 26.1121 Q758.227 26.1121 763.776 32.4315 Q769.326 38.7509 769.326 49.9314 Q769.326 61.0714 763.776 67.4314 Q758.227 73.7508 748.504 73.7508 Q738.742 73.7508 733.192 67.4314 Q727.683 61.0714 727.683 49.9314 Q727.683 38.7509 733.192 32.4315 Q738.742 26.1121 748.504 26.1121 Z" fill="#000000" fill-rule="evenodd" fill-opacity="1" /><path clip-path="url(#clip940)" d="M804.65 9.54393 L804.65 15.7418 L797.52 15.7418 Q793.51 15.7418 791.93 17.3622 Q790.391 18.9825 790.391 23.1955 L790.391 27.2059 L802.665 27.2059 L802.665 32.9987 L790.391 32.9987 L790.391 72.576 L782.897 72.576 L782.897 32.9987 L775.767 32.9987 L775.767 27.2059 L782.897 27.2059 L782.897 24.0462 Q782.897 16.471 786.421 13.0277 Q789.945 9.54393 797.601 9.54393 L804.65 9.54393 Z" fill="#000000" fill-rule="evenodd" fill-opacity="1" /><path clip-path="url(#clip940)" d="M876.067 48.0275 L876.067 51.6733 L841.797 51.6733 Q842.283 59.3701 846.415 63.421 Q850.587 67.4314 858 67.4314 Q862.294 67.4314 866.305 66.3781 Q870.356 65.3249 874.325 63.2184 L874.325 70.267 Q870.315 71.9684 866.102 72.8596 Q861.889 73.7508 857.555 73.7508 Q846.698 73.7508 840.338 67.4314 Q834.019 61.1119 834.019 50.3365 Q834.019 39.1965 840.014 32.6746 Q846.05 26.1121 856.258 26.1121 Q865.413 26.1121 870.72 32.0264 Q876.067 37.9003 876.067 48.0275 M868.614 45.84 Q868.533 39.7232 865.17 36.0774 Q861.849 32.4315 856.339 32.4315 Q850.101 32.4315 846.334 35.9558 Q842.607 39.4801 842.04 45.8805 L868.614 45.84 Z" fill="#000000" fill-rule="evenodd" fill-opacity="1" /><path clip-path="url(#clip940)" d="M926.015 45.1919 L926.015 72.576 L918.561 72.576 L918.561 45.4349 Q918.561 38.994 916.05 35.7938 Q913.538 32.5936 908.515 32.5936 Q902.479 32.5936 898.995 36.4419 Q895.512 40.2903 895.512 46.9338 L895.512 72.576 L888.018 72.576 L888.018 27.2059 L895.512 27.2059 L895.512 34.2544 Q898.185 30.163 901.791 28.1376 Q905.436 26.1121 910.176 26.1121 Q917.994 26.1121 922.005 30.9732 Q926.015 35.7938 926.015 45.1919 Z" fill="#000000" fill-rule="evenodd" fill-opacity="1" /><path clip-path="url(#clip940)" d="M979.689 48.0275 L979.689 51.6733 L945.419 51.6733 Q945.905 59.3701 950.037 63.421 Q954.209 67.4314 961.622 67.4314 Q965.916 67.4314 969.927 66.3781 Q973.978 65.3249 977.948 63.2184 L977.948 70.267 Q973.937 71.9684 969.724 72.8596 Q965.511 73.7508 961.177 73.7508 Q950.32 73.7508 943.96 67.4314 Q937.641 61.1119 937.641 50.3365 Q937.641 39.1965 943.636 32.6746 Q949.672 26.1121 959.881 26.1121 Q969.036 26.1121 974.342 32.0264 Q979.689 37.9003 979.689 48.0275 M972.236 45.84 Q972.155 39.7232 968.793 36.0774 Q965.471 32.4315 959.962 32.4315 Q953.723 32.4315 949.956 35.9558 Q946.229 39.4801 945.662 45.8805 L972.236 45.84 Z" fill="#000000" fill-rule="evenodd" fill-opacity="1" /><path clip-path="url(#clip940)" d="M1018.21 34.1734 Q1016.96 33.4443 1015.46 33.1202 Q1014 32.7556 1012.22 32.7556 Q1005.9 32.7556 1002.5 36.8875 Q999.134 40.9789 999.134 48.6757 L999.134 72.576 L991.64 72.576 L991.64 27.2059 L999.134 27.2059 L999.134 34.2544 Q1001.48 30.1225 1005.25 28.1376 Q1009.02 26.1121 1014.41 26.1121 Q1015.18 26.1121 1016.11 26.2337 Q1017.04 26.3147 1018.17 26.5172 L1018.21 34.1734 Z" fill="#000000" fill-rule="evenodd" fill-opacity="1" /><path clip-path="url(#clip940)" d="M1054.43 49.3643 Q1054.43 41.2625 1051.07 36.8065 Q1047.74 32.3505 1041.71 32.3505 Q1035.71 32.3505 1032.35 36.8065 Q1029.03 41.2625 1029.03 49.3643 Q1029.03 57.4256 1032.35 61.8816 Q1035.71 66.3376 1041.71 66.3376 Q1047.74 66.3376 1051.07 61.8816 Q1054.43 57.4256 1054.43 49.3643 M1061.88 66.9452 Q1061.88 78.5308 1056.74 84.1616 Q1051.59 89.8329 1040.98 89.8329 Q1037.05 89.8329 1033.57 89.2252 Q1030.08 88.6581 1026.8 87.4428 L1026.8 80.1917 Q1030.08 81.9741 1033.28 82.8248 Q1036.48 83.6755 1039.8 83.6755 Q1047.14 83.6755 1050.78 79.8271 Q1054.43 76.0193 1054.43 68.282 L1054.43 64.5957 Q1052.12 68.6061 1048.51 70.5911 Q1044.91 72.576 1039.89 72.576 Q1031.54 72.576 1026.44 66.2161 Q1021.33 59.8562 1021.33 49.3643 Q1021.33 38.832 1026.44 32.472 Q1031.54 26.1121 1039.89 26.1121 Q1044.91 26.1121 1048.51 28.0971 Q1052.12 30.082 1054.43 34.0924 L1054.43 27.2059 L1061.88 27.2059 L1061.88 66.9452 Z" fill="#000000" fill-rule="evenodd" fill-opacity="1" /><path clip-path="url(#clip940)" d="M1096.11 76.7889 Q1092.95 84.8907 1089.96 87.3618 Q1086.96 89.8329 1081.93 89.8329 L1075.98 89.8329 L1075.98 83.5945 L1080.35 83.5945 Q1083.43 83.5945 1085.13 82.1361 Q1086.84 80.6778 1088.9 75.2496 L1090.24 71.8468 L1071.89 27.2059 L1079.79 27.2059 L1093.97 62.6918 L1108.14 27.2059 L1116.04 27.2059 L1096.11 76.7889 Z" fill="#000000" fill-rule="evenodd" fill-opacity="1" /><path clip-path="url(#clip940)" d="M1160.81 86.3491 L1160.81 92.1419 L1117.7 92.1419 L1117.7 86.3491 L1160.81 86.3491 Z" fill="#000000" fill-rule="evenodd" fill-opacity="1" /><path clip-path="url(#clip940)" d="M1188.43 49.7694 Q1179.4 49.7694 1175.92 51.8354 Q1172.43 53.9013 1172.43 58.8839 Q1172.43 62.8538 1175.02 65.2034 Q1177.66 67.5124 1182.15 67.5124 Q1188.35 67.5124 1192.08 63.1374 Q1195.85 58.7219 1195.85 51.4303 L1195.85 49.7694 L1188.43 49.7694 M1203.3 46.6907 L1203.3 72.576 L1195.85 72.576 L1195.85 65.6895 Q1193.29 69.8214 1189.49 71.8063 Q1185.68 73.7508 1180.17 73.7508 Q1173.2 73.7508 1169.07 69.8619 Q1164.98 65.9325 1164.98 59.3701 Q1164.98 51.7138 1170.08 47.825 Q1175.23 43.9361 1185.39 43.9361 L1195.85 43.9361 L1195.85 43.2069 Q1195.85 38.0623 1192.44 35.2672 Q1189.08 32.4315 1182.96 32.4315 Q1179.07 32.4315 1175.39 33.3632 Q1171.7 34.295 1168.3 36.1584 L1168.3 29.2718 Q1172.39 27.692 1176.24 26.9223 Q1180.09 26.1121 1183.73 26.1121 Q1193.58 26.1121 1198.44 31.2163 Q1203.3 36.3204 1203.3 46.6907 Z" fill="#000000" fill-rule="evenodd" fill-opacity="1" /><path clip-path="url(#clip940)" d="M1256.37 45.1919 L1256.37 72.576 L1248.91 72.576 L1248.91 45.4349 Q1248.91 38.994 1246.4 35.7938 Q1243.89 32.5936 1238.87 32.5936 Q1232.83 32.5936 1229.35 36.4419 Q1225.86 40.2903 1225.86 46.9338 L1225.86 72.576 L1218.37 72.576 L1218.37 27.2059 L1225.86 27.2059 L1225.86 34.2544 Q1228.54 30.163 1232.14 28.1376 Q1235.79 26.1121 1240.53 26.1121 Q1248.35 26.1121 1252.36 30.9732 Q1256.37 35.7938 1256.37 45.1919 Z" fill="#000000" fill-rule="evenodd" fill-opacity="1" /><path clip-path="url(#clip940)" d="M1301.09 34.0924 L1301.09 9.54393 L1308.54 9.54393 L1308.54 72.576 L1301.09 72.576 L1301.09 65.7705 Q1298.74 69.8214 1295.13 71.8063 Q1291.57 73.7508 1286.55 73.7508 Q1278.32 73.7508 1273.14 67.1883 Q1267.99 60.6258 1267.99 49.9314 Q1267.99 39.2371 1273.14 32.6746 Q1278.32 26.1121 1286.55 26.1121 Q1291.57 26.1121 1295.13 28.0971 Q1298.74 30.0415 1301.09 34.0924 M1275.69 49.9314 Q1275.69 58.1548 1279.05 62.8538 Q1282.45 67.5124 1288.37 67.5124 Q1294.28 67.5124 1297.69 62.8538 Q1301.09 58.1548 1301.09 49.9314 Q1301.09 41.7081 1297.69 37.0496 Q1294.28 32.3505 1288.37 32.3505 Q1282.45 32.3505 1279.05 37.0496 Q1275.69 41.7081 1275.69 49.9314 Z" fill="#000000" fill-rule="evenodd" fill-opacity="1" /><path clip-path="url(#clip940)" d="M1358.37 86.3491 L1358.37 92.1419 L1315.27 92.1419 L1315.27 86.3491 L1358.37 86.3491 Z" fill="#000000" fill-rule="evenodd" fill-opacity="1" /><path clip-path="url(#clip940)" d="M1388.34 9.54393 L1388.34 15.7418 L1381.22 15.7418 Q1377.2 15.7418 1375.62 17.3622 Q1374.09 18.9825 1374.09 23.1955 L1374.09 27.2059 L1386.36 27.2059 L1386.36 32.9987 L1374.09 32.9987 L1374.09 72.576 L1366.59 72.576 L1366.59 32.9987 L1359.46 32.9987 L1359.46 27.2059 L1366.59 27.2059 L1366.59 24.0462 Q1366.59 16.471 1370.12 13.0277 Q1373.64 9.54393 1381.3 9.54393 L1388.34 9.54393 Z" fill="#000000" fill-rule="evenodd" fill-opacity="1" /><path clip-path="url(#clip940)" d="M1412.16 32.4315 Q1406.17 32.4315 1402.68 37.1306 Q1399.2 41.7891 1399.2 49.9314 Q1399.2 58.0738 1402.64 62.7728 Q1406.13 67.4314 1412.16 67.4314 Q1418.12 67.4314 1421.6 62.7323 Q1425.09 58.0333 1425.09 49.9314 Q1425.09 41.8701 1421.6 37.1711 Q1418.12 32.4315 1412.16 32.4315 M1412.16 26.1121 Q1421.89 26.1121 1427.44 32.4315 Q1432.99 38.7509 1432.99 49.9314 Q1432.99 61.0714 1427.44 67.4314 Q1421.89 73.7508 1412.16 73.7508 Q1402.4 73.7508 1396.85 67.4314 Q1391.34 61.0714 1391.34 49.9314 Q1391.34 38.7509 1396.85 32.4315 Q1402.4 26.1121 1412.16 26.1121 Z" fill="#000000" fill-rule="evenodd" fill-opacity="1" /><path clip-path="url(#clip940)" d="M1471.63 34.1734 Q1470.38 33.4443 1468.88 33.1202 Q1467.42 32.7556 1465.64 32.7556 Q1459.32 32.7556 1455.91 36.8875 Q1452.55 40.9789 1452.55 48.6757 L1452.55 72.576 L1445.06 72.576 L1445.06 27.2059 L1452.55 27.2059 L1452.55 34.2544 Q1454.9 30.1225 1458.67 28.1376 Q1462.44 26.1121 1467.82 26.1121 Q1468.59 26.1121 1469.52 26.2337 Q1470.46 26.3147 1471.59 26.5172 L1471.63 34.1734 Z" fill="#000000" fill-rule="evenodd" fill-opacity="1" /><path clip-path="url(#clip940)" d="M1510.28 28.9478 L1510.28 35.9153 Q1507.12 34.1734 1503.92 33.3227 Q1500.76 32.4315 1497.52 32.4315 Q1490.27 32.4315 1486.26 37.0496 Q1482.24 41.6271 1482.24 49.9314 Q1482.24 58.2358 1486.26 62.8538 Q1490.27 67.4314 1497.52 67.4314 Q1500.76 67.4314 1503.92 66.5807 Q1507.12 65.6895 1510.28 63.9476 L1510.28 70.8341 Q1507.16 72.2924 1503.8 73.0216 Q1500.47 73.7508 1496.71 73.7508 Q1486.46 73.7508 1480.42 67.3098 Q1474.39 60.8689 1474.39 49.9314 Q1474.39 38.832 1480.46 32.472 Q1486.58 26.1121 1497.19 26.1121 Q1500.64 26.1121 1503.92 26.8413 Q1507.2 27.5299 1510.28 28.9478 Z" fill="#000000" fill-rule="evenodd" fill-opacity="1" /><path clip-path="url(#clip940)" d="M1562.05 48.0275 L1562.05 51.6733 L1527.78 51.6733 Q1528.26 59.3701 1532.39 63.421 Q1536.57 67.4314 1543.98 67.4314 Q1548.27 67.4314 1552.28 66.3781 Q1556.34 65.3249 1560.31 63.2184 L1560.31 70.267 Q1556.3 71.9684 1552.08 72.8596 Q1547.87 73.7508 1543.53 73.7508 Q1532.68 73.7508 1526.32 67.4314 Q1520 61.1119 1520 50.3365 Q1520 39.1965 1525.99 32.6746 Q1532.03 26.1121 1542.24 26.1121 Q1551.39 26.1121 1556.7 32.0264 Q1562.05 37.9003 1562.05 48.0275 M1554.59 45.84 Q1554.51 39.7232 1551.15 36.0774 Q1547.83 32.4315 1542.32 32.4315 Q1536.08 32.4315 1532.31 35.9558 Q1528.59 39.4801 1528.02 45.8805 L1554.59 45.84 Z" fill="#000000" fill-rule="evenodd" fill-opacity="1" /><path clip-path="url(#clip940)" d="M1618.23 32.4315 Q1612.24 32.4315 1608.75 37.1306 Q1605.27 41.7891 1605.27 49.9314 Q1605.27 58.0738 1608.71 62.7728 Q1612.2 67.4314 1618.23 67.4314 Q1624.19 67.4314 1627.67 62.7323 Q1631.16 58.0333 1631.16 49.9314 Q1631.16 41.8701 1627.67 37.1711 Q1624.19 32.4315 1618.23 32.4315 M1618.23 26.1121 Q1627.96 26.1121 1633.51 32.4315 Q1639.06 38.7509 1639.06 49.9314 Q1639.06 61.0714 1633.51 67.4314 Q1627.96 73.7508 1618.23 73.7508 Q1608.47 73.7508 1602.92 67.4314 Q1597.41 61.0714 1597.41 49.9314 Q1597.41 38.7509 1602.92 32.4315 Q1608.47 26.1121 1618.23 26.1121 Z" fill="#000000" fill-rule="evenodd" fill-opacity="1" /><path clip-path="url(#clip940)" d="M1689.12 45.1919 L1689.12 72.576 L1681.67 72.576 L1681.67 45.4349 Q1681.67 38.994 1679.16 35.7938 Q1676.65 32.5936 1671.62 32.5936 Q1665.59 32.5936 1662.1 36.4419 Q1658.62 40.2903 1658.62 46.9338 L1658.62 72.576 L1651.13 72.576 L1651.13 27.2059 L1658.62 27.2059 L1658.62 34.2544 Q1661.29 30.163 1664.9 28.1376 Q1668.55 26.1121 1673.29 26.1121 Q1681.1 26.1121 1685.11 30.9732 Q1689.12 35.7938 1689.12 45.1919 Z" fill="#000000" fill-rule="evenodd" fill-opacity="1" /><path clip-path="url(#clip940)" d="M1730.69 12.096 L1738.87 12.096 L1738.87 65.6895 L1768.32 65.6895 L1768.32 72.576 L1730.69 72.576 L1730.69 12.096 Z" fill="#000000" fill-rule="evenodd" fill-opacity="1" /><path clip-path="url(#clip940)" d="M1776.91 12.096 L1785.09 12.096 L1785.09 68.3631 Q1785.09 79.3005 1780.92 84.2426 Q1776.79 89.1847 1767.59 89.1847 L1764.47 89.1847 L1764.47 82.2982 L1767.02 82.2982 Q1772.45 82.2982 1774.68 79.26 Q1776.91 76.2218 1776.91 68.3631 L1776.91 12.096 Z" fill="#000000" fill-rule="evenodd" fill-opacity="1" /><path clip-path="url(#clip940)" d="M1873.04 16.7545 L1873.04 25.383 Q1868.9 21.5346 1864.2 19.6307 Q1859.55 17.7268 1854.28 17.7268 Q1843.91 17.7268 1838.4 24.0867 Q1832.89 30.4061 1832.89 42.3968 Q1832.89 54.3469 1838.4 60.7069 Q1843.91 67.0263 1854.28 67.0263 Q1859.55 67.0263 1864.2 65.1223 Q1868.9 63.2184 1873.04 59.3701 L1873.04 67.9175 Q1868.74 70.8341 1863.92 72.2924 Q1859.14 73.7508 1853.79 73.7508 Q1840.06 73.7508 1832.16 65.3654 Q1824.26 56.9395 1824.26 42.3968 Q1824.26 27.8135 1832.16 19.4281 Q1840.06 11.0023 1853.79 11.0023 Q1859.22 11.0023 1864 12.4606 Q1868.82 13.8784 1873.04 16.7545 Z" fill="#000000" fill-rule="evenodd" fill-opacity="1" /><path clip-path="url(#clip940)" d="M1885.35 9.54393 L1892.8 9.54393 L1892.8 72.576 L1885.35 72.576 L1885.35 9.54393 Z" fill="#000000" fill-rule="evenodd" fill-opacity="1" /><path clip-path="url(#clip940)" d="M1907.63 54.671 L1907.63 27.2059 L1915.08 27.2059 L1915.08 54.3874 Q1915.08 60.8284 1917.6 64.0691 Q1920.11 67.2693 1925.13 67.2693 Q1931.17 67.2693 1934.65 63.421 Q1938.17 59.5726 1938.17 52.9291 L1938.17 27.2059 L1945.63 27.2059 L1945.63 72.576 L1938.17 72.576 L1938.17 65.6084 Q1935.46 69.7404 1931.85 71.7658 Q1928.29 73.7508 1923.55 73.7508 Q1915.73 73.7508 1911.68 68.8897 Q1907.63 64.0286 1907.63 54.671 M1926.39 26.1121 L1926.39 26.1121 Z" fill="#000000" fill-rule="evenodd" fill-opacity="1" /><path clip-path="url(#clip940)" d="M1989.9 28.5427 L1989.9 35.5912 Q1986.74 33.9709 1983.34 33.1607 Q1979.94 32.3505 1976.29 32.3505 Q1970.74 32.3505 1967.95 34.0519 Q1965.19 35.7533 1965.19 39.156 Q1965.19 41.7486 1967.18 43.2475 Q1969.16 44.7058 1975.16 46.0426 L1977.71 46.6097 Q1985.65 48.3111 1988.97 51.4303 Q1992.33 54.509 1992.33 60.0587 Q1992.33 66.3781 1987.31 70.0644 Q1982.33 73.7508 1973.58 73.7508 Q1969.93 73.7508 1965.96 73.0216 Q1962.03 72.3329 1957.66 70.9151 L1957.66 63.2184 Q1961.79 65.3654 1965.8 66.4591 Q1969.81 67.5124 1973.74 67.5124 Q1979.01 67.5124 1981.84 65.73 Q1984.68 63.9071 1984.68 60.6258 Q1984.68 57.5877 1982.61 55.9673 Q1980.59 54.3469 1973.66 52.8481 L1971.07 52.2405 Q1964.14 50.7821 1961.06 47.7845 Q1957.98 44.7463 1957.98 39.4801 Q1957.98 33.0797 1962.52 29.5959 Q1967.06 26.1121 1975.4 26.1121 Q1979.53 26.1121 1983.18 26.7198 Q1986.83 27.3274 1989.9 28.5427 Z" fill="#000000" fill-rule="evenodd" fill-opacity="1" /><path clip-path="url(#clip940)" d="M2011.58 14.324 L2011.58 27.2059 L2026.93 27.2059 L2026.93 32.9987 L2011.58 32.9987 L2011.58 57.6282 Q2011.58 63.1779 2013.08 64.7578 Q2014.61 66.3376 2019.27 66.3376 L2026.93 66.3376 L2026.93 72.576 L2019.27 72.576 Q2010.64 72.576 2007.36 69.3758 Q2004.08 66.1351 2004.08 57.6282 L2004.08 32.9987 L1998.61 32.9987 L1998.61 27.2059 L2004.08 27.2059 L2004.08 14.324 L2011.58 14.324 Z" fill="#000000" fill-rule="evenodd" fill-opacity="1" /><path clip-path="url(#clip940)" d="M2075.54 48.0275 L2075.54 51.6733 L2041.27 51.6733 Q2041.76 59.3701 2045.89 63.421 Q2050.06 67.4314 2057.47 67.4314 Q2061.77 67.4314 2065.78 66.3781 Q2069.83 65.3249 2073.8 63.2184 L2073.8 70.267 Q2069.79 71.9684 2065.57 72.8596 Q2061.36 73.7508 2057.03 73.7508 Q2046.17 73.7508 2039.81 67.4314 Q2033.49 61.1119 2033.49 50.3365 Q2033.49 39.1965 2039.49 32.6746 Q2045.52 26.1121 2055.73 26.1121 Q2064.89 26.1121 2070.19 32.0264 Q2075.54 37.9003 2075.54 48.0275 M2068.09 45.84 Q2068.01 39.7232 2064.64 36.0774 Q2061.32 32.4315 2055.81 32.4315 Q2049.57 32.4315 2045.81 35.9558 Q2042.08 39.4801 2041.51 45.8805 L2068.09 45.84 Z" fill="#000000" fill-rule="evenodd" fill-opacity="1" /><path clip-path="url(#clip940)" d="M2114.06 34.1734 Q2112.81 33.4443 2111.31 33.1202 Q2109.85 32.7556 2108.07 32.7556 Q2101.75 32.7556 2098.35 36.8875 Q2094.98 40.9789 2094.98 48.6757 L2094.98 72.576 L2087.49 72.576 L2087.49 27.2059 L2094.98 27.2059 L2094.98 34.2544 Q2097.33 30.1225 2101.1 28.1376 Q2104.87 26.1121 2110.26 26.1121 Q2111.03 26.1121 2111.96 26.2337 Q2112.89 26.3147 2114.02 26.5172 L2114.06 34.1734 Z" fill="#000000" fill-rule="evenodd" fill-opacity="1" /><path clip-path="url(#clip940)" d="M2150.81 28.5427 L2150.81 35.5912 Q2147.65 33.9709 2144.24 33.1607 Q2140.84 32.3505 2137.19 32.3505 Q2131.65 32.3505 2128.85 34.0519 Q2126.1 35.7533 2126.1 39.156 Q2126.1 41.7486 2128.08 43.2475 Q2130.07 44.7058 2136.06 46.0426 L2138.61 46.6097 Q2146.55 48.3111 2149.87 51.4303 Q2153.24 54.509 2153.24 60.0587 Q2153.24 66.3781 2148.21 70.0644 Q2143.23 73.7508 2134.48 73.7508 Q2130.83 73.7508 2126.87 73.0216 Q2122.94 72.3329 2118.56 70.9151 L2118.56 63.2184 Q2122.69 65.3654 2126.7 66.4591 Q2130.71 67.5124 2134.64 67.5124 Q2139.91 67.5124 2142.74 65.73 Q2145.58 63.9071 2145.58 60.6258 Q2145.58 57.5877 2143.51 55.9673 Q2141.49 54.3469 2134.56 52.8481 L2131.97 52.2405 Q2125.04 50.7821 2121.96 47.7845 Q2118.88 44.7463 2118.88 39.4801 Q2118.88 33.0797 2123.42 29.5959 Q2127.96 26.1121 2136.3 26.1121 Q2140.44 26.1121 2144.08 26.7198 Q2147.73 27.3274 2150.81 28.5427 Z" fill="#000000" fill-rule="evenodd" fill-opacity="1" /><polyline clip-path="url(#clip942)" style="stroke:#009af9; stroke-linecap:butt; stroke-linejoin:round; stroke-width:4; stroke-opacity:1; fill:none" points="
  263.091,1386.4 315.112,1384.86 367.133,1381.81 419.153,1378.08 471.174,1373.2 523.194,1366.77 575.215,1358.77 627.235,1348.72 679.256,1338.24 731.276,1324.64 
  783.297,1310.41 835.317,1297.14 887.338,1275.74 939.358,1268.39 991.379,1246.98 1043.4,1229.67 1095.42,1186.25 1147.44,1146.44 1199.46,1118.69 1251.48,1092.27 
  1303.5,1065.91 1355.52,1035.12 1407.54,1001.89 1459.56,965.653 1511.58,934.356 1563.6,902.024 1615.63,864.264 1667.65,808.703 1719.67,755.796 1771.69,735.434 
  1823.71,699.417 1875.73,656.202 1927.75,603.827 1979.77,559.734 2031.79,451.182 2083.81,394.955 2135.83,313.802 2187.85,256.979 2239.87,224.877 2291.89,160.256 
  
  "/>
<circle clip-path="url(#clip942)" cx="263.091" cy="1386.4" r="14" fill="#009af9" fill-rule="evenodd" fill-opacity="1" stroke="#000000" stroke-opacity="1" stroke-width="3.2"/>
<circle clip-path="url(#clip942)" cx="315.112" cy="1384.86" r="14" fill="#009af9" fill-rule="evenodd" fill-opacity="1" stroke="#000000" stroke-opacity="1" stroke-width="3.2"/>
<circle clip-path="url(#clip942)" cx="367.133" cy="1381.81" r="14" fill="#009af9" fill-rule="evenodd" fill-opacity="1" stroke="#000000" stroke-opacity="1" stroke-width="3.2"/>
<circle clip-path="url(#clip942)" cx="419.153" cy="1378.08" r="14" fill="#009af9" fill-rule="evenodd" fill-opacity="1" stroke="#000000" stroke-opacity="1" stroke-width="3.2"/>
<circle clip-path="url(#clip942)" cx="471.174" cy="1373.2" r="14" fill="#009af9" fill-rule="evenodd" fill-opacity="1" stroke="#000000" stroke-opacity="1" stroke-width="3.2"/>
<circle clip-path="url(#clip942)" cx="523.194" cy="1366.77" r="14" fill="#009af9" fill-rule="evenodd" fill-opacity="1" stroke="#000000" stroke-opacity="1" stroke-width="3.2"/>
<circle clip-path="url(#clip942)" cx="575.215" cy="1358.77" r="14" fill="#009af9" fill-rule="evenodd" fill-opacity="1" stroke="#000000" stroke-opacity="1" stroke-width="3.2"/>
<circle clip-path="url(#clip942)" cx="627.235" cy="1348.72" r="14" fill="#009af9" fill-rule="evenodd" fill-opacity="1" stroke="#000000" stroke-opacity="1" stroke-width="3.2"/>
<circle clip-path="url(#clip942)" cx="679.256" cy="1338.24" r="14" fill="#009af9" fill-rule="evenodd" fill-opacity="1" stroke="#000000" stroke-opacity="1" stroke-width="3.2"/>
<circle clip-path="url(#clip942)" cx="731.276" cy="1324.64" r="14" fill="#009af9" fill-rule="evenodd" fill-opacity="1" stroke="#000000" stroke-opacity="1" stroke-width="3.2"/>
<circle clip-path="url(#clip942)" cx="783.297" cy="1310.41" r="14" fill="#009af9" fill-rule="evenodd" fill-opacity="1" stroke="#000000" stroke-opacity="1" stroke-width="3.2"/>
<circle clip-path="url(#clip942)" cx="835.317" cy="1297.14" r="14" fill="#009af9" fill-rule="evenodd" fill-opacity="1" stroke="#000000" stroke-opacity="1" stroke-width="3.2"/>
<circle clip-path="url(#clip942)" cx="887.338" cy="1275.74" r="14" fill="#009af9" fill-rule="evenodd" fill-opacity="1" stroke="#000000" stroke-opacity="1" stroke-width="3.2"/>
<circle clip-path="url(#clip942)" cx="939.358" cy="1268.39" r="14" fill="#009af9" fill-rule="evenodd" fill-opacity="1" stroke="#000000" stroke-opacity="1" stroke-width="3.2"/>
<circle clip-path="url(#clip942)" cx="991.379" cy="1246.98" r="14" fill="#009af9" fill-rule="evenodd" fill-opacity="1" stroke="#000000" stroke-opacity="1" stroke-width="3.2"/>
<circle clip-path="url(#clip942)" cx="1043.4" cy="1229.67" r="14" fill="#009af9" fill-rule="evenodd" fill-opacity="1" stroke="#000000" stroke-opacity="1" stroke-width="3.2"/>
<circle clip-path="url(#clip942)" cx="1095.42" cy="1186.25" r="14" fill="#009af9" fill-rule="evenodd" fill-opacity="1" stroke="#000000" stroke-opacity="1" stroke-width="3.2"/>
<circle clip-path="url(#clip942)" cx="1147.44" cy="1146.44" r="14" fill="#009af9" fill-rule="evenodd" fill-opacity="1" stroke="#000000" stroke-opacity="1" stroke-width="3.2"/>
<circle clip-path="url(#clip942)" cx="1199.46" cy="1118.69" r="14" fill="#009af9" fill-rule="evenodd" fill-opacity="1" stroke="#000000" stroke-opacity="1" stroke-width="3.2"/>
<circle clip-path="url(#clip942)" cx="1251.48" cy="1092.27" r="14" fill="#009af9" fill-rule="evenodd" fill-opacity="1" stroke="#000000" stroke-opacity="1" stroke-width="3.2"/>
<circle clip-path="url(#clip942)" cx="1303.5" cy="1065.91" r="14" fill="#009af9" fill-rule="evenodd" fill-opacity="1" stroke="#000000" stroke-opacity="1" stroke-width="3.2"/>
<circle clip-path="url(#clip942)" cx="1355.52" cy="1035.12" r="14" fill="#009af9" fill-rule="evenodd" fill-opacity="1" stroke="#000000" stroke-opacity="1" stroke-width="3.2"/>
<circle clip-path="url(#clip942)" cx="1407.54" cy="1001.89" r="14" fill="#009af9" fill-rule="evenodd" fill-opacity="1" stroke="#000000" stroke-opacity="1" stroke-width="3.2"/>
<circle clip-path="url(#clip942)" cx="1459.56" cy="965.653" r="14" fill="#009af9" fill-rule="evenodd" fill-opacity="1" stroke="#000000" stroke-opacity="1" stroke-width="3.2"/>
<circle clip-path="url(#clip942)" cx="1511.58" cy="934.356" r="14" fill="#009af9" fill-rule="evenodd" fill-opacity="1" stroke="#000000" stroke-opacity="1" stroke-width="3.2"/>
<circle clip-path="url(#clip942)" cx="1563.6" cy="902.024" r="14" fill="#009af9" fill-rule="evenodd" fill-opacity="1" stroke="#000000" stroke-opacity="1" stroke-width="3.2"/>
<circle clip-path="url(#clip942)" cx="1615.63" cy="864.264" r="14" fill="#009af9" fill-rule="evenodd" fill-opacity="1" stroke="#000000" stroke-opacity="1" stroke-width="3.2"/>
<circle clip-path="url(#clip942)" cx="1667.65" cy="808.703" r="14" fill="#009af9" fill-rule="evenodd" fill-opacity="1" stroke="#000000" stroke-opacity="1" stroke-width="3.2"/>
<circle clip-path="url(#clip942)" cx="1719.67" cy="755.796" r="14" fill="#009af9" fill-rule="evenodd" fill-opacity="1" stroke="#000000" stroke-opacity="1" stroke-width="3.2"/>
<circle clip-path="url(#clip942)" cx="1771.69" cy="735.434" r="14" fill="#009af9" fill-rule="evenodd" fill-opacity="1" stroke="#000000" stroke-opacity="1" stroke-width="3.2"/>
<circle clip-path="url(#clip942)" cx="1823.71" cy="699.417" r="14" fill="#009af9" fill-rule="evenodd" fill-opacity="1" stroke="#000000" stroke-opacity="1" stroke-width="3.2"/>
<circle clip-path="url(#clip942)" cx="1875.73" cy="656.202" r="14" fill="#009af9" fill-rule="evenodd" fill-opacity="1" stroke="#000000" stroke-opacity="1" stroke-width="3.2"/>
<circle clip-path="url(#clip942)" cx="1927.75" cy="603.827" r="14" fill="#009af9" fill-rule="evenodd" fill-opacity="1" stroke="#000000" stroke-opacity="1" stroke-width="3.2"/>
<circle clip-path="url(#clip942)" cx="1979.77" cy="559.734" r="14" fill="#009af9" fill-rule="evenodd" fill-opacity="1" stroke="#000000" stroke-opacity="1" stroke-width="3.2"/>
<circle clip-path="url(#clip942)" cx="2031.79" cy="451.182" r="14" fill="#009af9" fill-rule="evenodd" fill-opacity="1" stroke="#000000" stroke-opacity="1" stroke-width="3.2"/>
<circle clip-path="url(#clip942)" cx="2083.81" cy="394.955" r="14" fill="#009af9" fill-rule="evenodd" fill-opacity="1" stroke="#000000" stroke-opacity="1" stroke-width="3.2"/>
<circle clip-path="url(#clip942)" cx="2135.83" cy="313.802" r="14" fill="#009af9" fill-rule="evenodd" fill-opacity="1" stroke="#000000" stroke-opacity="1" stroke-width="3.2"/>
<circle clip-path="url(#clip942)" cx="2187.85" cy="256.979" r="14" fill="#009af9" fill-rule="evenodd" fill-opacity="1" stroke="#000000" stroke-opacity="1" stroke-width="3.2"/>
<circle clip-path="url(#clip942)" cx="2239.87" cy="224.877" r="14" fill="#009af9" fill-rule="evenodd" fill-opacity="1" stroke="#000000" stroke-opacity="1" stroke-width="3.2"/>
<circle clip-path="url(#clip942)" cx="2291.89" cy="160.256" r="14" fill="#009af9" fill-rule="evenodd" fill-opacity="1" stroke="#000000" stroke-opacity="1" stroke-width="3.2"/>
</svg>
