<?xml version="1.0" encoding="utf-8"?>
<svg xmlns="http://www.w3.org/2000/svg" xmlns:xlink="http://www.w3.org/1999/xlink" width="600" height="400" viewBox="0 0 2400 1600">
<defs>
  <clipPath id="clip050">
    <rect x="0" y="0" width="2400" height="1600"/>
  </clipPath>
</defs>
<path clip-path="url(#clip050)" d="
M0 1600 L2400 1600 L2400 0 L0 0  Z
  " fill="#ffffff" fill-rule="evenodd" fill-opacity="1"/>
<defs>
  <clipPath id="clip051">
    <rect x="480" y="0" width="1681" height="1600"/>
  </clipPath>
</defs>
<path clip-path="url(#clip050)" d="
M205.121 1423.18 L2352.76 1423.18 L2352.76 123.472 L205.121 123.472  Z
  " fill="#ffffff" fill-rule="evenodd" fill-opacity="1"/>
<defs>
  <clipPath id="clip052">
    <rect x="205" y="123" width="2149" height="1301"/>
  </clipPath>
</defs>
<polyline clip-path="url(#clip052)" style="stroke:#000000; stroke-linecap:butt; stroke-linejoin:round; stroke-width:2; stroke-opacity:0.1; fill:none" points="
  213.953,1423.18 213.953,123.472 
  "/>
<polyline clip-path="url(#clip052)" style="stroke:#000000; stroke-linecap:butt; stroke-linejoin:round; stroke-width:2; stroke-opacity:0.1; fill:none" points="
  733.458,1423.18 733.458,123.472 
  "/>
<polyline clip-path="url(#clip052)" style="stroke:#000000; stroke-linecap:butt; stroke-linejoin:round; stroke-width:2; stroke-opacity:0.1; fill:none" points="
  1252.96,1423.18 1252.96,123.472 
  "/>
<polyline clip-path="url(#clip052)" style="stroke:#000000; stroke-linecap:butt; stroke-linejoin:round; stroke-width:2; stroke-opacity:0.1; fill:none" points="
  1772.47,1423.18 1772.47,123.472 
  "/>
<polyline clip-path="url(#clip052)" style="stroke:#000000; stroke-linecap:butt; stroke-linejoin:round; stroke-width:2; stroke-opacity:0.1; fill:none" points="
  2291.97,1423.18 2291.97,123.472 
  "/>
<polyline clip-path="url(#clip050)" style="stroke:#000000; stroke-linecap:butt; stroke-linejoin:round; stroke-width:4; stroke-opacity:1; fill:none" points="
  205.121,1423.18 2352.76,1423.18 
  "/>
<polyline clip-path="url(#clip050)" style="stroke:#000000; stroke-linecap:butt; stroke-linejoin:round; stroke-width:4; stroke-opacity:1; fill:none" points="
  213.953,1423.18 213.953,1404.28 
  "/>
<polyline clip-path="url(#clip050)" style="stroke:#000000; stroke-linecap:butt; stroke-linejoin:round; stroke-width:4; stroke-opacity:1; fill:none" points="
  733.458,1423.18 733.458,1404.28 
  "/>
<polyline clip-path="url(#clip050)" style="stroke:#000000; stroke-linecap:butt; stroke-linejoin:round; stroke-width:4; stroke-opacity:1; fill:none" points="
  1252.96,1423.18 1252.96,1404.28 
  "/>
<polyline clip-path="url(#clip050)" style="stroke:#000000; stroke-linecap:butt; stroke-linejoin:round; stroke-width:4; stroke-opacity:1; fill:none" points="
  1772.47,1423.18 1772.47,1404.28 
  "/>
<polyline clip-path="url(#clip050)" style="stroke:#000000; stroke-linecap:butt; stroke-linejoin:round; stroke-width:4; stroke-opacity:1; fill:none" points="
  2291.97,1423.18 2291.97,1404.28 
  "/>
<path clip-path="url(#clip050)" d="M213.953 1454.1 Q210.341 1454.1 208.513 1457.66 Q206.707 1461.2 206.707 1468.33 Q206.707 1475.44 208.513 1479.01 Q210.341 1482.55 213.953 1482.55 Q217.587 1482.55 219.392 1479.01 Q221.221 1475.44 221.221 1468.33 Q221.221 1461.2 219.392 1457.66 Q217.587 1454.1 213.953 1454.1 M213.953 1450.39 Q219.763 1450.39 222.818 1455 Q225.897 1459.58 225.897 1468.33 Q225.897 1477.06 222.818 1481.67 Q219.763 1486.25 213.953 1486.25 Q208.142 1486.25 205.064 1481.67 Q202.008 1477.06 202.008 1468.33 Q202.008 1459.58 205.064 1455 Q208.142 1450.39 213.953 1450.39 Z" fill="#000000" fill-rule="evenodd" fill-opacity="1" /><path clip-path="url(#clip050)" d="M682.069 1481.64 L698.389 1481.64 L698.389 1485.58 L676.444 1485.58 L676.444 1481.64 Q679.106 1478.89 683.69 1474.26 Q688.296 1469.61 689.477 1468.27 Q691.722 1465.74 692.602 1464.01 Q693.504 1462.25 693.504 1460.56 Q693.504 1457.8 691.56 1456.07 Q689.639 1454.33 686.537 1454.33 Q684.338 1454.33 681.884 1455.09 Q679.454 1455.86 676.676 1457.41 L676.676 1452.69 Q679.5 1451.55 681.954 1450.97 Q684.407 1450.39 686.444 1450.39 Q691.815 1450.39 695.009 1453.08 Q698.203 1455.77 698.203 1460.26 Q698.203 1462.39 697.393 1464.31 Q696.606 1466.2 694.5 1468.8 Q693.921 1469.47 690.819 1472.69 Q687.717 1475.88 682.069 1481.64 Z" fill="#000000" fill-rule="evenodd" fill-opacity="1" /><path clip-path="url(#clip050)" d="M708.25 1451.02 L726.606 1451.02 L726.606 1454.96 L712.532 1454.96 L712.532 1463.43 Q713.551 1463.08 714.569 1462.92 Q715.588 1462.73 716.606 1462.73 Q722.393 1462.73 725.773 1465.9 Q729.152 1469.08 729.152 1474.49 Q729.152 1480.07 725.68 1483.17 Q722.208 1486.25 715.889 1486.25 Q713.713 1486.25 711.444 1485.88 Q709.199 1485.51 706.791 1484.77 L706.791 1480.07 Q708.875 1481.2 711.097 1481.76 Q713.319 1482.32 715.796 1482.32 Q719.801 1482.32 722.138 1480.21 Q724.476 1478.1 724.476 1474.49 Q724.476 1470.88 722.138 1468.77 Q719.801 1466.67 715.796 1466.67 Q713.921 1466.67 712.046 1467.08 Q710.194 1467.5 708.25 1468.38 L708.25 1451.02 Z" fill="#000000" fill-rule="evenodd" fill-opacity="1" /><path clip-path="url(#clip050)" d="M748.365 1454.1 Q744.754 1454.1 742.925 1457.66 Q741.12 1461.2 741.12 1468.33 Q741.12 1475.44 742.925 1479.01 Q744.754 1482.55 748.365 1482.55 Q751.999 1482.55 753.805 1479.01 Q755.634 1475.44 755.634 1468.33 Q755.634 1461.2 753.805 1457.66 Q751.999 1454.1 748.365 1454.1 M748.365 1450.39 Q754.175 1450.39 757.231 1455 Q760.31 1459.58 760.31 1468.33 Q760.31 1477.06 757.231 1481.67 Q754.175 1486.25 748.365 1486.25 Q742.555 1486.25 739.476 1481.67 Q736.421 1477.06 736.421 1468.33 Q736.421 1459.58 739.476 1455 Q742.555 1450.39 748.365 1450.39 Z" fill="#000000" fill-rule="evenodd" fill-opacity="1" /><path clip-path="url(#clip050)" d="M778.527 1454.1 Q774.916 1454.1 773.087 1457.66 Q771.282 1461.2 771.282 1468.33 Q771.282 1475.44 773.087 1479.01 Q774.916 1482.55 778.527 1482.55 Q782.161 1482.55 783.967 1479.01 Q785.796 1475.44 785.796 1468.33 Q785.796 1461.2 783.967 1457.66 Q782.161 1454.1 778.527 1454.1 M778.527 1450.39 Q784.337 1450.39 787.393 1455 Q790.471 1459.58 790.471 1468.33 Q790.471 1477.06 787.393 1481.67 Q784.337 1486.25 778.527 1486.25 Q772.717 1486.25 769.638 1481.67 Q766.583 1477.06 766.583 1468.33 Q766.583 1459.58 769.638 1455 Q772.717 1450.39 778.527 1450.39 Z" fill="#000000" fill-rule="evenodd" fill-opacity="1" /><path clip-path="url(#clip050)" d="M1197.5 1451.02 L1215.86 1451.02 L1215.86 1454.96 L1201.78 1454.96 L1201.78 1463.43 Q1202.8 1463.08 1203.82 1462.92 Q1204.84 1462.73 1205.86 1462.73 Q1211.64 1462.73 1215.02 1465.9 Q1218.4 1469.08 1218.4 1474.49 Q1218.4 1480.07 1214.93 1483.17 Q1211.46 1486.25 1205.14 1486.25 Q1202.96 1486.25 1200.69 1485.88 Q1198.45 1485.51 1196.04 1484.77 L1196.04 1480.07 Q1198.13 1481.2 1200.35 1481.76 Q1202.57 1482.32 1205.05 1482.32 Q1209.05 1482.32 1211.39 1480.21 Q1213.73 1478.1 1213.73 1474.49 Q1213.73 1470.88 1211.39 1468.77 Q1209.05 1466.67 1205.05 1466.67 Q1203.17 1466.67 1201.3 1467.08 Q1199.44 1467.5 1197.5 1468.38 L1197.5 1451.02 Z" fill="#000000" fill-rule="evenodd" fill-opacity="1" /><path clip-path="url(#clip050)" d="M1237.62 1454.1 Q1234 1454.1 1232.18 1457.66 Q1230.37 1461.2 1230.37 1468.33 Q1230.37 1475.44 1232.18 1479.01 Q1234 1482.55 1237.62 1482.55 Q1241.25 1482.55 1243.06 1479.01 Q1244.88 1475.44 1244.88 1468.33 Q1244.88 1461.2 1243.06 1457.66 Q1241.25 1454.1 1237.62 1454.1 M1237.62 1450.39 Q1243.43 1450.39 1246.48 1455 Q1249.56 1459.58 1249.56 1468.33 Q1249.56 1477.06 1246.48 1481.67 Q1243.43 1486.25 1237.62 1486.25 Q1231.81 1486.25 1228.73 1481.67 Q1225.67 1477.06 1225.67 1468.33 Q1225.67 1459.58 1228.73 1455 Q1231.81 1450.39 1237.62 1450.39 Z" fill="#000000" fill-rule="evenodd" fill-opacity="1" /><path clip-path="url(#clip050)" d="M1267.78 1454.1 Q1264.17 1454.1 1262.34 1457.66 Q1260.53 1461.2 1260.53 1468.33 Q1260.53 1475.44 1262.34 1479.01 Q1264.17 1482.55 1267.78 1482.55 Q1271.41 1482.55 1273.22 1479.01 Q1275.05 1475.44 1275.05 1468.33 Q1275.05 1461.2 1273.22 1457.66 Q1271.41 1454.1 1267.78 1454.1 M1267.78 1450.39 Q1273.59 1450.39 1276.64 1455 Q1279.72 1459.58 1279.72 1468.33 Q1279.72 1477.06 1276.64 1481.67 Q1273.59 1486.25 1267.78 1486.25 Q1261.97 1486.25 1258.89 1481.67 Q1255.83 1477.06 1255.83 1468.33 Q1255.83 1459.58 1258.89 1455 Q1261.97 1450.39 1267.78 1450.39 Z" fill="#000000" fill-rule="evenodd" fill-opacity="1" /><path clip-path="url(#clip050)" d="M1297.94 1454.1 Q1294.33 1454.1 1292.5 1457.66 Q1290.69 1461.2 1290.69 1468.33 Q1290.69 1475.44 1292.5 1479.01 Q1294.33 1482.55 1297.94 1482.55 Q1301.57 1482.55 1303.38 1479.01 Q1305.21 1475.44 1305.21 1468.33 Q1305.21 1461.2 1303.38 1457.66 Q1301.57 1454.1 1297.94 1454.1 M1297.94 1450.39 Q1303.75 1450.39 1306.81 1455 Q1309.88 1459.58 1309.88 1468.33 Q1309.88 1477.06 1306.81 1481.67 Q1303.75 1486.25 1297.94 1486.25 Q1292.13 1486.25 1289.05 1481.67 Q1286 1477.06 1286 1468.33 Q1286 1459.58 1289.05 1455 Q1292.13 1450.39 1297.94 1450.39 Z" fill="#000000" fill-rule="evenodd" fill-opacity="1" /><path clip-path="url(#clip050)" d="M1715.66 1451.02 L1737.89 1451.02 L1737.89 1453.01 L1725.34 1485.58 L1720.45 1485.58 L1732.26 1454.96 L1715.66 1454.96 L1715.66 1451.02 Z" fill="#000000" fill-rule="evenodd" fill-opacity="1" /><path clip-path="url(#clip050)" d="M1747.05 1451.02 L1765.41 1451.02 L1765.41 1454.96 L1751.33 1454.96 L1751.33 1463.43 Q1752.35 1463.08 1753.37 1462.92 Q1754.39 1462.73 1755.41 1462.73 Q1761.2 1462.73 1764.58 1465.9 Q1767.95 1469.08 1767.95 1474.49 Q1767.95 1480.07 1764.48 1483.17 Q1761.01 1486.25 1754.69 1486.25 Q1752.51 1486.25 1750.25 1485.88 Q1748 1485.51 1745.59 1484.77 L1745.59 1480.07 Q1747.68 1481.2 1749.9 1481.76 Q1752.12 1482.32 1754.6 1482.32 Q1758.6 1482.32 1760.94 1480.21 Q1763.28 1478.1 1763.28 1474.49 Q1763.28 1470.88 1760.94 1468.77 Q1758.6 1466.67 1754.6 1466.67 Q1752.72 1466.67 1750.85 1467.08 Q1749 1467.5 1747.05 1468.38 L1747.05 1451.02 Z" fill="#000000" fill-rule="evenodd" fill-opacity="1" /><path clip-path="url(#clip050)" d="M1787.17 1454.1 Q1783.56 1454.1 1781.73 1457.66 Q1779.92 1461.2 1779.92 1468.33 Q1779.92 1475.44 1781.73 1479.01 Q1783.56 1482.55 1787.17 1482.55 Q1790.8 1482.55 1792.61 1479.01 Q1794.44 1475.44 1794.44 1468.33 Q1794.44 1461.2 1792.61 1457.66 Q1790.8 1454.1 1787.17 1454.1 M1787.17 1450.39 Q1792.98 1450.39 1796.03 1455 Q1799.11 1459.58 1799.11 1468.33 Q1799.11 1477.06 1796.03 1481.67 Q1792.98 1486.25 1787.17 1486.25 Q1781.36 1486.25 1778.28 1481.67 Q1775.22 1477.06 1775.22 1468.33 Q1775.22 1459.58 1778.28 1455 Q1781.36 1450.39 1787.17 1450.39 Z" fill="#000000" fill-rule="evenodd" fill-opacity="1" /><path clip-path="url(#clip050)" d="M1817.33 1454.1 Q1813.72 1454.1 1811.89 1457.66 Q1810.08 1461.2 1810.08 1468.33 Q1810.08 1475.44 1811.89 1479.01 Q1813.72 1482.55 1817.33 1482.55 Q1820.96 1482.55 1822.77 1479.01 Q1824.6 1475.44 1824.6 1468.33 Q1824.6 1461.2 1822.77 1457.66 Q1820.96 1454.1 1817.33 1454.1 M1817.33 1450.39 Q1823.14 1450.39 1826.2 1455 Q1829.27 1459.58 1829.27 1468.33 Q1829.27 1477.06 1826.2 1481.67 Q1823.14 1486.25 1817.33 1486.25 Q1811.52 1486.25 1808.44 1481.67 Q1805.38 1477.06 1805.38 1468.33 Q1805.38 1459.58 1808.44 1455 Q1811.52 1450.39 1817.33 1450.39 Z" fill="#000000" fill-rule="evenodd" fill-opacity="1" /><path clip-path="url(#clip050)" d="M2221.42 1481.64 L2229.06 1481.64 L2229.06 1455.28 L2220.75 1456.95 L2220.75 1452.69 L2229.01 1451.02 L2233.69 1451.02 L2233.69 1481.64 L2241.33 1481.64 L2241.33 1485.58 L2221.42 1485.58 L2221.42 1481.64 Z" fill="#000000" fill-rule="evenodd" fill-opacity="1" /><path clip-path="url(#clip050)" d="M2260.77 1454.1 Q2257.16 1454.1 2255.33 1457.66 Q2253.52 1461.2 2253.52 1468.33 Q2253.52 1475.44 2255.33 1479.01 Q2257.16 1482.55 2260.77 1482.55 Q2264.4 1482.55 2266.21 1479.01 Q2268.04 1475.44 2268.04 1468.33 Q2268.04 1461.2 2266.21 1457.66 Q2264.4 1454.1 2260.77 1454.1 M2260.77 1450.39 Q2266.58 1450.39 2269.64 1455 Q2272.71 1459.58 2272.71 1468.33 Q2272.71 1477.06 2269.64 1481.67 Q2266.58 1486.25 2260.77 1486.25 Q2254.96 1486.25 2251.88 1481.67 Q2248.83 1477.06 2248.83 1468.33 Q2248.83 1459.58 2251.88 1455 Q2254.96 1450.39 2260.77 1450.39 Z" fill="#000000" fill-rule="evenodd" fill-opacity="1" /><path clip-path="url(#clip050)" d="M2290.93 1454.1 Q2287.32 1454.1 2285.49 1457.66 Q2283.69 1461.2 2283.69 1468.33 Q2283.69 1475.44 2285.49 1479.01 Q2287.32 1482.55 2290.93 1482.55 Q2294.57 1482.55 2296.37 1479.01 Q2298.2 1475.44 2298.2 1468.33 Q2298.2 1461.2 2296.37 1457.66 Q2294.57 1454.1 2290.93 1454.1 M2290.93 1450.39 Q2296.74 1450.39 2299.8 1455 Q2302.88 1459.58 2302.88 1468.33 Q2302.88 1477.06 2299.8 1481.67 Q2296.74 1486.25 2290.93 1486.25 Q2285.12 1486.25 2282.04 1481.67 Q2278.99 1477.06 2278.99 1468.33 Q2278.99 1459.58 2282.04 1455 Q2285.12 1450.39 2290.93 1450.39 Z" fill="#000000" fill-rule="evenodd" fill-opacity="1" /><path clip-path="url(#clip050)" d="M2321.09 1454.1 Q2317.48 1454.1 2315.65 1457.66 Q2313.85 1461.2 2313.85 1468.33 Q2313.85 1475.44 2315.65 1479.01 Q2317.48 1482.55 2321.09 1482.55 Q2324.73 1482.55 2326.53 1479.01 Q2328.36 1475.44 2328.36 1468.33 Q2328.36 1461.2 2326.53 1457.66 Q2324.73 1454.1 2321.09 1454.1 M2321.09 1450.39 Q2326.9 1450.39 2329.96 1455 Q2333.04 1459.58 2333.04 1468.33 Q2333.04 1477.06 2329.96 1481.67 Q2326.9 1486.25 2321.09 1486.25 Q2315.28 1486.25 2312.21 1481.67 Q2309.15 1477.06 2309.15 1468.33 Q2309.15 1459.58 2312.21 1455 Q2315.28 1450.39 2321.09 1450.39 Z" fill="#000000" fill-rule="evenodd" fill-opacity="1" /><path clip-path="url(#clip050)" d="M2351.26 1454.1 Q2347.64 1454.1 2345.82 1457.66 Q2344.01 1461.2 2344.01 1468.33 Q2344.01 1475.44 2345.82 1479.01 Q2347.64 1482.55 2351.26 1482.55 Q2354.89 1482.55 2356.7 1479.01 Q2358.52 1475.44 2358.52 1468.33 Q2358.52 1461.2 2356.7 1457.66 Q2354.89 1454.1 2351.26 1454.1 M2351.26 1450.39 Q2357.07 1450.39 2360.12 1455 Q2363.2 1459.58 2363.2 1468.33 Q2363.2 1477.06 2360.12 1481.67 Q2357.07 1486.25 2351.26 1486.25 Q2345.45 1486.25 2342.37 1481.67 Q2339.31 1477.06 2339.31 1468.33 Q2339.31 1459.58 2342.37 1455 Q2345.45 1450.39 2351.26 1450.39 Z" fill="#000000" fill-rule="evenodd" fill-opacity="1" /><path clip-path="url(#clip050)" d="M997.495 1520.52 L1006.15 1520.52 L1027.22 1560.28 L1027.22 1520.52 L1033.46 1520.52 L1033.46 1568.04 L1024.8 1568.04 L1003.73 1528.29 L1003.73 1568.04 L997.495 1568.04 L997.495 1520.52 Z" fill="#000000" fill-rule="evenodd" fill-opacity="1" /><path clip-path="url(#clip050)" d="M1045.4 1553.98 L1045.4 1532.4 L1051.25 1532.4 L1051.25 1553.75 Q1051.25 1558.81 1053.23 1561.36 Q1055.2 1563.87 1059.15 1563.87 Q1063.89 1563.87 1066.63 1560.85 Q1069.4 1557.83 1069.4 1552.61 L1069.4 1532.4 L1075.25 1532.4 L1075.25 1568.04 L1069.4 1568.04 L1069.4 1562.57 Q1067.26 1565.82 1064.43 1567.41 Q1061.63 1568.97 1057.91 1568.97 Q1051.76 1568.97 1048.58 1565.15 Q1045.4 1561.33 1045.4 1553.98 M1060.13 1531.54 L1060.13 1531.54 Z" fill="#000000" fill-rule="evenodd" fill-opacity="1" /><path clip-path="url(#clip050)" d="M1115.07 1539.24 Q1117.27 1535.29 1120.32 1533.41 Q1123.38 1531.54 1127.51 1531.54 Q1133.08 1531.54 1136.11 1535.45 Q1139.13 1539.33 1139.13 1546.53 L1139.13 1568.04 L1133.24 1568.04 L1133.24 1546.72 Q1133.24 1541.59 1131.43 1539.11 Q1129.61 1536.63 1125.89 1536.63 Q1121.34 1536.63 1118.7 1539.65 Q1116.06 1542.68 1116.06 1547.9 L1116.06 1568.04 L1110.17 1568.04 L1110.17 1546.72 Q1110.17 1541.56 1108.35 1539.11 Q1106.54 1536.63 1102.75 1536.63 Q1098.26 1536.63 1095.62 1539.68 Q1092.98 1542.71 1092.98 1547.9 L1092.98 1568.04 L1087.09 1568.04 L1087.09 1532.4 L1092.98 1532.4 L1092.98 1537.93 Q1094.99 1534.66 1097.79 1533.1 Q1100.59 1531.54 1104.44 1531.54 Q1108.32 1531.54 1111.03 1533.51 Q1113.76 1535.48 1115.07 1539.24 Z" fill="#000000" fill-rule="evenodd" fill-opacity="1" /><path clip-path="url(#clip050)" d="M1176.4 1550.25 Q1176.4 1543.79 1173.73 1540.13 Q1171.09 1536.44 1166.44 1536.44 Q1161.79 1536.44 1159.12 1540.13 Q1156.48 1543.79 1156.48 1550.25 Q1156.48 1556.71 1159.12 1560.4 Q1161.79 1564.07 1166.44 1564.07 Q1171.09 1564.07 1173.73 1560.4 Q1176.4 1556.71 1176.4 1550.25 M1156.48 1537.81 Q1158.32 1534.62 1161.13 1533.1 Q1163.96 1531.54 1167.87 1531.54 Q1174.37 1531.54 1178.41 1536.69 Q1182.48 1541.85 1182.48 1550.25 Q1182.48 1558.65 1178.41 1563.81 Q1174.37 1568.97 1167.87 1568.97 Q1163.96 1568.97 1161.13 1567.44 Q1158.32 1565.88 1156.48 1562.7 L1156.48 1568.04 L1150.59 1568.04 L1150.59 1518.52 L1156.48 1518.52 L1156.48 1537.81 Z" fill="#000000" fill-rule="evenodd" fill-opacity="1" /><path clip-path="url(#clip050)" d="M1222.68 1548.76 L1222.68 1551.62 L1195.75 1551.62 Q1196.14 1557.67 1199.38 1560.85 Q1202.66 1564 1208.49 1564 Q1211.86 1564 1215.01 1563.17 Q1218.19 1562.35 1221.31 1560.69 L1221.31 1566.23 Q1218.16 1567.57 1214.85 1568.27 Q1211.54 1568.97 1208.14 1568.97 Q1199.61 1568.97 1194.61 1564 Q1189.64 1559.04 1189.64 1550.57 Q1189.64 1541.82 1194.35 1536.69 Q1199.1 1531.54 1207.12 1531.54 Q1214.31 1531.54 1218.48 1536.18 Q1222.68 1540.8 1222.68 1548.76 M1216.83 1547.04 Q1216.76 1542.23 1214.12 1539.37 Q1211.51 1536.5 1207.18 1536.5 Q1202.28 1536.5 1199.32 1539.27 Q1196.39 1542.04 1195.95 1547.07 L1216.83 1547.04 Z" fill="#000000" fill-rule="evenodd" fill-opacity="1" /><path clip-path="url(#clip050)" d="M1252.95 1537.87 Q1251.96 1537.3 1250.79 1537.04 Q1249.64 1536.76 1248.24 1536.76 Q1243.27 1536.76 1240.6 1540 Q1237.96 1543.22 1237.96 1549.27 L1237.96 1568.04 L1232.07 1568.04 L1232.07 1532.4 L1237.96 1532.4 L1237.96 1537.93 Q1239.81 1534.69 1242.77 1533.13 Q1245.73 1531.54 1249.96 1531.54 Q1250.56 1531.54 1251.3 1531.63 Q1252.03 1531.7 1252.92 1531.85 L1252.95 1537.87 Z" fill="#000000" fill-rule="evenodd" fill-opacity="1" /><path clip-path="url(#clip050)" d="M1293.63 1536.5 Q1288.92 1536.5 1286.18 1540.19 Q1283.44 1543.85 1283.44 1550.25 Q1283.44 1556.65 1286.15 1560.34 Q1288.88 1564 1293.63 1564 Q1298.31 1564 1301.04 1560.31 Q1303.78 1556.62 1303.78 1550.25 Q1303.78 1543.92 1301.04 1540.23 Q1298.31 1536.5 1293.63 1536.5 M1293.63 1531.54 Q1301.27 1531.54 1305.63 1536.5 Q1309.99 1541.47 1309.99 1550.25 Q1309.99 1559 1305.63 1564 Q1301.27 1568.97 1293.63 1568.97 Q1285.96 1568.97 1281.6 1564 Q1277.27 1559 1277.27 1550.25 Q1277.27 1541.47 1281.6 1536.5 Q1285.96 1531.54 1293.63 1531.54 Z" fill="#000000" fill-rule="evenodd" fill-opacity="1" /><path clip-path="url(#clip050)" d="M1337.74 1518.52 L1337.74 1523.39 L1332.14 1523.39 Q1328.99 1523.39 1327.75 1524.66 Q1326.54 1525.93 1326.54 1529.24 L1326.54 1532.4 L1336.18 1532.4 L1336.18 1536.95 L1326.54 1536.95 L1326.54 1568.04 L1320.65 1568.04 L1320.65 1536.95 L1315.05 1536.95 L1315.05 1532.4 L1320.65 1532.4 L1320.65 1529.91 Q1320.65 1523.96 1323.42 1521.26 Q1326.19 1518.52 1332.2 1518.52 L1337.74 1518.52 Z" fill="#000000" fill-rule="evenodd" fill-opacity="1" /><path clip-path="url(#clip050)" d="M1379.5 1526.86 L1370.78 1550.51 L1388.25 1550.51 L1379.5 1526.86 M1375.87 1520.52 L1383.16 1520.52 L1401.27 1568.04 L1394.59 1568.04 L1390.26 1555.85 L1368.84 1555.85 L1364.51 1568.04 L1357.73 1568.04 L1375.87 1520.52 Z" fill="#000000" fill-rule="evenodd" fill-opacity="1" /><path clip-path="url(#clip050)" d="M1412.6 1522.27 L1412.6 1532.4 L1424.67 1532.4 L1424.67 1536.95 L1412.6 1536.95 L1412.6 1556.3 Q1412.6 1560.66 1413.78 1561.9 Q1414.99 1563.14 1418.65 1563.14 L1424.67 1563.14 L1424.67 1568.04 L1418.65 1568.04 Q1411.87 1568.04 1409.29 1565.53 Q1406.71 1562.98 1406.71 1556.3 L1406.71 1536.95 L1402.42 1536.95 L1402.42 1532.4 L1406.71 1532.4 L1406.71 1522.27 L1412.6 1522.27 Z" fill="#000000" fill-rule="evenodd" fill-opacity="1" /><path clip-path="url(#clip050)" d="M1446.18 1536.5 Q1441.47 1536.5 1438.73 1540.19 Q1436 1543.85 1436 1550.25 Q1436 1556.65 1438.7 1560.34 Q1441.44 1564 1446.18 1564 Q1450.86 1564 1453.6 1560.31 Q1456.33 1556.62 1456.33 1550.25 Q1456.33 1543.92 1453.6 1540.23 Q1450.86 1536.5 1446.18 1536.5 M1446.18 1531.54 Q1453.82 1531.54 1458.18 1536.5 Q1462.54 1541.47 1462.54 1550.25 Q1462.54 1559 1458.18 1564 Q1453.82 1568.97 1446.18 1568.97 Q1438.51 1568.97 1434.15 1564 Q1429.82 1559 1429.82 1550.25 Q1429.82 1541.47 1434.15 1536.5 Q1438.51 1531.54 1446.18 1531.54 Z" fill="#000000" fill-rule="evenodd" fill-opacity="1" /><path clip-path="url(#clip050)" d="M1500 1539.24 Q1502.2 1535.29 1505.26 1533.41 Q1508.31 1531.54 1512.45 1531.54 Q1518.02 1531.54 1521.04 1535.45 Q1524.07 1539.33 1524.07 1546.53 L1524.07 1568.04 L1518.18 1568.04 L1518.18 1546.72 Q1518.18 1541.59 1516.36 1539.11 Q1514.55 1536.63 1510.83 1536.63 Q1506.27 1536.63 1503.63 1539.65 Q1500.99 1542.68 1500.99 1547.9 L1500.99 1568.04 L1495.1 1568.04 L1495.1 1546.72 Q1495.1 1541.56 1493.29 1539.11 Q1491.47 1536.63 1487.69 1536.63 Q1483.2 1536.63 1480.56 1539.68 Q1477.91 1542.71 1477.91 1547.9 L1477.91 1568.04 L1472.03 1568.04 L1472.03 1532.4 L1477.91 1532.4 L1477.91 1537.93 Q1479.92 1534.66 1482.72 1533.1 Q1485.52 1531.54 1489.37 1531.54 Q1493.26 1531.54 1495.96 1533.51 Q1498.7 1535.48 1500 1539.24 Z" fill="#000000" fill-rule="evenodd" fill-opacity="1" /><path clip-path="url(#clip050)" d="M1558.47 1533.45 L1558.47 1538.98 Q1555.99 1537.71 1553.32 1537.07 Q1550.64 1536.44 1547.78 1536.44 Q1543.42 1536.44 1541.22 1537.77 Q1539.06 1539.11 1539.06 1541.79 Q1539.06 1543.82 1540.62 1545 Q1542.18 1546.15 1546.89 1547.2 L1548.89 1547.64 Q1555.13 1548.98 1557.74 1551.43 Q1560.38 1553.85 1560.38 1558.21 Q1560.38 1563.17 1556.44 1566.07 Q1552.52 1568.97 1545.65 1568.97 Q1542.78 1568.97 1539.66 1568.39 Q1536.57 1567.85 1533.14 1566.74 L1533.14 1560.69 Q1536.38 1562.38 1539.53 1563.24 Q1542.69 1564.07 1545.77 1564.07 Q1549.91 1564.07 1552.14 1562.66 Q1554.37 1561.23 1554.37 1558.65 Q1554.37 1556.27 1552.74 1554.99 Q1551.15 1553.72 1545.71 1552.54 L1543.67 1552.07 Q1538.23 1550.92 1535.81 1548.56 Q1533.39 1546.18 1533.39 1542.04 Q1533.39 1537.01 1536.96 1534.27 Q1540.52 1531.54 1547.08 1531.54 Q1550.32 1531.54 1553.19 1532.01 Q1556.05 1532.49 1558.47 1533.45 Z" fill="#000000" fill-rule="evenodd" fill-opacity="1" /><polyline clip-path="url(#clip052)" style="stroke:#000000; stroke-linecap:butt; stroke-linejoin:round; stroke-width:2; stroke-opacity:0.1; fill:none" points="
  205.121,1386.9 2352.76,1386.9 
  "/>
<polyline clip-path="url(#clip052)" style="stroke:#000000; stroke-linecap:butt; stroke-linejoin:round; stroke-width:2; stroke-opacity:0.1; fill:none" points="
  205.121,1193.38 2352.76,1193.38 
  "/>
<polyline clip-path="url(#clip052)" style="stroke:#000000; stroke-linecap:butt; stroke-linejoin:round; stroke-width:2; stroke-opacity:0.1; fill:none" points="
  205.121,999.855 2352.76,999.855 
  "/>
<polyline clip-path="url(#clip052)" style="stroke:#000000; stroke-linecap:butt; stroke-linejoin:round; stroke-width:2; stroke-opacity:0.1; fill:none" points="
  205.121,806.331 2352.76,806.331 
  "/>
<polyline clip-path="url(#clip052)" style="stroke:#000000; stroke-linecap:butt; stroke-linejoin:round; stroke-width:2; stroke-opacity:0.1; fill:none" points="
  205.121,612.807 2352.76,612.807 
  "/>
<polyline clip-path="url(#clip052)" style="stroke:#000000; stroke-linecap:butt; stroke-linejoin:round; stroke-width:2; stroke-opacity:0.1; fill:none" points="
  205.121,419.282 2352.76,419.282 
  "/>
<polyline clip-path="url(#clip052)" style="stroke:#000000; stroke-linecap:butt; stroke-linejoin:round; stroke-width:2; stroke-opacity:0.1; fill:none" points="
  205.121,225.758 2352.76,225.758 
  "/>
<polyline clip-path="url(#clip050)" style="stroke:#000000; stroke-linecap:butt; stroke-linejoin:round; stroke-width:4; stroke-opacity:1; fill:none" points="
  205.121,1423.18 205.121,123.472 
  "/>
<polyline clip-path="url(#clip050)" style="stroke:#000000; stroke-linecap:butt; stroke-linejoin:round; stroke-width:4; stroke-opacity:1; fill:none" points="
  205.121,1386.9 224.019,1386.9 
  "/>
<polyline clip-path="url(#clip050)" style="stroke:#000000; stroke-linecap:butt; stroke-linejoin:round; stroke-width:4; stroke-opacity:1; fill:none" points="
  205.121,1193.38 224.019,1193.38 
  "/>
<polyline clip-path="url(#clip050)" style="stroke:#000000; stroke-linecap:butt; stroke-linejoin:round; stroke-width:4; stroke-opacity:1; fill:none" points="
  205.121,999.855 224.019,999.855 
  "/>
<polyline clip-path="url(#clip050)" style="stroke:#000000; stroke-linecap:butt; stroke-linejoin:round; stroke-width:4; stroke-opacity:1; fill:none" points="
  205.121,806.331 224.019,806.331 
  "/>
<polyline clip-path="url(#clip050)" style="stroke:#000000; stroke-linecap:butt; stroke-linejoin:round; stroke-width:4; stroke-opacity:1; fill:none" points="
  205.121,612.807 224.019,612.807 
  "/>
<polyline clip-path="url(#clip050)" style="stroke:#000000; stroke-linecap:butt; stroke-linejoin:round; stroke-width:4; stroke-opacity:1; fill:none" points="
  205.121,419.282 224.019,419.282 
  "/>
<polyline clip-path="url(#clip050)" style="stroke:#000000; stroke-linecap:butt; stroke-linejoin:round; stroke-width:4; stroke-opacity:1; fill:none" points="
  205.121,225.758 224.019,225.758 
  "/>
<path clip-path="url(#clip050)" d="M157.177 1372.7 Q153.566 1372.7 151.737 1376.27 Q149.931 1379.81 149.931 1386.94 Q149.931 1394.05 151.737 1397.61 Q153.566 1401.15 157.177 1401.15 Q160.811 1401.15 162.616 1397.61 Q164.445 1394.05 164.445 1386.94 Q164.445 1379.81 162.616 1376.27 Q160.811 1372.7 157.177 1372.7 M157.177 1369 Q162.987 1369 166.042 1373.61 Q169.121 1378.19 169.121 1386.94 Q169.121 1395.67 166.042 1400.27 Q162.987 1404.86 157.177 1404.86 Q151.366 1404.86 148.288 1400.27 Q145.232 1395.67 145.232 1386.94 Q145.232 1378.19 148.288 1373.61 Q151.366 1369 157.177 1369 Z" fill="#000000" fill-rule="evenodd" fill-opacity="1" /><path clip-path="url(#clip050)" d="M117.825 1206.72 L125.464 1206.72 L125.464 1180.36 L117.154 1182.03 L117.154 1177.77 L125.418 1176.1 L130.093 1176.1 L130.093 1206.72 L137.732 1206.72 L137.732 1210.66 L117.825 1210.66 L117.825 1206.72 Z" fill="#000000" fill-rule="evenodd" fill-opacity="1" /><path clip-path="url(#clip050)" d="M157.177 1179.18 Q153.566 1179.18 151.737 1182.74 Q149.931 1186.28 149.931 1193.41 Q149.931 1200.52 151.737 1204.09 Q153.566 1207.63 157.177 1207.63 Q160.811 1207.63 162.616 1204.09 Q164.445 1200.52 164.445 1193.41 Q164.445 1186.28 162.616 1182.74 Q160.811 1179.18 157.177 1179.18 M157.177 1175.47 Q162.987 1175.47 166.042 1180.08 Q169.121 1184.66 169.121 1193.41 Q169.121 1202.14 166.042 1206.75 Q162.987 1211.33 157.177 1211.33 Q151.366 1211.33 148.288 1206.75 Q145.232 1202.14 145.232 1193.41 Q145.232 1184.66 148.288 1180.08 Q151.366 1175.47 157.177 1175.47 Z" fill="#000000" fill-rule="evenodd" fill-opacity="1" /><path clip-path="url(#clip050)" d="M121.043 1013.2 L137.362 1013.2 L137.362 1017.14 L115.418 1017.14 L115.418 1013.2 Q118.08 1010.45 122.663 1005.82 Q127.269 1001.16 128.45 999.821 Q130.695 997.298 131.575 995.562 Q132.478 993.802 132.478 992.112 Q132.478 989.358 130.533 987.622 Q128.612 985.886 125.51 985.886 Q123.311 985.886 120.857 986.65 Q118.427 987.413 115.649 988.964 L115.649 984.242 Q118.473 983.108 120.927 982.529 Q123.38 981.95 125.418 981.95 Q130.788 981.95 133.982 984.636 Q137.177 987.321 137.177 991.812 Q137.177 993.941 136.367 995.862 Q135.579 997.761 133.473 1000.35 Q132.894 1001.02 129.792 1004.24 Q126.691 1007.44 121.043 1013.2 Z" fill="#000000" fill-rule="evenodd" fill-opacity="1" /><path clip-path="url(#clip050)" d="M157.177 985.654 Q153.566 985.654 151.737 989.219 Q149.931 992.761 149.931 999.89 Q149.931 1007 151.737 1010.56 Q153.566 1014.1 157.177 1014.1 Q160.811 1014.1 162.616 1010.56 Q164.445 1007 164.445 999.89 Q164.445 992.761 162.616 989.219 Q160.811 985.654 157.177 985.654 M157.177 981.95 Q162.987 981.95 166.042 986.557 Q169.121 991.14 169.121 999.89 Q169.121 1008.62 166.042 1013.22 Q162.987 1017.81 157.177 1017.81 Q151.366 1017.81 148.288 1013.22 Q145.232 1008.62 145.232 999.89 Q145.232 991.14 148.288 986.557 Q151.366 981.95 157.177 981.95 Z" fill="#000000" fill-rule="evenodd" fill-opacity="1" /><path clip-path="url(#clip050)" d="M131.181 804.977 Q134.538 805.695 136.413 807.963 Q138.311 810.232 138.311 813.565 Q138.311 818.681 134.792 821.482 Q131.274 824.282 124.793 824.282 Q122.617 824.282 120.302 823.843 Q118.01 823.426 115.556 822.569 L115.556 818.056 Q117.501 819.19 119.816 819.769 Q122.13 820.347 124.654 820.347 Q129.052 820.347 131.343 818.611 Q133.658 816.875 133.658 813.565 Q133.658 810.509 131.505 808.796 Q129.376 807.06 125.556 807.06 L121.529 807.06 L121.529 803.218 L125.742 803.218 Q129.191 803.218 131.019 801.852 Q132.848 800.463 132.848 797.871 Q132.848 795.209 130.95 793.796 Q129.075 792.361 125.556 792.361 Q123.635 792.361 121.436 792.778 Q119.237 793.195 116.598 794.074 L116.598 789.908 Q119.26 789.167 121.575 788.796 Q123.913 788.426 125.973 788.426 Q131.297 788.426 134.399 790.857 Q137.501 793.264 137.501 797.384 Q137.501 800.255 135.857 802.246 Q134.214 804.213 131.181 804.977 Z" fill="#000000" fill-rule="evenodd" fill-opacity="1" /><path clip-path="url(#clip050)" d="M157.177 792.13 Q153.566 792.13 151.737 795.695 Q149.931 799.236 149.931 806.366 Q149.931 813.472 151.737 817.037 Q153.566 820.579 157.177 820.579 Q160.811 820.579 162.616 817.037 Q164.445 813.472 164.445 806.366 Q164.445 799.236 162.616 795.695 Q160.811 792.13 157.177 792.13 M157.177 788.426 Q162.987 788.426 166.042 793.033 Q169.121 797.616 169.121 806.366 Q169.121 815.093 166.042 819.699 Q162.987 824.282 157.177 824.282 Q151.366 824.282 148.288 819.699 Q145.232 815.093 145.232 806.366 Q145.232 797.616 148.288 793.033 Q151.366 788.426 157.177 788.426 Z" fill="#000000" fill-rule="evenodd" fill-opacity="1" /><path clip-path="url(#clip050)" d="M129.862 599.601 L118.056 618.05 L129.862 618.05 L129.862 599.601 M128.635 595.527 L134.515 595.527 L134.515 618.05 L139.445 618.05 L139.445 621.939 L134.515 621.939 L134.515 630.087 L129.862 630.087 L129.862 621.939 L114.26 621.939 L114.26 617.425 L128.635 595.527 Z" fill="#000000" fill-rule="evenodd" fill-opacity="1" /><path clip-path="url(#clip050)" d="M157.177 598.605 Q153.566 598.605 151.737 602.17 Q149.931 605.712 149.931 612.841 Q149.931 619.948 151.737 623.513 Q153.566 627.054 157.177 627.054 Q160.811 627.054 162.616 623.513 Q164.445 619.948 164.445 612.841 Q164.445 605.712 162.616 602.17 Q160.811 598.605 157.177 598.605 M157.177 594.902 Q162.987 594.902 166.042 599.508 Q169.121 604.092 169.121 612.841 Q169.121 621.568 166.042 626.175 Q162.987 630.758 157.177 630.758 Q151.366 630.758 148.288 626.175 Q145.232 621.568 145.232 612.841 Q145.232 604.092 148.288 599.508 Q151.366 594.902 157.177 594.902 Z" fill="#000000" fill-rule="evenodd" fill-opacity="1" /><path clip-path="url(#clip050)" d="M117.061 402.002 L135.417 402.002 L135.417 405.938 L121.343 405.938 L121.343 414.41 Q122.362 414.063 123.38 413.9 Q124.399 413.715 125.418 413.715 Q131.205 413.715 134.584 416.887 Q137.964 420.058 137.964 425.474 Q137.964 431.053 134.492 434.155 Q131.019 437.234 124.7 437.234 Q122.524 437.234 120.255 436.863 Q118.01 436.493 115.603 435.752 L115.603 431.053 Q117.686 432.187 119.908 432.743 Q122.13 433.299 124.607 433.299 Q128.612 433.299 130.95 431.192 Q133.288 429.086 133.288 425.474 Q133.288 421.863 130.95 419.757 Q128.612 417.65 124.607 417.65 Q122.732 417.65 120.857 418.067 Q119.006 418.484 117.061 419.363 L117.061 402.002 Z" fill="#000000" fill-rule="evenodd" fill-opacity="1" /><path clip-path="url(#clip050)" d="M157.177 405.081 Q153.566 405.081 151.737 408.646 Q149.931 412.188 149.931 419.317 Q149.931 426.424 151.737 429.988 Q153.566 433.53 157.177 433.53 Q160.811 433.53 162.616 429.988 Q164.445 426.424 164.445 419.317 Q164.445 412.188 162.616 408.646 Q160.811 405.081 157.177 405.081 M157.177 401.377 Q162.987 401.377 166.042 405.984 Q169.121 410.567 169.121 419.317 Q169.121 428.044 166.042 432.65 Q162.987 437.234 157.177 437.234 Q151.366 437.234 148.288 432.65 Q145.232 428.044 145.232 419.317 Q145.232 410.567 148.288 405.984 Q151.366 401.377 157.177 401.377 Z" fill="#000000" fill-rule="evenodd" fill-opacity="1" /><path clip-path="url(#clip050)" d="M127.593 223.895 Q124.445 223.895 122.593 226.047 Q120.765 228.2 120.765 231.95 Q120.765 235.677 122.593 237.853 Q124.445 240.006 127.593 240.006 Q130.742 240.006 132.57 237.853 Q134.422 235.677 134.422 231.95 Q134.422 228.2 132.57 226.047 Q130.742 223.895 127.593 223.895 M136.876 209.242 L136.876 213.501 Q135.117 212.668 133.311 212.228 Q131.529 211.788 129.769 211.788 Q125.14 211.788 122.686 214.913 Q120.255 218.038 119.908 224.358 Q121.274 222.344 123.334 221.279 Q125.394 220.191 127.871 220.191 Q133.08 220.191 136.089 223.362 Q139.121 226.51 139.121 231.95 Q139.121 237.274 135.973 240.492 Q132.825 243.709 127.593 243.709 Q121.598 243.709 118.427 239.126 Q115.256 234.52 115.256 225.793 Q115.256 217.598 119.144 212.737 Q123.033 207.853 129.584 207.853 Q131.343 207.853 133.126 208.2 Q134.931 208.547 136.876 209.242 Z" fill="#000000" fill-rule="evenodd" fill-opacity="1" /><path clip-path="url(#clip050)" d="M157.177 211.557 Q153.566 211.557 151.737 215.122 Q149.931 218.663 149.931 225.793 Q149.931 232.899 151.737 236.464 Q153.566 240.006 157.177 240.006 Q160.811 240.006 162.616 236.464 Q164.445 232.899 164.445 225.793 Q164.445 218.663 162.616 215.122 Q160.811 211.557 157.177 211.557 M157.177 207.853 Q162.987 207.853 166.042 212.459 Q169.121 217.043 169.121 225.793 Q169.121 234.52 166.042 239.126 Q162.987 243.709 157.177 243.709 Q151.366 243.709 148.288 239.126 Q145.232 234.52 145.232 225.793 Q145.232 217.043 148.288 212.459 Q151.366 207.853 157.177 207.853 Z" fill="#000000" fill-rule="evenodd" fill-opacity="1" /><path clip-path="url(#clip050)" d="M16.4842 1167.16 L16.4842 1157.58 L48.8219 1145.45 L16.4842 1133.26 L16.4842 1123.68 L64.0042 1123.68 L64.0042 1129.95 L22.277 1129.95 L54.8694 1142.2 L54.8694 1148.66 L22.277 1160.92 L64.0042 1160.92 L64.0042 1167.16 L16.4842 1167.16 Z" fill="#000000" fill-rule="evenodd" fill-opacity="1" /><path clip-path="url(#clip050)" d="M44.7161 1080.68 L47.5806 1080.68 L47.5806 1107.61 Q53.6281 1107.22 56.8109 1103.98 Q59.9619 1100.7 59.9619 1094.87 Q59.9619 1091.5 59.1344 1088.35 Q58.3069 1085.17 56.6518 1082.05 L62.1899 1082.05 Q63.5267 1085.2 64.227 1088.51 Q64.9272 1091.82 64.9272 1095.22 Q64.9272 1103.75 59.9619 1108.75 Q54.9967 1113.72 46.5303 1113.72 Q37.7774 1113.72 32.6531 1109.01 Q27.4968 1104.26 27.4968 1096.24 Q27.4968 1089.05 32.1438 1084.88 Q36.7589 1080.68 44.7161 1080.68 M42.9973 1086.53 Q38.1912 1086.6 35.3266 1089.24 Q32.4621 1091.85 32.4621 1096.18 Q32.4621 1101.08 35.2312 1104.04 Q38.0002 1106.97 43.0292 1107.41 L42.9973 1086.53 Z" fill="#000000" fill-rule="evenodd" fill-opacity="1" /><path clip-path="url(#clip050)" d="M33.7671 1047.61 L14.479 1047.61 L14.479 1041.75 L64.0042 1041.75 L64.0042 1047.61 L58.657 1047.61 Q61.8398 1049.45 63.3994 1052.29 Q64.9272 1055.09 64.9272 1059.03 Q64.9272 1065.5 59.771 1069.57 Q54.6147 1073.61 46.212 1073.61 Q37.8093 1073.61 32.6531 1069.57 Q27.4968 1065.5 27.4968 1059.03 Q27.4968 1055.09 29.0564 1052.29 Q30.5842 1049.45 33.7671 1047.61 M46.212 1067.56 Q52.6732 1067.56 56.3653 1064.92 Q60.0256 1062.25 60.0256 1057.6 Q60.0256 1052.96 56.3653 1050.28 Q52.6732 1047.61 46.212 1047.61 Q39.7508 1047.61 36.0905 1050.28 Q32.3984 1052.96 32.3984 1057.6 Q32.3984 1062.25 36.0905 1064.92 Q39.7508 1067.56 46.212 1067.56 Z" fill="#000000" fill-rule="evenodd" fill-opacity="1" /><path clip-path="url(#clip050)" d="M28.3562 1029.69 L28.3562 1023.83 L64.0042 1023.83 L64.0042 1029.69 L28.3562 1029.69 M14.479 1029.69 L14.479 1023.83 L21.895 1023.83 L21.895 1029.69 L14.479 1029.69 Z" fill="#000000" fill-rule="evenodd" fill-opacity="1" /><path clip-path="url(#clip050)" d="M46.0847 995.378 Q46.0847 1002.48 47.7079 1005.21 Q49.3312 1007.95 53.2461 1007.95 Q56.3653 1007.95 58.2114 1005.91 Q60.0256 1003.84 60.0256 1000.31 Q60.0256 995.441 56.5881 992.513 Q53.1188 989.553 47.3897 989.553 L46.0847 989.553 L46.0847 995.378 M43.6657 983.697 L64.0042 983.697 L64.0042 989.553 L58.5933 989.553 Q61.8398 991.558 63.3994 994.55 Q64.9272 997.542 64.9272 1001.87 Q64.9272 1007.35 61.8716 1010.59 Q58.7843 1013.81 53.6281 1013.81 Q47.6125 1013.81 44.5569 1009.8 Q41.5014 1005.75 41.5014 997.765 L41.5014 989.553 L40.9285 989.553 Q36.8862 989.553 34.6901 992.227 Q32.4621 994.868 32.4621 999.675 Q32.4621 1002.73 33.1941 1005.63 Q33.9262 1008.52 35.3903 1011.2 L29.9795 1011.2 Q28.7381 1007.98 28.1334 1004.96 Q27.4968 1001.93 27.4968 999.07 Q27.4968 991.336 31.5072 987.516 Q35.5176 983.697 43.6657 983.697 Z" fill="#000000" fill-rule="evenodd" fill-opacity="1" /><path clip-path="url(#clip050)" d="M42.4881 942.001 L64.0042 942.001 L64.0042 947.858 L42.679 947.858 Q37.6183 947.858 35.1038 949.831 Q32.5894 951.804 32.5894 955.751 Q32.5894 960.494 35.6131 963.231 Q38.6368 965.968 43.8567 965.968 L64.0042 965.968 L64.0042 971.856 L28.3562 971.856 L28.3562 965.968 L33.8944 965.968 Q30.6797 963.867 29.0883 961.035 Q27.4968 958.17 27.4968 954.446 Q27.4968 948.303 31.3163 945.152 Q35.1038 942.001 42.4881 942.001 Z" fill="#000000" fill-rule="evenodd" fill-opacity="1" /><path clip-path="url(#clip050)" d="M16.4842 915.934 L16.4842 875.734 L21.895 875.734 L21.895 892.603 L64.0042 892.603 L64.0042 899.065 L21.895 899.065 L21.895 915.934 L16.4842 915.934 Z" fill="#000000" fill-rule="evenodd" fill-opacity="1" /><path clip-path="url(#clip050)" d="M28.3562 871.788 L28.3562 865.931 L64.0042 865.931 L64.0042 871.788 L28.3562 871.788 M14.479 871.788 L14.479 865.931 L21.895 865.931 L21.895 871.788 L14.479 871.788 Z" fill="#000000" fill-rule="evenodd" fill-opacity="1" /><path clip-path="url(#clip050)" d="M35.1993 825.923 Q31.2526 823.726 29.3747 820.671 Q27.4968 817.615 27.4968 813.478 Q27.4968 807.908 31.4117 804.884 Q35.2948 801.86 42.4881 801.86 L64.0042 801.86 L64.0042 807.749 L42.679 807.749 Q37.5546 807.749 35.072 809.563 Q32.5894 811.377 32.5894 815.101 Q32.5894 819.652 35.6131 822.294 Q38.6368 824.936 43.8567 824.936 L64.0042 824.936 L64.0042 830.824 L42.679 830.824 Q37.5228 830.824 35.072 832.638 Q32.5894 834.453 32.5894 838.24 Q32.5894 842.728 35.6449 845.37 Q38.6686 848.012 43.8567 848.012 L64.0042 848.012 L64.0042 853.9 L28.3562 853.9 L28.3562 848.012 L33.8944 848.012 Q30.616 846.006 29.0564 843.206 Q27.4968 840.405 27.4968 836.553 Q27.4968 832.67 29.4702 829.965 Q31.4436 827.228 35.1993 825.923 Z" fill="#000000" fill-rule="evenodd" fill-opacity="1" /><path clip-path="url(#clip050)" d="M44.7161 759.687 L47.5806 759.687 L47.5806 786.614 Q53.6281 786.232 56.8109 782.986 Q59.9619 779.708 59.9619 773.883 Q59.9619 770.509 59.1344 767.358 Q58.3069 764.175 56.6518 761.056 L62.1899 761.056 Q63.5267 764.207 64.227 767.517 Q64.9272 770.827 64.9272 774.233 Q64.9272 782.763 59.9619 787.76 Q54.9967 792.725 46.5303 792.725 Q37.7774 792.725 32.6531 788.015 Q27.4968 783.272 27.4968 775.252 Q27.4968 768.058 32.1438 763.889 Q36.7589 759.687 44.7161 759.687 M42.9973 765.544 Q38.1912 765.608 35.3266 768.249 Q32.4621 770.859 32.4621 775.188 Q32.4621 780.09 35.2312 783.05 Q38.0002 785.978 43.0292 786.423 L42.9973 765.544 Z" fill="#000000" fill-rule="evenodd" fill-opacity="1" /><path clip-path="url(#clip050)" d="M16.4842 729.1 L16.4842 699.054 L21.895 699.054 L21.895 722.671 L35.9632 722.671 L35.9632 700.041 L41.3741 700.041 L41.3741 722.671 L58.5933 722.671 L58.5933 698.481 L64.0042 698.481 L64.0042 729.1 L16.4842 729.1 Z" fill="#000000" fill-rule="evenodd" fill-opacity="1" /><path clip-path="url(#clip050)" d="M14.479 688.169 L14.479 682.312 L64.0042 682.312 L64.0042 688.169 L14.479 688.169 Z" fill="#000000" fill-rule="evenodd" fill-opacity="1" /><path clip-path="url(#clip050)" d="M46.0847 653.858 Q46.0847 660.955 47.7079 663.693 Q49.3312 666.43 53.2461 666.43 Q56.3653 666.43 58.2114 664.393 Q60.0256 662.324 60.0256 658.791 Q60.0256 653.921 56.5881 650.993 Q53.1188 648.033 47.3897 648.033 L46.0847 648.033 L46.0847 653.858 M43.6657 642.177 L64.0042 642.177 L64.0042 648.033 L58.5933 648.033 Q61.8398 650.038 63.3994 653.03 Q64.9272 656.022 64.9272 660.351 Q64.9272 665.825 61.8716 669.072 Q58.7843 672.286 53.6281 672.286 Q47.6125 672.286 44.5569 668.276 Q41.5014 664.234 41.5014 656.245 L41.5014 648.033 L40.9285 648.033 Q36.8862 648.033 34.6901 650.707 Q32.4621 653.348 32.4621 658.154 Q32.4621 661.21 33.1941 664.106 Q33.9262 667.003 35.3903 669.676 L29.9795 669.676 Q28.7381 666.462 28.1334 663.438 Q27.4968 660.414 27.4968 657.55 Q27.4968 649.815 31.5072 645.996 Q35.5176 642.177 43.6657 642.177 Z" fill="#000000" fill-rule="evenodd" fill-opacity="1" /><path clip-path="url(#clip050)" d="M58.657 624.448 L77.5631 624.448 L77.5631 630.336 L28.3562 630.336 L28.3562 624.448 L33.7671 624.448 Q30.5842 622.602 29.0564 619.801 Q27.4968 616.968 27.4968 613.053 Q27.4968 606.56 32.6531 602.518 Q37.8093 598.444 46.212 598.444 Q54.6147 598.444 59.771 602.518 Q64.9272 606.56 64.9272 613.053 Q64.9272 616.968 63.3994 619.801 Q61.8398 622.602 58.657 624.448 M46.212 604.523 Q39.7508 604.523 36.0905 607.197 Q32.3984 609.839 32.3984 614.486 Q32.3984 619.133 36.0905 621.806 Q39.7508 624.448 46.212 624.448 Q52.6732 624.448 56.3653 621.806 Q60.0256 619.133 60.0256 614.486 Q60.0256 609.839 56.3653 607.197 Q52.6732 604.523 46.212 604.523 Z" fill="#000000" fill-rule="evenodd" fill-opacity="1" /><path clip-path="url(#clip050)" d="M29.4065 566.011 L34.9447 566.011 Q33.6716 568.493 33.035 571.167 Q32.3984 573.841 32.3984 576.705 Q32.3984 581.066 33.7352 583.262 Q35.072 585.426 37.7456 585.426 Q39.7826 585.426 40.9603 583.867 Q42.1061 582.307 43.1565 577.596 L43.6021 575.591 Q44.9389 569.353 47.3897 566.743 Q49.8086 564.101 54.1691 564.101 Q59.1344 564.101 62.0308 568.048 Q64.9272 571.963 64.9272 578.838 Q64.9272 581.702 64.3543 584.821 Q63.8132 587.909 62.6992 591.346 L56.6518 591.346 Q58.3387 588.1 59.198 584.949 Q60.0256 581.798 60.0256 578.71 Q60.0256 574.573 58.6251 572.345 Q57.1929 570.117 54.6147 570.117 Q52.2276 570.117 50.9545 571.74 Q49.6813 573.331 48.5037 578.774 L48.0262 580.811 Q46.8804 586.254 44.5251 588.673 Q42.138 591.092 38.0002 591.092 Q32.9713 591.092 30.2341 587.527 Q27.4968 583.962 27.4968 577.405 Q27.4968 574.159 27.9743 571.294 Q28.4517 568.43 29.4065 566.011 Z" fill="#000000" fill-rule="evenodd" fill-opacity="1" /><path clip-path="url(#clip050)" d="M44.7161 524.284 L47.5806 524.284 L47.5806 551.211 Q53.6281 550.829 56.8109 547.582 Q59.9619 544.304 59.9619 538.479 Q59.9619 535.105 59.1344 531.954 Q58.3069 528.771 56.6518 525.652 L62.1899 525.652 Q63.5267 528.803 64.227 532.113 Q64.9272 535.424 64.9272 538.829 Q64.9272 547.359 59.9619 552.356 Q54.9967 557.322 46.5303 557.322 Q37.7774 557.322 32.6531 552.611 Q27.4968 547.869 27.4968 539.848 Q27.4968 532.655 32.1438 528.485 Q36.7589 524.284 44.7161 524.284 M42.9973 530.14 Q38.1912 530.204 35.3266 532.846 Q32.4621 535.455 32.4621 539.784 Q32.4621 544.686 35.2312 547.646 Q38.0002 550.574 43.0292 551.02 L42.9973 530.14 Z" fill="#000000" fill-rule="evenodd" fill-opacity="1" /><path clip-path="url(#clip050)" d="M33.7671 491.214 L14.479 491.214 L14.479 485.357 L64.0042 485.357 L64.0042 491.214 L58.657 491.214 Q61.8398 493.06 63.3994 495.893 Q64.9272 498.693 64.9272 502.64 Q64.9272 509.101 59.771 513.175 Q54.6147 517.218 46.212 517.218 Q37.8093 517.218 32.6531 513.175 Q27.4968 509.101 27.4968 502.64 Q27.4968 498.693 29.0564 495.893 Q30.5842 493.06 33.7671 491.214 M46.212 511.17 Q52.6732 511.17 56.3653 508.529 Q60.0256 505.855 60.0256 501.208 Q60.0256 496.561 56.3653 493.887 Q52.6732 491.214 46.212 491.214 Q39.7508 491.214 36.0905 493.887 Q32.3984 496.561 32.3984 501.208 Q32.3984 505.855 36.0905 508.529 Q39.7508 511.17 46.212 511.17 Z" fill="#000000" fill-rule="evenodd" fill-opacity="1" /><path clip-path="url(#clip050)" d="M14.5426 438.506 Q21.8632 442.771 29.0246 444.84 Q36.186 446.908 43.5384 446.908 Q50.8908 446.908 58.1159 444.84 Q65.3091 442.739 72.5979 438.506 L72.5979 443.598 Q65.1182 448.373 57.8931 450.76 Q50.668 453.115 43.5384 453.115 Q36.4406 453.115 29.2474 450.76 Q22.0542 448.404 14.5426 443.598 L14.5426 438.506 Z" fill="#000000" fill-rule="evenodd" fill-opacity="1" /><path clip-path="url(#clip050)" d="M29.4065 404.417 L34.9447 404.417 Q33.6716 406.9 33.035 409.574 Q32.3984 412.247 32.3984 415.112 Q32.3984 419.472 33.7352 421.668 Q35.072 423.833 37.7456 423.833 Q39.7826 423.833 40.9603 422.273 Q42.1061 420.714 43.1565 416.003 L43.6021 413.998 Q44.9389 407.759 47.3897 405.149 Q49.8086 402.508 54.1691 402.508 Q59.1344 402.508 62.0308 406.454 Q64.9272 410.369 64.9272 417.244 Q64.9272 420.109 64.3543 423.228 Q63.8132 426.315 62.6992 429.753 L56.6518 429.753 Q58.3387 426.506 59.198 423.355 Q60.0256 420.204 60.0256 417.117 Q60.0256 412.979 58.6251 410.751 Q57.1929 408.523 54.6147 408.523 Q52.2276 408.523 50.9545 410.147 Q49.6813 411.738 48.5037 417.181 L48.0262 419.218 Q46.8804 424.66 44.5251 427.079 Q42.138 429.498 38.0002 429.498 Q32.9713 429.498 30.2341 425.933 Q27.4968 422.369 27.4968 415.812 Q27.4968 412.565 27.9743 409.701 Q28.4517 406.836 29.4065 404.417 Z" fill="#000000" fill-rule="evenodd" fill-opacity="1" /><path clip-path="url(#clip050)" d="M14.5426 394.105 L14.5426 389.012 Q22.0542 384.238 29.2474 381.883 Q36.4406 379.496 43.5384 379.496 Q50.668 379.496 57.8931 381.883 Q65.1182 384.238 72.5979 389.012 L72.5979 394.105 Q65.3091 389.872 58.1159 387.803 Q50.8908 385.702 43.5384 385.702 Q36.186 385.702 29.0246 387.803 Q21.8632 389.872 14.5426 394.105 Z" fill="#000000" fill-rule="evenodd" fill-opacity="1" /><path clip-path="url(#clip050)" d="M442.123 14.0809 L442.123 22.0612 Q437.464 19.8332 433.332 18.7395 Q429.201 17.6457 425.352 17.6457 Q418.668 17.6457 415.022 20.2383 Q411.417 22.8309 411.417 27.611 Q411.417 31.6214 413.807 33.6873 Q416.238 35.7128 422.962 36.9686 L427.904 37.9813 Q437.059 39.7232 441.394 44.1387 Q445.769 48.5136 445.769 55.8863 Q445.769 64.6767 439.854 69.2137 Q433.981 73.7508 422.598 73.7508 Q418.304 73.7508 413.442 72.7785 Q408.622 71.8063 403.437 69.9024 L403.437 61.4765 Q408.419 64.2716 413.199 65.6895 Q417.98 67.1073 422.598 67.1073 Q429.606 67.1073 433.413 64.3527 Q437.221 61.598 437.221 56.4939 Q437.221 52.0379 434.467 49.5264 Q431.753 47.0148 425.514 45.759 L420.532 44.7868 Q411.377 42.9639 407.285 39.075 Q403.194 35.1862 403.194 28.2591 Q403.194 20.2383 408.824 15.6203 Q414.496 11.0023 424.42 11.0023 Q428.674 11.0023 433.089 11.7719 Q437.505 12.5416 442.123 14.0809 Z" fill="#000000" fill-rule="evenodd" fill-opacity="1" /><path clip-path="url(#clip050)" d="M490.855 28.9478 L490.855 35.9153 Q487.696 34.1734 484.495 33.3227 Q481.336 32.4315 478.095 32.4315 Q470.844 32.4315 466.833 37.0496 Q462.823 41.6271 462.823 49.9314 Q462.823 58.2358 466.833 62.8538 Q470.844 67.4314 478.095 67.4314 Q481.336 67.4314 484.495 66.5807 Q487.696 65.6895 490.855 63.9476 L490.855 70.8341 Q487.736 72.2924 484.374 73.0216 Q481.052 73.7508 477.285 73.7508 Q467.036 73.7508 461 67.3098 Q454.964 60.8689 454.964 49.9314 Q454.964 38.832 461.041 32.472 Q467.157 26.1121 477.771 26.1121 Q481.214 26.1121 484.495 26.8413 Q487.777 27.5299 490.855 28.9478 Z" fill="#000000" fill-rule="evenodd" fill-opacity="1" /><path clip-path="url(#clip050)" d="M524.437 49.7694 Q515.404 49.7694 511.92 51.8354 Q508.436 53.9013 508.436 58.8839 Q508.436 62.8538 511.029 65.2034 Q513.662 67.5124 518.158 67.5124 Q524.356 67.5124 528.083 63.1374 Q531.85 58.7219 531.85 51.4303 L531.85 49.7694 L524.437 49.7694 M539.304 46.6907 L539.304 72.576 L531.85 72.576 L531.85 65.6895 Q529.298 69.8214 525.491 71.8063 Q521.683 73.7508 516.173 73.7508 Q509.206 73.7508 505.074 69.8619 Q500.983 65.9325 500.983 59.3701 Q500.983 51.7138 506.087 47.825 Q511.231 43.9361 521.399 43.9361 L531.85 43.9361 L531.85 43.2069 Q531.85 38.0623 528.448 35.2672 Q525.085 32.4315 518.969 32.4315 Q515.08 32.4315 511.393 33.3632 Q507.707 34.295 504.304 36.1584 L504.304 29.2718 Q508.396 27.692 512.244 26.9223 Q516.092 26.1121 519.738 26.1121 Q529.582 26.1121 534.443 31.2163 Q539.304 36.3204 539.304 46.6907 Z" fill="#000000" fill-rule="evenodd" fill-opacity="1" /><path clip-path="url(#clip050)" d="M554.657 9.54393 L562.111 9.54393 L562.111 72.576 L554.657 72.576 L554.657 9.54393 Z" fill="#000000" fill-rule="evenodd" fill-opacity="1" /><path clip-path="url(#clip050)" d="M577.707 27.2059 L585.16 27.2059 L585.16 72.576 L577.707 72.576 L577.707 27.2059 M577.707 9.54393 L585.16 9.54393 L585.16 18.9825 L577.707 18.9825 L577.707 9.54393 Z" fill="#000000" fill-rule="evenodd" fill-opacity="1" /><path clip-path="url(#clip050)" d="M638.47 45.1919 L638.47 72.576 L631.017 72.576 L631.017 45.4349 Q631.017 38.994 628.505 35.7938 Q625.993 32.5936 620.97 32.5936 Q614.934 32.5936 611.451 36.4419 Q607.967 40.2903 607.967 46.9338 L607.967 72.576 L600.473 72.576 L600.473 27.2059 L607.967 27.2059 L607.967 34.2544 Q610.641 30.163 614.246 28.1376 Q617.892 26.1121 622.631 26.1121 Q630.449 26.1121 634.46 30.9732 Q638.47 35.7938 638.47 45.1919 Z" fill="#000000" fill-rule="evenodd" fill-opacity="1" /><path clip-path="url(#clip050)" d="M683.192 49.3643 Q683.192 41.2625 679.83 36.8065 Q676.508 32.3505 670.472 32.3505 Q664.477 32.3505 661.115 36.8065 Q657.793 41.2625 657.793 49.3643 Q657.793 57.4256 661.115 61.8816 Q664.477 66.3376 670.472 66.3376 Q676.508 66.3376 679.83 61.8816 Q683.192 57.4256 683.192 49.3643 M690.646 66.9452 Q690.646 78.5308 685.501 84.1616 Q680.357 89.8329 669.743 89.8329 Q665.814 89.8329 662.33 89.2252 Q658.846 88.6581 655.565 87.4428 L655.565 80.1917 Q658.846 81.9741 662.046 82.8248 Q665.247 83.6755 668.568 83.6755 Q675.901 83.6755 679.546 79.8271 Q683.192 76.0193 683.192 68.282 L683.192 64.5957 Q680.883 68.6061 677.278 70.5911 Q673.673 72.576 668.649 72.576 Q660.305 72.576 655.2 66.2161 Q650.096 59.8562 650.096 49.3643 Q650.096 38.832 655.2 32.472 Q660.305 26.1121 668.649 26.1121 Q673.673 26.1121 677.278 28.0971 Q680.883 30.082 683.192 34.0924 L683.192 27.2059 L690.646 27.2059 L690.646 66.9452 Z" fill="#000000" fill-rule="evenodd" fill-opacity="1" /><path clip-path="url(#clip050)" d="M749.951 32.4315 Q743.956 32.4315 740.472 37.1306 Q736.988 41.7891 736.988 49.9314 Q736.988 58.0738 740.431 62.7728 Q743.915 67.4314 749.951 67.4314 Q755.906 67.4314 759.39 62.7323 Q762.873 58.0333 762.873 49.9314 Q762.873 41.8701 759.39 37.1711 Q755.906 32.4315 749.951 32.4315 M749.951 26.1121 Q759.673 26.1121 765.223 32.4315 Q770.773 38.7509 770.773 49.9314 Q770.773 61.0714 765.223 67.4314 Q759.673 73.7508 749.951 73.7508 Q740.188 73.7508 734.639 67.4314 Q729.129 61.0714 729.129 49.9314 Q729.129 38.7509 734.639 32.4315 Q740.188 26.1121 749.951 26.1121 Z" fill="#000000" fill-rule="evenodd" fill-opacity="1" /><path clip-path="url(#clip050)" d="M806.097 9.54393 L806.097 15.7418 L798.967 15.7418 Q794.957 15.7418 793.377 17.3622 Q791.837 18.9825 791.837 23.1955 L791.837 27.2059 L804.112 27.2059 L804.112 32.9987 L791.837 32.9987 L791.837 72.576 L784.343 72.576 L784.343 32.9987 L777.214 32.9987 L777.214 27.2059 L784.343 27.2059 L784.343 24.0462 Q784.343 16.471 787.868 13.0277 Q791.392 9.54393 799.048 9.54393 L806.097 9.54393 Z" fill="#000000" fill-rule="evenodd" fill-opacity="1" /><path clip-path="url(#clip050)" d="M877.514 48.0275 L877.514 51.6733 L843.243 51.6733 Q843.73 59.3701 847.861 63.421 Q852.034 67.4314 859.447 67.4314 Q863.741 67.4314 867.751 66.3781 Q871.802 65.3249 875.772 63.2184 L875.772 70.267 Q871.762 71.9684 867.549 72.8596 Q863.336 73.7508 859.001 73.7508 Q848.145 73.7508 841.785 67.4314 Q835.466 61.1119 835.466 50.3365 Q835.466 39.1965 841.461 32.6746 Q847.497 26.1121 857.705 26.1121 Q866.86 26.1121 872.167 32.0264 Q877.514 37.9003 877.514 48.0275 M870.06 45.84 Q869.979 39.7232 866.617 36.0774 Q863.295 32.4315 857.786 32.4315 Q851.548 32.4315 847.78 35.9558 Q844.054 39.4801 843.486 45.8805 L870.06 45.84 Z" fill="#000000" fill-rule="evenodd" fill-opacity="1" /><path clip-path="url(#clip050)" d="M927.462 45.1919 L927.462 72.576 L920.008 72.576 L920.008 45.4349 Q920.008 38.994 917.497 35.7938 Q914.985 32.5936 909.962 32.5936 Q903.926 32.5936 900.442 36.4419 Q896.958 40.2903 896.958 46.9338 L896.958 72.576 L889.464 72.576 L889.464 27.2059 L896.958 27.2059 L896.958 34.2544 Q899.632 30.163 903.237 28.1376 Q906.883 26.1121 911.623 26.1121 Q919.441 26.1121 923.451 30.9732 Q927.462 35.7938 927.462 45.1919 Z" fill="#000000" fill-rule="evenodd" fill-opacity="1" /><path clip-path="url(#clip050)" d="M981.136 48.0275 L981.136 51.6733 L946.866 51.6733 Q947.352 59.3701 951.484 63.421 Q955.656 67.4314 963.069 67.4314 Q967.363 67.4314 971.374 66.3781 Q975.424 65.3249 979.394 63.2184 L979.394 70.267 Q975.384 71.9684 971.171 72.8596 Q966.958 73.7508 962.624 73.7508 Q951.767 73.7508 945.407 67.4314 Q939.088 61.1119 939.088 50.3365 Q939.088 39.1965 945.083 32.6746 Q951.119 26.1121 961.327 26.1121 Q970.482 26.1121 975.789 32.0264 Q981.136 37.9003 981.136 48.0275 M973.683 45.84 Q973.602 39.7232 970.239 36.0774 Q966.918 32.4315 961.408 32.4315 Q955.17 32.4315 951.403 35.9558 Q947.676 39.4801 947.109 45.8805 L973.683 45.84 Z" fill="#000000" fill-rule="evenodd" fill-opacity="1" /><path clip-path="url(#clip050)" d="M1019.66 34.1734 Q1018.4 33.4443 1016.91 33.1202 Q1015.45 32.7556 1013.66 32.7556 Q1007.35 32.7556 1003.94 36.8875 Q1000.58 40.9789 1000.58 48.6757 L1000.58 72.576 L993.086 72.576 L993.086 27.2059 L1000.58 27.2059 L1000.58 34.2544 Q1002.93 30.1225 1006.7 28.1376 Q1010.46 26.1121 1015.85 26.1121 Q1016.62 26.1121 1017.55 26.2337 Q1018.49 26.3147 1019.62 26.5172 L1019.66 34.1734 Z" fill="#000000" fill-rule="evenodd" fill-opacity="1" /><path clip-path="url(#clip050)" d="M1055.88 49.3643 Q1055.88 41.2625 1052.51 36.8065 Q1049.19 32.3505 1043.16 32.3505 Q1037.16 32.3505 1033.8 36.8065 Q1030.48 41.2625 1030.48 49.3643 Q1030.48 57.4256 1033.8 61.8816 Q1037.16 66.3376 1043.16 66.3376 Q1049.19 66.3376 1052.51 61.8816 Q1055.88 57.4256 1055.88 49.3643 M1063.33 66.9452 Q1063.33 78.5308 1058.18 84.1616 Q1053.04 89.8329 1042.43 89.8329 Q1038.5 89.8329 1035.01 89.2252 Q1031.53 88.6581 1028.25 87.4428 L1028.25 80.1917 Q1031.53 81.9741 1034.73 82.8248 Q1037.93 83.6755 1041.25 83.6755 Q1048.58 83.6755 1052.23 79.8271 Q1055.88 76.0193 1055.88 68.282 L1055.88 64.5957 Q1053.57 68.6061 1049.96 70.5911 Q1046.36 72.576 1041.33 72.576 Q1032.99 72.576 1027.88 66.2161 Q1022.78 59.8562 1022.78 49.3643 Q1022.78 38.832 1027.88 32.472 Q1032.99 26.1121 1041.33 26.1121 Q1046.36 26.1121 1049.96 28.0971 Q1053.57 30.082 1055.88 34.0924 L1055.88 27.2059 L1063.33 27.2059 L1063.33 66.9452 Z" fill="#000000" fill-rule="evenodd" fill-opacity="1" /><path clip-path="url(#clip050)" d="M1097.56 76.7889 Q1094.4 84.8907 1091.4 87.3618 Q1088.4 89.8329 1083.38 89.8329 L1077.43 89.8329 L1077.43 83.5945 L1081.8 83.5945 Q1084.88 83.5945 1086.58 82.1361 Q1088.28 80.6778 1090.35 75.2496 L1091.69 71.8468 L1073.33 27.2059 L1081.23 27.2059 L1095.41 62.6918 L1109.59 27.2059 L1117.49 27.2059 L1097.56 76.7889 Z" fill="#000000" fill-rule="evenodd" fill-opacity="1" /><path clip-path="url(#clip050)" d="M1162.25 86.3491 L1162.25 92.1419 L1119.15 92.1419 L1119.15 86.3491 L1162.25 86.3491 Z" fill="#000000" fill-rule="evenodd" fill-opacity="1" /><path clip-path="url(#clip050)" d="M1189.88 49.7694 Q1180.85 49.7694 1177.36 51.8354 Q1173.88 53.9013 1173.88 58.8839 Q1173.88 62.8538 1176.47 65.2034 Q1179.1 67.5124 1183.6 67.5124 Q1189.8 67.5124 1193.53 63.1374 Q1197.29 58.7219 1197.29 51.4303 L1197.29 49.7694 L1189.88 49.7694 M1204.75 46.6907 L1204.75 72.576 L1197.29 72.576 L1197.29 65.6895 Q1194.74 69.8214 1190.93 71.8063 Q1187.12 73.7508 1181.62 73.7508 Q1174.65 73.7508 1170.52 69.8619 Q1166.42 65.9325 1166.42 59.3701 Q1166.42 51.7138 1171.53 47.825 Q1176.67 43.9361 1186.84 43.9361 L1197.29 43.9361 L1197.29 43.2069 Q1197.29 38.0623 1193.89 35.2672 Q1190.53 32.4315 1184.41 32.4315 Q1180.52 32.4315 1176.84 33.3632 Q1173.15 34.295 1169.75 36.1584 L1169.75 29.2718 Q1173.84 27.692 1177.69 26.9223 Q1181.53 26.1121 1185.18 26.1121 Q1195.02 26.1121 1199.89 31.2163 Q1204.75 36.3204 1204.75 46.6907 Z" fill="#000000" fill-rule="evenodd" fill-opacity="1" /><path clip-path="url(#clip050)" d="M1257.81 45.1919 L1257.81 72.576 L1250.36 72.576 L1250.36 45.4349 Q1250.36 38.994 1247.85 35.7938 Q1245.34 32.5936 1240.31 32.5936 Q1234.28 32.5936 1230.79 36.4419 Q1227.31 40.2903 1227.31 46.9338 L1227.31 72.576 L1219.82 72.576 L1219.82 27.2059 L1227.31 27.2059 L1227.31 34.2544 Q1229.98 30.163 1233.59 28.1376 Q1237.23 26.1121 1241.97 26.1121 Q1249.79 26.1121 1253.8 30.9732 Q1257.81 35.7938 1257.81 45.1919 Z" fill="#000000" fill-rule="evenodd" fill-opacity="1" /><path clip-path="url(#clip050)" d="M1302.53 34.0924 L1302.53 9.54393 L1309.99 9.54393 L1309.99 72.576 L1302.53 72.576 L1302.53 65.7705 Q1300.19 69.8214 1296.58 71.8063 Q1293.02 73.7508 1287.99 73.7508 Q1279.77 73.7508 1274.58 67.1883 Q1269.44 60.6258 1269.44 49.9314 Q1269.44 39.2371 1274.58 32.6746 Q1279.77 26.1121 1287.99 26.1121 Q1293.02 26.1121 1296.58 28.0971 Q1300.19 30.0415 1302.53 34.0924 M1277.14 49.9314 Q1277.14 58.1548 1280.5 62.8538 Q1283.9 67.5124 1289.82 67.5124 Q1295.73 67.5124 1299.13 62.8538 Q1302.53 58.1548 1302.53 49.9314 Q1302.53 41.7081 1299.13 37.0496 Q1295.73 32.3505 1289.82 32.3505 Q1283.9 32.3505 1280.5 37.0496 Q1277.14 41.7081 1277.14 49.9314 Z" fill="#000000" fill-rule="evenodd" fill-opacity="1" /><path clip-path="url(#clip050)" d="M1359.81 86.3491 L1359.81 92.1419 L1316.71 92.1419 L1316.71 86.3491 L1359.81 86.3491 Z" fill="#000000" fill-rule="evenodd" fill-opacity="1" /><path clip-path="url(#clip050)" d="M1389.79 9.54393 L1389.79 15.7418 L1382.66 15.7418 Q1378.65 15.7418 1377.07 17.3622 Q1375.53 18.9825 1375.53 23.1955 L1375.53 27.2059 L1387.81 27.2059 L1387.81 32.9987 L1375.53 32.9987 L1375.53 72.576 L1368.04 72.576 L1368.04 32.9987 L1360.91 32.9987 L1360.91 27.2059 L1368.04 27.2059 L1368.04 24.0462 Q1368.04 16.471 1371.56 13.0277 Q1375.09 9.54393 1382.74 9.54393 L1389.79 9.54393 Z" fill="#000000" fill-rule="evenodd" fill-opacity="1" /><path clip-path="url(#clip050)" d="M1413.61 32.4315 Q1407.62 32.4315 1404.13 37.1306 Q1400.65 41.7891 1400.65 49.9314 Q1400.65 58.0738 1404.09 62.7728 Q1407.57 67.4314 1413.61 67.4314 Q1419.57 67.4314 1423.05 62.7323 Q1426.53 58.0333 1426.53 49.9314 Q1426.53 41.8701 1423.05 37.1711 Q1419.57 32.4315 1413.61 32.4315 M1413.61 26.1121 Q1423.33 26.1121 1428.88 32.4315 Q1434.43 38.7509 1434.43 49.9314 Q1434.43 61.0714 1428.88 67.4314 Q1423.33 73.7508 1413.61 73.7508 Q1403.85 73.7508 1398.3 67.4314 Q1392.79 61.0714 1392.79 49.9314 Q1392.79 38.7509 1398.3 32.4315 Q1403.85 26.1121 1413.61 26.1121 Z" fill="#000000" fill-rule="evenodd" fill-opacity="1" /><path clip-path="url(#clip050)" d="M1473.08 34.1734 Q1471.82 33.4443 1470.32 33.1202 Q1468.87 32.7556 1467.08 32.7556 Q1460.76 32.7556 1457.36 36.8875 Q1454 40.9789 1454 48.6757 L1454 72.576 L1446.5 72.576 L1446.5 27.2059 L1454 27.2059 L1454 34.2544 Q1456.35 30.1225 1460.12 28.1376 Q1463.88 26.1121 1469.27 26.1121 Q1470.04 26.1121 1470.97 26.2337 Q1471.9 26.3147 1473.04 26.5172 L1473.08 34.1734 Z" fill="#000000" fill-rule="evenodd" fill-opacity="1" /><path clip-path="url(#clip050)" d="M1511.72 28.9478 L1511.72 35.9153 Q1508.56 34.1734 1505.36 33.3227 Q1502.2 32.4315 1498.96 32.4315 Q1491.71 32.4315 1487.7 37.0496 Q1483.69 41.6271 1483.69 49.9314 Q1483.69 58.2358 1487.7 62.8538 Q1491.71 67.4314 1498.96 67.4314 Q1502.2 67.4314 1505.36 66.5807 Q1508.56 65.6895 1511.72 63.9476 L1511.72 70.8341 Q1508.6 72.2924 1505.24 73.0216 Q1501.92 73.7508 1498.15 73.7508 Q1487.9 73.7508 1481.87 67.3098 Q1475.83 60.8689 1475.83 49.9314 Q1475.83 38.832 1481.91 32.472 Q1488.03 26.1121 1498.64 26.1121 Q1502.08 26.1121 1505.36 26.8413 Q1508.64 27.5299 1511.72 28.9478 Z" fill="#000000" fill-rule="evenodd" fill-opacity="1" /><path clip-path="url(#clip050)" d="M1563.49 48.0275 L1563.49 51.6733 L1529.22 51.6733 Q1529.71 59.3701 1533.84 63.421 Q1538.01 67.4314 1545.43 67.4314 Q1549.72 67.4314 1553.73 66.3781 Q1557.78 65.3249 1561.75 63.2184 L1561.75 70.267 Q1557.74 71.9684 1553.53 72.8596 Q1549.32 73.7508 1544.98 73.7508 Q1534.13 73.7508 1527.77 67.4314 Q1521.45 61.1119 1521.45 50.3365 Q1521.45 39.1965 1527.44 32.6746 Q1533.48 26.1121 1543.69 26.1121 Q1552.84 26.1121 1558.15 32.0264 Q1563.49 37.9003 1563.49 48.0275 M1556.04 45.84 Q1555.96 39.7232 1552.6 36.0774 Q1549.28 32.4315 1543.77 32.4315 Q1537.53 32.4315 1533.76 35.9558 Q1530.03 39.4801 1529.47 45.8805 L1556.04 45.84 Z" fill="#000000" fill-rule="evenodd" fill-opacity="1" /><path clip-path="url(#clip050)" d="M1619.68 32.4315 Q1613.68 32.4315 1610.2 37.1306 Q1606.72 41.7891 1606.72 49.9314 Q1606.72 58.0738 1610.16 62.7728 Q1613.64 67.4314 1619.68 67.4314 Q1625.64 67.4314 1629.12 62.7323 Q1632.6 58.0333 1632.6 49.9314 Q1632.6 41.8701 1629.12 37.1711 Q1625.64 32.4315 1619.68 32.4315 M1619.68 26.1121 Q1629.4 26.1121 1634.95 32.4315 Q1640.5 38.7509 1640.5 49.9314 Q1640.5 61.0714 1634.95 67.4314 Q1629.4 73.7508 1619.68 73.7508 Q1609.92 73.7508 1604.37 67.4314 Q1598.86 61.0714 1598.86 49.9314 Q1598.86 38.7509 1604.37 32.4315 Q1609.92 26.1121 1619.68 26.1121 Z" fill="#000000" fill-rule="evenodd" fill-opacity="1" /><path clip-path="url(#clip050)" d="M1690.57 45.1919 L1690.57 72.576 L1683.12 72.576 L1683.12 45.4349 Q1683.12 38.994 1680.61 35.7938 Q1678.09 32.5936 1673.07 32.5936 Q1667.04 32.5936 1663.55 36.4419 Q1660.07 40.2903 1660.07 46.9338 L1660.07 72.576 L1652.57 72.576 L1652.57 27.2059 L1660.07 27.2059 L1660.07 34.2544 Q1662.74 30.163 1666.35 28.1376 Q1669.99 26.1121 1674.73 26.1121 Q1682.55 26.1121 1686.56 30.9732 Q1690.57 35.7938 1690.57 45.1919 Z" fill="#000000" fill-rule="evenodd" fill-opacity="1" /><path clip-path="url(#clip050)" d="M1732.13 12.096 L1740.32 12.096 L1740.32 65.6895 L1769.77 65.6895 L1769.77 72.576 L1732.13 72.576 L1732.13 12.096 Z" fill="#000000" fill-rule="evenodd" fill-opacity="1" /><path clip-path="url(#clip050)" d="M1778.35 12.096 L1786.54 12.096 L1786.54 68.3631 Q1786.54 79.3005 1782.36 84.2426 Q1778.23 89.1847 1769.04 89.1847 L1765.92 89.1847 L1765.92 82.2982 L1768.47 82.2982 Q1773.9 82.2982 1776.13 79.26 Q1778.35 76.2218 1778.35 68.3631 L1778.35 12.096 Z" fill="#000000" fill-rule="evenodd" fill-opacity="1" /><path clip-path="url(#clip050)" d="M1874.48 16.7545 L1874.48 25.383 Q1870.35 21.5346 1865.65 19.6307 Q1860.99 17.7268 1855.73 17.7268 Q1845.36 17.7268 1839.85 24.0867 Q1834.34 30.4061 1834.34 42.3968 Q1834.34 54.3469 1839.85 60.7069 Q1845.36 67.0263 1855.73 67.0263 Q1860.99 67.0263 1865.65 65.1223 Q1870.35 63.2184 1874.48 59.3701 L1874.48 67.9175 Q1870.19 70.8341 1865.37 72.2924 Q1860.59 73.7508 1855.24 73.7508 Q1841.51 73.7508 1833.61 65.3654 Q1825.71 56.9395 1825.71 42.3968 Q1825.71 27.8135 1833.61 19.4281 Q1841.51 11.0023 1855.24 11.0023 Q1860.67 11.0023 1865.45 12.4606 Q1870.27 13.8784 1874.48 16.7545 Z" fill="#000000" fill-rule="evenodd" fill-opacity="1" /><path clip-path="url(#clip050)" d="M1886.8 9.54393 L1894.25 9.54393 L1894.25 72.576 L1886.8 72.576 L1886.8 9.54393 Z" fill="#000000" fill-rule="evenodd" fill-opacity="1" /><path clip-path="url(#clip050)" d="M1909.08 54.671 L1909.08 27.2059 L1916.53 27.2059 L1916.53 54.3874 Q1916.53 60.8284 1919.04 64.0691 Q1921.55 67.2693 1926.58 67.2693 Q1932.61 67.2693 1936.1 63.421 Q1939.62 59.5726 1939.62 52.9291 L1939.62 27.2059 L1947.07 27.2059 L1947.07 72.576 L1939.62 72.576 L1939.62 65.6084 Q1936.91 69.7404 1933.3 71.7658 Q1929.74 73.7508 1925 73.7508 Q1917.18 73.7508 1913.13 68.8897 Q1909.08 64.0286 1909.08 54.671 M1927.83 26.1121 L1927.83 26.1121 Z" fill="#000000" fill-rule="evenodd" fill-opacity="1" /><path clip-path="url(#clip050)" d="M1991.35 28.5427 L1991.35 35.5912 Q1988.19 33.9709 1984.79 33.1607 Q1981.39 32.3505 1977.74 32.3505 Q1972.19 32.3505 1969.39 34.0519 Q1966.64 35.7533 1966.64 39.156 Q1966.64 41.7486 1968.63 43.2475 Q1970.61 44.7058 1976.61 46.0426 L1979.16 46.6097 Q1987.1 48.3111 1990.42 51.4303 Q1993.78 54.509 1993.78 60.0587 Q1993.78 66.3781 1988.76 70.0644 Q1983.78 73.7508 1975.03 73.7508 Q1971.38 73.7508 1967.41 73.0216 Q1963.48 72.3329 1959.11 70.9151 L1959.11 63.2184 Q1963.24 65.3654 1967.25 66.4591 Q1971.26 67.5124 1975.19 67.5124 Q1980.45 67.5124 1983.29 65.73 Q1986.13 63.9071 1986.13 60.6258 Q1986.13 57.5877 1984.06 55.9673 Q1982.03 54.3469 1975.11 52.8481 L1972.51 52.2405 Q1965.59 50.7821 1962.51 47.7845 Q1959.43 44.7463 1959.43 39.4801 Q1959.43 33.0797 1963.97 29.5959 Q1968.5 26.1121 1976.85 26.1121 Q1980.98 26.1121 1984.63 26.7198 Q1988.27 27.3274 1991.35 28.5427 Z" fill="#000000" fill-rule="evenodd" fill-opacity="1" /><path clip-path="url(#clip050)" d="M2013.02 14.324 L2013.02 27.2059 L2028.38 27.2059 L2028.38 32.9987 L2013.02 32.9987 L2013.02 57.6282 Q2013.02 63.1779 2014.52 64.7578 Q2016.06 66.3376 2020.72 66.3376 L2028.38 66.3376 L2028.38 72.576 L2020.72 72.576 Q2012.09 72.576 2008.81 69.3758 Q2005.53 66.1351 2005.53 57.6282 L2005.53 32.9987 L2000.06 32.9987 L2000.06 27.2059 L2005.53 27.2059 L2005.53 14.324 L2013.02 14.324 Z" fill="#000000" fill-rule="evenodd" fill-opacity="1" /><path clip-path="url(#clip050)" d="M2076.99 48.0275 L2076.99 51.6733 L2042.72 51.6733 Q2043.2 59.3701 2047.33 63.421 Q2051.51 67.4314 2058.92 67.4314 Q2063.21 67.4314 2067.22 66.3781 Q2071.28 65.3249 2075.24 63.2184 L2075.24 70.267 Q2071.23 71.9684 2067.02 72.8596 Q2062.81 73.7508 2058.47 73.7508 Q2047.62 73.7508 2041.26 67.4314 Q2034.94 61.1119 2034.94 50.3365 Q2034.94 39.1965 2040.93 32.6746 Q2046.97 26.1121 2057.18 26.1121 Q2066.33 26.1121 2071.64 32.0264 Q2076.99 37.9003 2076.99 48.0275 M2069.53 45.84 Q2069.45 39.7232 2066.09 36.0774 Q2062.77 32.4315 2057.26 32.4315 Q2051.02 32.4315 2047.25 35.9558 Q2043.53 39.4801 2042.96 45.8805 L2069.53 45.84 Z" fill="#000000" fill-rule="evenodd" fill-opacity="1" /><path clip-path="url(#clip050)" d="M2115.51 34.1734 Q2114.26 33.4443 2112.76 33.1202 Q2111.3 32.7556 2109.52 32.7556 Q2103.2 32.7556 2099.79 36.8875 Q2096.43 40.9789 2096.43 48.6757 L2096.43 72.576 L2088.94 72.576 L2088.94 27.2059 L2096.43 27.2059 L2096.43 34.2544 Q2098.78 30.1225 2102.55 28.1376 Q2106.32 26.1121 2111.7 26.1121 Q2112.47 26.1121 2113.4 26.2337 Q2114.34 26.3147 2115.47 26.5172 L2115.51 34.1734 Z" fill="#000000" fill-rule="evenodd" fill-opacity="1" /><path clip-path="url(#clip050)" d="M2152.25 28.5427 L2152.25 35.5912 Q2149.09 33.9709 2145.69 33.1607 Q2142.29 32.3505 2138.64 32.3505 Q2133.09 32.3505 2130.3 34.0519 Q2127.54 35.7533 2127.54 39.156 Q2127.54 41.7486 2129.53 43.2475 Q2131.51 44.7058 2137.51 46.0426 L2140.06 46.6097 Q2148 48.3111 2151.32 51.4303 Q2154.68 54.509 2154.68 60.0587 Q2154.68 66.3781 2149.66 70.0644 Q2144.68 73.7508 2135.93 73.7508 Q2132.28 73.7508 2128.31 73.0216 Q2124.38 72.3329 2120.01 70.9151 L2120.01 63.2184 Q2124.14 65.3654 2128.15 66.4591 Q2132.16 67.5124 2136.09 67.5124 Q2141.36 67.5124 2144.19 65.73 Q2147.03 63.9071 2147.03 60.6258 Q2147.03 57.5877 2144.96 55.9673 Q2142.94 54.3469 2136.01 52.8481 L2133.42 52.2405 Q2126.49 50.7821 2123.41 47.7845 Q2120.33 44.7463 2120.33 39.4801 Q2120.33 33.0797 2124.87 29.5959 Q2129.41 26.1121 2137.75 26.1121 Q2141.88 26.1121 2145.53 26.7198 Q2149.17 27.3274 2152.25 28.5427 Z" fill="#000000" fill-rule="evenodd" fill-opacity="1" /><polyline clip-path="url(#clip052)" style="stroke:#009af9; stroke-linecap:butt; stroke-linejoin:round; stroke-width:4; stroke-opacity:1; fill:none" points="
  265.903,1386.4 317.854,1384.69 369.804,1381.69 421.755,1377.43 473.705,1371.79 525.656,1364.82 577.606,1356.22 629.557,1345.92 681.507,1333.22 733.458,1318.22 
  785.408,1303.63 837.359,1278.64 889.309,1268.47 941.26,1242.47 993.211,1216.75 1045.16,1207.4 1097.11,1157.04 1149.06,1152.19 1201.01,1116.32 1252.96,1024.37 
  1304.91,1032.19 1356.86,974.66 1408.81,941.651 1460.77,905.599 1512.72,865.596 1564.67,805.773 1616.62,808.166 1668.57,783.588 1720.52,756.892 1772.47,707.765 
  1824.42,655.15 1876.37,611.131 1928.32,559.998 1980.27,509.636 2032.22,446.279 2084.17,394.331 2136.12,337.003 2188.07,276.558 2240.02,214.096 2291.97,160.256 
  
  "/>
<circle clip-path="url(#clip052)" cx="265.903" cy="1386.4" r="14" fill="#009af9" fill-rule="evenodd" fill-opacity="1" stroke="#000000" stroke-opacity="1" stroke-width="3.2"/>
<circle clip-path="url(#clip052)" cx="317.854" cy="1384.69" r="14" fill="#009af9" fill-rule="evenodd" fill-opacity="1" stroke="#000000" stroke-opacity="1" stroke-width="3.2"/>
<circle clip-path="url(#clip052)" cx="369.804" cy="1381.69" r="14" fill="#009af9" fill-rule="evenodd" fill-opacity="1" stroke="#000000" stroke-opacity="1" stroke-width="3.2"/>
<circle clip-path="url(#clip052)" cx="421.755" cy="1377.43" r="14" fill="#009af9" fill-rule="evenodd" fill-opacity="1" stroke="#000000" stroke-opacity="1" stroke-width="3.2"/>
<circle clip-path="url(#clip052)" cx="473.705" cy="1371.79" r="14" fill="#009af9" fill-rule="evenodd" fill-opacity="1" stroke="#000000" stroke-opacity="1" stroke-width="3.2"/>
<circle clip-path="url(#clip052)" cx="525.656" cy="1364.82" r="14" fill="#009af9" fill-rule="evenodd" fill-opacity="1" stroke="#000000" stroke-opacity="1" stroke-width="3.2"/>
<circle clip-path="url(#clip052)" cx="577.606" cy="1356.22" r="14" fill="#009af9" fill-rule="evenodd" fill-opacity="1" stroke="#000000" stroke-opacity="1" stroke-width="3.2"/>
<circle clip-path="url(#clip052)" cx="629.557" cy="1345.92" r="14" fill="#009af9" fill-rule="evenodd" fill-opacity="1" stroke="#000000" stroke-opacity="1" stroke-width="3.2"/>
<circle clip-path="url(#clip052)" cx="681.507" cy="1333.22" r="14" fill="#009af9" fill-rule="evenodd" fill-opacity="1" stroke="#000000" stroke-opacity="1" stroke-width="3.2"/>
<circle clip-path="url(#clip052)" cx="733.458" cy="1318.22" r="14" fill="#009af9" fill-rule="evenodd" fill-opacity="1" stroke="#000000" stroke-opacity="1" stroke-width="3.2"/>
<circle clip-path="url(#clip052)" cx="785.408" cy="1303.63" r="14" fill="#009af9" fill-rule="evenodd" fill-opacity="1" stroke="#000000" stroke-opacity="1" stroke-width="3.2"/>
<circle clip-path="url(#clip052)" cx="837.359" cy="1278.64" r="14" fill="#009af9" fill-rule="evenodd" fill-opacity="1" stroke="#000000" stroke-opacity="1" stroke-width="3.2"/>
<circle clip-path="url(#clip052)" cx="889.309" cy="1268.47" r="14" fill="#009af9" fill-rule="evenodd" fill-opacity="1" stroke="#000000" stroke-opacity="1" stroke-width="3.2"/>
<circle clip-path="url(#clip052)" cx="941.26" cy="1242.47" r="14" fill="#009af9" fill-rule="evenodd" fill-opacity="1" stroke="#000000" stroke-opacity="1" stroke-width="3.2"/>
<circle clip-path="url(#clip052)" cx="993.211" cy="1216.75" r="14" fill="#009af9" fill-rule="evenodd" fill-opacity="1" stroke="#000000" stroke-opacity="1" stroke-width="3.2"/>
<circle clip-path="url(#clip052)" cx="1045.16" cy="1207.4" r="14" fill="#009af9" fill-rule="evenodd" fill-opacity="1" stroke="#000000" stroke-opacity="1" stroke-width="3.2"/>
<circle clip-path="url(#clip052)" cx="1097.11" cy="1157.04" r="14" fill="#009af9" fill-rule="evenodd" fill-opacity="1" stroke="#000000" stroke-opacity="1" stroke-width="3.2"/>
<circle clip-path="url(#clip052)" cx="1149.06" cy="1152.19" r="14" fill="#009af9" fill-rule="evenodd" fill-opacity="1" stroke="#000000" stroke-opacity="1" stroke-width="3.2"/>
<circle clip-path="url(#clip052)" cx="1201.01" cy="1116.32" r="14" fill="#009af9" fill-rule="evenodd" fill-opacity="1" stroke="#000000" stroke-opacity="1" stroke-width="3.2"/>
<circle clip-path="url(#clip052)" cx="1252.96" cy="1024.37" r="14" fill="#009af9" fill-rule="evenodd" fill-opacity="1" stroke="#000000" stroke-opacity="1" stroke-width="3.2"/>
<circle clip-path="url(#clip052)" cx="1304.91" cy="1032.19" r="14" fill="#009af9" fill-rule="evenodd" fill-opacity="1" stroke="#000000" stroke-opacity="1" stroke-width="3.2"/>
<circle clip-path="url(#clip052)" cx="1356.86" cy="974.66" r="14" fill="#009af9" fill-rule="evenodd" fill-opacity="1" stroke="#000000" stroke-opacity="1" stroke-width="3.2"/>
<circle clip-path="url(#clip052)" cx="1408.81" cy="941.651" r="14" fill="#009af9" fill-rule="evenodd" fill-opacity="1" stroke="#000000" stroke-opacity="1" stroke-width="3.2"/>
<circle clip-path="url(#clip052)" cx="1460.77" cy="905.599" r="14" fill="#009af9" fill-rule="evenodd" fill-opacity="1" stroke="#000000" stroke-opacity="1" stroke-width="3.2"/>
<circle clip-path="url(#clip052)" cx="1512.72" cy="865.596" r="14" fill="#009af9" fill-rule="evenodd" fill-opacity="1" stroke="#000000" stroke-opacity="1" stroke-width="3.2"/>
<circle clip-path="url(#clip052)" cx="1564.67" cy="805.773" r="14" fill="#009af9" fill-rule="evenodd" fill-opacity="1" stroke="#000000" stroke-opacity="1" stroke-width="3.2"/>
<circle clip-path="url(#clip052)" cx="1616.62" cy="808.166" r="14" fill="#009af9" fill-rule="evenodd" fill-opacity="1" stroke="#000000" stroke-opacity="1" stroke-width="3.2"/>
<circle clip-path="url(#clip052)" cx="1668.57" cy="783.588" r="14" fill="#009af9" fill-rule="evenodd" fill-opacity="1" stroke="#000000" stroke-opacity="1" stroke-width="3.2"/>
<circle clip-path="url(#clip052)" cx="1720.52" cy="756.892" r="14" fill="#009af9" fill-rule="evenodd" fill-opacity="1" stroke="#000000" stroke-opacity="1" stroke-width="3.2"/>
<circle clip-path="url(#clip052)" cx="1772.47" cy="707.765" r="14" fill="#009af9" fill-rule="evenodd" fill-opacity="1" stroke="#000000" stroke-opacity="1" stroke-width="3.2"/>
<circle clip-path="url(#clip052)" cx="1824.42" cy="655.15" r="14" fill="#009af9" fill-rule="evenodd" fill-opacity="1" stroke="#000000" stroke-opacity="1" stroke-width="3.2"/>
<circle clip-path="url(#clip052)" cx="1876.37" cy="611.131" r="14" fill="#009af9" fill-rule="evenodd" fill-opacity="1" stroke="#000000" stroke-opacity="1" stroke-width="3.2"/>
<circle clip-path="url(#clip052)" cx="1928.32" cy="559.998" r="14" fill="#009af9" fill-rule="evenodd" fill-opacity="1" stroke="#000000" stroke-opacity="1" stroke-width="3.2"/>
<circle clip-path="url(#clip052)" cx="1980.27" cy="509.636" r="14" fill="#009af9" fill-rule="evenodd" fill-opacity="1" stroke="#000000" stroke-opacity="1" stroke-width="3.2"/>
<circle clip-path="url(#clip052)" cx="2032.22" cy="446.279" r="14" fill="#009af9" fill-rule="evenodd" fill-opacity="1" stroke="#000000" stroke-opacity="1" stroke-width="3.2"/>
<circle clip-path="url(#clip052)" cx="2084.17" cy="394.331" r="14" fill="#009af9" fill-rule="evenodd" fill-opacity="1" stroke="#000000" stroke-opacity="1" stroke-width="3.2"/>
<circle clip-path="url(#clip052)" cx="2136.12" cy="337.003" r="14" fill="#009af9" fill-rule="evenodd" fill-opacity="1" stroke="#000000" stroke-opacity="1" stroke-width="3.2"/>
<circle clip-path="url(#clip052)" cx="2188.07" cy="276.558" r="14" fill="#009af9" fill-rule="evenodd" fill-opacity="1" stroke="#000000" stroke-opacity="1" stroke-width="3.2"/>
<circle clip-path="url(#clip052)" cx="2240.02" cy="214.096" r="14" fill="#009af9" fill-rule="evenodd" fill-opacity="1" stroke="#000000" stroke-opacity="1" stroke-width="3.2"/>
<circle clip-path="url(#clip052)" cx="2291.97" cy="160.256" r="14" fill="#009af9" fill-rule="evenodd" fill-opacity="1" stroke="#000000" stroke-opacity="1" stroke-width="3.2"/>
</svg>
